<svg id="Layer_1" data-name="Layer 1" xmlns="http://www.w3.org/2000/svg" xmlns:xlink="http://www.w3.org/1999/xlink" viewBox="0 0 256 256"><defs><style>.cls-1{fill:none;}.cls-10,.cls-2{fill:#253759;}.cls-3{clip-path:url(#clip-path);}.cls-4{clip-path:url(#clip-path-2);}.cls-5{fill:#f2f2f2;}.cls-6{fill:#a6d5fe;}.cls-7{fill:url(#New_Pattern_Swatch_1);}.cls-8{fill:#fff;}.cls-9{fill:url(#New_Pattern_Swatch_1-3);}.cls-10{opacity:0.3;}</style><clipPath id="clip-path"><rect class="cls-1" x="42.85" width="43" height="43"/></clipPath><clipPath id="clip-path-2"><rect class="cls-1" x="-0.05" width="43" height="43"/></clipPath><pattern id="New_Pattern_Swatch_1" data-name="New Pattern Swatch 1" width="42.9" height="43" patternTransform="translate(0 575.63)" patternUnits="userSpaceOnUse" viewBox="0 0 42.9 43"><rect class="cls-1" width="42.9" height="43"/><circle class="cls-2" cx="42.91" cy="1.85" r="0.57"/><circle class="cls-2" cx="42.91" cy="5.42" r="0.57"/><circle class="cls-2" cx="42.91" cy="8.99" r="0.57"/><circle class="cls-2" cx="42.91" cy="12.57" r="0.57"/><circle class="cls-2" cx="42.91" cy="16.14" r="0.57"/><circle class="cls-2" cx="42.91" cy="19.71" r="0.57"/><circle class="cls-2" cx="42.91" cy="23.29" r="0.57"/><circle class="cls-2" cx="42.91" cy="26.86" r="0.57"/><circle class="cls-2" cx="42.91" cy="30.43" r="0.57"/><circle class="cls-2" cx="42.91" cy="34.01" r="0.57"/><circle class="cls-2" cx="42.91" cy="37.58" r="0.57"/><circle class="cls-2" cx="42.91" cy="41.15" r="0.57"/><circle class="cls-2" cx="42.89" cy="1.85" r="0.57"/><circle class="cls-2" cx="42.89" cy="5.42" r="0.57"/><circle class="cls-2" cx="42.89" cy="8.99" r="0.57"/><circle class="cls-2" cx="42.89" cy="12.57" r="0.57"/><circle class="cls-2" cx="42.89" cy="16.14" r="0.57"/><circle class="cls-2" cx="42.89" cy="19.71" r="0.57"/><circle class="cls-2" cx="42.89" cy="23.29" r="0.57"/><circle class="cls-2" cx="42.89" cy="26.86" r="0.57"/><circle class="cls-2" cx="42.89" cy="30.43" r="0.57"/><circle class="cls-2" cx="42.89" cy="34.01" r="0.57"/><circle class="cls-2" cx="42.89" cy="37.58" r="0.57"/><circle class="cls-2" cx="42.89" cy="41.15" r="0.57"/><g class="cls-3"><circle class="cls-2" cx="42.81" cy="1.85" r="0.57"/><circle class="cls-2" cx="42.81" cy="5.42" r="0.57"/><circle class="cls-2" cx="42.81" cy="8.99" r="0.57"/><circle class="cls-2" cx="42.81" cy="12.57" r="0.57"/><circle class="cls-2" cx="42.81" cy="16.14" r="0.57"/><circle class="cls-2" cx="42.81" cy="19.71" r="0.57"/><circle class="cls-2" cx="42.81" cy="23.29" r="0.57"/><circle class="cls-2" cx="42.81" cy="26.86" r="0.57"/><circle class="cls-2" cx="42.81" cy="30.43" r="0.57"/><circle class="cls-2" cx="42.81" cy="34.01" r="0.57"/><circle class="cls-2" cx="42.81" cy="37.58" r="0.57"/><circle class="cls-2" cx="42.81" cy="41.15" r="0.57"/><circle class="cls-2" cx="42.79" cy="1.85" r="0.57"/><circle class="cls-2" cx="42.79" cy="5.42" r="0.57"/><circle class="cls-2" cx="42.79" cy="8.99" r="0.57"/><circle class="cls-2" cx="42.79" cy="12.57" r="0.57"/><circle class="cls-2" cx="42.79" cy="16.14" r="0.57"/><circle class="cls-2" cx="42.79" cy="19.71" r="0.57"/><circle class="cls-2" cx="42.79" cy="23.29" r="0.57"/><circle class="cls-2" cx="42.79" cy="26.86" r="0.57"/><circle class="cls-2" cx="42.79" cy="30.43" r="0.57"/><circle class="cls-2" cx="42.79" cy="34.01" r="0.57"/><circle class="cls-2" cx="42.79" cy="37.58" r="0.57"/><circle class="cls-2" cx="42.79" cy="41.15" r="0.57"/></g><circle class="cls-2" cx="42.91" cy="1.85" r="0.57"/><circle class="cls-2" cx="42.91" cy="5.42" r="0.57"/><circle class="cls-2" cx="42.91" cy="8.99" r="0.57"/><circle class="cls-2" cx="42.91" cy="12.57" r="0.57"/><circle class="cls-2" cx="42.91" cy="16.14" r="0.57"/><circle class="cls-2" cx="42.91" cy="19.71" r="0.57"/><circle class="cls-2" cx="42.91" cy="23.29" r="0.57"/><circle class="cls-2" cx="42.91" cy="26.86" r="0.57"/><circle class="cls-2" cx="42.91" cy="30.43" r="0.57"/><circle class="cls-2" cx="42.91" cy="34.01" r="0.57"/><circle class="cls-2" cx="42.91" cy="37.58" r="0.57"/><circle class="cls-2" cx="42.91" cy="41.15" r="0.57"/><circle class="cls-2" cx="0.01" cy="1.85" r="0.57"/><circle class="cls-2" cx="3.59" cy="1.85" r="0.57"/><circle class="cls-2" cx="7.16" cy="1.85" r="0.57"/><circle class="cls-2" cx="10.73" cy="1.85" r="0.57"/><circle class="cls-2" cx="0.01" cy="5.42" r="0.57"/><circle class="cls-2" cx="3.59" cy="5.42" r="0.57"/><circle class="cls-2" cx="7.16" cy="5.42" r="0.57"/><circle class="cls-2" cx="10.73" cy="5.42" r="0.57"/><circle class="cls-2" cx="0.01" cy="8.99" r="0.57"/><circle class="cls-2" cx="3.59" cy="8.99" r="0.57"/><circle class="cls-2" cx="7.16" cy="8.99" r="0.57"/><circle class="cls-2" cx="10.73" cy="8.99" r="0.57"/><circle class="cls-2" cx="0.01" cy="12.57" r="0.57"/><circle class="cls-2" cx="3.59" cy="12.57" r="0.57"/><circle class="cls-2" cx="7.16" cy="12.57" r="0.57"/><circle class="cls-2" cx="10.73" cy="12.57" r="0.57"/><circle class="cls-2" cx="0.01" cy="16.14" r="0.57"/><circle class="cls-2" cx="3.59" cy="16.14" r="0.57"/><circle class="cls-2" cx="7.16" cy="16.14" r="0.57"/><circle class="cls-2" cx="10.73" cy="16.14" r="0.57"/><circle class="cls-2" cx="0.01" cy="19.71" r="0.57"/><circle class="cls-2" cx="3.59" cy="19.71" r="0.57"/><circle class="cls-2" cx="7.16" cy="19.71" r="0.57"/><circle class="cls-2" cx="10.73" cy="19.71" r="0.57"/><circle class="cls-2" cx="14.3" cy="1.85" r="0.57"/><circle class="cls-2" cx="17.88" cy="1.85" r="0.57"/><circle class="cls-2" cx="21.45" cy="1.85" r="0.57"/><circle class="cls-2" cx="25.02" cy="1.85" r="0.57"/><circle class="cls-2" cx="28.6" cy="1.85" r="0.57"/><circle class="cls-2" cx="14.3" cy="5.42" r="0.57"/><circle class="cls-2" cx="17.88" cy="5.42" r="0.57"/><circle class="cls-2" cx="21.45" cy="5.42" r="0.57"/><circle class="cls-2" cx="25.02" cy="5.42" r="0.57"/><circle class="cls-2" cx="28.6" cy="5.42" r="0.57"/><circle class="cls-2" cx="14.3" cy="8.99" r="0.57"/><circle class="cls-2" cx="17.88" cy="8.99" r="0.57"/><circle class="cls-2" cx="21.45" cy="8.99" r="0.57"/><circle class="cls-2" cx="25.02" cy="8.99" r="0.57"/><circle class="cls-2" cx="28.6" cy="8.99" r="0.57"/><circle class="cls-2" cx="14.3" cy="12.57" r="0.57"/><circle class="cls-2" cx="17.88" cy="12.57" r="0.57"/><circle class="cls-2" cx="21.45" cy="12.57" r="0.57"/><circle class="cls-2" cx="25.02" cy="12.57" r="0.57"/><circle class="cls-2" cx="28.6" cy="12.57" r="0.57"/><circle class="cls-2" cx="14.3" cy="16.14" r="0.57"/><circle class="cls-2" cx="17.88" cy="16.14" r="0.57"/><circle class="cls-2" cx="21.45" cy="16.14" r="0.57"/><circle class="cls-2" cx="25.02" cy="16.14" r="0.57"/><circle class="cls-2" cx="28.6" cy="16.14" r="0.57"/><circle class="cls-2" cx="14.3" cy="19.71" r="0.57"/><circle class="cls-2" cx="17.88" cy="19.71" r="0.57"/><circle class="cls-2" cx="21.45" cy="19.71" r="0.57"/><circle class="cls-2" cx="25.02" cy="19.71" r="0.57"/><circle class="cls-2" cx="28.6" cy="19.71" r="0.57"/><circle class="cls-2" cx="32.17" cy="1.85" r="0.57"/><circle class="cls-2" cx="35.74" cy="1.85" r="0.57"/><circle class="cls-2" cx="39.31" cy="1.85" r="0.57"/><circle class="cls-2" cx="42.89" cy="1.85" r="0.57"/><circle class="cls-2" cx="32.17" cy="5.42" r="0.57"/><circle class="cls-2" cx="35.74" cy="5.42" r="0.57"/><circle class="cls-2" cx="39.31" cy="5.42" r="0.57"/><circle class="cls-2" cx="42.89" cy="5.42" r="0.57"/><circle class="cls-2" cx="32.17" cy="8.99" r="0.57"/><circle class="cls-2" cx="35.74" cy="8.99" r="0.57"/><circle class="cls-2" cx="39.31" cy="8.99" r="0.57"/><circle class="cls-2" cx="42.89" cy="8.99" r="0.57"/><circle class="cls-2" cx="32.17" cy="12.57" r="0.57"/><circle class="cls-2" cx="35.74" cy="12.57" r="0.57"/><circle class="cls-2" cx="39.31" cy="12.57" r="0.57"/><circle class="cls-2" cx="42.89" cy="12.57" r="0.57"/><circle class="cls-2" cx="32.17" cy="16.14" r="0.57"/><circle class="cls-2" cx="35.74" cy="16.14" r="0.57"/><circle class="cls-2" cx="39.31" cy="16.14" r="0.57"/><circle class="cls-2" cx="42.89" cy="16.14" r="0.57"/><circle class="cls-2" cx="32.17" cy="19.71" r="0.57"/><circle class="cls-2" cx="35.74" cy="19.71" r="0.57"/><circle class="cls-2" cx="39.31" cy="19.71" r="0.57"/><circle class="cls-2" cx="42.89" cy="19.71" r="0.57"/><circle class="cls-2" cx="0.01" cy="23.29" r="0.57"/><circle class="cls-2" cx="3.59" cy="23.29" r="0.57"/><circle class="cls-2" cx="7.16" cy="23.29" r="0.57"/><circle class="cls-2" cx="10.73" cy="23.29" r="0.57"/><circle class="cls-2" cx="0.01" cy="26.86" r="0.57"/><circle class="cls-2" cx="3.59" cy="26.86" r="0.57"/><circle class="cls-2" cx="7.16" cy="26.86" r="0.57"/><circle class="cls-2" cx="10.73" cy="26.86" r="0.57"/><circle class="cls-2" cx="0.01" cy="30.43" r="0.57"/><circle class="cls-2" cx="3.59" cy="30.43" r="0.57"/><circle class="cls-2" cx="7.16" cy="30.43" r="0.57"/><circle class="cls-2" cx="10.73" cy="30.43" r="0.57"/><circle class="cls-2" cx="0.01" cy="34.01" r="0.57"/><circle class="cls-2" cx="3.59" cy="34.01" r="0.57"/><circle class="cls-2" cx="7.16" cy="34.01" r="0.57"/><circle class="cls-2" cx="10.73" cy="34.01" r="0.57"/><circle class="cls-2" cx="0.01" cy="37.58" r="0.57"/><circle class="cls-2" cx="3.59" cy="37.58" r="0.57"/><circle class="cls-2" cx="7.16" cy="37.58" r="0.57"/><circle class="cls-2" cx="10.73" cy="37.58" r="0.57"/><circle class="cls-2" cx="0.01" cy="41.15" r="0.57"/><circle class="cls-2" cx="3.59" cy="41.15" r="0.57"/><circle class="cls-2" cx="7.16" cy="41.15" r="0.57"/><circle class="cls-2" cx="10.73" cy="41.15" r="0.57"/><circle class="cls-2" cx="14.3" cy="23.29" r="0.57"/><circle class="cls-2" cx="17.88" cy="23.29" r="0.57"/><circle class="cls-2" cx="21.45" cy="23.29" r="0.57"/><circle class="cls-2" cx="25.02" cy="23.29" r="0.57"/><circle class="cls-2" cx="28.6" cy="23.29" r="0.57"/><circle class="cls-2" cx="14.3" cy="26.86" r="0.57"/><circle class="cls-2" cx="17.88" cy="26.86" r="0.57"/><circle class="cls-2" cx="21.45" cy="26.86" r="0.57"/><circle class="cls-2" cx="25.02" cy="26.86" r="0.57"/><circle class="cls-2" cx="28.6" cy="26.86" r="0.57"/><circle class="cls-2" cx="14.3" cy="30.43" r="0.57"/><circle class="cls-2" cx="17.88" cy="30.43" r="0.57"/><circle class="cls-2" cx="21.45" cy="30.43" r="0.57"/><circle class="cls-2" cx="25.02" cy="30.43" r="0.57"/><circle class="cls-2" cx="28.6" cy="30.43" r="0.57"/><circle class="cls-2" cx="14.3" cy="34.01" r="0.57"/><circle class="cls-2" cx="17.88" cy="34.01" r="0.57"/><circle class="cls-2" cx="21.45" cy="34.01" r="0.57"/><circle class="cls-2" cx="25.02" cy="34.01" r="0.57"/><circle class="cls-2" cx="28.6" cy="34.01" r="0.57"/><circle class="cls-2" cx="14.3" cy="37.58" r="0.57"/><circle class="cls-2" cx="17.88" cy="37.58" r="0.57"/><circle class="cls-2" cx="21.45" cy="37.58" r="0.57"/><circle class="cls-2" cx="25.02" cy="37.58" r="0.57"/><circle class="cls-2" cx="28.6" cy="37.58" r="0.57"/><circle class="cls-2" cx="14.3" cy="41.15" r="0.57"/><circle class="cls-2" cx="17.88" cy="41.15" r="0.57"/><circle class="cls-2" cx="21.45" cy="41.15" r="0.57"/><circle class="cls-2" cx="25.02" cy="41.15" r="0.57"/><circle class="cls-2" cx="28.6" cy="41.15" r="0.57"/><circle class="cls-2" cx="32.17" cy="23.29" r="0.57"/><circle class="cls-2" cx="35.74" cy="23.29" r="0.57"/><circle class="cls-2" cx="39.31" cy="23.29" r="0.57"/><circle class="cls-2" cx="42.89" cy="23.29" r="0.57"/><circle class="cls-2" cx="32.17" cy="26.86" r="0.57"/><circle class="cls-2" cx="35.74" cy="26.86" r="0.57"/><circle class="cls-2" cx="39.31" cy="26.86" r="0.57"/><circle class="cls-2" cx="42.89" cy="26.86" r="0.57"/><circle class="cls-2" cx="32.17" cy="30.43" r="0.57"/><circle class="cls-2" cx="35.74" cy="30.43" r="0.57"/><circle class="cls-2" cx="39.31" cy="30.43" r="0.57"/><circle class="cls-2" cx="42.89" cy="30.43" r="0.57"/><circle class="cls-2" cx="32.17" cy="34.01" r="0.57"/><circle class="cls-2" cx="35.74" cy="34.01" r="0.57"/><circle class="cls-2" cx="39.31" cy="34.01" r="0.57"/><circle class="cls-2" cx="42.89" cy="34.01" r="0.57"/><circle class="cls-2" cx="32.17" cy="37.58" r="0.57"/><circle class="cls-2" cx="35.74" cy="37.58" r="0.57"/><circle class="cls-2" cx="39.31" cy="37.58" r="0.57"/><circle class="cls-2" cx="42.89" cy="37.58" r="0.57"/><circle class="cls-2" cx="32.17" cy="41.15" r="0.57"/><circle class="cls-2" cx="35.74" cy="41.15" r="0.57"/><circle class="cls-2" cx="39.31" cy="41.15" r="0.57"/><circle class="cls-2" cx="42.89" cy="41.15" r="0.57"/><circle class="cls-2" cx="-0.01" cy="1.85" r="0.57"/><circle class="cls-2" cx="-0.01" cy="5.42" r="0.57"/><circle class="cls-2" cx="-0.01" cy="8.99" r="0.57"/><circle class="cls-2" cx="-0.01" cy="12.57" r="0.57"/><circle class="cls-2" cx="-0.01" cy="16.14" r="0.57"/><circle class="cls-2" cx="-0.01" cy="19.71" r="0.57"/><circle class="cls-2" cx="-0.01" cy="23.29" r="0.57"/><circle class="cls-2" cx="-0.01" cy="26.86" r="0.57"/><circle class="cls-2" cx="-0.01" cy="30.43" r="0.57"/><circle class="cls-2" cx="-0.01" cy="34.01" r="0.57"/><circle class="cls-2" cx="-0.01" cy="37.58" r="0.57"/><circle class="cls-2" cx="-0.01" cy="41.15" r="0.57"/><g class="cls-4"><circle class="cls-2" cx="-0.09" cy="1.85" r="0.57"/><circle class="cls-2" cx="-0.09" cy="5.42" r="0.57"/><circle class="cls-2" cx="-0.09" cy="8.99" r="0.57"/><circle class="cls-2" cx="-0.09" cy="12.57" r="0.57"/><circle class="cls-2" cx="-0.09" cy="16.14" r="0.57"/><circle class="cls-2" cx="-0.09" cy="19.71" r="0.57"/><circle class="cls-2" cx="-0.09" cy="23.29" r="0.57"/><circle class="cls-2" cx="-0.09" cy="26.86" r="0.57"/><circle class="cls-2" cx="-0.09" cy="30.43" r="0.57"/><circle class="cls-2" cx="-0.09" cy="34.01" r="0.57"/><circle class="cls-2" cx="-0.09" cy="37.58" r="0.57"/><circle class="cls-2" cx="-0.09" cy="41.15" r="0.57"/><circle class="cls-2" cx="-0.11" cy="1.85" r="0.57"/><circle class="cls-2" cx="-0.11" cy="5.42" r="0.57"/><circle class="cls-2" cx="-0.11" cy="8.99" r="0.57"/><circle class="cls-2" cx="-0.11" cy="12.57" r="0.57"/><circle class="cls-2" cx="-0.11" cy="16.14" r="0.57"/><circle class="cls-2" cx="-0.11" cy="19.71" r="0.57"/><circle class="cls-2" cx="-0.11" cy="23.29" r="0.57"/><circle class="cls-2" cx="-0.11" cy="26.86" r="0.57"/><circle class="cls-2" cx="-0.11" cy="30.43" r="0.57"/><circle class="cls-2" cx="-0.11" cy="34.01" r="0.57"/><circle class="cls-2" cx="-0.11" cy="37.58" r="0.57"/><circle class="cls-2" cx="-0.11" cy="41.15" r="0.57"/></g><circle class="cls-2" cx="0.01" cy="1.85" r="0.57"/><circle class="cls-2" cx="0.01" cy="5.42" r="0.57"/><circle class="cls-2" cx="0.01" cy="8.99" r="0.57"/><circle class="cls-2" cx="0.01" cy="12.57" r="0.57"/><circle class="cls-2" cx="0.01" cy="16.14" r="0.57"/><circle class="cls-2" cx="0.01" cy="19.71" r="0.57"/><circle class="cls-2" cx="0.01" cy="23.29" r="0.57"/><circle class="cls-2" cx="0.01" cy="26.86" r="0.57"/><circle class="cls-2" cx="0.01" cy="30.43" r="0.57"/><circle class="cls-2" cx="0.01" cy="34.01" r="0.57"/><circle class="cls-2" cx="0.01" cy="37.58" r="0.57"/><circle class="cls-2" cx="0.01" cy="41.15" r="0.57"/><circle class="cls-2" cx="-0.01" cy="1.85" r="0.57"/><circle class="cls-2" cx="-0.01" cy="5.42" r="0.57"/><circle class="cls-2" cx="-0.01" cy="8.99" r="0.57"/><circle class="cls-2" cx="-0.01" cy="12.57" r="0.57"/><circle class="cls-2" cx="-0.01" cy="16.14" r="0.57"/><circle class="cls-2" cx="-0.01" cy="19.71" r="0.57"/><circle class="cls-2" cx="-0.01" cy="23.29" r="0.57"/><circle class="cls-2" cx="-0.01" cy="26.86" r="0.57"/><circle class="cls-2" cx="-0.01" cy="30.43" r="0.57"/><circle class="cls-2" cx="-0.01" cy="34.01" r="0.57"/><circle class="cls-2" cx="-0.01" cy="37.58" r="0.57"/><circle class="cls-2" cx="-0.01" cy="41.15" r="0.57"/></pattern><pattern id="New_Pattern_Swatch_1-3" data-name="New Pattern Swatch 1" width="42.9" height="43" patternTransform="translate(0 162)" patternUnits="userSpaceOnUse" viewBox="0 0 42.9 43"><rect class="cls-1" width="42.9" height="43"/><circle class="cls-2" cx="42.91" cy="1.85" r="0.57"/><circle class="cls-2" cx="42.91" cy="5.42" r="0.57"/><circle class="cls-2" cx="42.91" cy="8.99" r="0.57"/><circle class="cls-2" cx="42.91" cy="12.57" r="0.57"/><circle class="cls-2" cx="42.91" cy="16.14" r="0.57"/><circle class="cls-2" cx="42.91" cy="19.71" r="0.57"/><circle class="cls-2" cx="42.91" cy="23.29" r="0.57"/><circle class="cls-2" cx="42.91" cy="26.86" r="0.57"/><circle class="cls-2" cx="42.91" cy="30.43" r="0.57"/><circle class="cls-2" cx="42.91" cy="34.01" r="0.57"/><circle class="cls-2" cx="42.91" cy="37.58" r="0.57"/><circle class="cls-2" cx="42.91" cy="41.15" r="0.57"/><circle class="cls-2" cx="42.89" cy="1.85" r="0.57"/><circle class="cls-2" cx="42.89" cy="5.42" r="0.57"/><circle class="cls-2" cx="42.89" cy="8.99" r="0.57"/><circle class="cls-2" cx="42.89" cy="12.57" r="0.57"/><circle class="cls-2" cx="42.89" cy="16.14" r="0.57"/><circle class="cls-2" cx="42.89" cy="19.71" r="0.57"/><circle class="cls-2" cx="42.89" cy="23.29" r="0.57"/><circle class="cls-2" cx="42.89" cy="26.86" r="0.57"/><circle class="cls-2" cx="42.89" cy="30.43" r="0.57"/><circle class="cls-2" cx="42.89" cy="34.01" r="0.57"/><circle class="cls-2" cx="42.89" cy="37.58" r="0.57"/><circle class="cls-2" cx="42.89" cy="41.15" r="0.57"/><g class="cls-3"><circle class="cls-2" cx="42.81" cy="1.85" r="0.57"/><circle class="cls-2" cx="42.81" cy="5.42" r="0.57"/><circle class="cls-2" cx="42.81" cy="8.99" r="0.57"/><circle class="cls-2" cx="42.81" cy="12.57" r="0.57"/><circle class="cls-2" cx="42.81" cy="16.14" r="0.57"/><circle class="cls-2" cx="42.81" cy="19.71" r="0.57"/><circle class="cls-2" cx="42.81" cy="23.29" r="0.57"/><circle class="cls-2" cx="42.81" cy="26.86" r="0.57"/><circle class="cls-2" cx="42.81" cy="30.43" r="0.57"/><circle class="cls-2" cx="42.81" cy="34.01" r="0.57"/><circle class="cls-2" cx="42.81" cy="37.58" r="0.57"/><circle class="cls-2" cx="42.81" cy="41.15" r="0.57"/><circle class="cls-2" cx="42.79" cy="1.85" r="0.57"/><circle class="cls-2" cx="42.79" cy="5.42" r="0.57"/><circle class="cls-2" cx="42.79" cy="8.99" r="0.57"/><circle class="cls-2" cx="42.79" cy="12.57" r="0.57"/><circle class="cls-2" cx="42.79" cy="16.14" r="0.57"/><circle class="cls-2" cx="42.79" cy="19.71" r="0.57"/><circle class="cls-2" cx="42.79" cy="23.29" r="0.57"/><circle class="cls-2" cx="42.79" cy="26.86" r="0.57"/><circle class="cls-2" cx="42.79" cy="30.43" r="0.57"/><circle class="cls-2" cx="42.79" cy="34.01" r="0.57"/><circle class="cls-2" cx="42.79" cy="37.58" r="0.57"/><circle class="cls-2" cx="42.79" cy="41.15" r="0.57"/></g><circle class="cls-2" cx="42.91" cy="1.85" r="0.57"/><circle class="cls-2" cx="42.91" cy="5.42" r="0.57"/><circle class="cls-2" cx="42.91" cy="8.99" r="0.57"/><circle class="cls-2" cx="42.91" cy="12.57" r="0.57"/><circle class="cls-2" cx="42.91" cy="16.14" r="0.57"/><circle class="cls-2" cx="42.91" cy="19.71" r="0.57"/><circle class="cls-2" cx="42.91" cy="23.29" r="0.57"/><circle class="cls-2" cx="42.91" cy="26.86" r="0.57"/><circle class="cls-2" cx="42.91" cy="30.43" r="0.57"/><circle class="cls-2" cx="42.91" cy="34.01" r="0.57"/><circle class="cls-2" cx="42.91" cy="37.58" r="0.57"/><circle class="cls-2" cx="42.91" cy="41.15" r="0.57"/><circle class="cls-2" cx="0.01" cy="1.85" r="0.57"/><circle class="cls-2" cx="3.59" cy="1.85" r="0.57"/><circle class="cls-2" cx="7.16" cy="1.85" r="0.57"/><circle class="cls-2" cx="10.73" cy="1.85" r="0.57"/><circle class="cls-2" cx="0.01" cy="5.42" r="0.57"/><circle class="cls-2" cx="3.59" cy="5.42" r="0.57"/><circle class="cls-2" cx="7.16" cy="5.42" r="0.57"/><circle class="cls-2" cx="10.73" cy="5.42" r="0.57"/><circle class="cls-2" cx="0.01" cy="8.99" r="0.57"/><circle class="cls-2" cx="3.59" cy="8.99" r="0.57"/><circle class="cls-2" cx="7.16" cy="8.99" r="0.57"/><circle class="cls-2" cx="10.73" cy="8.99" r="0.57"/><circle class="cls-2" cx="0.01" cy="12.57" r="0.57"/><circle class="cls-2" cx="3.59" cy="12.57" r="0.57"/><circle class="cls-2" cx="7.16" cy="12.57" r="0.57"/><circle class="cls-2" cx="10.73" cy="12.57" r="0.57"/><circle class="cls-2" cx="0.01" cy="16.14" r="0.57"/><circle class="cls-2" cx="3.59" cy="16.14" r="0.57"/><circle class="cls-2" cx="7.16" cy="16.14" r="0.57"/><circle class="cls-2" cx="10.73" cy="16.14" r="0.57"/><circle class="cls-2" cx="0.01" cy="19.71" r="0.57"/><circle class="cls-2" cx="3.59" cy="19.71" r="0.57"/><circle class="cls-2" cx="7.16" cy="19.71" r="0.57"/><circle class="cls-2" cx="10.73" cy="19.71" r="0.57"/><circle class="cls-2" cx="14.3" cy="1.85" r="0.57"/><circle class="cls-2" cx="17.88" cy="1.85" r="0.57"/><circle class="cls-2" cx="21.45" cy="1.85" r="0.57"/><circle class="cls-2" cx="25.02" cy="1.85" r="0.57"/><circle class="cls-2" cx="28.6" cy="1.85" r="0.57"/><circle class="cls-2" cx="14.3" cy="5.42" r="0.57"/><circle class="cls-2" cx="17.88" cy="5.42" r="0.57"/><circle class="cls-2" cx="21.45" cy="5.42" r="0.57"/><circle class="cls-2" cx="25.02" cy="5.42" r="0.57"/><circle class="cls-2" cx="28.6" cy="5.42" r="0.57"/><circle class="cls-2" cx="14.3" cy="8.99" r="0.57"/><circle class="cls-2" cx="17.88" cy="8.99" r="0.57"/><circle class="cls-2" cx="21.45" cy="8.99" r="0.57"/><circle class="cls-2" cx="25.02" cy="8.99" r="0.57"/><circle class="cls-2" cx="28.6" cy="8.99" r="0.57"/><circle class="cls-2" cx="14.3" cy="12.57" r="0.57"/><circle class="cls-2" cx="17.88" cy="12.57" r="0.57"/><circle class="cls-2" cx="21.45" cy="12.57" r="0.57"/><circle class="cls-2" cx="25.02" cy="12.57" r="0.57"/><circle class="cls-2" cx="28.6" cy="12.57" r="0.57"/><circle class="cls-2" cx="14.3" cy="16.14" r="0.57"/><circle class="cls-2" cx="17.88" cy="16.14" r="0.57"/><circle class="cls-2" cx="21.45" cy="16.14" r="0.57"/><circle class="cls-2" cx="25.02" cy="16.14" r="0.57"/><circle class="cls-2" cx="28.6" cy="16.14" r="0.57"/><circle class="cls-2" cx="14.3" cy="19.71" r="0.57"/><circle class="cls-2" cx="17.88" cy="19.71" r="0.57"/><circle class="cls-2" cx="21.45" cy="19.71" r="0.57"/><circle class="cls-2" cx="25.02" cy="19.71" r="0.57"/><circle class="cls-2" cx="28.6" cy="19.71" r="0.57"/><circle class="cls-2" cx="32.17" cy="1.85" r="0.57"/><circle class="cls-2" cx="35.74" cy="1.85" r="0.57"/><circle class="cls-2" cx="39.31" cy="1.85" r="0.57"/><circle class="cls-2" cx="42.89" cy="1.85" r="0.57"/><circle class="cls-2" cx="32.17" cy="5.42" r="0.57"/><circle class="cls-2" cx="35.74" cy="5.42" r="0.57"/><circle class="cls-2" cx="39.31" cy="5.42" r="0.57"/><circle class="cls-2" cx="42.89" cy="5.42" r="0.57"/><circle class="cls-2" cx="32.17" cy="8.99" r="0.57"/><circle class="cls-2" cx="35.74" cy="8.99" r="0.57"/><circle class="cls-2" cx="39.31" cy="8.99" r="0.57"/><circle class="cls-2" cx="42.89" cy="8.99" r="0.57"/><circle class="cls-2" cx="32.17" cy="12.57" r="0.57"/><circle class="cls-2" cx="35.74" cy="12.57" r="0.57"/><circle class="cls-2" cx="39.31" cy="12.57" r="0.57"/><circle class="cls-2" cx="42.89" cy="12.57" r="0.57"/><circle class="cls-2" cx="32.17" cy="16.14" r="0.57"/><circle class="cls-2" cx="35.74" cy="16.14" r="0.57"/><circle class="cls-2" cx="39.31" cy="16.14" r="0.57"/><circle class="cls-2" cx="42.89" cy="16.14" r="0.57"/><circle class="cls-2" cx="32.17" cy="19.71" r="0.57"/><circle class="cls-2" cx="35.74" cy="19.71" r="0.57"/><circle class="cls-2" cx="39.31" cy="19.71" r="0.57"/><circle class="cls-2" cx="42.89" cy="19.71" r="0.57"/><circle class="cls-2" cx="0.01" cy="23.29" r="0.57"/><circle class="cls-2" cx="3.59" cy="23.29" r="0.57"/><circle class="cls-2" cx="7.16" cy="23.29" r="0.57"/><circle class="cls-2" cx="10.73" cy="23.29" r="0.57"/><circle class="cls-2" cx="0.01" cy="26.86" r="0.57"/><circle class="cls-2" cx="3.59" cy="26.86" r="0.57"/><circle class="cls-2" cx="7.16" cy="26.86" r="0.57"/><circle class="cls-2" cx="10.73" cy="26.86" r="0.57"/><circle class="cls-2" cx="0.01" cy="30.43" r="0.57"/><circle class="cls-2" cx="3.59" cy="30.43" r="0.57"/><circle class="cls-2" cx="7.16" cy="30.43" r="0.57"/><circle class="cls-2" cx="10.73" cy="30.43" r="0.57"/><circle class="cls-2" cx="0.01" cy="34.01" r="0.57"/><circle class="cls-2" cx="3.59" cy="34.01" r="0.57"/><circle class="cls-2" cx="7.16" cy="34.01" r="0.57"/><circle class="cls-2" cx="10.73" cy="34.01" r="0.57"/><circle class="cls-2" cx="0.01" cy="37.58" r="0.57"/><circle class="cls-2" cx="3.59" cy="37.58" r="0.57"/><circle class="cls-2" cx="7.16" cy="37.58" r="0.57"/><circle class="cls-2" cx="10.73" cy="37.58" r="0.57"/><circle class="cls-2" cx="0.01" cy="41.15" r="0.57"/><circle class="cls-2" cx="3.59" cy="41.15" r="0.57"/><circle class="cls-2" cx="7.16" cy="41.15" r="0.57"/><circle class="cls-2" cx="10.73" cy="41.15" r="0.57"/><circle class="cls-2" cx="14.3" cy="23.29" r="0.57"/><circle class="cls-2" cx="17.88" cy="23.29" r="0.57"/><circle class="cls-2" cx="21.45" cy="23.29" r="0.57"/><circle class="cls-2" cx="25.02" cy="23.29" r="0.57"/><circle class="cls-2" cx="28.6" cy="23.29" r="0.57"/><circle class="cls-2" cx="14.3" cy="26.86" r="0.57"/><circle class="cls-2" cx="17.88" cy="26.86" r="0.57"/><circle class="cls-2" cx="21.45" cy="26.86" r="0.57"/><circle class="cls-2" cx="25.02" cy="26.86" r="0.57"/><circle class="cls-2" cx="28.6" cy="26.86" r="0.57"/><circle class="cls-2" cx="14.3" cy="30.43" r="0.57"/><circle class="cls-2" cx="17.88" cy="30.43" r="0.57"/><circle class="cls-2" cx="21.45" cy="30.43" r="0.57"/><circle class="cls-2" cx="25.02" cy="30.43" r="0.57"/><circle class="cls-2" cx="28.6" cy="30.43" r="0.57"/><circle class="cls-2" cx="14.3" cy="34.01" r="0.57"/><circle class="cls-2" cx="17.88" cy="34.01" r="0.57"/><circle class="cls-2" cx="21.45" cy="34.01" r="0.57"/><circle class="cls-2" cx="25.02" cy="34.01" r="0.57"/><circle class="cls-2" cx="28.6" cy="34.01" r="0.57"/><circle class="cls-2" cx="14.3" cy="37.58" r="0.57"/><circle class="cls-2" cx="17.88" cy="37.58" r="0.57"/><circle class="cls-2" cx="21.45" cy="37.58" r="0.57"/><circle class="cls-2" cx="25.02" cy="37.58" r="0.57"/><circle class="cls-2" cx="28.6" cy="37.58" r="0.57"/><circle class="cls-2" cx="14.3" cy="41.15" r="0.57"/><circle class="cls-2" cx="17.88" cy="41.15" r="0.57"/><circle class="cls-2" cx="21.45" cy="41.15" r="0.57"/><circle class="cls-2" cx="25.02" cy="41.15" r="0.57"/><circle class="cls-2" cx="28.6" cy="41.15" r="0.57"/><circle class="cls-2" cx="32.17" cy="23.29" r="0.57"/><circle class="cls-2" cx="35.74" cy="23.29" r="0.57"/><circle class="cls-2" cx="39.31" cy="23.29" r="0.57"/><circle class="cls-2" cx="42.89" cy="23.29" r="0.57"/><circle class="cls-2" cx="32.17" cy="26.86" r="0.57"/><circle class="cls-2" cx="35.74" cy="26.86" r="0.57"/><circle class="cls-2" cx="39.31" cy="26.86" r="0.57"/><circle class="cls-2" cx="42.89" cy="26.86" r="0.57"/><circle class="cls-2" cx="32.17" cy="30.43" r="0.57"/><circle class="cls-2" cx="35.74" cy="30.43" r="0.57"/><circle class="cls-2" cx="39.31" cy="30.43" r="0.57"/><circle class="cls-2" cx="42.89" cy="30.43" r="0.57"/><circle class="cls-2" cx="32.17" cy="34.01" r="0.57"/><circle class="cls-2" cx="35.74" cy="34.01" r="0.57"/><circle class="cls-2" cx="39.31" cy="34.01" r="0.57"/><circle class="cls-2" cx="42.89" cy="34.01" r="0.57"/><circle class="cls-2" cx="32.17" cy="37.58" r="0.57"/><circle class="cls-2" cx="35.74" cy="37.58" r="0.57"/><circle class="cls-2" cx="39.31" cy="37.58" r="0.57"/><circle class="cls-2" cx="42.89" cy="37.58" r="0.57"/><circle class="cls-2" cx="32.17" cy="41.15" r="0.57"/><circle class="cls-2" cx="35.74" cy="41.15" r="0.57"/><circle class="cls-2" cx="39.31" cy="41.15" r="0.57"/><circle class="cls-2" cx="42.89" cy="41.15" r="0.57"/><circle class="cls-2" cx="-0.01" cy="1.85" r="0.57"/><circle class="cls-2" cx="-0.01" cy="5.42" r="0.57"/><circle class="cls-2" cx="-0.01" cy="8.99" r="0.57"/><circle class="cls-2" cx="-0.01" cy="12.57" r="0.57"/><circle class="cls-2" cx="-0.01" cy="16.14" r="0.57"/><circle class="cls-2" cx="-0.01" cy="19.71" r="0.57"/><circle class="cls-2" cx="-0.01" cy="23.29" r="0.57"/><circle class="cls-2" cx="-0.01" cy="26.86" r="0.57"/><circle class="cls-2" cx="-0.01" cy="30.43" r="0.57"/><circle class="cls-2" cx="-0.01" cy="34.01" r="0.57"/><circle class="cls-2" cx="-0.01" cy="37.58" r="0.57"/><circle class="cls-2" cx="-0.01" cy="41.15" r="0.57"/><g class="cls-4"><circle class="cls-2" cx="-0.09" cy="1.85" r="0.57"/><circle class="cls-2" cx="-0.09" cy="5.42" r="0.57"/><circle class="cls-2" cx="-0.09" cy="8.99" r="0.57"/><circle class="cls-2" cx="-0.09" cy="12.57" r="0.57"/><circle class="cls-2" cx="-0.09" cy="16.14" r="0.57"/><circle class="cls-2" cx="-0.09" cy="19.71" r="0.57"/><circle class="cls-2" cx="-0.09" cy="23.29" r="0.57"/><circle class="cls-2" cx="-0.09" cy="26.86" r="0.57"/><circle class="cls-2" cx="-0.09" cy="30.43" r="0.57"/><circle class="cls-2" cx="-0.09" cy="34.01" r="0.57"/><circle class="cls-2" cx="-0.09" cy="37.58" r="0.57"/><circle class="cls-2" cx="-0.09" cy="41.15" r="0.57"/><circle class="cls-2" cx="-0.11" cy="1.85" r="0.57"/><circle class="cls-2" cx="-0.11" cy="5.42" r="0.57"/><circle class="cls-2" cx="-0.11" cy="8.99" r="0.57"/><circle class="cls-2" cx="-0.11" cy="12.57" r="0.57"/><circle class="cls-2" cx="-0.11" cy="16.14" r="0.57"/><circle class="cls-2" cx="-0.11" cy="19.71" r="0.57"/><circle class="cls-2" cx="-0.11" cy="23.29" r="0.57"/><circle class="cls-2" cx="-0.11" cy="26.86" r="0.57"/><circle class="cls-2" cx="-0.11" cy="30.43" r="0.57"/><circle class="cls-2" cx="-0.11" cy="34.01" r="0.57"/><circle class="cls-2" cx="-0.11" cy="37.58" r="0.57"/><circle class="cls-2" cx="-0.11" cy="41.15" r="0.57"/></g><circle class="cls-2" cx="0.01" cy="1.85" r="0.57"/><circle class="cls-2" cx="0.01" cy="5.42" r="0.57"/><circle class="cls-2" cx="0.01" cy="8.99" r="0.57"/><circle class="cls-2" cx="0.01" cy="12.57" r="0.57"/><circle class="cls-2" cx="0.01" cy="16.14" r="0.57"/><circle class="cls-2" cx="0.01" cy="19.71" r="0.57"/><circle class="cls-2" cx="0.01" cy="23.29" r="0.57"/><circle class="cls-2" cx="0.01" cy="26.86" r="0.57"/><circle class="cls-2" cx="0.01" cy="30.43" r="0.57"/><circle class="cls-2" cx="0.01" cy="34.01" r="0.57"/><circle class="cls-2" cx="0.01" cy="37.58" r="0.57"/><circle class="cls-2" cx="0.01" cy="41.15" r="0.57"/><circle class="cls-2" cx="-0.01" cy="1.85" r="0.57"/><circle class="cls-2" cx="-0.01" cy="5.42" r="0.57"/><circle class="cls-2" cx="-0.01" cy="8.99" r="0.57"/><circle class="cls-2" cx="-0.01" cy="12.57" r="0.57"/><circle class="cls-2" cx="-0.01" cy="16.14" r="0.57"/><circle class="cls-2" cx="-0.01" cy="19.71" r="0.57"/><circle class="cls-2" cx="-0.01" cy="23.29" r="0.57"/><circle class="cls-2" cx="-0.01" cy="26.86" r="0.57"/><circle class="cls-2" cx="-0.01" cy="30.43" r="0.57"/><circle class="cls-2" cx="-0.01" cy="34.01" r="0.57"/><circle class="cls-2" cx="-0.01" cy="37.58" r="0.57"/><circle class="cls-2" cx="-0.01" cy="41.15" r="0.57"/></pattern></defs><title>10-free-finance-icon</title><rect class="cls-5" x="92.81" y="173.7" width="81.26" height="16.81"/><path class="cls-2" d="M175.47,191.91,134,191.77l-20.6,0q-10.27,0-20.55.17h0a1.34,1.34,0,0,1-1.35-1.31v-.08l.71-16.81v0a.68.68,0,0,1,.67-.65l20.32-.17,20.31-.11c6.78-.06,13.55,0,20.32,0s13.54,0,20.32.1a.89.89,0,0,1,.88.83v0C175.34,179.5,175.57,185.72,175.47,191.91Zm-2.79-2.79c-.1-5,.13-10,.51-15.42l.89.89c-6.78.08-13.55.09-20.32.09s-13.54,0-20.32,0l-20.31-.11-20.32-.17.68-.68.71,16.81-1.39-1.38c6.69.11,13.4.16,20.09.17l20,0Z"/><polygon class="cls-6" points="157.11 249.98 109.78 249.98 99.51 190.51 167.38 190.51 157.11 249.98"/><path class="cls-2" d="M157.52,250.47c-15.91.06-31.85.08-47.74,0a.51.51,0,0,1-.49-.38l0-.05a146.75,146.75,0,0,1-3-14.78l-2.52-14.88-2.44-14.89c-.79-5-1.57-9.93-2.3-14.91h0a.57.57,0,0,1,.48-.64h.08l17-.2,17-.12,33.94-.11a1,1,0,0,1,1,1,.88.88,0,0,1,0,.17l-2.63,15-2.68,15-2.74,14.94Zm-.83-1L159,234.58l2.4-14.79,2.45-14.73,2.51-14.71,1,1.16-33.94-.11-17-.12-17-.2.55-.66q1.45,7.41,2.83,14.82l2.7,14.84,2.62,14.86a144.08,144.08,0,0,1,2.08,14.95l-.51-.42C125.45,249.42,141.05,249.43,156.69,249.49Z"/><polygon class="cls-7" points="157.11 249.98 109.78 249.98 99.51 190.51 167.38 190.51 157.11 249.98"/><path class="cls-2" d="M157.52,250.47c-15.91.06-31.85.08-47.74,0a.51.51,0,0,1-.49-.38l0-.05a146.75,146.75,0,0,1-3-14.78l-2.52-14.88-2.44-14.89c-.79-5-1.57-9.93-2.3-14.91h0a.57.57,0,0,1,.48-.64h.08l17-.2,17-.12,33.94-.11a1,1,0,0,1,1,1,.88.88,0,0,1,0,.17l-2.63,15-2.68,15-2.74,14.94Zm-.83-1L159,234.58l2.4-14.79,2.45-14.73,2.51-14.71,1,1.16-33.94-.11-17-.12-17-.2.55-.66q1.45,7.41,2.83,14.82l2.7,14.84,2.62,14.86a144.08,144.08,0,0,1,2.08,14.95l-.51-.42C125.45,249.42,141.05,249.43,156.69,249.49Z"/><path class="cls-2" d="M152.05,244.21l-37.22.34a.57.57,0,0,1-.55-.46h0l-8.63-47.39a1,1,0,1,1,2-.36h0l7.77,47.55-.56-.47,37.22.34a.23.23,0,1,1,0,.45Z"/><path class="cls-2" d="M132.73,174.27a41.75,41.75,0,0,1-4.29-7.48,55.27,55.27,0,0,1-2.91-8,58.26,58.26,0,0,1-2-16.92c.29-11.42,3.9-22.53,9.26-32.47,5.28-9.78,8.8-20.64,9.08-31.77a56.82,56.82,0,0,0-2-16.46A55.09,55.09,0,0,0,137,53.31a40.31,40.31,0,0,0-4.1-7.16l0,0a.65.65,0,0,1,.13-.92.67.67,0,0,1,.93.13h0a48.66,48.66,0,0,1,7.22,15.42,58.58,58.58,0,0,1,2.1,16.87c-.25,11.4-3.81,22.51-9.15,32.47-5.24,9.8-8.71,20.67-8.95,31.77a56.79,56.79,0,0,0,2,16.41,54.68,54.68,0,0,0,2.84,7.77,39.43,39.43,0,0,0,4.1,7.1l0,0a.91.91,0,0,1-1.45,1.09Z"/><path class="cls-2" d="M89.28,77.22a59.23,59.23,0,0,1,15.15,4,46.34,46.34,0,0,1,13.39,8.19A35.14,35.14,0,0,1,127,102.19a40.64,40.64,0,0,1,3,15.47.59.59,0,1,1-1.17,0h0a39.86,39.86,0,0,0-2.76-15.09,34.35,34.35,0,0,0-8.85-12.5,45.91,45.91,0,0,0-13.09-8.22,59,59,0,0,0-15-4.18h0a.23.23,0,0,1-.19-.26A.22.22,0,0,1,89.28,77.22Z"/><path class="cls-2" d="M124.15,150.46a59.86,59.86,0,0,1,4.19-15.26,47.24,47.24,0,0,1,8.36-13.42,35.5,35.5,0,0,1,12.87-9.19,40.84,40.84,0,0,1,15.54-2.91.63.63,0,0,1,.65.64.64.64,0,0,1-.64.64h0a39.65,39.65,0,0,0-15,2.87,34.16,34.16,0,0,0-12.36,8.88,45.69,45.69,0,0,0-8,13,58.63,58.63,0,0,0-4,14.85v0a.74.74,0,0,1-.83.65.75.75,0,0,1-.65-.84Z"/><path class="cls-8" d="M205.24,106.67A20.13,20.13,0,1,0,187.57,129,20.14,20.14,0,0,0,205.24,106.67Z"/><path class="cls-2" d="M204.6,106.74a19.49,19.49,0,1,0-38.71,4.51,19.46,19.46,0,0,0,7.4,12.85,19.24,19.24,0,0,0,14.17,3.9,19.64,19.64,0,0,0,12.87-7.06A19.41,19.41,0,0,0,204.6,106.74Zm1.28-.14a20.86,20.86,0,0,1-10.35,20.84,20.77,20.77,0,0,1-23.32-2,20.78,20.78,0,0,1-3.08-29.22,20.55,20.55,0,0,1,13.75-7.53A20.92,20.92,0,0,1,198,92.91,20.7,20.7,0,0,1,205.88,106.6Z"/><path class="cls-2" d="M170,109.49l3.69-.43a10.74,10.74,0,0,1,1-5.8l2.58.6a10,10,0,0,0-1,5.46c.31,2.62,2,4.21,4.13,4s3.12-1.82,3.9-4.68c1-3.94,2.5-6.46,5.71-6.83,3.06-.36,5.64,1.54,6.58,4.84l3.69-.43.27,2.32-3.57.42a10.23,10.23,0,0,1-.74,4.94l-2.54-.64a8.84,8.84,0,0,0,.75-4.79c-.33-2.84-2.15-3.72-3.66-3.54-1.88.22-2.68,1.7-3.67,5.06-1.11,4-2.77,6.12-6.05,6.5-2.95.35-5.92-1.37-6.95-5.1l-3.83.45Z"/><path class="cls-8" d="M78.06,142.33a16.36,16.36,0,1,0-13-19.14A16.36,16.36,0,0,0,78.06,142.33Z"/><path class="cls-2" d="M78.18,141.7a15.78,15.78,0,0,0,16.36-6.62,15.7,15.7,0,0,0-.23-17.77,15.72,15.72,0,0,0-21.89-3.86A15.48,15.48,0,0,0,66,123.38,15.9,15.9,0,0,0,68.33,135,15.67,15.67,0,0,0,78.18,141.7ZM77.94,143a17.1,17.1,0,0,1-13.8-13.19A17,17,0,0,1,71.45,112,17,17,0,0,1,95,116.84a16.71,16.71,0,0,1,2.47,12.54,17.21,17.21,0,0,1-6.93,10.74A16.92,16.92,0,0,1,77.94,143Z"/><path class="cls-6" d="M52.24,60.84A20.13,20.13,0,1,0,78.65,50.22,20.13,20.13,0,0,0,52.24,60.84Z"/><path class="cls-2" d="M52.83,61.09A19.55,19.55,0,0,0,56.6,82.61,19.46,19.46,0,0,0,78.12,87,19.48,19.48,0,0,0,88.63,61.54,19.3,19.3,0,0,0,78.26,51.13a19.66,19.66,0,0,0-14.68-.24A19.37,19.37,0,0,0,52.83,61.09Zm-1.18-.5A20.83,20.83,0,0,1,71,47.62,20.75,20.75,0,0,1,90.24,60.89a20.76,20.76,0,0,1-11.81,26.9,20.53,20.53,0,0,1-15.68-.28,20.91,20.91,0,0,1-11-11.12A20.64,20.64,0,0,1,51.65,60.59Z"/><path class="cls-6" d="M190.06,34.19A16.26,16.26,0,1,0,197.47,56,16.26,16.26,0,0,0,190.06,34.19Z"/><path class="cls-2" d="M189.78,34.76a15.71,15.71,0,0,0-17.44,2,16.21,16.21,0,0,0-3.8,4.94,16,16,0,0,0-.67,12.16,15.62,15.62,0,0,0,20,9.47,15.36,15.36,0,0,0,8.74-7.83,15.78,15.78,0,0,0,.86-11.69A15.59,15.59,0,0,0,189.78,34.76Zm.57-1.15a17,17,0,0,1,9.74,16.29A16.92,16.92,0,0,1,188.39,65a16.89,16.89,0,0,1-21.31-10.85A16.66,16.66,0,0,1,168,41.47,17.06,17.06,0,0,1,177.51,33,16.83,16.83,0,0,1,190.35,33.61Z"/><path class="cls-8" d="M123.73,6.58A20.13,20.13,0,1,0,148,21.44,20.14,20.14,0,0,0,123.73,6.58Z"/><path class="cls-2" d="M123.88,7.21a19.53,19.53,0,0,0-15,15.86,19.51,19.51,0,0,0,9.3,19.9,19.48,19.48,0,0,0,26.72-6.77A19.27,19.27,0,0,0,147,21.67a19.71,19.71,0,0,0-8.56-11.93A19.37,19.37,0,0,0,123.88,7.21ZM123.58,6a20.77,20.77,0,1,1-5.86,37.72,20.58,20.58,0,0,1-9.13-12.75,21,21,0,0,1,2.34-15.49A20.73,20.73,0,0,1,123.58,6Z"/><path class="cls-9" d="M78.06,142.33a16.36,16.36,0,1,0-13-19.14A16.36,16.36,0,0,0,78.06,142.33Z"/><path class="cls-2" d="M78.18,141.7a15.78,15.78,0,0,0,16.36-6.62,15.7,15.7,0,0,0-.23-17.77,15.72,15.72,0,0,0-21.89-3.86A15.48,15.48,0,0,0,66,123.38,15.9,15.9,0,0,0,68.33,135,15.67,15.67,0,0,0,78.18,141.7ZM77.94,143a17.1,17.1,0,0,1-13.8-13.19A17,17,0,0,1,71.45,112,17,17,0,0,1,95,116.84a16.71,16.71,0,0,1,2.47,12.54,17.21,17.21,0,0,1-6.93,10.74A16.92,16.92,0,0,1,77.94,143Z"/><path class="cls-9" d="M123.73,6.58A20.13,20.13,0,1,0,148,21.44,20.14,20.14,0,0,0,123.73,6.58Z"/><path class="cls-2" d="M123.88,7.21a19.53,19.53,0,0,0-15,15.86,19.51,19.51,0,0,0,9.3,19.9,19.48,19.48,0,0,0,26.72-6.77A19.27,19.27,0,0,0,147,21.67a19.71,19.71,0,0,0-8.56-11.93A19.37,19.37,0,0,0,123.88,7.21ZM123.58,6a20.77,20.77,0,1,1-5.86,37.72,20.58,20.58,0,0,1-9.13-12.75,21,21,0,0,1,2.34-15.49A20.73,20.73,0,0,1,123.58,6Z"/><path class="cls-9" d="M205.24,106.67A20.13,20.13,0,1,0,187.57,129,20.14,20.14,0,0,0,205.24,106.67Z"/><path class="cls-2" d="M204.6,106.74a19.49,19.49,0,1,0-38.71,4.51,19.46,19.46,0,0,0,7.4,12.85,19.24,19.24,0,0,0,14.17,3.9,19.64,19.64,0,0,0,12.87-7.06A19.41,19.41,0,0,0,204.6,106.74Zm1.28-.14a20.86,20.86,0,0,1-10.35,20.84,20.77,20.77,0,0,1-23.32-2,20.78,20.78,0,0,1-3.08-29.22,20.55,20.55,0,0,1,13.75-7.53A20.92,20.92,0,0,1,198,92.91,20.7,20.7,0,0,1,205.88,106.6Z"/><path class="cls-2" d="M123.94,150a33.32,33.32,0,0,0-10-14.75,27.36,27.36,0,0,0-7.81-4.45,35.47,35.47,0,0,0-8.84-1.95h0a.29.29,0,0,1-.25-.31.28.28,0,0,1,.3-.26,36.13,36.13,0,0,1,9.08,1.76,28.43,28.43,0,0,1,8.19,4.39,30.72,30.72,0,0,1,6.38,6.79,40.11,40.11,0,0,1,4.34,8.25A.76.76,0,0,1,124,150Z"/><path class="cls-2" d="M93.11,129.43,90,128.84a5.21,5.21,0,0,1-5.93,3.72c-2.64-.51-3.85-2.33-4.52-5.62-.6-2.79-1.16-4-2.67-4.32-1.22-.24-2.74.36-3.18,2.64a7.37,7.37,0,0,0,.32,3.94l-2.09.36a8.12,8.12,0,0,1-.3-4L68.78,125l.36-1.86,3,.56c1-2.61,3.16-4,5.62-3.53s3.62,2.62,4.22,5.87c.47,2.37,1.26,3.71,2.89,4s3.18-.87,3.58-3a8.12,8.12,0,0,0-.47-4.48l2.12-.33a8.61,8.61,0,0,1,.45,4.76l3,.56Z"/><path class="cls-2" d="M84.26,75.88l-3.41-1.46A10.78,10.78,0,0,1,77.13,79l-1.94-1.8a9.93,9.93,0,0,0,3.55-4.26c1-2.42.33-4.66-1.61-5.49s-3.61,0-5.71,2.13c-2.85,2.9-5.38,4.37-8.35,3.1s-4.13-4.14-3.31-7.47l-3.42-1.45.92-2.15L60.57,63a10.08,10.08,0,0,1,3.09-3.93l1.89,1.81a8.85,8.85,0,0,0-3,3.8c-1.12,2.63,0,4.29,1.43,4.88,1.74.75,3.17-.14,5.7-2.57,2.93-2.91,5.43-3.94,8.47-2.65,2.73,1.17,4.46,4.12,3.51,7.87l3.55,1.52Z"/><path class="cls-9" d="M52.24,60.84A20.13,20.13,0,1,0,78.65,50.22,20.13,20.13,0,0,0,52.24,60.84Z"/><path class="cls-2" d="M52.83,61.09A19.55,19.55,0,0,0,56.6,82.61,19.46,19.46,0,0,0,78.12,87,19.48,19.48,0,0,0,88.63,61.54,19.3,19.3,0,0,0,78.26,51.13a19.66,19.66,0,0,0-14.68-.24A19.37,19.37,0,0,0,52.83,61.09Zm-1.18-.5A20.83,20.83,0,0,1,71,47.62,20.75,20.75,0,0,1,90.24,60.89a20.76,20.76,0,0,1-11.81,26.9,20.53,20.53,0,0,1-15.68-.28,20.91,20.91,0,0,1-11-11.12A20.64,20.64,0,0,1,51.65,60.59Z"/><path class="cls-2" d="M175.25,63.36a47.91,47.91,0,0,1-3.95,12.1A38.25,38.25,0,0,1,164.05,86a29.15,29.15,0,0,1-10.79,7,33.47,33.47,0,0,1-12.81,1.89,1,1,0,0,1-1-1,1,1,0,0,1,1-1h0a32.09,32.09,0,0,0,12.17-1.42,27.73,27.73,0,0,0,10.47-6.39,37.49,37.49,0,0,0,7.36-10,48.06,48.06,0,0,0,4.26-11.81h0a.24.24,0,0,1,.27-.18A.23.23,0,0,1,175.25,63.36Z"/><path class="cls-2" d="M176.51,59.36l1.33-2.7a8.61,8.61,0,0,1-3.51-3.19L175.86,52A8.13,8.13,0,0,0,179.14,55c1.91.94,3.75.48,4.5-1.06s.13-2.91-1.46-4.7c-2.21-2.43-3.29-4.53-2.13-6.87s3.52-3.14,6.17-2.34l1.32-2.69,1.7.83L188,40.81a8.31,8.31,0,0,1,3,2.67l-1.55,1.44a7.28,7.28,0,0,0-2.93-2.61c-2.07-1-3.46-.17-4,.94-.68,1.37,0,2.56,1.82,4.71,2.22,2.49,2.94,4.56,1.76,6.95a5.17,5.17,0,0,1-6.5,2.48l-1.38,2.8Z"/><path class="cls-9" d="M190.06,34.19A16.26,16.26,0,1,0,197.47,56,16.26,16.26,0,0,0,190.06,34.19Z"/><path class="cls-2" d="M189.78,34.76a15.71,15.71,0,0,0-17.44,2,16.21,16.21,0,0,0-3.8,4.94,16,16,0,0,0-.67,12.16,15.62,15.62,0,0,0,20,9.47,15.36,15.36,0,0,0,8.74-7.83,15.78,15.78,0,0,0,.86-11.69A15.59,15.59,0,0,0,189.78,34.76Zm.57-1.15a17,17,0,0,1,9.74,16.29A16.92,16.92,0,0,1,188.39,65a16.89,16.89,0,0,1-21.31-10.85A16.66,16.66,0,0,1,168,41.47,17.06,17.06,0,0,1,177.51,33,16.83,16.83,0,0,1,190.35,33.61Z"/><path class="cls-2" d="M130.76,41.25l-.87-3.61a10.65,10.65,0,0,1-5.87-.26l.28-2.63a9.94,9.94,0,0,0,5.54.31c2.56-.62,3.94-2.52,3.44-4.57s-2.18-2.88-5.11-3.32c-4-.55-6.71-1.7-7.47-4.84s.86-5.79,4-7.12l-.87-3.61,2.27-.55.84,3.51a10.22,10.22,0,0,1,5,.13l-.33,2.6a8.86,8.86,0,0,0-4.85-.17c-2.78.67-3.43,2.58-3.07,4.06.44,1.84,2,2.46,5.47,3,4.08.62,6.4,2,7.17,5.22.7,2.89-.64,6-4.22,7.51l.9,3.76Z"/><polygon class="cls-10" points="100.14 194.19 166.75 194.19 167.38 190.51 99.51 190.51 100.14 194.19"/></svg>