<svg id="Layer_1" data-name="Layer 1" xmlns="http://www.w3.org/2000/svg" xmlns:xlink="http://www.w3.org/1999/xlink" viewBox="0 0 256 256"><defs><style>.cls-1{fill:none;}.cls-11,.cls-2{fill:#253759;}.cls-3{clip-path:url(#clip-path);}.cls-4{clip-path:url(#clip-path-2);}.cls-5{fill:#fff;}.cls-6{fill:#a7a6c1;}.cls-7{fill:url(#New_Pattern_Swatch_1);}.cls-8{fill:#d5ebfe;}.cls-9{fill:#a6d5fe;}.cls-10{fill:url(#New_Pattern_Swatch_1-7);}.cls-11{opacity:0.3;}</style><clipPath id="clip-path"><rect class="cls-1" x="42.85" width="43" height="43"/></clipPath><clipPath id="clip-path-2"><rect class="cls-1" x="-0.05" width="43" height="43"/></clipPath><pattern id="New_Pattern_Swatch_1" data-name="New Pattern Swatch 1" width="42.9" height="43" patternTransform="translate(-0.69 586.53)" patternUnits="userSpaceOnUse" viewBox="0 0 42.9 43"><rect class="cls-1" width="42.9" height="43"/><circle class="cls-2" cx="42.91" cy="1.85" r="0.57"/><circle class="cls-2" cx="42.91" cy="5.42" r="0.57"/><circle class="cls-2" cx="42.91" cy="8.99" r="0.57"/><circle class="cls-2" cx="42.91" cy="12.57" r="0.57"/><circle class="cls-2" cx="42.91" cy="16.14" r="0.57"/><circle class="cls-2" cx="42.91" cy="19.71" r="0.57"/><circle class="cls-2" cx="42.91" cy="23.29" r="0.57"/><circle class="cls-2" cx="42.91" cy="26.86" r="0.57"/><circle class="cls-2" cx="42.91" cy="30.43" r="0.57"/><circle class="cls-2" cx="42.91" cy="34.01" r="0.57"/><circle class="cls-2" cx="42.91" cy="37.58" r="0.57"/><circle class="cls-2" cx="42.91" cy="41.15" r="0.57"/><circle class="cls-2" cx="42.89" cy="1.85" r="0.57"/><circle class="cls-2" cx="42.89" cy="5.42" r="0.57"/><circle class="cls-2" cx="42.89" cy="8.99" r="0.57"/><circle class="cls-2" cx="42.89" cy="12.57" r="0.57"/><circle class="cls-2" cx="42.89" cy="16.14" r="0.57"/><circle class="cls-2" cx="42.89" cy="19.71" r="0.57"/><circle class="cls-2" cx="42.89" cy="23.29" r="0.57"/><circle class="cls-2" cx="42.89" cy="26.86" r="0.57"/><circle class="cls-2" cx="42.89" cy="30.43" r="0.57"/><circle class="cls-2" cx="42.89" cy="34.01" r="0.57"/><circle class="cls-2" cx="42.89" cy="37.58" r="0.57"/><circle class="cls-2" cx="42.89" cy="41.15" r="0.57"/><g class="cls-3"><circle class="cls-2" cx="42.81" cy="1.85" r="0.57"/><circle class="cls-2" cx="42.81" cy="5.42" r="0.57"/><circle class="cls-2" cx="42.81" cy="8.99" r="0.57"/><circle class="cls-2" cx="42.81" cy="12.57" r="0.57"/><circle class="cls-2" cx="42.81" cy="16.14" r="0.57"/><circle class="cls-2" cx="42.81" cy="19.71" r="0.57"/><circle class="cls-2" cx="42.81" cy="23.29" r="0.57"/><circle class="cls-2" cx="42.81" cy="26.86" r="0.57"/><circle class="cls-2" cx="42.81" cy="30.43" r="0.57"/><circle class="cls-2" cx="42.81" cy="34.01" r="0.57"/><circle class="cls-2" cx="42.81" cy="37.58" r="0.57"/><circle class="cls-2" cx="42.81" cy="41.15" r="0.57"/><circle class="cls-2" cx="42.79" cy="1.85" r="0.57"/><circle class="cls-2" cx="42.79" cy="5.42" r="0.57"/><circle class="cls-2" cx="42.79" cy="8.99" r="0.57"/><circle class="cls-2" cx="42.79" cy="12.57" r="0.57"/><circle class="cls-2" cx="42.79" cy="16.14" r="0.57"/><circle class="cls-2" cx="42.79" cy="19.71" r="0.57"/><circle class="cls-2" cx="42.79" cy="23.29" r="0.57"/><circle class="cls-2" cx="42.79" cy="26.86" r="0.57"/><circle class="cls-2" cx="42.79" cy="30.43" r="0.57"/><circle class="cls-2" cx="42.79" cy="34.01" r="0.57"/><circle class="cls-2" cx="42.79" cy="37.58" r="0.57"/><circle class="cls-2" cx="42.79" cy="41.15" r="0.57"/></g><circle class="cls-2" cx="42.91" cy="1.85" r="0.57"/><circle class="cls-2" cx="42.91" cy="5.42" r="0.57"/><circle class="cls-2" cx="42.91" cy="8.99" r="0.57"/><circle class="cls-2" cx="42.91" cy="12.57" r="0.57"/><circle class="cls-2" cx="42.91" cy="16.14" r="0.57"/><circle class="cls-2" cx="42.91" cy="19.71" r="0.57"/><circle class="cls-2" cx="42.91" cy="23.29" r="0.57"/><circle class="cls-2" cx="42.91" cy="26.86" r="0.57"/><circle class="cls-2" cx="42.91" cy="30.43" r="0.57"/><circle class="cls-2" cx="42.91" cy="34.01" r="0.57"/><circle class="cls-2" cx="42.91" cy="37.58" r="0.57"/><circle class="cls-2" cx="42.91" cy="41.15" r="0.57"/><circle class="cls-2" cx="0.01" cy="1.85" r="0.57"/><circle class="cls-2" cx="3.59" cy="1.85" r="0.57"/><circle class="cls-2" cx="7.16" cy="1.85" r="0.57"/><circle class="cls-2" cx="10.73" cy="1.85" r="0.57"/><circle class="cls-2" cx="0.01" cy="5.42" r="0.57"/><circle class="cls-2" cx="3.59" cy="5.42" r="0.57"/><circle class="cls-2" cx="7.16" cy="5.42" r="0.57"/><circle class="cls-2" cx="10.73" cy="5.42" r="0.57"/><circle class="cls-2" cx="0.01" cy="8.99" r="0.57"/><circle class="cls-2" cx="3.59" cy="8.99" r="0.57"/><circle class="cls-2" cx="7.16" cy="8.99" r="0.57"/><circle class="cls-2" cx="10.73" cy="8.99" r="0.57"/><circle class="cls-2" cx="0.01" cy="12.57" r="0.57"/><circle class="cls-2" cx="3.59" cy="12.57" r="0.57"/><circle class="cls-2" cx="7.16" cy="12.57" r="0.57"/><circle class="cls-2" cx="10.73" cy="12.57" r="0.57"/><circle class="cls-2" cx="0.01" cy="16.14" r="0.57"/><circle class="cls-2" cx="3.59" cy="16.14" r="0.57"/><circle class="cls-2" cx="7.16" cy="16.14" r="0.57"/><circle class="cls-2" cx="10.73" cy="16.14" r="0.57"/><circle class="cls-2" cx="0.01" cy="19.71" r="0.57"/><circle class="cls-2" cx="3.59" cy="19.71" r="0.57"/><circle class="cls-2" cx="7.16" cy="19.71" r="0.57"/><circle class="cls-2" cx="10.73" cy="19.71" r="0.57"/><circle class="cls-2" cx="14.3" cy="1.85" r="0.57"/><circle class="cls-2" cx="17.88" cy="1.85" r="0.57"/><circle class="cls-2" cx="21.45" cy="1.85" r="0.57"/><circle class="cls-2" cx="25.02" cy="1.85" r="0.57"/><circle class="cls-2" cx="28.6" cy="1.85" r="0.57"/><circle class="cls-2" cx="14.3" cy="5.42" r="0.57"/><circle class="cls-2" cx="17.88" cy="5.42" r="0.57"/><circle class="cls-2" cx="21.45" cy="5.42" r="0.57"/><circle class="cls-2" cx="25.02" cy="5.42" r="0.57"/><circle class="cls-2" cx="28.6" cy="5.42" r="0.57"/><circle class="cls-2" cx="14.3" cy="8.99" r="0.57"/><circle class="cls-2" cx="17.88" cy="8.99" r="0.57"/><circle class="cls-2" cx="21.45" cy="8.99" r="0.57"/><circle class="cls-2" cx="25.02" cy="8.99" r="0.57"/><circle class="cls-2" cx="28.6" cy="8.99" r="0.57"/><circle class="cls-2" cx="14.3" cy="12.57" r="0.57"/><circle class="cls-2" cx="17.88" cy="12.57" r="0.57"/><circle class="cls-2" cx="21.45" cy="12.57" r="0.57"/><circle class="cls-2" cx="25.02" cy="12.57" r="0.57"/><circle class="cls-2" cx="28.6" cy="12.57" r="0.57"/><circle class="cls-2" cx="14.3" cy="16.14" r="0.57"/><circle class="cls-2" cx="17.88" cy="16.14" r="0.57"/><circle class="cls-2" cx="21.45" cy="16.14" r="0.57"/><circle class="cls-2" cx="25.02" cy="16.14" r="0.57"/><circle class="cls-2" cx="28.6" cy="16.14" r="0.57"/><circle class="cls-2" cx="14.3" cy="19.71" r="0.57"/><circle class="cls-2" cx="17.88" cy="19.71" r="0.57"/><circle class="cls-2" cx="21.45" cy="19.71" r="0.57"/><circle class="cls-2" cx="25.02" cy="19.71" r="0.57"/><circle class="cls-2" cx="28.6" cy="19.71" r="0.57"/><circle class="cls-2" cx="32.17" cy="1.85" r="0.57"/><circle class="cls-2" cx="35.74" cy="1.85" r="0.57"/><circle class="cls-2" cx="39.31" cy="1.85" r="0.57"/><circle class="cls-2" cx="42.89" cy="1.85" r="0.57"/><circle class="cls-2" cx="32.17" cy="5.42" r="0.57"/><circle class="cls-2" cx="35.74" cy="5.42" r="0.57"/><circle class="cls-2" cx="39.31" cy="5.42" r="0.57"/><circle class="cls-2" cx="42.89" cy="5.42" r="0.57"/><circle class="cls-2" cx="32.17" cy="8.99" r="0.57"/><circle class="cls-2" cx="35.74" cy="8.99" r="0.57"/><circle class="cls-2" cx="39.31" cy="8.99" r="0.57"/><circle class="cls-2" cx="42.89" cy="8.99" r="0.57"/><circle class="cls-2" cx="32.17" cy="12.57" r="0.57"/><circle class="cls-2" cx="35.74" cy="12.57" r="0.57"/><circle class="cls-2" cx="39.31" cy="12.57" r="0.57"/><circle class="cls-2" cx="42.89" cy="12.57" r="0.57"/><circle class="cls-2" cx="32.17" cy="16.14" r="0.57"/><circle class="cls-2" cx="35.74" cy="16.14" r="0.57"/><circle class="cls-2" cx="39.31" cy="16.14" r="0.57"/><circle class="cls-2" cx="42.89" cy="16.14" r="0.57"/><circle class="cls-2" cx="32.17" cy="19.71" r="0.57"/><circle class="cls-2" cx="35.74" cy="19.71" r="0.57"/><circle class="cls-2" cx="39.31" cy="19.71" r="0.57"/><circle class="cls-2" cx="42.89" cy="19.71" r="0.57"/><circle class="cls-2" cx="0.01" cy="23.29" r="0.57"/><circle class="cls-2" cx="3.59" cy="23.29" r="0.57"/><circle class="cls-2" cx="7.16" cy="23.29" r="0.57"/><circle class="cls-2" cx="10.73" cy="23.29" r="0.57"/><circle class="cls-2" cx="0.01" cy="26.86" r="0.57"/><circle class="cls-2" cx="3.59" cy="26.86" r="0.57"/><circle class="cls-2" cx="7.16" cy="26.86" r="0.57"/><circle class="cls-2" cx="10.73" cy="26.86" r="0.57"/><circle class="cls-2" cx="0.01" cy="30.43" r="0.57"/><circle class="cls-2" cx="3.59" cy="30.43" r="0.57"/><circle class="cls-2" cx="7.16" cy="30.43" r="0.57"/><circle class="cls-2" cx="10.73" cy="30.43" r="0.57"/><circle class="cls-2" cx="0.01" cy="34.01" r="0.57"/><circle class="cls-2" cx="3.59" cy="34.01" r="0.57"/><circle class="cls-2" cx="7.16" cy="34.01" r="0.57"/><circle class="cls-2" cx="10.73" cy="34.01" r="0.57"/><circle class="cls-2" cx="0.01" cy="37.58" r="0.57"/><circle class="cls-2" cx="3.59" cy="37.58" r="0.57"/><circle class="cls-2" cx="7.16" cy="37.58" r="0.57"/><circle class="cls-2" cx="10.73" cy="37.58" r="0.57"/><circle class="cls-2" cx="0.01" cy="41.15" r="0.57"/><circle class="cls-2" cx="3.59" cy="41.15" r="0.57"/><circle class="cls-2" cx="7.16" cy="41.15" r="0.57"/><circle class="cls-2" cx="10.73" cy="41.15" r="0.57"/><circle class="cls-2" cx="14.3" cy="23.29" r="0.57"/><circle class="cls-2" cx="17.88" cy="23.29" r="0.57"/><circle class="cls-2" cx="21.45" cy="23.29" r="0.57"/><circle class="cls-2" cx="25.02" cy="23.29" r="0.57"/><circle class="cls-2" cx="28.6" cy="23.29" r="0.57"/><circle class="cls-2" cx="14.3" cy="26.86" r="0.57"/><circle class="cls-2" cx="17.88" cy="26.86" r="0.57"/><circle class="cls-2" cx="21.45" cy="26.86" r="0.57"/><circle class="cls-2" cx="25.02" cy="26.86" r="0.57"/><circle class="cls-2" cx="28.6" cy="26.86" r="0.57"/><circle class="cls-2" cx="14.3" cy="30.43" r="0.57"/><circle class="cls-2" cx="17.88" cy="30.43" r="0.57"/><circle class="cls-2" cx="21.45" cy="30.43" r="0.57"/><circle class="cls-2" cx="25.02" cy="30.43" r="0.57"/><circle class="cls-2" cx="28.6" cy="30.43" r="0.57"/><circle class="cls-2" cx="14.3" cy="34.01" r="0.57"/><circle class="cls-2" cx="17.88" cy="34.01" r="0.57"/><circle class="cls-2" cx="21.45" cy="34.01" r="0.57"/><circle class="cls-2" cx="25.02" cy="34.01" r="0.57"/><circle class="cls-2" cx="28.6" cy="34.01" r="0.57"/><circle class="cls-2" cx="14.3" cy="37.58" r="0.57"/><circle class="cls-2" cx="17.88" cy="37.58" r="0.57"/><circle class="cls-2" cx="21.45" cy="37.58" r="0.57"/><circle class="cls-2" cx="25.02" cy="37.58" r="0.57"/><circle class="cls-2" cx="28.6" cy="37.58" r="0.57"/><circle class="cls-2" cx="14.3" cy="41.15" r="0.57"/><circle class="cls-2" cx="17.88" cy="41.15" r="0.57"/><circle class="cls-2" cx="21.45" cy="41.15" r="0.57"/><circle class="cls-2" cx="25.02" cy="41.15" r="0.57"/><circle class="cls-2" cx="28.6" cy="41.15" r="0.57"/><circle class="cls-2" cx="32.17" cy="23.29" r="0.57"/><circle class="cls-2" cx="35.74" cy="23.29" r="0.57"/><circle class="cls-2" cx="39.31" cy="23.29" r="0.57"/><circle class="cls-2" cx="42.89" cy="23.29" r="0.57"/><circle class="cls-2" cx="32.17" cy="26.86" r="0.57"/><circle class="cls-2" cx="35.74" cy="26.86" r="0.57"/><circle class="cls-2" cx="39.31" cy="26.86" r="0.57"/><circle class="cls-2" cx="42.89" cy="26.86" r="0.57"/><circle class="cls-2" cx="32.17" cy="30.43" r="0.57"/><circle class="cls-2" cx="35.74" cy="30.43" r="0.57"/><circle class="cls-2" cx="39.31" cy="30.43" r="0.57"/><circle class="cls-2" cx="42.89" cy="30.43" r="0.57"/><circle class="cls-2" cx="32.17" cy="34.01" r="0.57"/><circle class="cls-2" cx="35.74" cy="34.01" r="0.57"/><circle class="cls-2" cx="39.31" cy="34.01" r="0.57"/><circle class="cls-2" cx="42.89" cy="34.01" r="0.57"/><circle class="cls-2" cx="32.17" cy="37.58" r="0.57"/><circle class="cls-2" cx="35.74" cy="37.58" r="0.57"/><circle class="cls-2" cx="39.31" cy="37.58" r="0.57"/><circle class="cls-2" cx="42.89" cy="37.58" r="0.57"/><circle class="cls-2" cx="32.17" cy="41.15" r="0.57"/><circle class="cls-2" cx="35.74" cy="41.15" r="0.57"/><circle class="cls-2" cx="39.31" cy="41.15" r="0.57"/><circle class="cls-2" cx="42.89" cy="41.15" r="0.57"/><circle class="cls-2" cx="-0.01" cy="1.85" r="0.57"/><circle class="cls-2" cx="-0.01" cy="5.42" r="0.57"/><circle class="cls-2" cx="-0.01" cy="8.99" r="0.57"/><circle class="cls-2" cx="-0.01" cy="12.57" r="0.57"/><circle class="cls-2" cx="-0.01" cy="16.14" r="0.57"/><circle class="cls-2" cx="-0.01" cy="19.71" r="0.57"/><circle class="cls-2" cx="-0.01" cy="23.29" r="0.57"/><circle class="cls-2" cx="-0.01" cy="26.86" r="0.57"/><circle class="cls-2" cx="-0.01" cy="30.43" r="0.57"/><circle class="cls-2" cx="-0.01" cy="34.01" r="0.57"/><circle class="cls-2" cx="-0.01" cy="37.58" r="0.57"/><circle class="cls-2" cx="-0.01" cy="41.15" r="0.57"/><g class="cls-4"><circle class="cls-2" cx="-0.09" cy="1.85" r="0.57"/><circle class="cls-2" cx="-0.09" cy="5.42" r="0.57"/><circle class="cls-2" cx="-0.09" cy="8.99" r="0.57"/><circle class="cls-2" cx="-0.09" cy="12.57" r="0.57"/><circle class="cls-2" cx="-0.09" cy="16.14" r="0.57"/><circle class="cls-2" cx="-0.09" cy="19.71" r="0.57"/><circle class="cls-2" cx="-0.09" cy="23.29" r="0.57"/><circle class="cls-2" cx="-0.09" cy="26.86" r="0.57"/><circle class="cls-2" cx="-0.09" cy="30.43" r="0.57"/><circle class="cls-2" cx="-0.09" cy="34.01" r="0.57"/><circle class="cls-2" cx="-0.09" cy="37.58" r="0.57"/><circle class="cls-2" cx="-0.09" cy="41.15" r="0.57"/><circle class="cls-2" cx="-0.11" cy="1.85" r="0.57"/><circle class="cls-2" cx="-0.11" cy="5.42" r="0.57"/><circle class="cls-2" cx="-0.11" cy="8.99" r="0.57"/><circle class="cls-2" cx="-0.11" cy="12.57" r="0.57"/><circle class="cls-2" cx="-0.11" cy="16.14" r="0.57"/><circle class="cls-2" cx="-0.11" cy="19.71" r="0.57"/><circle class="cls-2" cx="-0.11" cy="23.29" r="0.57"/><circle class="cls-2" cx="-0.11" cy="26.86" r="0.57"/><circle class="cls-2" cx="-0.11" cy="30.43" r="0.57"/><circle class="cls-2" cx="-0.11" cy="34.01" r="0.57"/><circle class="cls-2" cx="-0.11" cy="37.58" r="0.57"/><circle class="cls-2" cx="-0.11" cy="41.15" r="0.57"/></g><circle class="cls-2" cx="0.01" cy="1.85" r="0.57"/><circle class="cls-2" cx="0.01" cy="5.42" r="0.57"/><circle class="cls-2" cx="0.01" cy="8.99" r="0.57"/><circle class="cls-2" cx="0.01" cy="12.57" r="0.57"/><circle class="cls-2" cx="0.01" cy="16.14" r="0.57"/><circle class="cls-2" cx="0.01" cy="19.71" r="0.57"/><circle class="cls-2" cx="0.01" cy="23.29" r="0.57"/><circle class="cls-2" cx="0.01" cy="26.86" r="0.57"/><circle class="cls-2" cx="0.01" cy="30.43" r="0.57"/><circle class="cls-2" cx="0.01" cy="34.01" r="0.57"/><circle class="cls-2" cx="0.01" cy="37.58" r="0.57"/><circle class="cls-2" cx="0.01" cy="41.15" r="0.57"/><circle class="cls-2" cx="-0.01" cy="1.85" r="0.57"/><circle class="cls-2" cx="-0.01" cy="5.42" r="0.57"/><circle class="cls-2" cx="-0.01" cy="8.99" r="0.57"/><circle class="cls-2" cx="-0.01" cy="12.57" r="0.57"/><circle class="cls-2" cx="-0.01" cy="16.14" r="0.57"/><circle class="cls-2" cx="-0.01" cy="19.71" r="0.57"/><circle class="cls-2" cx="-0.01" cy="23.29" r="0.57"/><circle class="cls-2" cx="-0.01" cy="26.86" r="0.57"/><circle class="cls-2" cx="-0.01" cy="30.43" r="0.57"/><circle class="cls-2" cx="-0.01" cy="34.01" r="0.57"/><circle class="cls-2" cx="-0.01" cy="37.58" r="0.57"/><circle class="cls-2" cx="-0.01" cy="41.15" r="0.57"/></pattern><pattern id="New_Pattern_Swatch_1-7" data-name="New Pattern Swatch 1" width="42.9" height="43" patternTransform="translate(0 183.34)" patternUnits="userSpaceOnUse" viewBox="0 0 42.9 43"><rect class="cls-1" width="42.9" height="43"/><circle class="cls-2" cx="42.91" cy="1.85" r="0.57"/><circle class="cls-2" cx="42.91" cy="5.42" r="0.57"/><circle class="cls-2" cx="42.91" cy="8.99" r="0.57"/><circle class="cls-2" cx="42.91" cy="12.57" r="0.57"/><circle class="cls-2" cx="42.91" cy="16.14" r="0.57"/><circle class="cls-2" cx="42.91" cy="19.71" r="0.57"/><circle class="cls-2" cx="42.91" cy="23.29" r="0.57"/><circle class="cls-2" cx="42.91" cy="26.86" r="0.57"/><circle class="cls-2" cx="42.91" cy="30.43" r="0.57"/><circle class="cls-2" cx="42.91" cy="34.01" r="0.57"/><circle class="cls-2" cx="42.91" cy="37.58" r="0.57"/><circle class="cls-2" cx="42.91" cy="41.15" r="0.57"/><circle class="cls-2" cx="42.89" cy="1.85" r="0.57"/><circle class="cls-2" cx="42.89" cy="5.42" r="0.57"/><circle class="cls-2" cx="42.89" cy="8.99" r="0.57"/><circle class="cls-2" cx="42.89" cy="12.57" r="0.57"/><circle class="cls-2" cx="42.89" cy="16.14" r="0.57"/><circle class="cls-2" cx="42.89" cy="19.71" r="0.57"/><circle class="cls-2" cx="42.89" cy="23.29" r="0.57"/><circle class="cls-2" cx="42.89" cy="26.86" r="0.57"/><circle class="cls-2" cx="42.89" cy="30.43" r="0.57"/><circle class="cls-2" cx="42.89" cy="34.01" r="0.57"/><circle class="cls-2" cx="42.89" cy="37.58" r="0.57"/><circle class="cls-2" cx="42.89" cy="41.15" r="0.57"/><g class="cls-3"><circle class="cls-2" cx="42.81" cy="1.85" r="0.57"/><circle class="cls-2" cx="42.81" cy="5.42" r="0.57"/><circle class="cls-2" cx="42.81" cy="8.99" r="0.57"/><circle class="cls-2" cx="42.81" cy="12.57" r="0.57"/><circle class="cls-2" cx="42.81" cy="16.14" r="0.57"/><circle class="cls-2" cx="42.81" cy="19.71" r="0.57"/><circle class="cls-2" cx="42.81" cy="23.29" r="0.57"/><circle class="cls-2" cx="42.81" cy="26.86" r="0.57"/><circle class="cls-2" cx="42.81" cy="30.43" r="0.57"/><circle class="cls-2" cx="42.81" cy="34.01" r="0.57"/><circle class="cls-2" cx="42.81" cy="37.58" r="0.57"/><circle class="cls-2" cx="42.81" cy="41.15" r="0.57"/><circle class="cls-2" cx="42.79" cy="1.85" r="0.57"/><circle class="cls-2" cx="42.79" cy="5.42" r="0.57"/><circle class="cls-2" cx="42.79" cy="8.99" r="0.57"/><circle class="cls-2" cx="42.79" cy="12.57" r="0.57"/><circle class="cls-2" cx="42.79" cy="16.14" r="0.57"/><circle class="cls-2" cx="42.79" cy="19.71" r="0.57"/><circle class="cls-2" cx="42.79" cy="23.29" r="0.57"/><circle class="cls-2" cx="42.79" cy="26.86" r="0.57"/><circle class="cls-2" cx="42.79" cy="30.43" r="0.57"/><circle class="cls-2" cx="42.79" cy="34.01" r="0.57"/><circle class="cls-2" cx="42.79" cy="37.58" r="0.57"/><circle class="cls-2" cx="42.79" cy="41.15" r="0.57"/></g><circle class="cls-2" cx="42.91" cy="1.85" r="0.57"/><circle class="cls-2" cx="42.91" cy="5.42" r="0.57"/><circle class="cls-2" cx="42.91" cy="8.99" r="0.57"/><circle class="cls-2" cx="42.91" cy="12.57" r="0.57"/><circle class="cls-2" cx="42.91" cy="16.14" r="0.57"/><circle class="cls-2" cx="42.91" cy="19.71" r="0.57"/><circle class="cls-2" cx="42.91" cy="23.29" r="0.57"/><circle class="cls-2" cx="42.91" cy="26.86" r="0.57"/><circle class="cls-2" cx="42.91" cy="30.43" r="0.57"/><circle class="cls-2" cx="42.91" cy="34.01" r="0.57"/><circle class="cls-2" cx="42.91" cy="37.58" r="0.57"/><circle class="cls-2" cx="42.91" cy="41.15" r="0.57"/><circle class="cls-2" cx="0.01" cy="1.85" r="0.57"/><circle class="cls-2" cx="3.59" cy="1.85" r="0.57"/><circle class="cls-2" cx="7.16" cy="1.85" r="0.57"/><circle class="cls-2" cx="10.73" cy="1.85" r="0.57"/><circle class="cls-2" cx="0.01" cy="5.42" r="0.57"/><circle class="cls-2" cx="3.59" cy="5.42" r="0.57"/><circle class="cls-2" cx="7.16" cy="5.42" r="0.57"/><circle class="cls-2" cx="10.73" cy="5.42" r="0.57"/><circle class="cls-2" cx="0.01" cy="8.99" r="0.57"/><circle class="cls-2" cx="3.59" cy="8.99" r="0.57"/><circle class="cls-2" cx="7.16" cy="8.99" r="0.57"/><circle class="cls-2" cx="10.73" cy="8.99" r="0.57"/><circle class="cls-2" cx="0.01" cy="12.57" r="0.57"/><circle class="cls-2" cx="3.59" cy="12.57" r="0.57"/><circle class="cls-2" cx="7.16" cy="12.57" r="0.57"/><circle class="cls-2" cx="10.73" cy="12.57" r="0.57"/><circle class="cls-2" cx="0.01" cy="16.14" r="0.57"/><circle class="cls-2" cx="3.59" cy="16.14" r="0.57"/><circle class="cls-2" cx="7.16" cy="16.14" r="0.57"/><circle class="cls-2" cx="10.73" cy="16.14" r="0.57"/><circle class="cls-2" cx="0.01" cy="19.71" r="0.57"/><circle class="cls-2" cx="3.59" cy="19.71" r="0.57"/><circle class="cls-2" cx="7.16" cy="19.71" r="0.57"/><circle class="cls-2" cx="10.73" cy="19.71" r="0.57"/><circle class="cls-2" cx="14.3" cy="1.85" r="0.57"/><circle class="cls-2" cx="17.88" cy="1.85" r="0.57"/><circle class="cls-2" cx="21.45" cy="1.85" r="0.57"/><circle class="cls-2" cx="25.02" cy="1.85" r="0.57"/><circle class="cls-2" cx="28.6" cy="1.85" r="0.57"/><circle class="cls-2" cx="14.3" cy="5.42" r="0.57"/><circle class="cls-2" cx="17.88" cy="5.42" r="0.57"/><circle class="cls-2" cx="21.45" cy="5.42" r="0.57"/><circle class="cls-2" cx="25.02" cy="5.42" r="0.57"/><circle class="cls-2" cx="28.6" cy="5.42" r="0.57"/><circle class="cls-2" cx="14.3" cy="8.99" r="0.57"/><circle class="cls-2" cx="17.88" cy="8.99" r="0.57"/><circle class="cls-2" cx="21.45" cy="8.99" r="0.57"/><circle class="cls-2" cx="25.02" cy="8.99" r="0.57"/><circle class="cls-2" cx="28.6" cy="8.99" r="0.57"/><circle class="cls-2" cx="14.3" cy="12.57" r="0.57"/><circle class="cls-2" cx="17.88" cy="12.57" r="0.57"/><circle class="cls-2" cx="21.45" cy="12.57" r="0.57"/><circle class="cls-2" cx="25.02" cy="12.57" r="0.57"/><circle class="cls-2" cx="28.6" cy="12.57" r="0.57"/><circle class="cls-2" cx="14.3" cy="16.14" r="0.57"/><circle class="cls-2" cx="17.88" cy="16.14" r="0.57"/><circle class="cls-2" cx="21.45" cy="16.14" r="0.57"/><circle class="cls-2" cx="25.02" cy="16.14" r="0.57"/><circle class="cls-2" cx="28.6" cy="16.14" r="0.57"/><circle class="cls-2" cx="14.3" cy="19.71" r="0.57"/><circle class="cls-2" cx="17.88" cy="19.71" r="0.57"/><circle class="cls-2" cx="21.45" cy="19.71" r="0.57"/><circle class="cls-2" cx="25.02" cy="19.71" r="0.57"/><circle class="cls-2" cx="28.6" cy="19.71" r="0.57"/><circle class="cls-2" cx="32.17" cy="1.85" r="0.57"/><circle class="cls-2" cx="35.74" cy="1.85" r="0.57"/><circle class="cls-2" cx="39.31" cy="1.85" r="0.57"/><circle class="cls-2" cx="42.89" cy="1.85" r="0.57"/><circle class="cls-2" cx="32.17" cy="5.42" r="0.57"/><circle class="cls-2" cx="35.74" cy="5.42" r="0.57"/><circle class="cls-2" cx="39.31" cy="5.42" r="0.57"/><circle class="cls-2" cx="42.89" cy="5.42" r="0.57"/><circle class="cls-2" cx="32.17" cy="8.99" r="0.57"/><circle class="cls-2" cx="35.74" cy="8.99" r="0.57"/><circle class="cls-2" cx="39.31" cy="8.99" r="0.57"/><circle class="cls-2" cx="42.89" cy="8.99" r="0.57"/><circle class="cls-2" cx="32.17" cy="12.57" r="0.57"/><circle class="cls-2" cx="35.74" cy="12.57" r="0.57"/><circle class="cls-2" cx="39.31" cy="12.57" r="0.57"/><circle class="cls-2" cx="42.89" cy="12.57" r="0.57"/><circle class="cls-2" cx="32.17" cy="16.14" r="0.57"/><circle class="cls-2" cx="35.74" cy="16.14" r="0.57"/><circle class="cls-2" cx="39.31" cy="16.14" r="0.57"/><circle class="cls-2" cx="42.89" cy="16.14" r="0.57"/><circle class="cls-2" cx="32.17" cy="19.71" r="0.57"/><circle class="cls-2" cx="35.74" cy="19.71" r="0.57"/><circle class="cls-2" cx="39.31" cy="19.71" r="0.57"/><circle class="cls-2" cx="42.89" cy="19.71" r="0.57"/><circle class="cls-2" cx="0.01" cy="23.29" r="0.57"/><circle class="cls-2" cx="3.59" cy="23.29" r="0.57"/><circle class="cls-2" cx="7.16" cy="23.29" r="0.57"/><circle class="cls-2" cx="10.73" cy="23.29" r="0.57"/><circle class="cls-2" cx="0.01" cy="26.86" r="0.57"/><circle class="cls-2" cx="3.59" cy="26.86" r="0.57"/><circle class="cls-2" cx="7.16" cy="26.86" r="0.57"/><circle class="cls-2" cx="10.73" cy="26.86" r="0.57"/><circle class="cls-2" cx="0.01" cy="30.43" r="0.57"/><circle class="cls-2" cx="3.59" cy="30.43" r="0.57"/><circle class="cls-2" cx="7.16" cy="30.43" r="0.57"/><circle class="cls-2" cx="10.73" cy="30.43" r="0.57"/><circle class="cls-2" cx="0.01" cy="34.01" r="0.57"/><circle class="cls-2" cx="3.59" cy="34.01" r="0.57"/><circle class="cls-2" cx="7.16" cy="34.01" r="0.57"/><circle class="cls-2" cx="10.73" cy="34.01" r="0.57"/><circle class="cls-2" cx="0.01" cy="37.58" r="0.57"/><circle class="cls-2" cx="3.59" cy="37.58" r="0.57"/><circle class="cls-2" cx="7.16" cy="37.58" r="0.57"/><circle class="cls-2" cx="10.73" cy="37.58" r="0.57"/><circle class="cls-2" cx="0.01" cy="41.15" r="0.57"/><circle class="cls-2" cx="3.59" cy="41.15" r="0.57"/><circle class="cls-2" cx="7.16" cy="41.15" r="0.57"/><circle class="cls-2" cx="10.73" cy="41.15" r="0.57"/><circle class="cls-2" cx="14.3" cy="23.29" r="0.57"/><circle class="cls-2" cx="17.88" cy="23.29" r="0.57"/><circle class="cls-2" cx="21.45" cy="23.29" r="0.57"/><circle class="cls-2" cx="25.02" cy="23.29" r="0.57"/><circle class="cls-2" cx="28.6" cy="23.29" r="0.57"/><circle class="cls-2" cx="14.3" cy="26.86" r="0.57"/><circle class="cls-2" cx="17.88" cy="26.86" r="0.57"/><circle class="cls-2" cx="21.45" cy="26.86" r="0.57"/><circle class="cls-2" cx="25.02" cy="26.86" r="0.57"/><circle class="cls-2" cx="28.6" cy="26.86" r="0.57"/><circle class="cls-2" cx="14.3" cy="30.43" r="0.57"/><circle class="cls-2" cx="17.88" cy="30.43" r="0.57"/><circle class="cls-2" cx="21.45" cy="30.43" r="0.57"/><circle class="cls-2" cx="25.02" cy="30.43" r="0.57"/><circle class="cls-2" cx="28.6" cy="30.43" r="0.57"/><circle class="cls-2" cx="14.3" cy="34.01" r="0.57"/><circle class="cls-2" cx="17.88" cy="34.01" r="0.57"/><circle class="cls-2" cx="21.45" cy="34.01" r="0.57"/><circle class="cls-2" cx="25.02" cy="34.01" r="0.57"/><circle class="cls-2" cx="28.6" cy="34.01" r="0.57"/><circle class="cls-2" cx="14.3" cy="37.58" r="0.57"/><circle class="cls-2" cx="17.88" cy="37.58" r="0.57"/><circle class="cls-2" cx="21.45" cy="37.58" r="0.57"/><circle class="cls-2" cx="25.02" cy="37.58" r="0.57"/><circle class="cls-2" cx="28.6" cy="37.58" r="0.57"/><circle class="cls-2" cx="14.3" cy="41.15" r="0.57"/><circle class="cls-2" cx="17.88" cy="41.15" r="0.57"/><circle class="cls-2" cx="21.45" cy="41.15" r="0.57"/><circle class="cls-2" cx="25.02" cy="41.15" r="0.57"/><circle class="cls-2" cx="28.6" cy="41.15" r="0.57"/><circle class="cls-2" cx="32.17" cy="23.29" r="0.57"/><circle class="cls-2" cx="35.74" cy="23.29" r="0.57"/><circle class="cls-2" cx="39.31" cy="23.29" r="0.57"/><circle class="cls-2" cx="42.89" cy="23.29" r="0.57"/><circle class="cls-2" cx="32.17" cy="26.86" r="0.57"/><circle class="cls-2" cx="35.74" cy="26.86" r="0.57"/><circle class="cls-2" cx="39.31" cy="26.86" r="0.57"/><circle class="cls-2" cx="42.89" cy="26.86" r="0.57"/><circle class="cls-2" cx="32.17" cy="30.43" r="0.57"/><circle class="cls-2" cx="35.74" cy="30.43" r="0.57"/><circle class="cls-2" cx="39.31" cy="30.43" r="0.57"/><circle class="cls-2" cx="42.89" cy="30.43" r="0.57"/><circle class="cls-2" cx="32.17" cy="34.01" r="0.57"/><circle class="cls-2" cx="35.74" cy="34.01" r="0.57"/><circle class="cls-2" cx="39.31" cy="34.01" r="0.57"/><circle class="cls-2" cx="42.89" cy="34.01" r="0.57"/><circle class="cls-2" cx="32.17" cy="37.58" r="0.57"/><circle class="cls-2" cx="35.74" cy="37.58" r="0.57"/><circle class="cls-2" cx="39.31" cy="37.58" r="0.57"/><circle class="cls-2" cx="42.89" cy="37.58" r="0.57"/><circle class="cls-2" cx="32.17" cy="41.15" r="0.57"/><circle class="cls-2" cx="35.74" cy="41.15" r="0.57"/><circle class="cls-2" cx="39.31" cy="41.15" r="0.57"/><circle class="cls-2" cx="42.89" cy="41.15" r="0.57"/><circle class="cls-2" cx="-0.01" cy="1.85" r="0.57"/><circle class="cls-2" cx="-0.01" cy="5.42" r="0.57"/><circle class="cls-2" cx="-0.01" cy="8.99" r="0.57"/><circle class="cls-2" cx="-0.01" cy="12.57" r="0.57"/><circle class="cls-2" cx="-0.01" cy="16.14" r="0.57"/><circle class="cls-2" cx="-0.01" cy="19.71" r="0.57"/><circle class="cls-2" cx="-0.01" cy="23.29" r="0.57"/><circle class="cls-2" cx="-0.01" cy="26.86" r="0.57"/><circle class="cls-2" cx="-0.01" cy="30.43" r="0.57"/><circle class="cls-2" cx="-0.01" cy="34.01" r="0.57"/><circle class="cls-2" cx="-0.01" cy="37.58" r="0.57"/><circle class="cls-2" cx="-0.01" cy="41.15" r="0.57"/><g class="cls-4"><circle class="cls-2" cx="-0.09" cy="1.85" r="0.57"/><circle class="cls-2" cx="-0.09" cy="5.42" r="0.57"/><circle class="cls-2" cx="-0.09" cy="8.99" r="0.57"/><circle class="cls-2" cx="-0.09" cy="12.57" r="0.57"/><circle class="cls-2" cx="-0.09" cy="16.14" r="0.57"/><circle class="cls-2" cx="-0.09" cy="19.71" r="0.57"/><circle class="cls-2" cx="-0.09" cy="23.29" r="0.57"/><circle class="cls-2" cx="-0.09" cy="26.86" r="0.57"/><circle class="cls-2" cx="-0.09" cy="30.43" r="0.57"/><circle class="cls-2" cx="-0.09" cy="34.01" r="0.57"/><circle class="cls-2" cx="-0.09" cy="37.58" r="0.57"/><circle class="cls-2" cx="-0.09" cy="41.15" r="0.57"/><circle class="cls-2" cx="-0.11" cy="1.85" r="0.57"/><circle class="cls-2" cx="-0.11" cy="5.42" r="0.57"/><circle class="cls-2" cx="-0.11" cy="8.99" r="0.57"/><circle class="cls-2" cx="-0.11" cy="12.57" r="0.57"/><circle class="cls-2" cx="-0.11" cy="16.14" r="0.57"/><circle class="cls-2" cx="-0.11" cy="19.71" r="0.57"/><circle class="cls-2" cx="-0.11" cy="23.29" r="0.57"/><circle class="cls-2" cx="-0.11" cy="26.86" r="0.57"/><circle class="cls-2" cx="-0.11" cy="30.43" r="0.57"/><circle class="cls-2" cx="-0.11" cy="34.01" r="0.57"/><circle class="cls-2" cx="-0.11" cy="37.58" r="0.57"/><circle class="cls-2" cx="-0.11" cy="41.15" r="0.57"/></g><circle class="cls-2" cx="0.01" cy="1.85" r="0.57"/><circle class="cls-2" cx="0.01" cy="5.42" r="0.57"/><circle class="cls-2" cx="0.01" cy="8.99" r="0.57"/><circle class="cls-2" cx="0.01" cy="12.57" r="0.57"/><circle class="cls-2" cx="0.01" cy="16.14" r="0.57"/><circle class="cls-2" cx="0.01" cy="19.71" r="0.57"/><circle class="cls-2" cx="0.01" cy="23.29" r="0.57"/><circle class="cls-2" cx="0.01" cy="26.86" r="0.57"/><circle class="cls-2" cx="0.01" cy="30.43" r="0.57"/><circle class="cls-2" cx="0.01" cy="34.01" r="0.57"/><circle class="cls-2" cx="0.01" cy="37.58" r="0.57"/><circle class="cls-2" cx="0.01" cy="41.15" r="0.57"/><circle class="cls-2" cx="-0.01" cy="1.85" r="0.57"/><circle class="cls-2" cx="-0.01" cy="5.42" r="0.57"/><circle class="cls-2" cx="-0.01" cy="8.99" r="0.57"/><circle class="cls-2" cx="-0.01" cy="12.57" r="0.57"/><circle class="cls-2" cx="-0.01" cy="16.14" r="0.57"/><circle class="cls-2" cx="-0.01" cy="19.71" r="0.57"/><circle class="cls-2" cx="-0.01" cy="23.29" r="0.57"/><circle class="cls-2" cx="-0.01" cy="26.86" r="0.57"/><circle class="cls-2" cx="-0.01" cy="30.43" r="0.57"/><circle class="cls-2" cx="-0.01" cy="34.01" r="0.57"/><circle class="cls-2" cx="-0.01" cy="37.58" r="0.57"/><circle class="cls-2" cx="-0.01" cy="41.15" r="0.57"/></pattern></defs><title>10-free-finance-icon</title><rect class="cls-5" x="14.52" y="66.15" width="225.8" height="99.38"/><path class="cls-6" d="M9.61,62V170.76H95.39A48.15,48.15,0,0,1,89,160.28H38.74a18.64,18.64,0,0,0-18.65-18.64V90.82A18.35,18.35,0,0,0,38.45,72.47h179.1a18.35,18.35,0,0,0,18.36,18.35v51.12a18.36,18.36,0,0,0-18.36,18.34H177.72a48.56,48.56,0,0,1-6.41,10.48h75.08V62Z"/><path class="cls-2" d="M10.18,62.56l-.06,108.2-.51-.51,85.78.07L95,171a48.83,48.83,0,0,1-6.46-10.59l.39.26-50.23-.05a.4.4,0,0,1-.39-.38h0A18.23,18.23,0,0,0,20.09,142a.38.38,0,0,1-.37-.37l-.08-50.82a.45.45,0,0,1,.45-.45h0A17.87,17.87,0,0,0,38,72.47a.51.51,0,0,1,.49-.5h0l179.1-.28a.78.78,0,0,1,.78.78h0A17.55,17.55,0,0,0,235.91,90a.83.83,0,0,1,.83.82h0l.08,51.12a.91.91,0,0,1-.91.91h0a17.41,17.41,0,0,0-17.4,17.43,1,1,0,0,1-.95.95h0l-39.83.07.93-.61a49.31,49.31,0,0,1-6.52,10.72l-.82-1.69,75.08-.12-1.15,1.16-.09-54.39,0-54.38,1.22,1.22-118-.19-59.05-.19ZM9,61.41l59.2-.27L127.57,61l118.82-.19A1.2,1.2,0,0,1,247.61,62h0l0,54.38-.09,54.39a1.16,1.16,0,0,1-1.16,1.16l-75.08-.12a1,1,0,0,1-1-1,1.07,1.07,0,0,1,.23-.65,47.27,47.27,0,0,0,6.29-10.25,1,1,0,0,1,.93-.6l39.83.06-1,1A19.3,19.3,0,0,1,235.91,141l-.91.91.08-51.12.83.83A19.18,19.18,0,0,1,222.36,86a19.19,19.19,0,0,1-5.59-13.55l.78.78L38.45,73l.49-.5a18.83,18.83,0,0,1-18.85,18.8l.45-.45-.08,50.82-.37-.37a19.13,19.13,0,0,1,13.44,5.57A18.75,18.75,0,0,1,37.66,153a19.15,19.15,0,0,1,1.46,7.28l-.38-.38L89,159.85a.45.45,0,0,1,.39.25,47.14,47.14,0,0,0,6.37,10.39.43.43,0,0,1-.07.61.41.41,0,0,1-.27.1l-85.78.08a.52.52,0,0,1-.52-.52h0Z"/><path class="cls-7" d="M9.61,62V170.76H95.39A48.15,48.15,0,0,1,89,160.28H38.74a18.64,18.64,0,0,0-18.65-18.64V90.82A18.35,18.35,0,0,0,38.45,72.47h179.1a18.35,18.35,0,0,0,18.36,18.35v51.12a18.36,18.36,0,0,0-18.36,18.34H177.72a48.56,48.56,0,0,1-6.41,10.48h75.08V62Z"/><path class="cls-2" d="M10.18,62.56l-.06,108.2-.51-.51,85.78.07L95,171a48.83,48.83,0,0,1-6.46-10.59l.39.26-50.23-.05a.4.4,0,0,1-.39-.38h0A18.23,18.23,0,0,0,20.09,142a.38.38,0,0,1-.37-.37l-.08-50.82a.45.45,0,0,1,.45-.45h0A17.87,17.87,0,0,0,38,72.47a.51.51,0,0,1,.49-.5h0l179.1-.28a.78.78,0,0,1,.78.78h0A17.55,17.55,0,0,0,235.91,90a.83.83,0,0,1,.83.82h0l.08,51.12a.91.91,0,0,1-.91.91h0a17.41,17.41,0,0,0-17.4,17.43,1,1,0,0,1-.95.95h0l-39.83.07.93-.61a49.31,49.31,0,0,1-6.52,10.72l-.82-1.69,75.08-.12-1.15,1.16-.09-54.39,0-54.38,1.22,1.22-118-.19-59.05-.19ZM9,61.41l59.2-.27L127.57,61l118.82-.19A1.2,1.2,0,0,1,247.61,62h0l0,54.38-.09,54.39a1.16,1.16,0,0,1-1.16,1.16l-75.08-.12a1,1,0,0,1-1-1,1.07,1.07,0,0,1,.23-.65,47.27,47.27,0,0,0,6.29-10.25,1,1,0,0,1,.93-.6l39.83.06-1,1A19.3,19.3,0,0,1,235.91,141l-.91.91.08-51.12.83.83A19.18,19.18,0,0,1,222.36,86a19.19,19.19,0,0,1-5.59-13.55l.78.78L38.45,73l.49-.5a18.83,18.83,0,0,1-18.85,18.8l.45-.45-.08,50.82-.37-.37a19.13,19.13,0,0,1,13.44,5.57A18.75,18.75,0,0,1,37.66,153a19.15,19.15,0,0,1,1.46,7.28l-.38-.38L89,159.85a.45.45,0,0,1,.39.25,47.14,47.14,0,0,0,6.37,10.39.43.43,0,0,1-.07.61.41.41,0,0,1-.27.1l-85.78.08a.52.52,0,0,1-.52-.52h0Z"/><path class="cls-8" d="M48.46,27.2V44.6H207.54V27.2Z"/><path class="cls-2" d="M49,27.78c.09,5.61.11,11.16,0,16.82L48.46,44c6.63.09,13.25.09,19.88.14l19.89.08c13.26,0,26.51.06,39.77,0l39.77-.15,39.77-.27-.81.82-.11-17.4.92.93-39.55.2c-13.18,0-26.32.09-39.51,0s-26.34-.05-39.59-.19Zm-1.15-1.15,39.69-.4c13.26-.13,26.63-.13,40-.19s26.7,0,40,0l40,.19h0a.93.93,0,0,1,.92.93h0l-.12,17.4h0a.8.8,0,0,1-.81.8l-39.77-.27L128,45c-13.26-.07-26.51,0-39.77,0l-19.89.08c-6.63,0-13.25,0-19.88.14a.59.59,0,0,1-.61-.59h0C47.77,38.66,47.79,32.61,47.88,26.63Z"/><path class="cls-7" d="M48.46,27.2V44.6H207.54V27.2Z"/><path class="cls-2" d="M49,27.78c.09,5.61.11,11.16,0,16.82L48.46,44c6.63.09,13.25.09,19.88.14l19.89.08c13.26,0,26.51.06,39.77,0l39.77-.15,39.77-.27-.81.82-.11-17.4.92.93-39.55.2c-13.18,0-26.32.09-39.51,0s-26.34-.05-39.59-.19Zm-1.15-1.15,39.69-.4c13.26-.13,26.63-.13,40-.19s26.7,0,40,0l40,.19h0a.93.93,0,0,1,.92.93h0l-.12,17.4h0a.8.8,0,0,1-.81.8l-39.77-.27L128,45c-13.26-.07-26.51,0-39.77,0l-19.89.08c-6.63,0-13.25,0-19.88.14a.59.59,0,0,1-.61-.59h0C47.77,38.66,47.79,32.61,47.88,26.63Z"/><path class="cls-5" d="M23.53,44.6V62H232.47V44.6Z"/><path class="cls-2" d="M24.11,45.17c.1,5.63.14,11.17.08,16.82l-.66-.66c8.71.1,17.41.14,26.12.17l26.12.1H128l104.47-.41-.81.81-.07-17.39.88.88-52,.18c-17.34,0-34.63.14-52,.1s-34.65-.06-52-.19ZM23,44l52.14-.4c17.42-.13,34.94-.12,52.42-.18s35,.05,52.51.09l52.44.19h0a.87.87,0,0,1,.88.88h0L233.28,62h0a.81.81,0,0,1-.81.81L128,62.38H75.77l-26.12.1q-13.07,0-26.12.17a.63.63,0,0,1-.65-.64h0C22.82,56,22.85,50,23,44Z"/><circle class="cls-9" cx="52.31" cy="108.68" r="12.12"/><path class="cls-2" d="M65.08,108.68a12.69,12.69,0,0,1-3.92,8.85,13,13,0,0,1-8.85,3.56,12.52,12.52,0,0,1-8.87-3.55,12.76,12.76,0,0,1-.32-18.05,12.8,12.8,0,0,1,14.21-2.92,12.87,12.87,0,0,1,7.75,12.11Zm-1.29,0a11.39,11.39,0,0,0-3.54-7.94,11.58,11.58,0,0,0-7.94-3.18,11.22,11.22,0,0,0-8,3.16A11.49,11.49,0,0,0,44,117a11.46,11.46,0,0,0,12.8,2.64A11.44,11.44,0,0,0,60.6,117,11.62,11.62,0,0,0,63.79,108.68Z"/><circle class="cls-9" cx="204.13" cy="108.68" r="12.12"/><path class="cls-2" d="M216.9,108.68a12.69,12.69,0,0,1-3.92,8.85,13,13,0,0,1-8.85,3.56,12.52,12.52,0,0,1-8.87-3.55,12.76,12.76,0,0,1-.32-18.05,12.8,12.8,0,0,1,14.21-2.92,12.87,12.87,0,0,1,7.75,12.11Zm-1.29,0a11.39,11.39,0,0,0-3.54-7.94,11.58,11.58,0,0,0-7.94-3.18,11.2,11.2,0,0,0-8,3.16,11.49,11.49,0,0,0-.32,16.24,11.46,11.46,0,0,0,12.8,2.64,11.44,11.44,0,0,0,3.77-2.63A11.62,11.62,0,0,0,215.61,108.68Z"/><path class="cls-9" d="M173.66,113.2a47.58,47.58,0,0,0-4.07-5.24,48.5,48.5,0,0,0-21.23-13.83,15.77,15.77,0,0,0-30,0A48.89,48.89,0,0,0,93,113.18c1.24-17.77,9.94-32.89,22.17-40.52h36.28C163.73,80.3,172.43,95.43,173.66,113.2Z"/><path class="cls-2" d="M173.87,113.81a1.47,1.47,0,0,1-.66-.26,1.28,1.28,0,0,1-.26-.26l-.1-.15-.28-.41-.56-.82c-.39-.54-.79-1.07-1.19-1.59-.82-1-1.69-2.06-2.59-3a46.93,46.93,0,0,0-5.88-5.39,48.15,48.15,0,0,0-14.09-7.46.31.31,0,0,1-.2-.2,15.29,15.29,0,0,0-5.6-7.76,15.39,15.39,0,0,0-23.79,7.76.43.43,0,0,1-.22.22,48,48,0,0,0-25,19,.53.53,0,0,1-.73.15.52.52,0,0,1-.24-.48h0a59.39,59.39,0,0,1,6.25-23.21,46,46,0,0,1,16-18,.86.86,0,0,1,.46-.14h0l18.14-.08c6.05,0,12.09,0,18.14,0h0a1,1,0,0,1,.52.15,43.11,43.11,0,0,1,9.28,8,49.37,49.37,0,0,1,6.82,10.08,54.64,54.64,0,0,1,4.32,11.34,60.18,60.18,0,0,1,1.23,5.94l.2,1.5.11.75c0,.24.07.49.09.82a12.06,12.06,0,0,1,0,1.9Zm-.42-1.22a9.21,9.21,0,0,0-.47-1.27,4.22,4.22,0,0,1-.29-1.08c0-.18-.06-.42-.1-.67l-.12-.73-.24-1.46c-.37-1.94-.8-3.86-1.36-5.75a56.76,56.76,0,0,0-4.38-10.92A45.32,45.32,0,0,0,151,73.5l.52.15c-6.05,0-12.09,0-18.14,0l-18.14-.08.47-.13a45.09,45.09,0,0,0-15.63,17.19,58.09,58.09,0,0,0-6.48,22.61l-1-.33A49.8,49.8,0,0,1,118.23,93.8L118,94a16.11,16.11,0,0,1,30.65,0l-.2-.21a49.15,49.15,0,0,1,14.41,7.37,52.89,52.89,0,0,1,6.14,5.35c.94,1,1.86,2,2.72,3,.43.53.86,1.06,1.27,1.61l.6.82.3.42,0,.06a.22.22,0,0,0-.13-.06A.39.39,0,0,0,173.45,112.59Z"/><circle class="cls-7" cx="52.31" cy="108.68" r="12.12"/><path class="cls-2" d="M65.08,108.68a12.69,12.69,0,0,1-3.92,8.85,13,13,0,0,1-8.85,3.56,12.55,12.55,0,0,1-8.87-3.54,12.77,12.77,0,0,1-.32-18.06,12.8,12.8,0,0,1,14.21-2.92,12.87,12.87,0,0,1,7.75,12.11Zm-1.29,0a11.39,11.39,0,0,0-3.54-7.94,11.58,11.58,0,0,0-7.94-3.18,11.22,11.22,0,0,0-8,3.16A11.49,11.49,0,0,0,44,117a11.46,11.46,0,0,0,12.8,2.64A11.44,11.44,0,0,0,60.6,117,11.62,11.62,0,0,0,63.79,108.68Z"/><path class="cls-2" d="M40.18,128.27l24.25-.77a1,1,0,0,1,.07,2h-.07l-24.25-.78a.23.23,0,0,1-.22-.23A.24.24,0,0,1,40.18,128.27Z"/><path class="cls-2" d="M40.18,136l24.25-.77a1,1,0,0,1,.07,2h-.07l-24.25-.78a.22.22,0,0,1-.22-.23A.24.24,0,0,1,40.18,136Z"/><circle class="cls-10" cx="204.13" cy="108.68" r="12.12"/><path class="cls-2" d="M216.9,108.68a12.69,12.69,0,0,1-3.92,8.85,13,13,0,0,1-8.85,3.56,12.55,12.55,0,0,1-8.87-3.54,12.77,12.77,0,0,1-.32-18.06,12.8,12.8,0,0,1,14.21-2.92,12.87,12.87,0,0,1,7.75,12.11Zm-1.29,0a11.39,11.39,0,0,0-3.54-7.94,11.58,11.58,0,0,0-7.94-3.18,11.2,11.2,0,0,0-8,3.16,11.49,11.49,0,0,0-.32,16.24,11.46,11.46,0,0,0,12.8,2.64,11.44,11.44,0,0,0,3.77-2.63A11.62,11.62,0,0,0,215.61,108.68Z"/><path class="cls-2" d="M192,128.27l24.25-.77a1,1,0,0,1,.07,2h-.07L192,128.72a.23.23,0,0,1-.22-.23A.24.24,0,0,1,192,128.27Z"/><path class="cls-2" d="M192,136l24.25-.77a1,1,0,0,1,.07,2h-.07L192,136.42a.22.22,0,0,1-.22-.23A.24.24,0,0,1,192,136Z"/><path class="cls-2" d="M169,160.6a40.9,40.9,0,0,1-3.94,5.66c-.73.88-1.5,1.74-2.31,2.56s-1.62,1.59-2.55,2.37l0,0A40.66,40.66,0,0,1,132.33,181a41.32,41.32,0,0,1-14.67-3.16,42.91,42.91,0,0,1-12.58-8.19,40.84,40.84,0,0,1-8.74-12.24,41.45,41.45,0,0,1-3.68-14.6,40.81,40.81,0,0,1,8.9-28.33,42.18,42.18,0,0,1,11.52-9.88,39.7,39.7,0,0,1,14.37-5,41.28,41.28,0,0,1,29.21,6.7c.52.37,1.09.68,1.58,1.09l1.48,1.22,1.48,1.23,1.35,1.36,1.34,1.37c.46.45.83,1,1.25,1.46s.82,1,1.21,1.49l1.09,1.57a39.75,39.75,0,0,1,6,14,41.08,41.08,0,0,1,.52,15.19A42.19,42.19,0,0,1,169,160.6Zm-1.12-.64a40.59,40.59,0,0,0,4.59-13.9A39.67,39.67,0,0,0,113.88,106a40.82,40.82,0,0,0-11.25,9.35,39.75,39.75,0,0,0,2.9,53.82,40.63,40.63,0,0,0,12.35,8.13,39.69,39.69,0,0,0,29,.64,39.55,39.55,0,0,0,12.63-7.57l0,0c.79-.69,1.62-1.5,2.38-2.3s1.51-1.65,2.21-2.52A39,39,0,0,0,167.89,160Z"/><path class="cls-5" d="M210.92,227.07a6.76,6.76,0,0,1-9.57-.54L160.4,180.79a47.15,47.15,0,0,0,5.37-4.17,46.41,46.41,0,0,0,4.74-4.89l41,45.76A6.8,6.8,0,0,1,210.92,227.07Z"/><path class="cls-2" d="M211.68,227.92a7.9,7.9,0,0,1-4.76,2,8,8,0,0,1-5-1.36,7.4,7.4,0,0,1-1-.83c-.16-.15-.31-.32-.45-.47l-.38-.42-1.5-1.67-3-3.35-12-13.45c-4-4.49-7.92-9-11.87-13.54s-7.85-9.09-11.73-13.68h0a.57.57,0,0,1,.07-.8l.05,0a47.83,47.83,0,0,0,9.85-9h0a.72.72,0,0,1,1-.1l.08.07h0l24.24,26.66,12.06,13.37,3,3.35,1.51,1.67.38.42.41.5a7.05,7.05,0,0,1,.7,1.1,7.91,7.91,0,0,1-1.69,9.6Zm-1.53-1.7a5.67,5.67,0,0,0,1.26-6.86,5.07,5.07,0,0,0-.51-.79l-.29-.38-.38-.42-1.49-1.68-3-3.37-12-13.46-23.81-27,1.09,0h0a49.31,49.31,0,0,1-10.35,9l.1-.84h0q6.19,6.54,12.3,13.16c4.06,4.43,8.14,8.84,12.15,13.3l12.06,13.38,3,3.36,1.5,1.68.37.42c.12.12.21.24.33.34a4.52,4.52,0,0,0,.72.59,5.6,5.6,0,0,0,6.91-.43Z"/><path class="cls-5" d="M177.72,160.28a48.56,48.56,0,0,1-6.41,10.48c-.26.33-.53.65-.8,1a46.41,46.41,0,0,1-4.74,4.89,47.15,47.15,0,0,1-5.37,4.17,48.61,48.61,0,0,1-63.29-8c-.6-.67-1.18-1.36-1.72-2.05A48.15,48.15,0,0,1,89,160.28,48.7,48.7,0,0,1,93,113.18a48.89,48.89,0,0,1,25.3-19.06A48.65,48.65,0,0,1,169.59,108a47.58,47.58,0,0,1,4.07,5.24A48.6,48.6,0,0,1,177.72,160.28Z"/><path class="cls-2" d="M179.34,161a50.83,50.83,0,0,1-11.41,16,44.32,44.32,0,0,1-7.86,6,37.76,37.76,0,0,1-4.31,2.39l-2.23,1.07c-.75.33-1.53.59-2.3.89a50.8,50.8,0,0,1-19.33,3.17A50.79,50.79,0,0,1,97,174.67a48.78,48.78,0,0,1-10.37-16.5,50,50,0,0,1,93.43-35.58,47.39,47.39,0,0,1,2.7,9.44,48,48,0,0,1,.8,9.8,52,52,0,0,1-1.17,9.79A55.42,55.42,0,0,1,179.34,161Zm-3.24-1.45a47.88,47.88,0,0,0,1.37-36c-.49-1.47-1.16-2.86-1.78-4.28s-1.39-2.77-2.24-4.07a43.49,43.49,0,0,0-5.57-7.44,47.39,47.39,0,0,0-78.72,49.42A46.07,46.07,0,0,0,99,172.8a46.7,46.7,0,0,0,51,11.46c.72-.29,1.44-.54,2.14-.86l2.07-1a35.28,35.28,0,0,0,4-2.29,42.5,42.5,0,0,0,7.26-5.63A47.2,47.2,0,0,0,176.1,159.56Z"/><path class="cls-11" d="M170.51,171.73a46.41,46.41,0,0,1-4.74,4.89,47.15,47.15,0,0,1-5.37,4.17l3.9,4.36.28-.17a48.06,48.06,0,0,0,9.89-8.81Z"/><path class="cls-8" d="M168.45,160.28a40.1,40.1,0,0,1-8.2,10.17c-.12.1-.24.22-.36.31a40.39,40.39,0,0,1-53.1,0,39.46,39.46,0,0,1-3.51-3.46,40.35,40.35,0,1,1,65.17-7Z"/><path class="cls-2" d="M169,160.6a40.9,40.9,0,0,1-3.94,5.66c-.73.88-1.5,1.74-2.31,2.56s-1.62,1.59-2.55,2.37l0,0A40.66,40.66,0,0,1,132.33,181a41.32,41.32,0,0,1-14.67-3.16,42.91,42.91,0,0,1-12.58-8.19,40.84,40.84,0,0,1-8.74-12.24,41.45,41.45,0,0,1-3.68-14.6,40.81,40.81,0,0,1,8.9-28.33,42.18,42.18,0,0,1,11.52-9.88,39.7,39.7,0,0,1,14.37-5,41.28,41.28,0,0,1,29.21,6.7c.52.37,1.09.68,1.58,1.09l1.48,1.22,1.48,1.23,1.35,1.36,1.34,1.37c.46.45.83,1,1.25,1.46s.82,1,1.21,1.49l1.09,1.57a39.75,39.75,0,0,1,6,14,41.08,41.08,0,0,1,.52,15.19A42.19,42.19,0,0,1,169,160.6Zm-1.12-.64a40.59,40.59,0,0,0,4.59-13.9A39.67,39.67,0,0,0,113.88,106a40.82,40.82,0,0,0-11.25,9.35,39.75,39.75,0,0,0,2.9,53.82,40.63,40.63,0,0,0,12.35,8.13,39.69,39.69,0,0,0,29,.64,39.55,39.55,0,0,0,12.63-7.57l0,0c.79-.69,1.62-1.5,2.38-2.3s1.51-1.65,2.21-2.52A39,39,0,0,0,167.89,160Z"/><path class="cls-7" d="M168.45,160.28a40.1,40.1,0,0,1-8.2,10.17c-.12.1-.24.22-.36.31a40.39,40.39,0,0,1-53.1,0,39.46,39.46,0,0,1-3.51-3.46,40.35,40.35,0,1,1,65.17-7Z"/><path class="cls-2" d="M169,160.6a40.9,40.9,0,0,1-3.94,5.66c-.73.88-1.5,1.74-2.31,2.56s-1.62,1.59-2.55,2.37l0,0A40.66,40.66,0,0,1,132.33,181a41.32,41.32,0,0,1-14.67-3.16,42.91,42.91,0,0,1-12.58-8.19,40.84,40.84,0,0,1-8.74-12.24,41.45,41.45,0,0,1-3.68-14.6,40.81,40.81,0,0,1,8.9-28.33,42.18,42.18,0,0,1,11.52-9.88,39.7,39.7,0,0,1,14.37-5,41.28,41.28,0,0,1,29.21,6.7c.52.37,1.09.68,1.58,1.09l1.48,1.22,1.48,1.23,1.35,1.36,1.34,1.37c.46.45.83,1,1.25,1.46s.82,1,1.21,1.49l1.09,1.57a39.75,39.75,0,0,1,6,14,41.08,41.08,0,0,1,.52,15.19A42.19,42.19,0,0,1,169,160.6Zm-1.12-.64a40.59,40.59,0,0,0,4.59-13.9A39.67,39.67,0,0,0,113.88,106a40.82,40.82,0,0,0-11.25,9.35,39.75,39.75,0,0,0,2.9,53.82,40.63,40.63,0,0,0,12.35,8.13,39.69,39.69,0,0,0,29,.64,39.55,39.55,0,0,0,12.63-7.57l0,0c.79-.69,1.62-1.5,2.38-2.3s1.51-1.65,2.21-2.52A39,39,0,0,0,167.89,160Z"/><path class="cls-11" d="M106.44,115.71A40.32,40.32,0,0,1,173.58,143a40.32,40.32,0,1,0-80.46,0A40.18,40.18,0,0,1,106.44,115.71Z"/><path class="cls-2" d="M109.93,157.23l39.71-40.81a1,1,0,1,1,1.44,1.4l0,0-40.81,39.71a.23.23,0,0,1-.32-.32Z"/><path class="cls-2" d="M125.81,153,145.2,132.5a1,1,0,0,1,1.42,0,1,1,0,0,1,0,1.41l0,0-20.49,19.39a.22.22,0,0,1-.32,0A.22.22,0,0,1,125.81,153Z"/><path class="cls-10" d="M173.66,113.2a47.58,47.58,0,0,0-4.07-5.24,48.5,48.5,0,0,0-21.23-13.83,15.77,15.77,0,0,0-30,0A48.89,48.89,0,0,0,93,113.18c1.24-17.77,9.94-32.89,22.17-40.52h36.28C163.73,80.3,172.43,95.43,173.66,113.2Z"/><path class="cls-2" d="M173.87,113.81a1.47,1.47,0,0,1-.66-.26,1.28,1.28,0,0,1-.26-.26l-.1-.15-.28-.41-.56-.82c-.39-.54-.79-1.07-1.19-1.59-.82-1-1.69-2.06-2.59-3a46.93,46.93,0,0,0-5.88-5.39,47.89,47.89,0,0,0-14.09-7.45.34.34,0,0,1-.2-.21,15.29,15.29,0,0,0-5.6-7.76,15.39,15.39,0,0,0-23.79,7.76.43.43,0,0,1-.22.22,48,48,0,0,0-25,19,.53.53,0,0,1-.73.15.52.52,0,0,1-.24-.48h0a59.39,59.39,0,0,1,6.25-23.21,46,46,0,0,1,16-18,.86.86,0,0,1,.46-.14h0l18.14-.08c6.05,0,12.09,0,18.14,0h0a1,1,0,0,1,.52.15,43.11,43.11,0,0,1,9.28,8,49.37,49.37,0,0,1,6.82,10.08,54.64,54.64,0,0,1,4.32,11.34,60.18,60.18,0,0,1,1.23,5.94l.2,1.5.11.75c0,.24.07.49.09.82a12.06,12.06,0,0,1,0,1.9Zm-.42-1.22a9.21,9.21,0,0,0-.47-1.27,4.22,4.22,0,0,1-.29-1.08c0-.18-.06-.42-.1-.67l-.12-.73-.24-1.46c-.37-1.94-.8-3.86-1.36-5.75a56.76,56.76,0,0,0-4.38-10.92A45.32,45.32,0,0,0,151,73.5l.52.15c-6.05,0-12.09,0-18.14,0l-18.14-.08.47-.13a45.09,45.09,0,0,0-15.63,17.19,58.09,58.09,0,0,0-6.48,22.61l-1-.33A49.8,49.8,0,0,1,118.23,93.8L118,94a16.11,16.11,0,0,1,30.65,0l-.2-.21a49.15,49.15,0,0,1,14.41,7.37,52.89,52.89,0,0,1,6.14,5.35c.94,1,1.86,2,2.72,3,.43.53.86,1.06,1.27,1.61l.6.82.3.42,0,.06a.22.22,0,0,0-.13-.06A.39.39,0,0,0,173.45,112.59Z"/></svg>