<svg id="Layer_1" data-name="Layer 1" xmlns="http://www.w3.org/2000/svg" xmlns:xlink="http://www.w3.org/1999/xlink" viewBox="0 0 256 256"><defs><style>.cls-1{fill:none;}.cls-2{fill:#253759;}.cls-3{clip-path:url(#clip-path);}.cls-4{clip-path:url(#clip-path-2);}.cls-5{fill:url(#New_Pattern_Swatch_1);}</style><clipPath id="clip-path"><rect class="cls-1" x="42.85" width="43" height="43"/></clipPath><clipPath id="clip-path-2"><rect class="cls-1" x="-0.05" width="43" height="43"/></clipPath><pattern id="New_Pattern_Swatch_1" data-name="New Pattern Swatch 1" width="42.9" height="43" patternTransform="translate(0 387)" patternUnits="userSpaceOnUse" viewBox="0 0 42.9 43"><rect class="cls-1" width="42.9" height="43"/><circle class="cls-2" cx="42.91" cy="1.85" r="0.57"/><circle class="cls-2" cx="42.91" cy="5.42" r="0.57"/><circle class="cls-2" cx="42.91" cy="8.99" r="0.57"/><circle class="cls-2" cx="42.91" cy="12.57" r="0.57"/><circle class="cls-2" cx="42.91" cy="16.14" r="0.57"/><circle class="cls-2" cx="42.91" cy="19.71" r="0.57"/><circle class="cls-2" cx="42.91" cy="23.29" r="0.57"/><circle class="cls-2" cx="42.91" cy="26.86" r="0.57"/><circle class="cls-2" cx="42.91" cy="30.43" r="0.57"/><circle class="cls-2" cx="42.91" cy="34.01" r="0.57"/><circle class="cls-2" cx="42.91" cy="37.58" r="0.57"/><circle class="cls-2" cx="42.91" cy="41.15" r="0.57"/><circle class="cls-2" cx="42.89" cy="1.85" r="0.57"/><circle class="cls-2" cx="42.89" cy="5.42" r="0.57"/><circle class="cls-2" cx="42.89" cy="8.99" r="0.57"/><circle class="cls-2" cx="42.89" cy="12.57" r="0.57"/><circle class="cls-2" cx="42.89" cy="16.14" r="0.57"/><circle class="cls-2" cx="42.89" cy="19.71" r="0.57"/><circle class="cls-2" cx="42.89" cy="23.29" r="0.57"/><circle class="cls-2" cx="42.89" cy="26.86" r="0.57"/><circle class="cls-2" cx="42.89" cy="30.43" r="0.57"/><circle class="cls-2" cx="42.89" cy="34.01" r="0.57"/><circle class="cls-2" cx="42.89" cy="37.58" r="0.57"/><circle class="cls-2" cx="42.89" cy="41.15" r="0.57"/><g class="cls-3"><circle class="cls-2" cx="42.81" cy="1.85" r="0.57"/><circle class="cls-2" cx="42.81" cy="5.42" r="0.57"/><circle class="cls-2" cx="42.81" cy="8.99" r="0.57"/><circle class="cls-2" cx="42.81" cy="12.57" r="0.57"/><circle class="cls-2" cx="42.81" cy="16.14" r="0.57"/><circle class="cls-2" cx="42.81" cy="19.71" r="0.57"/><circle class="cls-2" cx="42.81" cy="23.29" r="0.57"/><circle class="cls-2" cx="42.81" cy="26.86" r="0.57"/><circle class="cls-2" cx="42.81" cy="30.43" r="0.57"/><circle class="cls-2" cx="42.81" cy="34.01" r="0.57"/><circle class="cls-2" cx="42.81" cy="37.58" r="0.57"/><circle class="cls-2" cx="42.81" cy="41.15" r="0.57"/><circle class="cls-2" cx="42.79" cy="1.85" r="0.57"/><circle class="cls-2" cx="42.79" cy="5.42" r="0.57"/><circle class="cls-2" cx="42.79" cy="8.99" r="0.57"/><circle class="cls-2" cx="42.79" cy="12.57" r="0.57"/><circle class="cls-2" cx="42.79" cy="16.14" r="0.57"/><circle class="cls-2" cx="42.79" cy="19.71" r="0.57"/><circle class="cls-2" cx="42.79" cy="23.29" r="0.57"/><circle class="cls-2" cx="42.79" cy="26.86" r="0.57"/><circle class="cls-2" cx="42.79" cy="30.43" r="0.57"/><circle class="cls-2" cx="42.79" cy="34.01" r="0.57"/><circle class="cls-2" cx="42.79" cy="37.58" r="0.57"/><circle class="cls-2" cx="42.79" cy="41.15" r="0.57"/></g><circle class="cls-2" cx="42.91" cy="1.85" r="0.57"/><circle class="cls-2" cx="42.91" cy="5.42" r="0.57"/><circle class="cls-2" cx="42.91" cy="8.99" r="0.57"/><circle class="cls-2" cx="42.91" cy="12.57" r="0.57"/><circle class="cls-2" cx="42.91" cy="16.14" r="0.57"/><circle class="cls-2" cx="42.91" cy="19.71" r="0.57"/><circle class="cls-2" cx="42.91" cy="23.29" r="0.57"/><circle class="cls-2" cx="42.91" cy="26.86" r="0.57"/><circle class="cls-2" cx="42.91" cy="30.43" r="0.57"/><circle class="cls-2" cx="42.91" cy="34.01" r="0.57"/><circle class="cls-2" cx="42.91" cy="37.58" r="0.57"/><circle class="cls-2" cx="42.91" cy="41.15" r="0.57"/><circle class="cls-2" cx="0.01" cy="1.85" r="0.57"/><circle class="cls-2" cx="3.59" cy="1.85" r="0.57"/><circle class="cls-2" cx="7.16" cy="1.85" r="0.57"/><circle class="cls-2" cx="10.73" cy="1.85" r="0.57"/><circle class="cls-2" cx="0.01" cy="5.42" r="0.57"/><circle class="cls-2" cx="3.59" cy="5.42" r="0.57"/><circle class="cls-2" cx="7.16" cy="5.42" r="0.57"/><circle class="cls-2" cx="10.73" cy="5.42" r="0.57"/><circle class="cls-2" cx="0.01" cy="8.99" r="0.57"/><circle class="cls-2" cx="3.59" cy="8.99" r="0.57"/><circle class="cls-2" cx="7.16" cy="8.99" r="0.57"/><circle class="cls-2" cx="10.73" cy="8.99" r="0.57"/><circle class="cls-2" cx="0.01" cy="12.57" r="0.57"/><circle class="cls-2" cx="3.59" cy="12.57" r="0.57"/><circle class="cls-2" cx="7.16" cy="12.57" r="0.57"/><circle class="cls-2" cx="10.73" cy="12.57" r="0.57"/><circle class="cls-2" cx="0.01" cy="16.14" r="0.57"/><circle class="cls-2" cx="3.59" cy="16.14" r="0.57"/><circle class="cls-2" cx="7.16" cy="16.14" r="0.57"/><circle class="cls-2" cx="10.73" cy="16.14" r="0.57"/><circle class="cls-2" cx="0.01" cy="19.71" r="0.57"/><circle class="cls-2" cx="3.59" cy="19.71" r="0.57"/><circle class="cls-2" cx="7.16" cy="19.71" r="0.57"/><circle class="cls-2" cx="10.73" cy="19.71" r="0.57"/><circle class="cls-2" cx="14.3" cy="1.85" r="0.57"/><circle class="cls-2" cx="17.88" cy="1.85" r="0.57"/><circle class="cls-2" cx="21.45" cy="1.85" r="0.57"/><circle class="cls-2" cx="25.02" cy="1.85" r="0.57"/><circle class="cls-2" cx="28.6" cy="1.85" r="0.57"/><circle class="cls-2" cx="14.3" cy="5.42" r="0.57"/><circle class="cls-2" cx="17.88" cy="5.42" r="0.57"/><circle class="cls-2" cx="21.45" cy="5.42" r="0.57"/><circle class="cls-2" cx="25.02" cy="5.42" r="0.57"/><circle class="cls-2" cx="28.6" cy="5.42" r="0.57"/><circle class="cls-2" cx="14.3" cy="8.99" r="0.57"/><circle class="cls-2" cx="17.88" cy="8.99" r="0.57"/><circle class="cls-2" cx="21.45" cy="8.99" r="0.57"/><circle class="cls-2" cx="25.02" cy="8.99" r="0.57"/><circle class="cls-2" cx="28.6" cy="8.99" r="0.57"/><circle class="cls-2" cx="14.3" cy="12.57" r="0.57"/><circle class="cls-2" cx="17.88" cy="12.57" r="0.57"/><circle class="cls-2" cx="21.45" cy="12.57" r="0.57"/><circle class="cls-2" cx="25.02" cy="12.57" r="0.57"/><circle class="cls-2" cx="28.6" cy="12.57" r="0.57"/><circle class="cls-2" cx="14.3" cy="16.14" r="0.57"/><circle class="cls-2" cx="17.88" cy="16.14" r="0.57"/><circle class="cls-2" cx="21.45" cy="16.14" r="0.57"/><circle class="cls-2" cx="25.02" cy="16.14" r="0.57"/><circle class="cls-2" cx="28.6" cy="16.14" r="0.57"/><circle class="cls-2" cx="14.3" cy="19.71" r="0.57"/><circle class="cls-2" cx="17.88" cy="19.71" r="0.57"/><circle class="cls-2" cx="21.45" cy="19.71" r="0.57"/><circle class="cls-2" cx="25.02" cy="19.71" r="0.57"/><circle class="cls-2" cx="28.6" cy="19.71" r="0.57"/><circle class="cls-2" cx="32.17" cy="1.85" r="0.57"/><circle class="cls-2" cx="35.74" cy="1.85" r="0.57"/><circle class="cls-2" cx="39.31" cy="1.85" r="0.57"/><circle class="cls-2" cx="42.89" cy="1.85" r="0.57"/><circle class="cls-2" cx="32.17" cy="5.42" r="0.57"/><circle class="cls-2" cx="35.74" cy="5.42" r="0.57"/><circle class="cls-2" cx="39.31" cy="5.42" r="0.57"/><circle class="cls-2" cx="42.89" cy="5.42" r="0.57"/><circle class="cls-2" cx="32.17" cy="8.99" r="0.57"/><circle class="cls-2" cx="35.74" cy="8.99" r="0.57"/><circle class="cls-2" cx="39.31" cy="8.99" r="0.57"/><circle class="cls-2" cx="42.89" cy="8.99" r="0.57"/><circle class="cls-2" cx="32.17" cy="12.57" r="0.57"/><circle class="cls-2" cx="35.74" cy="12.57" r="0.57"/><circle class="cls-2" cx="39.31" cy="12.57" r="0.57"/><circle class="cls-2" cx="42.89" cy="12.57" r="0.57"/><circle class="cls-2" cx="32.17" cy="16.14" r="0.57"/><circle class="cls-2" cx="35.74" cy="16.14" r="0.57"/><circle class="cls-2" cx="39.31" cy="16.14" r="0.57"/><circle class="cls-2" cx="42.89" cy="16.14" r="0.57"/><circle class="cls-2" cx="32.17" cy="19.71" r="0.57"/><circle class="cls-2" cx="35.74" cy="19.71" r="0.57"/><circle class="cls-2" cx="39.31" cy="19.71" r="0.57"/><circle class="cls-2" cx="42.89" cy="19.71" r="0.57"/><circle class="cls-2" cx="0.01" cy="23.29" r="0.57"/><circle class="cls-2" cx="3.59" cy="23.29" r="0.57"/><circle class="cls-2" cx="7.16" cy="23.29" r="0.57"/><circle class="cls-2" cx="10.73" cy="23.29" r="0.57"/><circle class="cls-2" cx="0.01" cy="26.86" r="0.57"/><circle class="cls-2" cx="3.59" cy="26.86" r="0.57"/><circle class="cls-2" cx="7.16" cy="26.86" r="0.57"/><circle class="cls-2" cx="10.73" cy="26.86" r="0.57"/><circle class="cls-2" cx="0.01" cy="30.43" r="0.57"/><circle class="cls-2" cx="3.59" cy="30.43" r="0.57"/><circle class="cls-2" cx="7.16" cy="30.43" r="0.57"/><circle class="cls-2" cx="10.73" cy="30.43" r="0.57"/><circle class="cls-2" cx="0.01" cy="34.01" r="0.57"/><circle class="cls-2" cx="3.59" cy="34.01" r="0.57"/><circle class="cls-2" cx="7.16" cy="34.01" r="0.57"/><circle class="cls-2" cx="10.73" cy="34.01" r="0.57"/><circle class="cls-2" cx="0.01" cy="37.58" r="0.57"/><circle class="cls-2" cx="3.59" cy="37.58" r="0.57"/><circle class="cls-2" cx="7.16" cy="37.58" r="0.57"/><circle class="cls-2" cx="10.73" cy="37.58" r="0.57"/><circle class="cls-2" cx="0.01" cy="41.15" r="0.57"/><circle class="cls-2" cx="3.59" cy="41.15" r="0.57"/><circle class="cls-2" cx="7.16" cy="41.15" r="0.57"/><circle class="cls-2" cx="10.73" cy="41.15" r="0.57"/><circle class="cls-2" cx="14.3" cy="23.29" r="0.57"/><circle class="cls-2" cx="17.88" cy="23.29" r="0.57"/><circle class="cls-2" cx="21.45" cy="23.29" r="0.57"/><circle class="cls-2" cx="25.02" cy="23.29" r="0.57"/><circle class="cls-2" cx="28.6" cy="23.29" r="0.57"/><circle class="cls-2" cx="14.3" cy="26.86" r="0.57"/><circle class="cls-2" cx="17.88" cy="26.86" r="0.57"/><circle class="cls-2" cx="21.45" cy="26.86" r="0.57"/><circle class="cls-2" cx="25.02" cy="26.86" r="0.57"/><circle class="cls-2" cx="28.6" cy="26.86" r="0.57"/><circle class="cls-2" cx="14.3" cy="30.43" r="0.57"/><circle class="cls-2" cx="17.88" cy="30.43" r="0.57"/><circle class="cls-2" cx="21.45" cy="30.43" r="0.57"/><circle class="cls-2" cx="25.02" cy="30.43" r="0.57"/><circle class="cls-2" cx="28.6" cy="30.43" r="0.57"/><circle class="cls-2" cx="14.3" cy="34.01" r="0.57"/><circle class="cls-2" cx="17.88" cy="34.01" r="0.57"/><circle class="cls-2" cx="21.45" cy="34.01" r="0.57"/><circle class="cls-2" cx="25.02" cy="34.01" r="0.57"/><circle class="cls-2" cx="28.6" cy="34.01" r="0.57"/><circle class="cls-2" cx="14.3" cy="37.58" r="0.57"/><circle class="cls-2" cx="17.88" cy="37.58" r="0.57"/><circle class="cls-2" cx="21.45" cy="37.58" r="0.57"/><circle class="cls-2" cx="25.02" cy="37.58" r="0.57"/><circle class="cls-2" cx="28.6" cy="37.58" r="0.57"/><circle class="cls-2" cx="14.3" cy="41.15" r="0.57"/><circle class="cls-2" cx="17.88" cy="41.15" r="0.57"/><circle class="cls-2" cx="21.45" cy="41.15" r="0.57"/><circle class="cls-2" cx="25.02" cy="41.15" r="0.57"/><circle class="cls-2" cx="28.6" cy="41.15" r="0.57"/><circle class="cls-2" cx="32.17" cy="23.29" r="0.57"/><circle class="cls-2" cx="35.74" cy="23.29" r="0.57"/><circle class="cls-2" cx="39.31" cy="23.29" r="0.57"/><circle class="cls-2" cx="42.89" cy="23.29" r="0.57"/><circle class="cls-2" cx="32.17" cy="26.86" r="0.57"/><circle class="cls-2" cx="35.74" cy="26.86" r="0.57"/><circle class="cls-2" cx="39.31" cy="26.86" r="0.57"/><circle class="cls-2" cx="42.89" cy="26.86" r="0.57"/><circle class="cls-2" cx="32.17" cy="30.43" r="0.57"/><circle class="cls-2" cx="35.74" cy="30.43" r="0.57"/><circle class="cls-2" cx="39.31" cy="30.43" r="0.57"/><circle class="cls-2" cx="42.89" cy="30.43" r="0.57"/><circle class="cls-2" cx="32.17" cy="34.01" r="0.57"/><circle class="cls-2" cx="35.74" cy="34.01" r="0.57"/><circle class="cls-2" cx="39.31" cy="34.01" r="0.57"/><circle class="cls-2" cx="42.89" cy="34.01" r="0.57"/><circle class="cls-2" cx="32.17" cy="37.58" r="0.57"/><circle class="cls-2" cx="35.74" cy="37.58" r="0.57"/><circle class="cls-2" cx="39.31" cy="37.58" r="0.57"/><circle class="cls-2" cx="42.89" cy="37.58" r="0.57"/><circle class="cls-2" cx="32.17" cy="41.15" r="0.57"/><circle class="cls-2" cx="35.74" cy="41.15" r="0.57"/><circle class="cls-2" cx="39.31" cy="41.15" r="0.57"/><circle class="cls-2" cx="42.89" cy="41.15" r="0.57"/><circle class="cls-2" cx="-0.01" cy="1.85" r="0.57"/><circle class="cls-2" cx="-0.01" cy="5.42" r="0.57"/><circle class="cls-2" cx="-0.01" cy="8.99" r="0.57"/><circle class="cls-2" cx="-0.01" cy="12.57" r="0.57"/><circle class="cls-2" cx="-0.01" cy="16.14" r="0.57"/><circle class="cls-2" cx="-0.01" cy="19.71" r="0.57"/><circle class="cls-2" cx="-0.01" cy="23.29" r="0.57"/><circle class="cls-2" cx="-0.01" cy="26.86" r="0.57"/><circle class="cls-2" cx="-0.01" cy="30.43" r="0.57"/><circle class="cls-2" cx="-0.01" cy="34.01" r="0.57"/><circle class="cls-2" cx="-0.01" cy="37.58" r="0.57"/><circle class="cls-2" cx="-0.01" cy="41.15" r="0.57"/><g class="cls-4"><circle class="cls-2" cx="-0.09" cy="1.85" r="0.57"/><circle class="cls-2" cx="-0.09" cy="5.42" r="0.57"/><circle class="cls-2" cx="-0.09" cy="8.99" r="0.57"/><circle class="cls-2" cx="-0.09" cy="12.57" r="0.57"/><circle class="cls-2" cx="-0.09" cy="16.14" r="0.57"/><circle class="cls-2" cx="-0.09" cy="19.71" r="0.57"/><circle class="cls-2" cx="-0.09" cy="23.29" r="0.57"/><circle class="cls-2" cx="-0.09" cy="26.86" r="0.57"/><circle class="cls-2" cx="-0.09" cy="30.43" r="0.57"/><circle class="cls-2" cx="-0.09" cy="34.01" r="0.57"/><circle class="cls-2" cx="-0.09" cy="37.58" r="0.57"/><circle class="cls-2" cx="-0.09" cy="41.15" r="0.57"/><circle class="cls-2" cx="-0.11" cy="1.85" r="0.57"/><circle class="cls-2" cx="-0.11" cy="5.42" r="0.57"/><circle class="cls-2" cx="-0.11" cy="8.99" r="0.57"/><circle class="cls-2" cx="-0.11" cy="12.57" r="0.57"/><circle class="cls-2" cx="-0.11" cy="16.14" r="0.57"/><circle class="cls-2" cx="-0.11" cy="19.71" r="0.57"/><circle class="cls-2" cx="-0.11" cy="23.29" r="0.57"/><circle class="cls-2" cx="-0.11" cy="26.86" r="0.57"/><circle class="cls-2" cx="-0.11" cy="30.43" r="0.57"/><circle class="cls-2" cx="-0.11" cy="34.01" r="0.57"/><circle class="cls-2" cx="-0.11" cy="37.58" r="0.57"/><circle class="cls-2" cx="-0.11" cy="41.15" r="0.57"/></g><circle class="cls-2" cx="0.01" cy="1.85" r="0.57"/><circle class="cls-2" cx="0.01" cy="5.42" r="0.57"/><circle class="cls-2" cx="0.01" cy="8.99" r="0.57"/><circle class="cls-2" cx="0.01" cy="12.57" r="0.57"/><circle class="cls-2" cx="0.01" cy="16.14" r="0.57"/><circle class="cls-2" cx="0.01" cy="19.71" r="0.57"/><circle class="cls-2" cx="0.01" cy="23.29" r="0.57"/><circle class="cls-2" cx="0.01" cy="26.86" r="0.57"/><circle class="cls-2" cx="0.01" cy="30.43" r="0.57"/><circle class="cls-2" cx="0.01" cy="34.01" r="0.57"/><circle class="cls-2" cx="0.01" cy="37.58" r="0.57"/><circle class="cls-2" cx="0.01" cy="41.15" r="0.57"/><circle class="cls-2" cx="-0.01" cy="1.85" r="0.57"/><circle class="cls-2" cx="-0.01" cy="5.42" r="0.57"/><circle class="cls-2" cx="-0.01" cy="8.99" r="0.57"/><circle class="cls-2" cx="-0.01" cy="12.57" r="0.57"/><circle class="cls-2" cx="-0.01" cy="16.14" r="0.57"/><circle class="cls-2" cx="-0.01" cy="19.71" r="0.57"/><circle class="cls-2" cx="-0.01" cy="23.29" r="0.57"/><circle class="cls-2" cx="-0.01" cy="26.86" r="0.57"/><circle class="cls-2" cx="-0.01" cy="30.43" r="0.57"/><circle class="cls-2" cx="-0.01" cy="34.01" r="0.57"/><circle class="cls-2" cx="-0.01" cy="37.58" r="0.57"/><circle class="cls-2" cx="-0.01" cy="41.15" r="0.57"/></pattern></defs><title>10-free-finance-icon</title><path class="cls-2" d="M192.66,28.46l-.09,7.86c0,2.63,0,5.25-.11,7.87-.1,5.24-.22,10.48-.43,15.73a.14.14,0,0,1-.13.13c-29.18.14-58.36.39-87.54.44l-43.77.14-5.47,0H52.38a24.33,24.33,0,0,1-2.83-.21l-1.4-.22-1.37-.35-.69-.17-.66-.24L44.09,59a22.92,22.92,0,0,1-4.87-2.87,10.51,10.51,0,0,1-1.09-.91c-.34-.33-.71-.63-1-1a22.19,22.19,0,0,1-1.84-2.15,21.24,21.24,0,0,1-2.81-4.92,21.7,21.7,0,0,1,12-28.3A21.38,21.38,0,0,1,50,17.43a22.48,22.48,0,0,1,2.83-.16h2.74l10.94,0,43.77-.07,43.77,0,21.89.1,5.47,0A11.3,11.3,0,0,1,187,18.76,11.11,11.11,0,0,1,192.66,28.46Zm-1.52,0A9.51,9.51,0,0,0,181.36,19l-5.47,0-21.89.1-43.77,0-43.77-.07-10.94,0H52.78a20.71,20.71,0,0,0-2.62.14,19.66,19.66,0,0,0-5.07,1.28A20.09,20.09,0,0,0,32.7,36.23a20.32,20.32,0,0,0,1.24,10.32,19.92,19.92,0,0,0,2.58,4.56,20.3,20.3,0,0,0,1.7,2c.3.32.64.59,1,.9a10.19,10.19,0,0,0,1,.85,21,21,0,0,0,4.51,2.69l1.24.46.61.23.64.17,1.28.33,1.3.21a20.88,20.88,0,0,0,2.63.21l2.73,0,5.47,0,43.77.13c29.18.06,58.36.3,87.54.45l-.13.13c-.2-5.25-.32-10.49-.42-15.73-.07-2.62-.08-5.24-.11-7.87Z"/><path class="cls-5" d="M191.9,28.46V51.68H52.54A12.59,12.59,0,0,1,39.91,39a12.6,12.6,0,0,1,3.69-8.93,12.57,12.57,0,0,1,8.94-3.71H191.69A9.93,9.93,0,0,1,191.9,28.46Z"/><path class="cls-2" d="M192,28.46l.27,23.22a.36.36,0,0,1-.36.38h0l-79.55.18-39.78.14-19.88.07a13.49,13.49,0,1,1-.23-27l19.9-.08q19.89-.08,39.77,0c26.52.16,53,.33,79.55.86h0a.1.1,0,0,1,.1.09A12.11,12.11,0,0,1,192,28.46Zm-.2,0a9.37,9.37,0,0,0-.22-2l.11.09h0c-26.52.53-53,.7-79.55.86q-19.89.09-39.77,0l-19.89-.07a11.65,11.65,0,0,0-8.29,3.45,11.78,11.78,0,0,0-3.43,8.35A11.85,11.85,0,0,0,52.69,50.92L72.57,51l39.78.14,79.55.19h0l-.38.37Z"/><path class="cls-5" d="M161.63,118.72v.88a15,15,0,0,0,15,15H230v35.11A10.29,10.29,0,0,1,219.7,180H172.92a59.73,59.73,0,0,0-119.1,0H42a10.29,10.29,0,0,1-10.29-10.3V39A20.88,20.88,0,0,0,52.54,59.92H219.7a10.29,10.29,0,0,1,10.2,8.9,9.19,9.19,0,0,1,.1,1.39v33.55H176.59A15,15,0,0,0,161.63,118.72Z"/><path class="cls-2" d="M163,118.72c0,.84,0,1.55.07,2.28a16,16,0,0,0,.41,2.17,13.85,13.85,0,0,0,1.8,4,13.71,13.71,0,0,0,6.87,5.29,14.55,14.55,0,0,0,4.34.76h4.86l9.72,0,38.89.19h0a1.1,1.1,0,0,1,1.1,1.11h0L231,159.08l0,6.13,0,3.06,0,1.55a10.24,10.24,0,0,1-.16,1.65,11,11,0,0,1-2.93,5.86,11.14,11.14,0,0,1-5.7,3.2,14.3,14.3,0,0,1-3.22.25l-3.06,0-6.13,0-12.26-.07-24.52-.15h0a.52.52,0,0,1-.52-.49,57.52,57.52,0,0,0-5.66-21.24,60.24,60.24,0,0,0-13.14-17.64,59.07,59.07,0,0,0-80.33.11,60.41,60.41,0,0,0-13,17.63A58.17,58.17,0,0,0,54.52,180a.72.72,0,0,1-.7.66H43.9c-.84,0-1.61,0-2.51,0a11.49,11.49,0,0,1-2.61-.44,11.07,11.07,0,0,1-7.31-7.15,15,15,0,0,1-.55-5.13V158l-.06-39.66L30.76,39h1.82A20,20,0,0,0,51,58.9c1.22.08,2.52.08,3.83.07h11.7l15.6,0,62.42,0L207,58.72l7.8,0,3.9,0h1l1.09,0,1.08.15,1.06.25a11.56,11.56,0,0,1,8.23,9.33c.06.35.06.73.1,1.09s0,.74,0,1v2l0,31.21a1.33,1.33,0,0,1-1.33,1.33h0l-38.45,0H177.13a14.58,14.58,0,0,0-4.36.56,13.6,13.6,0,0,0-9.73,13Zm-2.82,0A16.4,16.4,0,0,1,172,103a17.55,17.55,0,0,1,5.14-.67h14.42l38.45,0-1.33,1.33,0-31.21v-2a8.15,8.15,0,0,0,0-.89c0-.29,0-.57-.07-.85a9.06,9.06,0,0,0-6.39-7.34l-.83-.2-.85-.12-.86,0h-1l-3.9,0-7.8,0-62.41-.18-62.42,0-15.6,0H54.87c-1.3,0-2.59,0-4-.09A21.82,21.82,0,0,1,30.76,39a.91.91,0,0,1,1.82,0l-.09,79.33L32.43,158V168a13.74,13.74,0,0,0,.46,4.68,9.75,9.75,0,0,0,2.4,3.87,9.45,9.45,0,0,0,6.18,2.72c.75.05,1.63,0,2.44,0h9.92l-.7.66A59.5,59.5,0,0,1,59,158.28a62.07,62.07,0,0,1,13.38-18,60.22,60.22,0,0,1,81.9.08,61.23,61.23,0,0,1,19.16,39.56l-.53-.49,24.52-.15,12.26-.07,6.13,0,3.06,0a12.08,12.08,0,0,0,2.87-.25,9.47,9.47,0,0,0,4.8-2.76,9.38,9.38,0,0,0,2.41-5,10.56,10.56,0,0,0,.12-1.39v-1.52l0-3.06,0-6.13-.14-24.52,1.11,1.11-38.89.19-9.72,0h-4.87a17,17,0,0,1-5.2-.87,16.46,16.46,0,0,1-8.3-6.32,16.92,16.92,0,0,1-2.2-4.81,17.7,17.7,0,0,1-.51-2.61C160.26,120.41,160.2,119.5,160.22,118.72Z"/><path class="cls-2" d="M176.59,134.46h13.35l13.35-.14c8.91-.1,17.81-.27,26.71-.3l-1.05.55-.36-30.8,1.41,1.42a79,79,0,0,0-12.66-.62c-4.22,0-8.44,0-12.66,0-8.44.07-16.88.21-25.31.17-1.05,0-2.14,0-3.14,0a15.15,15.15,0,0,0-2.93.36,14.06,14.06,0,0,0-5.35,2.47,14.38,14.38,0,0,0-5.68,10.2,16.47,16.47,0,0,0,.44,6.1,14.55,14.55,0,0,0,2.89,5.41A14.76,14.76,0,0,0,176.59,134.46Zm0,.2a15.22,15.22,0,0,1-11.4-5,15.42,15.42,0,0,1-3.3-5.52,17.48,17.48,0,0,1-.8-6.42,15.35,15.35,0,0,1,5.79-11.51,15.84,15.84,0,0,1,6-3,14.48,14.48,0,0,1,3.34-.48c1.1,0,2.12,0,3.19,0,8.43,0,16.87.1,25.31.17,4.22.06,8.44,0,12.66,0a79,79,0,0,0,12.66-.62,1.22,1.22,0,0,1,1.4,1,.75.75,0,0,1,0,.21v.19l-.36,30.8a.56.56,0,0,1-.56.55H230c-8.9,0-17.8-.2-26.71-.3l-13.35-.14Z"/><circle class="cls-5" cx="178.78" cy="119.16" r="9.83"/><path class="cls-2" d="M188.94,119.16a10.57,10.57,0,0,1-3,7.2,10.29,10.29,0,0,1-7.2,3.13,10.4,10.4,0,0,1-7.41-2.92,10.6,10.6,0,0,1-3.22-7.41,10.58,10.58,0,0,1,6.48-10,11,11,0,0,1,4.15-.81,10.2,10.2,0,0,1,7.43,3.41A10.89,10.89,0,0,1,188.94,119.16Zm-.66,0a8.85,8.85,0,0,0-3-6.48,9.62,9.62,0,0,0-6.48-2.35,9.21,9.21,0,0,0-6.26,2.57,9,9,0,0,0-2.77,6.26,9.12,9.12,0,0,0,2.54,6.5,9.27,9.27,0,0,0,6.49,2.83,9.43,9.43,0,0,0,6.71-2.62,9.31,9.31,0,0,0,2.09-3.06A9.52,9.52,0,0,0,188.28,119.16Z"/><path class="cls-2" d="M171.69,125.93l13.66-14.05a.5.5,0,0,1,.72,0,.5.5,0,0,1,0,.71h0L172,126.25a.22.22,0,0,1-.32,0A.24.24,0,0,1,171.69,125.93Z"/><path class="cls-2" d="M172.38,180a59.28,59.28,0,0,0-40.63-51.74,58.46,58.46,0,0,0-22.94-2.7,59,59,0,0,0-51.49,40.72c-.29.92-.6,1.83-.88,2.75l-.62,2.83c-.19.95-.44,1.88-.59,2.84l-.35,2.87c-.09,1-.26,1.91-.31,2.87l-.1,2.9a48.46,48.46,0,0,0,.16,5.78A59.06,59.06,0,0,0,169.51,202.9,60,60,0,0,0,172.38,180Zm1.08-.08a61.34,61.34,0,0,1-2.68,23.38A60.4,60.4,0,0,1,53,189.25a48.91,48.91,0,0,1-.11-5.93l.12-3c.05-1,.23-2,.34-2.95l.38-2.94c.16-1,.42-1.94.62-2.9l.66-2.9c.29-.94.61-1.88.92-2.82a60,60,0,0,1,52.77-41.26,59.37,59.37,0,0,1,23.34,2.72,60.27,60.27,0,0,1,41.39,52.63Z"/><path class="cls-2" d="M113.36,236.45a52,52,0,0,1-47.89-32,51.51,51.51,0,0,1-3.94-19.83,52.33,52.33,0,0,1,31.94-48.07,51.7,51.7,0,0,1,19.91-4.07,52,52,0,1,1,0,104Zm0-1.09a50.66,50.66,0,0,0,0-101.32A50.22,50.22,0,0,0,94,137.83a50.56,50.56,0,0,0-16.57,82.66,51.66,51.66,0,0,0,16.48,11A51,51,0,0,0,113.36,235.36Z"/><path class="cls-5" d="M164.51,180A51.07,51.07,0,0,0,153,152a52.35,52.35,0,0,0-10.51-9.65A51.32,51.32,0,0,0,62.24,180c-.14,1.51-.21,3-.21,4.6a50.85,50.85,0,0,0,9.1,29.14,51.66,51.66,0,0,0,9.64,10.49,51.31,51.31,0,0,0,83.94-39.63C164.71,183,164.64,181.48,164.51,180Zm-48.41,34v10h-6v-9.59c-5.56-.09-11.22-1.82-14.58-4.22l2.3-6.43a25.75,25.75,0,0,0,13.72,4.13c6.81,0,11.42-3.93,11.42-9.41,0-5.27-3.75-8.53-10.84-11.41-5.11-2-9.2-4.18-11.93-7a13.21,13.21,0,0,1-3.9-9.69c0-8,5.66-14,14.39-15.44v-9.59h6v9.3a26.13,26.13,0,0,1,12.47,3.36l-2.39,6.33a23.07,23.07,0,0,0-12.1-3.36c-7.38,0-10.16,4.41-10.16,8.34,0,4.81,3.41,7.3,11.43,10.75l.46.19c9.88,4,14.88,8.92,14.88,17.46C131.27,205.29,126,212.39,116.1,213.93Z"/><path class="cls-2" d="M164,180a50.69,50.69,0,0,0-5.59-19,50.77,50.77,0,0,0-49.56-27A50.73,50.73,0,0,0,63,189.11,49.91,49.91,0,0,0,68.67,208a51,51,0,0,0,29.67,24.66,51.26,51.26,0,0,0,38.41-3.4,51.09,51.09,0,0,0,15.4-12.29,50.48,50.48,0,0,0,9.59-17.25A51.55,51.55,0,0,0,164,180Zm1.08-.1a52.5,52.5,0,0,1-2,20.16A51.94,51.94,0,0,1,97.76,234.5a52.18,52.18,0,0,1-30.64-25.71,51.75,51.75,0,0,1-5.68-19.54,52.85,52.85,0,0,1,2.28-20.19,52,52,0,0,1,101.33,10.86Z"/><path class="cls-2" d="M116.51,214.28c.08,3.23.12,6.41.11,9.62v.52h-.51l-6,0h-.5V214.31l.48.49a31.36,31.36,0,0,1-7.71-1.12,23,23,0,0,1-7.14-3.19l-.31-.21.13-.36,2.29-6.42.21-.59.53.34a25.53,25.53,0,0,0,11,3.9,18.05,18.05,0,0,0,5.78-.21,10.51,10.51,0,0,0,5-2.54,8.45,8.45,0,0,0,1.43-10.32,12.19,12.19,0,0,0-4.08-3.93,32.87,32.87,0,0,0-5.25-2.6,40.13,40.13,0,0,1-10.67-5.71,16,16,0,0,1-4-4.7,14.08,14.08,0,0,1-1.65-6,16.71,16.71,0,0,1,.84-6.15,15.21,15.21,0,0,1,3.19-5.37A19.11,19.11,0,0,1,110.51,154l-.68.8,0-9.59v-.85h.86l6,0h.88v.89l0,9.3-.89-.92a30.58,30.58,0,0,1,6.65.9,25.63,25.63,0,0,1,6.26,2.54l.72.41-.29.77-2.38,6.33-.41,1.08-1-.58a24,24,0,0,0-5.13-2.29,22.42,22.42,0,0,0-5.52-.9,14.34,14.34,0,0,0-5.38.7,7.23,7.23,0,0,0-3.87,3.22,7.37,7.37,0,0,0-.74,5,7.26,7.26,0,0,0,2.89,4.17,28.93,28.93,0,0,0,4.88,2.86c1.73.84,3.48,1.56,5.32,2.38,3.58,1.66,7.17,3.71,9.81,6.9a15.19,15.19,0,0,1,2.85,5.44,18.56,18.56,0,0,1,.61,6.06,16.27,16.27,0,0,1-5,10.86,17.59,17.59,0,0,1-5,3.34,12,12,0,0,1-1.4.56,12.51,12.51,0,0,1-1.43.46l-.73.2-.36.09-.3,0A11.52,11.52,0,0,1,116.51,214.28Zm-.82-.7c.53-.17,1.09-.33,1.65-.46l.43-.09.34-.1.68-.2a10.21,10.21,0,0,0,1.35-.46,11.57,11.57,0,0,0,1.3-.56,16.42,16.42,0,0,0,4.61-3.2,15.2,15.2,0,0,0,4.41-10,17.13,17.13,0,0,0-.61-5.53,13.54,13.54,0,0,0-2.59-4.83c-2.39-2.84-5.79-4.78-9.26-6.35-1.74-.74-3.61-1.49-5.39-2.34a30.66,30.66,0,0,1-5.24-3,12,12,0,0,1-2.26-2.24,7.78,7.78,0,0,1-1.37-3,9.32,9.32,0,0,1,.88-6.36,9.15,9.15,0,0,1,4.93-4.12,16.09,16.09,0,0,1,6.15-.81,24.14,24.14,0,0,1,6,1,26.21,26.21,0,0,1,5.53,2.47l-1.39.51,2.39-6.33.43,1.17a24.58,24.58,0,0,0-5.79-2.37,28.91,28.91,0,0,0-6.23-.9l-.9,0v-.89l0-9.3.88.88-6,0,.85-.85,0,9.59v.69l-.67.11a17.59,17.59,0,0,0-10.07,5,13.86,13.86,0,0,0-2.92,4.82,15.38,15.38,0,0,0-.82,5.6,12.7,12.7,0,0,0,1.44,5.45,14.89,14.89,0,0,0,3.66,4.34,38.7,38.7,0,0,0,10.3,5.59,35.48,35.48,0,0,1,5.43,2.75,13.16,13.16,0,0,1,4.41,4.34,9.4,9.4,0,0,1,1.08,3,11,11,0,0,1,.08,3.14,9.07,9.07,0,0,1-2.85,5.51,11.75,11.75,0,0,1-5.51,2.78,19,19,0,0,1-6.11.22,26.56,26.56,0,0,1-11.38-4.06l.74-.25L96,210.25l-.18-.56a22.24,22.24,0,0,0,6.83,3,30.44,30.44,0,0,0,7.47,1.09h.48V223.9l-.5-.49,6,0-.51.51C115.58,220.47,115.62,217,115.69,213.58Z"/><path class="cls-2" d="M131.48,197.62A16.49,16.49,0,0,1,127,208.84a17.55,17.55,0,0,1-5,3.65,22.22,22.22,0,0,1-5.9,1.89l.39-.45c0,3.32-.06,6.65,0,10a.42.42,0,0,1-.42.43h-6a.44.44,0,0,1-.44-.44l0-9.59.45.46a32,32,0,0,1-7.71-1.1,23.57,23.57,0,0,1-7.14-3.18.49.49,0,0,1-.18-.56h0l2.28-6.43a.5.5,0,0,1,.65-.3l.1.05h0A25.56,25.56,0,0,0,109,207.09a17.9,17.9,0,0,0,5.76-.23,10.61,10.61,0,0,0,5-2.53,7.91,7.91,0,0,0,2.47-4.84,8.58,8.58,0,0,0-1.06-5.36,12,12,0,0,0-4-3.88,33.53,33.53,0,0,0-5.23-2.6,39.94,39.94,0,0,1-10.71-5.71,16.28,16.28,0,0,1-4.06-4.74,14.54,14.54,0,0,1-1.67-6.06,15.4,15.4,0,0,1,4.11-11.57,19.19,19.19,0,0,1,11-5.38l-.55.65c0-3.2,0-6.4,0-9.59a.64.64,0,0,1,.63-.65h6.05a.66.66,0,0,1,.66.65h0l0,9.3-.66-.68a30.08,30.08,0,0,1,6.6.92,25.22,25.22,0,0,1,6.19,2.51.7.7,0,0,1,.31.85l-2.39,6.33v0a.69.69,0,0,1-.88.4l-.11-.06a22.84,22.84,0,0,0-7.83-3,17.68,17.68,0,0,0-8.26.3,7.4,7.4,0,0,0-5.12,5.69,7.08,7.08,0,0,0,2.72,7.16,33.44,33.44,0,0,0,7.4,4.16,55.74,55.74,0,0,1,7.83,3.86,18.69,18.69,0,0,1,6.22,6.16,16.86,16.86,0,0,1,1.62,4.08A19.94,19.94,0,0,1,131.48,197.62Zm-.43,0a18.9,18.9,0,0,0-.5-4.24,13.73,13.73,0,0,0-1.68-3.89,16.54,16.54,0,0,0-2.77-3.19,27.14,27.14,0,0,0-3.42-2.52,55.09,55.09,0,0,0-7.74-3.71,34.28,34.28,0,0,1-7.69-4.25,8.73,8.73,0,0,1-2.78-3.61,8.9,8.9,0,0,1-.4-4.57,8.35,8.35,0,0,1,2-4.13,9,9,0,0,1,3.83-2.51,13.94,13.94,0,0,1,4.45-.74,24.44,24.44,0,0,1,4.44.31,24.15,24.15,0,0,1,8.3,3.06l-1,.36,2.39-6.33.31.85a23.84,23.84,0,0,0-5.85-2.39,29,29,0,0,0-6.29-.89h0a.67.67,0,0,1-.65-.68l0-9.3.66.65h-6l.64-.64q0,4.78,0,9.59a.65.65,0,0,1-.54.64h0a17.38,17.38,0,0,0-10,5.19,14.54,14.54,0,0,0-2.85,4.82,15.82,15.82,0,0,0-.81,5.56,12.41,12.41,0,0,0,1.41,5.39,14.55,14.55,0,0,0,3.64,4.31,38.75,38.75,0,0,0,10.27,5.58,34.27,34.27,0,0,1,5.44,2.75,13.27,13.27,0,0,1,4.44,4.38,9.51,9.51,0,0,1,1.1,3,10.94,10.94,0,0,1,.07,3.18,9.16,9.16,0,0,1-2.88,5.57A11.82,11.82,0,0,1,115,208a18.93,18.93,0,0,1-6.14.2,26.72,26.72,0,0,1-11.38-4.11l.76-.25-2.32,6.41-.17-.56a22.41,22.41,0,0,0,6.83,3.06,30.45,30.45,0,0,0,7.47,1.1.46.46,0,0,1,.45.46l0,9.59-.44-.44,6,0-.42.42c0-3.32-.06-6.65,0-10h0a.45.45,0,0,1,.38-.44,18.52,18.52,0,0,0,10.62-5,15,15,0,0,0,3.28-5A15.51,15.51,0,0,0,131.05,197.62Z"/><path class="cls-2" d="M181.81,35.17l.11,16.51a.19.19,0,0,1-.18.19h0l-76.45.37-38.23.15-9.55,0H52.73A13.47,13.47,0,0,1,39.67,35a.86.86,0,0,1,.81-.61h0L76,34.24l17.76,0,17.73.1c11.79.12,23.6.17,35.31.34Zm-.14.14-35.61.47c-11.83.17-23.56.22-35.31.34l-17.58.1-17.56,0-35.12-.14.83-.6a11.78,11.78,0,0,0,.6,8.67,11.91,11.91,0,0,0,6.41,5.94,12.38,12.38,0,0,0,4.4.8l4.78,0,9.55,0,38.23.14,76.45.38-.19.18Z"/></svg>