<svg id="Layer_1" data-name="Layer 1" xmlns="http://www.w3.org/2000/svg" xmlns:xlink="http://www.w3.org/1999/xlink" viewBox="0 0 256 256"><defs><style>.cls-1{fill:none;}.cls-2,.cls-6{fill:#253759;}.cls-3{clip-path:url(#clip-path);}.cls-4{clip-path:url(#clip-path-2);}.cls-5{fill:#fff;}.cls-6{opacity:0.3;}.cls-7{fill:#a6d5fe;}.cls-8{fill:url(#New_Pattern_Swatch_1);}.cls-9{fill:url(#New_Pattern_Swatch_1-7);}</style><clipPath id="clip-path"><rect class="cls-1" x="42.85" width="43" height="43"/></clipPath><clipPath id="clip-path-2"><rect class="cls-1" x="-0.05" width="43" height="43"/></clipPath><pattern id="New_Pattern_Swatch_1" data-name="New Pattern Swatch 1" width="42.9" height="43" patternTransform="translate(0 575.63)" patternUnits="userSpaceOnUse" viewBox="0 0 42.9 43"><rect class="cls-1" width="42.9" height="43"/><circle class="cls-2" cx="42.91" cy="1.85" r="0.57"/><circle class="cls-2" cx="42.91" cy="5.42" r="0.57"/><circle class="cls-2" cx="42.91" cy="8.99" r="0.57"/><circle class="cls-2" cx="42.91" cy="12.57" r="0.57"/><circle class="cls-2" cx="42.91" cy="16.14" r="0.57"/><circle class="cls-2" cx="42.91" cy="19.71" r="0.57"/><circle class="cls-2" cx="42.91" cy="23.29" r="0.57"/><circle class="cls-2" cx="42.91" cy="26.86" r="0.57"/><circle class="cls-2" cx="42.91" cy="30.43" r="0.57"/><circle class="cls-2" cx="42.91" cy="34.01" r="0.57"/><circle class="cls-2" cx="42.91" cy="37.58" r="0.57"/><circle class="cls-2" cx="42.91" cy="41.15" r="0.57"/><circle class="cls-2" cx="42.89" cy="1.85" r="0.57"/><circle class="cls-2" cx="42.89" cy="5.42" r="0.57"/><circle class="cls-2" cx="42.89" cy="8.99" r="0.57"/><circle class="cls-2" cx="42.89" cy="12.57" r="0.57"/><circle class="cls-2" cx="42.89" cy="16.14" r="0.57"/><circle class="cls-2" cx="42.89" cy="19.71" r="0.57"/><circle class="cls-2" cx="42.89" cy="23.29" r="0.57"/><circle class="cls-2" cx="42.89" cy="26.86" r="0.57"/><circle class="cls-2" cx="42.89" cy="30.43" r="0.57"/><circle class="cls-2" cx="42.89" cy="34.01" r="0.57"/><circle class="cls-2" cx="42.89" cy="37.58" r="0.57"/><circle class="cls-2" cx="42.89" cy="41.15" r="0.57"/><g class="cls-3"><circle class="cls-2" cx="42.81" cy="1.85" r="0.57"/><circle class="cls-2" cx="42.81" cy="5.42" r="0.57"/><circle class="cls-2" cx="42.81" cy="8.99" r="0.57"/><circle class="cls-2" cx="42.81" cy="12.57" r="0.57"/><circle class="cls-2" cx="42.81" cy="16.14" r="0.57"/><circle class="cls-2" cx="42.81" cy="19.71" r="0.57"/><circle class="cls-2" cx="42.81" cy="23.29" r="0.57"/><circle class="cls-2" cx="42.81" cy="26.86" r="0.57"/><circle class="cls-2" cx="42.81" cy="30.43" r="0.57"/><circle class="cls-2" cx="42.81" cy="34.01" r="0.57"/><circle class="cls-2" cx="42.81" cy="37.58" r="0.57"/><circle class="cls-2" cx="42.81" cy="41.15" r="0.57"/><circle class="cls-2" cx="42.79" cy="1.85" r="0.57"/><circle class="cls-2" cx="42.79" cy="5.42" r="0.57"/><circle class="cls-2" cx="42.79" cy="8.99" r="0.57"/><circle class="cls-2" cx="42.79" cy="12.57" r="0.57"/><circle class="cls-2" cx="42.79" cy="16.14" r="0.57"/><circle class="cls-2" cx="42.79" cy="19.71" r="0.57"/><circle class="cls-2" cx="42.79" cy="23.29" r="0.57"/><circle class="cls-2" cx="42.79" cy="26.86" r="0.57"/><circle class="cls-2" cx="42.79" cy="30.43" r="0.57"/><circle class="cls-2" cx="42.79" cy="34.01" r="0.57"/><circle class="cls-2" cx="42.79" cy="37.58" r="0.57"/><circle class="cls-2" cx="42.79" cy="41.15" r="0.57"/></g><circle class="cls-2" cx="42.91" cy="1.85" r="0.57"/><circle class="cls-2" cx="42.91" cy="5.42" r="0.57"/><circle class="cls-2" cx="42.91" cy="8.99" r="0.57"/><circle class="cls-2" cx="42.91" cy="12.57" r="0.57"/><circle class="cls-2" cx="42.91" cy="16.14" r="0.57"/><circle class="cls-2" cx="42.91" cy="19.71" r="0.57"/><circle class="cls-2" cx="42.91" cy="23.29" r="0.57"/><circle class="cls-2" cx="42.91" cy="26.86" r="0.57"/><circle class="cls-2" cx="42.91" cy="30.43" r="0.57"/><circle class="cls-2" cx="42.91" cy="34.01" r="0.57"/><circle class="cls-2" cx="42.91" cy="37.58" r="0.57"/><circle class="cls-2" cx="42.91" cy="41.15" r="0.57"/><circle class="cls-2" cx="0.01" cy="1.85" r="0.57"/><circle class="cls-2" cx="3.59" cy="1.85" r="0.57"/><circle class="cls-2" cx="7.16" cy="1.85" r="0.57"/><circle class="cls-2" cx="10.73" cy="1.85" r="0.57"/><circle class="cls-2" cx="0.01" cy="5.42" r="0.57"/><circle class="cls-2" cx="3.59" cy="5.42" r="0.57"/><circle class="cls-2" cx="7.16" cy="5.42" r="0.57"/><circle class="cls-2" cx="10.73" cy="5.42" r="0.57"/><circle class="cls-2" cx="0.01" cy="8.99" r="0.57"/><circle class="cls-2" cx="3.59" cy="8.99" r="0.57"/><circle class="cls-2" cx="7.16" cy="8.99" r="0.57"/><circle class="cls-2" cx="10.73" cy="8.99" r="0.57"/><circle class="cls-2" cx="0.01" cy="12.57" r="0.57"/><circle class="cls-2" cx="3.59" cy="12.57" r="0.57"/><circle class="cls-2" cx="7.16" cy="12.57" r="0.57"/><circle class="cls-2" cx="10.73" cy="12.57" r="0.57"/><circle class="cls-2" cx="0.01" cy="16.14" r="0.57"/><circle class="cls-2" cx="3.59" cy="16.14" r="0.57"/><circle class="cls-2" cx="7.16" cy="16.14" r="0.57"/><circle class="cls-2" cx="10.73" cy="16.14" r="0.57"/><circle class="cls-2" cx="0.01" cy="19.71" r="0.57"/><circle class="cls-2" cx="3.59" cy="19.71" r="0.57"/><circle class="cls-2" cx="7.16" cy="19.71" r="0.57"/><circle class="cls-2" cx="10.73" cy="19.71" r="0.57"/><circle class="cls-2" cx="14.3" cy="1.85" r="0.57"/><circle class="cls-2" cx="17.88" cy="1.85" r="0.57"/><circle class="cls-2" cx="21.45" cy="1.85" r="0.57"/><circle class="cls-2" cx="25.02" cy="1.85" r="0.57"/><circle class="cls-2" cx="28.6" cy="1.85" r="0.57"/><circle class="cls-2" cx="14.3" cy="5.42" r="0.57"/><circle class="cls-2" cx="17.88" cy="5.42" r="0.57"/><circle class="cls-2" cx="21.45" cy="5.42" r="0.57"/><circle class="cls-2" cx="25.02" cy="5.42" r="0.57"/><circle class="cls-2" cx="28.6" cy="5.42" r="0.57"/><circle class="cls-2" cx="14.3" cy="8.99" r="0.57"/><circle class="cls-2" cx="17.88" cy="8.99" r="0.57"/><circle class="cls-2" cx="21.45" cy="8.99" r="0.57"/><circle class="cls-2" cx="25.02" cy="8.99" r="0.57"/><circle class="cls-2" cx="28.6" cy="8.99" r="0.57"/><circle class="cls-2" cx="14.3" cy="12.57" r="0.57"/><circle class="cls-2" cx="17.88" cy="12.57" r="0.57"/><circle class="cls-2" cx="21.45" cy="12.57" r="0.57"/><circle class="cls-2" cx="25.02" cy="12.57" r="0.57"/><circle class="cls-2" cx="28.6" cy="12.57" r="0.57"/><circle class="cls-2" cx="14.3" cy="16.14" r="0.57"/><circle class="cls-2" cx="17.88" cy="16.14" r="0.57"/><circle class="cls-2" cx="21.45" cy="16.14" r="0.57"/><circle class="cls-2" cx="25.02" cy="16.14" r="0.57"/><circle class="cls-2" cx="28.6" cy="16.14" r="0.57"/><circle class="cls-2" cx="14.3" cy="19.71" r="0.57"/><circle class="cls-2" cx="17.88" cy="19.71" r="0.57"/><circle class="cls-2" cx="21.45" cy="19.71" r="0.57"/><circle class="cls-2" cx="25.02" cy="19.71" r="0.57"/><circle class="cls-2" cx="28.6" cy="19.71" r="0.57"/><circle class="cls-2" cx="32.17" cy="1.85" r="0.57"/><circle class="cls-2" cx="35.74" cy="1.85" r="0.57"/><circle class="cls-2" cx="39.31" cy="1.85" r="0.57"/><circle class="cls-2" cx="42.89" cy="1.85" r="0.57"/><circle class="cls-2" cx="32.17" cy="5.42" r="0.57"/><circle class="cls-2" cx="35.74" cy="5.42" r="0.57"/><circle class="cls-2" cx="39.31" cy="5.42" r="0.57"/><circle class="cls-2" cx="42.89" cy="5.42" r="0.57"/><circle class="cls-2" cx="32.17" cy="8.99" r="0.57"/><circle class="cls-2" cx="35.74" cy="8.99" r="0.57"/><circle class="cls-2" cx="39.31" cy="8.99" r="0.57"/><circle class="cls-2" cx="42.89" cy="8.99" r="0.57"/><circle class="cls-2" cx="32.17" cy="12.57" r="0.57"/><circle class="cls-2" cx="35.74" cy="12.57" r="0.57"/><circle class="cls-2" cx="39.31" cy="12.57" r="0.57"/><circle class="cls-2" cx="42.89" cy="12.57" r="0.57"/><circle class="cls-2" cx="32.17" cy="16.14" r="0.57"/><circle class="cls-2" cx="35.74" cy="16.14" r="0.57"/><circle class="cls-2" cx="39.31" cy="16.14" r="0.57"/><circle class="cls-2" cx="42.89" cy="16.14" r="0.57"/><circle class="cls-2" cx="32.17" cy="19.71" r="0.57"/><circle class="cls-2" cx="35.74" cy="19.71" r="0.57"/><circle class="cls-2" cx="39.31" cy="19.71" r="0.57"/><circle class="cls-2" cx="42.89" cy="19.71" r="0.57"/><circle class="cls-2" cx="0.01" cy="23.29" r="0.57"/><circle class="cls-2" cx="3.59" cy="23.29" r="0.57"/><circle class="cls-2" cx="7.16" cy="23.29" r="0.57"/><circle class="cls-2" cx="10.73" cy="23.29" r="0.57"/><circle class="cls-2" cx="0.01" cy="26.86" r="0.57"/><circle class="cls-2" cx="3.59" cy="26.86" r="0.57"/><circle class="cls-2" cx="7.16" cy="26.86" r="0.57"/><circle class="cls-2" cx="10.73" cy="26.86" r="0.57"/><circle class="cls-2" cx="0.01" cy="30.43" r="0.57"/><circle class="cls-2" cx="3.59" cy="30.43" r="0.57"/><circle class="cls-2" cx="7.16" cy="30.43" r="0.57"/><circle class="cls-2" cx="10.73" cy="30.43" r="0.57"/><circle class="cls-2" cx="0.01" cy="34.01" r="0.57"/><circle class="cls-2" cx="3.59" cy="34.01" r="0.57"/><circle class="cls-2" cx="7.16" cy="34.01" r="0.57"/><circle class="cls-2" cx="10.73" cy="34.01" r="0.57"/><circle class="cls-2" cx="0.01" cy="37.58" r="0.57"/><circle class="cls-2" cx="3.59" cy="37.58" r="0.57"/><circle class="cls-2" cx="7.16" cy="37.58" r="0.57"/><circle class="cls-2" cx="10.73" cy="37.58" r="0.57"/><circle class="cls-2" cx="0.01" cy="41.15" r="0.57"/><circle class="cls-2" cx="3.59" cy="41.15" r="0.57"/><circle class="cls-2" cx="7.16" cy="41.15" r="0.57"/><circle class="cls-2" cx="10.73" cy="41.15" r="0.57"/><circle class="cls-2" cx="14.3" cy="23.29" r="0.57"/><circle class="cls-2" cx="17.88" cy="23.29" r="0.57"/><circle class="cls-2" cx="21.45" cy="23.29" r="0.57"/><circle class="cls-2" cx="25.02" cy="23.29" r="0.57"/><circle class="cls-2" cx="28.6" cy="23.29" r="0.57"/><circle class="cls-2" cx="14.3" cy="26.86" r="0.57"/><circle class="cls-2" cx="17.88" cy="26.86" r="0.57"/><circle class="cls-2" cx="21.45" cy="26.86" r="0.57"/><circle class="cls-2" cx="25.02" cy="26.86" r="0.57"/><circle class="cls-2" cx="28.6" cy="26.86" r="0.57"/><circle class="cls-2" cx="14.3" cy="30.43" r="0.57"/><circle class="cls-2" cx="17.88" cy="30.43" r="0.57"/><circle class="cls-2" cx="21.45" cy="30.43" r="0.57"/><circle class="cls-2" cx="25.02" cy="30.43" r="0.57"/><circle class="cls-2" cx="28.6" cy="30.43" r="0.57"/><circle class="cls-2" cx="14.3" cy="34.01" r="0.57"/><circle class="cls-2" cx="17.88" cy="34.01" r="0.57"/><circle class="cls-2" cx="21.45" cy="34.01" r="0.57"/><circle class="cls-2" cx="25.02" cy="34.01" r="0.57"/><circle class="cls-2" cx="28.6" cy="34.01" r="0.57"/><circle class="cls-2" cx="14.3" cy="37.58" r="0.57"/><circle class="cls-2" cx="17.88" cy="37.58" r="0.57"/><circle class="cls-2" cx="21.45" cy="37.58" r="0.57"/><circle class="cls-2" cx="25.02" cy="37.58" r="0.57"/><circle class="cls-2" cx="28.6" cy="37.58" r="0.57"/><circle class="cls-2" cx="14.3" cy="41.15" r="0.57"/><circle class="cls-2" cx="17.88" cy="41.15" r="0.57"/><circle class="cls-2" cx="21.45" cy="41.15" r="0.57"/><circle class="cls-2" cx="25.02" cy="41.15" r="0.57"/><circle class="cls-2" cx="28.6" cy="41.15" r="0.57"/><circle class="cls-2" cx="32.17" cy="23.29" r="0.57"/><circle class="cls-2" cx="35.74" cy="23.29" r="0.57"/><circle class="cls-2" cx="39.31" cy="23.29" r="0.57"/><circle class="cls-2" cx="42.89" cy="23.29" r="0.57"/><circle class="cls-2" cx="32.17" cy="26.86" r="0.57"/><circle class="cls-2" cx="35.74" cy="26.86" r="0.57"/><circle class="cls-2" cx="39.31" cy="26.86" r="0.57"/><circle class="cls-2" cx="42.89" cy="26.86" r="0.57"/><circle class="cls-2" cx="32.17" cy="30.43" r="0.57"/><circle class="cls-2" cx="35.74" cy="30.43" r="0.57"/><circle class="cls-2" cx="39.31" cy="30.43" r="0.57"/><circle class="cls-2" cx="42.89" cy="30.43" r="0.57"/><circle class="cls-2" cx="32.17" cy="34.01" r="0.57"/><circle class="cls-2" cx="35.74" cy="34.01" r="0.57"/><circle class="cls-2" cx="39.31" cy="34.01" r="0.57"/><circle class="cls-2" cx="42.89" cy="34.01" r="0.57"/><circle class="cls-2" cx="32.17" cy="37.58" r="0.57"/><circle class="cls-2" cx="35.74" cy="37.58" r="0.57"/><circle class="cls-2" cx="39.31" cy="37.58" r="0.57"/><circle class="cls-2" cx="42.89" cy="37.58" r="0.57"/><circle class="cls-2" cx="32.17" cy="41.15" r="0.57"/><circle class="cls-2" cx="35.74" cy="41.15" r="0.57"/><circle class="cls-2" cx="39.31" cy="41.15" r="0.57"/><circle class="cls-2" cx="42.89" cy="41.15" r="0.57"/><circle class="cls-2" cx="-0.01" cy="1.85" r="0.57"/><circle class="cls-2" cx="-0.01" cy="5.42" r="0.57"/><circle class="cls-2" cx="-0.01" cy="8.99" r="0.57"/><circle class="cls-2" cx="-0.01" cy="12.57" r="0.57"/><circle class="cls-2" cx="-0.01" cy="16.14" r="0.57"/><circle class="cls-2" cx="-0.01" cy="19.71" r="0.57"/><circle class="cls-2" cx="-0.01" cy="23.29" r="0.57"/><circle class="cls-2" cx="-0.01" cy="26.86" r="0.57"/><circle class="cls-2" cx="-0.01" cy="30.43" r="0.57"/><circle class="cls-2" cx="-0.01" cy="34.01" r="0.57"/><circle class="cls-2" cx="-0.01" cy="37.58" r="0.57"/><circle class="cls-2" cx="-0.01" cy="41.15" r="0.57"/><g class="cls-4"><circle class="cls-2" cx="-0.09" cy="1.85" r="0.57"/><circle class="cls-2" cx="-0.09" cy="5.42" r="0.57"/><circle class="cls-2" cx="-0.09" cy="8.99" r="0.57"/><circle class="cls-2" cx="-0.09" cy="12.57" r="0.57"/><circle class="cls-2" cx="-0.09" cy="16.14" r="0.57"/><circle class="cls-2" cx="-0.09" cy="19.71" r="0.57"/><circle class="cls-2" cx="-0.09" cy="23.29" r="0.57"/><circle class="cls-2" cx="-0.09" cy="26.86" r="0.57"/><circle class="cls-2" cx="-0.09" cy="30.43" r="0.57"/><circle class="cls-2" cx="-0.09" cy="34.01" r="0.57"/><circle class="cls-2" cx="-0.09" cy="37.58" r="0.57"/><circle class="cls-2" cx="-0.09" cy="41.15" r="0.57"/><circle class="cls-2" cx="-0.11" cy="1.85" r="0.57"/><circle class="cls-2" cx="-0.11" cy="5.42" r="0.57"/><circle class="cls-2" cx="-0.11" cy="8.99" r="0.57"/><circle class="cls-2" cx="-0.11" cy="12.57" r="0.57"/><circle class="cls-2" cx="-0.11" cy="16.14" r="0.57"/><circle class="cls-2" cx="-0.11" cy="19.71" r="0.57"/><circle class="cls-2" cx="-0.11" cy="23.29" r="0.57"/><circle class="cls-2" cx="-0.11" cy="26.86" r="0.57"/><circle class="cls-2" cx="-0.11" cy="30.43" r="0.57"/><circle class="cls-2" cx="-0.11" cy="34.01" r="0.57"/><circle class="cls-2" cx="-0.11" cy="37.58" r="0.57"/><circle class="cls-2" cx="-0.11" cy="41.15" r="0.57"/></g><circle class="cls-2" cx="0.01" cy="1.85" r="0.57"/><circle class="cls-2" cx="0.01" cy="5.42" r="0.57"/><circle class="cls-2" cx="0.01" cy="8.99" r="0.57"/><circle class="cls-2" cx="0.01" cy="12.57" r="0.57"/><circle class="cls-2" cx="0.01" cy="16.14" r="0.57"/><circle class="cls-2" cx="0.01" cy="19.71" r="0.57"/><circle class="cls-2" cx="0.01" cy="23.29" r="0.57"/><circle class="cls-2" cx="0.01" cy="26.86" r="0.57"/><circle class="cls-2" cx="0.01" cy="30.43" r="0.57"/><circle class="cls-2" cx="0.01" cy="34.01" r="0.57"/><circle class="cls-2" cx="0.01" cy="37.58" r="0.57"/><circle class="cls-2" cx="0.01" cy="41.15" r="0.57"/><circle class="cls-2" cx="-0.01" cy="1.85" r="0.57"/><circle class="cls-2" cx="-0.01" cy="5.42" r="0.57"/><circle class="cls-2" cx="-0.01" cy="8.99" r="0.57"/><circle class="cls-2" cx="-0.01" cy="12.57" r="0.57"/><circle class="cls-2" cx="-0.01" cy="16.14" r="0.57"/><circle class="cls-2" cx="-0.01" cy="19.71" r="0.57"/><circle class="cls-2" cx="-0.01" cy="23.29" r="0.57"/><circle class="cls-2" cx="-0.01" cy="26.86" r="0.57"/><circle class="cls-2" cx="-0.01" cy="30.43" r="0.57"/><circle class="cls-2" cx="-0.01" cy="34.01" r="0.57"/><circle class="cls-2" cx="-0.01" cy="37.58" r="0.57"/><circle class="cls-2" cx="-0.01" cy="41.15" r="0.57"/></pattern><pattern id="New_Pattern_Swatch_1-7" data-name="New Pattern Swatch 1" width="42.9" height="43" patternTransform="translate(0 162)" patternUnits="userSpaceOnUse" viewBox="0 0 42.9 43"><rect class="cls-1" width="42.9" height="43"/><circle class="cls-2" cx="42.91" cy="1.85" r="0.57"/><circle class="cls-2" cx="42.91" cy="5.42" r="0.57"/><circle class="cls-2" cx="42.91" cy="8.99" r="0.57"/><circle class="cls-2" cx="42.91" cy="12.57" r="0.57"/><circle class="cls-2" cx="42.91" cy="16.14" r="0.57"/><circle class="cls-2" cx="42.91" cy="19.71" r="0.57"/><circle class="cls-2" cx="42.91" cy="23.29" r="0.57"/><circle class="cls-2" cx="42.91" cy="26.86" r="0.57"/><circle class="cls-2" cx="42.91" cy="30.43" r="0.57"/><circle class="cls-2" cx="42.91" cy="34.01" r="0.57"/><circle class="cls-2" cx="42.91" cy="37.58" r="0.57"/><circle class="cls-2" cx="42.91" cy="41.15" r="0.57"/><circle class="cls-2" cx="42.89" cy="1.85" r="0.57"/><circle class="cls-2" cx="42.89" cy="5.42" r="0.57"/><circle class="cls-2" cx="42.89" cy="8.99" r="0.57"/><circle class="cls-2" cx="42.89" cy="12.57" r="0.57"/><circle class="cls-2" cx="42.89" cy="16.14" r="0.57"/><circle class="cls-2" cx="42.89" cy="19.71" r="0.57"/><circle class="cls-2" cx="42.89" cy="23.29" r="0.57"/><circle class="cls-2" cx="42.89" cy="26.86" r="0.57"/><circle class="cls-2" cx="42.89" cy="30.43" r="0.57"/><circle class="cls-2" cx="42.89" cy="34.01" r="0.57"/><circle class="cls-2" cx="42.89" cy="37.58" r="0.57"/><circle class="cls-2" cx="42.89" cy="41.15" r="0.57"/><g class="cls-3"><circle class="cls-2" cx="42.81" cy="1.85" r="0.57"/><circle class="cls-2" cx="42.81" cy="5.42" r="0.57"/><circle class="cls-2" cx="42.81" cy="8.99" r="0.57"/><circle class="cls-2" cx="42.81" cy="12.57" r="0.57"/><circle class="cls-2" cx="42.81" cy="16.14" r="0.57"/><circle class="cls-2" cx="42.81" cy="19.71" r="0.57"/><circle class="cls-2" cx="42.81" cy="23.29" r="0.57"/><circle class="cls-2" cx="42.81" cy="26.86" r="0.57"/><circle class="cls-2" cx="42.81" cy="30.43" r="0.57"/><circle class="cls-2" cx="42.81" cy="34.01" r="0.57"/><circle class="cls-2" cx="42.81" cy="37.58" r="0.57"/><circle class="cls-2" cx="42.81" cy="41.15" r="0.57"/><circle class="cls-2" cx="42.79" cy="1.85" r="0.57"/><circle class="cls-2" cx="42.79" cy="5.42" r="0.57"/><circle class="cls-2" cx="42.79" cy="8.99" r="0.57"/><circle class="cls-2" cx="42.79" cy="12.57" r="0.57"/><circle class="cls-2" cx="42.79" cy="16.14" r="0.57"/><circle class="cls-2" cx="42.79" cy="19.71" r="0.57"/><circle class="cls-2" cx="42.79" cy="23.29" r="0.57"/><circle class="cls-2" cx="42.79" cy="26.86" r="0.57"/><circle class="cls-2" cx="42.79" cy="30.43" r="0.57"/><circle class="cls-2" cx="42.79" cy="34.01" r="0.57"/><circle class="cls-2" cx="42.79" cy="37.58" r="0.57"/><circle class="cls-2" cx="42.79" cy="41.15" r="0.57"/></g><circle class="cls-2" cx="42.91" cy="1.85" r="0.57"/><circle class="cls-2" cx="42.91" cy="5.42" r="0.57"/><circle class="cls-2" cx="42.91" cy="8.99" r="0.57"/><circle class="cls-2" cx="42.91" cy="12.57" r="0.57"/><circle class="cls-2" cx="42.91" cy="16.14" r="0.57"/><circle class="cls-2" cx="42.91" cy="19.71" r="0.57"/><circle class="cls-2" cx="42.91" cy="23.29" r="0.57"/><circle class="cls-2" cx="42.91" cy="26.86" r="0.57"/><circle class="cls-2" cx="42.91" cy="30.43" r="0.57"/><circle class="cls-2" cx="42.91" cy="34.01" r="0.57"/><circle class="cls-2" cx="42.91" cy="37.58" r="0.57"/><circle class="cls-2" cx="42.91" cy="41.15" r="0.57"/><circle class="cls-2" cx="0.01" cy="1.85" r="0.57"/><circle class="cls-2" cx="3.59" cy="1.85" r="0.57"/><circle class="cls-2" cx="7.16" cy="1.85" r="0.57"/><circle class="cls-2" cx="10.73" cy="1.85" r="0.57"/><circle class="cls-2" cx="0.01" cy="5.42" r="0.57"/><circle class="cls-2" cx="3.59" cy="5.42" r="0.57"/><circle class="cls-2" cx="7.16" cy="5.42" r="0.57"/><circle class="cls-2" cx="10.73" cy="5.42" r="0.57"/><circle class="cls-2" cx="0.01" cy="8.99" r="0.57"/><circle class="cls-2" cx="3.59" cy="8.99" r="0.57"/><circle class="cls-2" cx="7.16" cy="8.99" r="0.57"/><circle class="cls-2" cx="10.73" cy="8.99" r="0.57"/><circle class="cls-2" cx="0.01" cy="12.57" r="0.57"/><circle class="cls-2" cx="3.59" cy="12.57" r="0.57"/><circle class="cls-2" cx="7.16" cy="12.57" r="0.57"/><circle class="cls-2" cx="10.73" cy="12.57" r="0.57"/><circle class="cls-2" cx="0.01" cy="16.14" r="0.57"/><circle class="cls-2" cx="3.59" cy="16.14" r="0.57"/><circle class="cls-2" cx="7.16" cy="16.14" r="0.57"/><circle class="cls-2" cx="10.73" cy="16.14" r="0.57"/><circle class="cls-2" cx="0.01" cy="19.71" r="0.57"/><circle class="cls-2" cx="3.59" cy="19.71" r="0.57"/><circle class="cls-2" cx="7.16" cy="19.71" r="0.57"/><circle class="cls-2" cx="10.73" cy="19.71" r="0.57"/><circle class="cls-2" cx="14.3" cy="1.85" r="0.57"/><circle class="cls-2" cx="17.88" cy="1.85" r="0.57"/><circle class="cls-2" cx="21.45" cy="1.85" r="0.57"/><circle class="cls-2" cx="25.02" cy="1.85" r="0.57"/><circle class="cls-2" cx="28.6" cy="1.85" r="0.57"/><circle class="cls-2" cx="14.3" cy="5.42" r="0.57"/><circle class="cls-2" cx="17.88" cy="5.42" r="0.57"/><circle class="cls-2" cx="21.45" cy="5.42" r="0.57"/><circle class="cls-2" cx="25.02" cy="5.42" r="0.57"/><circle class="cls-2" cx="28.6" cy="5.42" r="0.57"/><circle class="cls-2" cx="14.3" cy="8.99" r="0.57"/><circle class="cls-2" cx="17.88" cy="8.99" r="0.57"/><circle class="cls-2" cx="21.45" cy="8.99" r="0.57"/><circle class="cls-2" cx="25.02" cy="8.99" r="0.57"/><circle class="cls-2" cx="28.6" cy="8.99" r="0.57"/><circle class="cls-2" cx="14.3" cy="12.57" r="0.57"/><circle class="cls-2" cx="17.88" cy="12.57" r="0.57"/><circle class="cls-2" cx="21.45" cy="12.57" r="0.57"/><circle class="cls-2" cx="25.02" cy="12.57" r="0.57"/><circle class="cls-2" cx="28.6" cy="12.57" r="0.57"/><circle class="cls-2" cx="14.3" cy="16.14" r="0.57"/><circle class="cls-2" cx="17.88" cy="16.14" r="0.57"/><circle class="cls-2" cx="21.45" cy="16.14" r="0.57"/><circle class="cls-2" cx="25.02" cy="16.14" r="0.57"/><circle class="cls-2" cx="28.6" cy="16.14" r="0.57"/><circle class="cls-2" cx="14.3" cy="19.71" r="0.57"/><circle class="cls-2" cx="17.88" cy="19.71" r="0.57"/><circle class="cls-2" cx="21.45" cy="19.71" r="0.57"/><circle class="cls-2" cx="25.02" cy="19.71" r="0.57"/><circle class="cls-2" cx="28.6" cy="19.71" r="0.57"/><circle class="cls-2" cx="32.17" cy="1.85" r="0.57"/><circle class="cls-2" cx="35.74" cy="1.85" r="0.57"/><circle class="cls-2" cx="39.31" cy="1.85" r="0.57"/><circle class="cls-2" cx="42.89" cy="1.85" r="0.57"/><circle class="cls-2" cx="32.17" cy="5.42" r="0.57"/><circle class="cls-2" cx="35.74" cy="5.42" r="0.57"/><circle class="cls-2" cx="39.31" cy="5.42" r="0.57"/><circle class="cls-2" cx="42.89" cy="5.42" r="0.57"/><circle class="cls-2" cx="32.17" cy="8.99" r="0.57"/><circle class="cls-2" cx="35.74" cy="8.99" r="0.57"/><circle class="cls-2" cx="39.31" cy="8.99" r="0.57"/><circle class="cls-2" cx="42.89" cy="8.99" r="0.57"/><circle class="cls-2" cx="32.17" cy="12.57" r="0.57"/><circle class="cls-2" cx="35.74" cy="12.57" r="0.57"/><circle class="cls-2" cx="39.31" cy="12.57" r="0.57"/><circle class="cls-2" cx="42.89" cy="12.57" r="0.57"/><circle class="cls-2" cx="32.17" cy="16.14" r="0.57"/><circle class="cls-2" cx="35.74" cy="16.14" r="0.57"/><circle class="cls-2" cx="39.31" cy="16.14" r="0.57"/><circle class="cls-2" cx="42.89" cy="16.14" r="0.57"/><circle class="cls-2" cx="32.17" cy="19.71" r="0.57"/><circle class="cls-2" cx="35.74" cy="19.71" r="0.57"/><circle class="cls-2" cx="39.31" cy="19.71" r="0.57"/><circle class="cls-2" cx="42.89" cy="19.71" r="0.57"/><circle class="cls-2" cx="0.01" cy="23.29" r="0.57"/><circle class="cls-2" cx="3.59" cy="23.29" r="0.57"/><circle class="cls-2" cx="7.16" cy="23.29" r="0.57"/><circle class="cls-2" cx="10.73" cy="23.29" r="0.57"/><circle class="cls-2" cx="0.01" cy="26.86" r="0.57"/><circle class="cls-2" cx="3.59" cy="26.86" r="0.57"/><circle class="cls-2" cx="7.16" cy="26.86" r="0.57"/><circle class="cls-2" cx="10.73" cy="26.86" r="0.57"/><circle class="cls-2" cx="0.01" cy="30.43" r="0.57"/><circle class="cls-2" cx="3.59" cy="30.43" r="0.57"/><circle class="cls-2" cx="7.16" cy="30.43" r="0.57"/><circle class="cls-2" cx="10.73" cy="30.43" r="0.57"/><circle class="cls-2" cx="0.01" cy="34.01" r="0.57"/><circle class="cls-2" cx="3.59" cy="34.01" r="0.57"/><circle class="cls-2" cx="7.16" cy="34.01" r="0.57"/><circle class="cls-2" cx="10.73" cy="34.01" r="0.57"/><circle class="cls-2" cx="0.01" cy="37.58" r="0.57"/><circle class="cls-2" cx="3.59" cy="37.58" r="0.57"/><circle class="cls-2" cx="7.16" cy="37.58" r="0.57"/><circle class="cls-2" cx="10.73" cy="37.58" r="0.57"/><circle class="cls-2" cx="0.01" cy="41.15" r="0.57"/><circle class="cls-2" cx="3.59" cy="41.15" r="0.57"/><circle class="cls-2" cx="7.16" cy="41.15" r="0.57"/><circle class="cls-2" cx="10.73" cy="41.15" r="0.57"/><circle class="cls-2" cx="14.3" cy="23.29" r="0.57"/><circle class="cls-2" cx="17.88" cy="23.29" r="0.57"/><circle class="cls-2" cx="21.45" cy="23.29" r="0.57"/><circle class="cls-2" cx="25.02" cy="23.29" r="0.57"/><circle class="cls-2" cx="28.6" cy="23.29" r="0.57"/><circle class="cls-2" cx="14.3" cy="26.86" r="0.57"/><circle class="cls-2" cx="17.88" cy="26.86" r="0.57"/><circle class="cls-2" cx="21.45" cy="26.86" r="0.57"/><circle class="cls-2" cx="25.02" cy="26.86" r="0.57"/><circle class="cls-2" cx="28.6" cy="26.86" r="0.57"/><circle class="cls-2" cx="14.3" cy="30.43" r="0.57"/><circle class="cls-2" cx="17.88" cy="30.43" r="0.57"/><circle class="cls-2" cx="21.45" cy="30.43" r="0.57"/><circle class="cls-2" cx="25.02" cy="30.43" r="0.57"/><circle class="cls-2" cx="28.6" cy="30.43" r="0.57"/><circle class="cls-2" cx="14.3" cy="34.01" r="0.57"/><circle class="cls-2" cx="17.88" cy="34.01" r="0.57"/><circle class="cls-2" cx="21.45" cy="34.01" r="0.57"/><circle class="cls-2" cx="25.02" cy="34.01" r="0.57"/><circle class="cls-2" cx="28.6" cy="34.01" r="0.57"/><circle class="cls-2" cx="14.3" cy="37.58" r="0.57"/><circle class="cls-2" cx="17.88" cy="37.58" r="0.57"/><circle class="cls-2" cx="21.45" cy="37.58" r="0.57"/><circle class="cls-2" cx="25.02" cy="37.58" r="0.57"/><circle class="cls-2" cx="28.6" cy="37.58" r="0.57"/><circle class="cls-2" cx="14.3" cy="41.15" r="0.57"/><circle class="cls-2" cx="17.88" cy="41.15" r="0.57"/><circle class="cls-2" cx="21.45" cy="41.15" r="0.57"/><circle class="cls-2" cx="25.02" cy="41.15" r="0.57"/><circle class="cls-2" cx="28.6" cy="41.15" r="0.57"/><circle class="cls-2" cx="32.17" cy="23.29" r="0.57"/><circle class="cls-2" cx="35.74" cy="23.29" r="0.57"/><circle class="cls-2" cx="39.31" cy="23.29" r="0.57"/><circle class="cls-2" cx="42.89" cy="23.29" r="0.57"/><circle class="cls-2" cx="32.17" cy="26.86" r="0.57"/><circle class="cls-2" cx="35.74" cy="26.86" r="0.57"/><circle class="cls-2" cx="39.31" cy="26.86" r="0.57"/><circle class="cls-2" cx="42.89" cy="26.86" r="0.57"/><circle class="cls-2" cx="32.17" cy="30.43" r="0.57"/><circle class="cls-2" cx="35.74" cy="30.43" r="0.57"/><circle class="cls-2" cx="39.31" cy="30.43" r="0.57"/><circle class="cls-2" cx="42.89" cy="30.43" r="0.57"/><circle class="cls-2" cx="32.17" cy="34.01" r="0.57"/><circle class="cls-2" cx="35.74" cy="34.01" r="0.57"/><circle class="cls-2" cx="39.31" cy="34.01" r="0.57"/><circle class="cls-2" cx="42.89" cy="34.01" r="0.57"/><circle class="cls-2" cx="32.17" cy="37.58" r="0.57"/><circle class="cls-2" cx="35.74" cy="37.58" r="0.57"/><circle class="cls-2" cx="39.31" cy="37.58" r="0.57"/><circle class="cls-2" cx="42.89" cy="37.58" r="0.57"/><circle class="cls-2" cx="32.17" cy="41.15" r="0.57"/><circle class="cls-2" cx="35.74" cy="41.15" r="0.57"/><circle class="cls-2" cx="39.31" cy="41.15" r="0.57"/><circle class="cls-2" cx="42.89" cy="41.15" r="0.57"/><circle class="cls-2" cx="-0.01" cy="1.85" r="0.57"/><circle class="cls-2" cx="-0.01" cy="5.42" r="0.57"/><circle class="cls-2" cx="-0.01" cy="8.99" r="0.57"/><circle class="cls-2" cx="-0.01" cy="12.57" r="0.57"/><circle class="cls-2" cx="-0.01" cy="16.14" r="0.57"/><circle class="cls-2" cx="-0.01" cy="19.71" r="0.57"/><circle class="cls-2" cx="-0.01" cy="23.29" r="0.57"/><circle class="cls-2" cx="-0.01" cy="26.86" r="0.57"/><circle class="cls-2" cx="-0.01" cy="30.43" r="0.57"/><circle class="cls-2" cx="-0.01" cy="34.01" r="0.57"/><circle class="cls-2" cx="-0.01" cy="37.58" r="0.57"/><circle class="cls-2" cx="-0.01" cy="41.15" r="0.57"/><g class="cls-4"><circle class="cls-2" cx="-0.09" cy="1.85" r="0.57"/><circle class="cls-2" cx="-0.09" cy="5.42" r="0.57"/><circle class="cls-2" cx="-0.09" cy="8.99" r="0.57"/><circle class="cls-2" cx="-0.09" cy="12.57" r="0.57"/><circle class="cls-2" cx="-0.09" cy="16.14" r="0.57"/><circle class="cls-2" cx="-0.09" cy="19.71" r="0.57"/><circle class="cls-2" cx="-0.09" cy="23.29" r="0.57"/><circle class="cls-2" cx="-0.09" cy="26.86" r="0.57"/><circle class="cls-2" cx="-0.09" cy="30.43" r="0.57"/><circle class="cls-2" cx="-0.09" cy="34.01" r="0.57"/><circle class="cls-2" cx="-0.09" cy="37.58" r="0.57"/><circle class="cls-2" cx="-0.09" cy="41.15" r="0.57"/><circle class="cls-2" cx="-0.11" cy="1.85" r="0.57"/><circle class="cls-2" cx="-0.11" cy="5.42" r="0.57"/><circle class="cls-2" cx="-0.11" cy="8.99" r="0.57"/><circle class="cls-2" cx="-0.11" cy="12.57" r="0.57"/><circle class="cls-2" cx="-0.11" cy="16.14" r="0.57"/><circle class="cls-2" cx="-0.11" cy="19.71" r="0.57"/><circle class="cls-2" cx="-0.11" cy="23.29" r="0.57"/><circle class="cls-2" cx="-0.11" cy="26.86" r="0.57"/><circle class="cls-2" cx="-0.11" cy="30.43" r="0.57"/><circle class="cls-2" cx="-0.11" cy="34.01" r="0.57"/><circle class="cls-2" cx="-0.11" cy="37.58" r="0.57"/><circle class="cls-2" cx="-0.11" cy="41.15" r="0.57"/></g><circle class="cls-2" cx="0.01" cy="1.85" r="0.57"/><circle class="cls-2" cx="0.01" cy="5.42" r="0.57"/><circle class="cls-2" cx="0.01" cy="8.99" r="0.57"/><circle class="cls-2" cx="0.01" cy="12.57" r="0.57"/><circle class="cls-2" cx="0.01" cy="16.14" r="0.57"/><circle class="cls-2" cx="0.01" cy="19.71" r="0.57"/><circle class="cls-2" cx="0.01" cy="23.29" r="0.57"/><circle class="cls-2" cx="0.01" cy="26.86" r="0.57"/><circle class="cls-2" cx="0.01" cy="30.43" r="0.57"/><circle class="cls-2" cx="0.01" cy="34.01" r="0.57"/><circle class="cls-2" cx="0.01" cy="37.58" r="0.57"/><circle class="cls-2" cx="0.01" cy="41.15" r="0.57"/><circle class="cls-2" cx="-0.01" cy="1.85" r="0.57"/><circle class="cls-2" cx="-0.01" cy="5.42" r="0.57"/><circle class="cls-2" cx="-0.01" cy="8.99" r="0.57"/><circle class="cls-2" cx="-0.01" cy="12.57" r="0.57"/><circle class="cls-2" cx="-0.01" cy="16.14" r="0.57"/><circle class="cls-2" cx="-0.01" cy="19.71" r="0.57"/><circle class="cls-2" cx="-0.01" cy="23.29" r="0.57"/><circle class="cls-2" cx="-0.01" cy="26.86" r="0.57"/><circle class="cls-2" cx="-0.01" cy="30.43" r="0.57"/><circle class="cls-2" cx="-0.01" cy="34.01" r="0.57"/><circle class="cls-2" cx="-0.01" cy="37.58" r="0.57"/><circle class="cls-2" cx="-0.01" cy="41.15" r="0.57"/></pattern></defs><title>10-free-finance-icon</title><path class="cls-5" d="M65.06,208.83l-3.6,3.61-2.17,2.16a2.05,2.05,0,0,1-2.9,0l-15-15a2.05,2.05,0,0,1,0-2.9l2.17-2.16,3.6-3.61a103.7,103.7,0,0,0,8.4,9.49A102.39,102.39,0,0,0,65.06,208.83Z"/><path class="cls-2" d="M66,208.77c-.73.78-1.45,1.56-2.2,2.3s-1.54,1.45-2.21,2.08l-2,1.88a2.56,2.56,0,0,1-3.13.19,11.51,11.51,0,0,1-1-1l-1-1-2-1.94-3.94-3.83-4-3.77-2-1.86-1-.93-.5-.47-.27-.25a3.87,3.87,0,0,1-.32-.37,3,3,0,0,1,.2-3.72L42.5,194c1.24-1.35,2.47-2.71,3.73-4l1-1.05,1,1.17c1.34,1.6,2.71,3.18,4.11,4.72s2.83,3,4.3,4.53,2.95,2.95,4.46,4.39l2.26,2.16L64.5,207l.58.54A3.78,3.78,0,0,1,66,208.77Zm-1.92.12c-.24.08-.28.27-.31.26l-.66-.45-1.3-.94c-.87-.62-1.71-1.29-2.55-2-1.65-1.36-3.24-2.8-4.77-4.3s-3-3.07-4.39-4.7-2.73-3.3-4-5l2,.12c-1.32,1.27-2.69,2.49-4,3.74l-2,1.84a1.11,1.11,0,0,0-.19,1.35A1.67,1.67,0,0,0,42,199c0,.06.14.16.21.24l.47.5.93,1,1.86,2,3.77,4,3.83,3.94L55,212.64l1,1c.32.29.68.7.94.88a1.54,1.54,0,0,0,1.94-.2c.61-.63,1.26-1.32,1.87-2s1.11-1.24,1.67-1.81S63.53,209.4,64.1,208.89Z"/><path class="cls-5" d="M65.06,47.19l-1.59,1.27a.31.31,0,0,0-.11.09c-.25.19-.49.39-.73.6-.4.33-.8.66-1.2,1a.19.19,0,0,0-.07.06c-.38.32-.76.65-1.13,1a6.14,6.14,0,0,0-.47.42c-.12.1-.24.2-.36.32a3.49,3.49,0,0,0-.35.32q-.59.52-1.17,1.08h0l-.4.38-.29.28c-.54.51-1.07,1-1.6,1.57h0c-.53.53-1,1.06-1.56,1.6l-.28.29c-.61.64-1.2,1.28-1.78,1.93-.12.12-.22.24-.32.36-.49.53-1,1.06-1.41,1.6a.19.19,0,0,0-.06.07c-1,1.2-2,2.41-3,3.64L41.4,59.3a2,2,0,0,1,0-2.89l15-15a2.05,2.05,0,0,1,2.9,0l2.16,2.16Z"/><path class="cls-2" d="M66,47.25a13.16,13.16,0,0,1-2,1.84l-.15.09A.28.28,0,0,0,64,49l-.16.15-2,1.46-.13.09a.3.3,0,0,0,.17-.16l-.12.14L60.15,52l0,0-.33.28,0,0-.31.26,0,0-1.19,1-.16.14h-.18l.32-.12c-.78.7-1.53,1.45-2.31,2.18l-.13.13h-.18l.3-.13c-.93.94-1.83,1.86-2.71,2.84s-1.71,2-2.57,3l-.1.09a.21.21,0,0,0,.1-.11l-.06.1c-1,1.22-1.93,2.46-2.89,3.69l-.4.52-.49-.47c-1.33-1.26-2.69-2.49-4-3.73l-2-1.9a3,3,0,0,1-.36-3.75,3,3,0,0,1,.31-.4l.25-.27.46-.51.94-1,1.86-2,3.77-4L51.72,44,53.66,42l1-1,.49-.48.28-.26a3.24,3.24,0,0,1,.46-.37,3.48,3.48,0,0,1,4.33.39c.71.73,1.28,1.35,1.91,2,.28.3.72.76,1,1.16s.7.84,1,1.26C64.87,45.64,65.47,46.47,66,47.25Zm-1.92-.12L62,45.7l-.9-.69c-.31-.24-.53-.44-.9-.78l-2-1.83a.63.63,0,0,0-.75,0l-1.73,1.75-1.94,1.94-3.94,3.83-4,3.77L42,57.29a1.05,1.05,0,0,0,0,1.32l1.84,2c1.24,1.35,2.47,2.71,3.73,4l-.89,0c1-1.19,2.08-2.38,3.09-3.59l-.06.1A1,1,0,0,1,50,61l-.1.09c.88-1,1.79-2,2.69-2.92s1.83-1.9,2.73-2.85l.11-.12h.2l-.3.13L57.55,53l.12-.12h.21l-.33.13,1.15-1.13,0,0,.39-.38,0,0,.39-.36,0,0L61,49.73l-.12.14a.92.92,0,0,1,.31-.28l-.13.09,1.87-1.76-.16.15a1.52,1.52,0,0,1,.39-.33l-.15.09A3.41,3.41,0,0,1,64.1,47.13Z"/><path class="cls-5" d="M214.59,59.3l-2.16,2.15-3.62,3.62c-1-1.28-2-2.55-3.11-3.79-.29-.35-.6-.7-.91-1.05s-.67-.76-1-1.13c-.5-.56-1-1.12-1.55-1.67s-1.19-1.24-1.8-1.85-1.23-1.21-1.85-1.8l-.45-.43c-.56-.53-1.13-1.05-1.7-1.56s-1.22-1.09-1.84-1.62l-.46-.39c-.61-.52-1.23-1-1.85-1.53-.44-.36-.89-.71-1.34-1.06l3.62-3.62,2.15-2.16a2,2,0,0,1,2.89,0l15,15A2,2,0,0,1,214.59,59.3Z"/><path class="cls-2" d="M215.27,60l-6,5.52-.51.48-.4-.53-1.91-2.51q-.94-1.27-2-2.46c-1.38-1.58-2.86-3.08-4.36-4.56s-3.09-2.85-4.72-4.18-3.3-2.6-5-3.83l-.82-.58.73-.79,3-3.29,1.51-1.65.76-.83.19-.2c.05-.06.2-.2.3-.29a3.79,3.79,0,0,1,.76-.49,3.37,3.37,0,0,1,3.48.46c.27.23.36.32.5.46l.41.38.81.77L205.26,45c2.14,2.07,4.2,4.23,6.22,6.43l3,3.31.76.82.23.26a2.78,2.78,0,0,1,.26.34,3.39,3.39,0,0,1,.35.78A3.08,3.08,0,0,1,215.27,60Zm-1.36-1.36a1,1,0,0,0,.05-1.3s-.05-.06-.09-.09l-.16-.14-.82-.76-3.31-3c-2.19-2-4.36-4.09-6.43-6.23L200,43.86l-1.46-1.54a.71.71,0,0,0-.73-.16l-.19.08s0,0-.11.09l-.21.19-.82.76-1.65,1.52-3.29,3-.09-1.37c.82.69,1.62,1.39,2.41,2.1s1.58,1.45,2.34,2.18L198.53,53l2.23,2.27c1.46,1.54,2.89,3.1,4.32,4.67l4.21,4.78-.91,0C210.2,62.61,212.05,60.61,213.91,58.62Z"/><path class="cls-5" d="M214.59,199.61l-15,15a2,2,0,0,1-2.89,0l-2.16-2.16-3.61-3.61c1.22-1,2.43-1.94,3.62-3l0,0h0a.34.34,0,0,0,.06-.06,5.2,5.2,0,0,0,.44-.38c.35-.29.69-.6,1-.91.17-.14.33-.28.49-.44.65-.58,1.29-1.17,1.93-1.78l.41-.39,1.48-1.45h0c.39-.38.76-.76,1.13-1.14l.33-.34c.14-.14.27-.27.39-.41.5-.52,1-1,1.46-1.56h0l1.06-1.17h0c.71-.79,1.39-1.58,2.06-2.39.2-.25.41-.5.6-.75s.27-.32.39-.48l.29-.36c.23-.28.46-.57.68-.86l3.62,3.61,2.16,2.16A2.05,2.05,0,0,1,214.59,199.61Z"/><path class="cls-2" d="M215.27,200.29l-6,5.51c-2,1.84-4,3.69-5.89,5.62-1,1-1.89,2-2.84,2.92-.25.25-.44.47-.75.75a2.49,2.49,0,0,1-1.12.57,2.59,2.59,0,0,1-2.38-.67c-2-1.87-4-3.69-6-5.54l-.68-.63.76-.68,3.46-3.09.7-.26a.92.92,0,0,0-.55.15,1,1,0,0,0-.39.42l1-.59h0l-.76.31a.61.61,0,0,0-.07.1l.22-.24.33-.32.08-.07,1.27-1.22,1.28-1.28c.87-.87,1.7-1.73,2.52-2.59l-.4,1h0v-.52l.43-.46,1.59-1.71,1.59-1.76-.39,1h0v-.54l.4-.46,1-1.17-.38,1h0v-.54l.39-.46,2-2.33c.67-.82,1.31-1.59,2-2.38l1.09-1.27,1.06,1.13c1.31,1.38,2.59,2.77,3.87,4.18l1,1.06.48.52.25.27a2.88,2.88,0,0,1,.33.43A3.06,3.06,0,0,1,215.27,200.29Zm-1.36-1.36a1,1,0,0,0,0-1.32.68.68,0,0,0-.12-.12l-.25-.24-.52-.48-1.06-1q-2.12-1.91-4.19-3.86l2.15-.14c-.62.86-1.3,1.72-1.94,2.53l-2.11,2.44.38-1h0v.6l-.37.4L204.81,198l.39-1h0v.6l-.38.4-1.68,1.73c-.33.34-.56.56-.88.86l-.88.84.42-1h0l0,.61-.38.36c-.92.84-1.81,1.7-2.75,2.46l-1.4,1.19-1.46,1.2.08-.07-.55.44.22-.24c-.06.07-.12.15-.19.22l-.34.33-.42,0h0l1-.59a1.14,1.14,0,0,1-1,.61l.7-.26-3.78,2.85.08-1.31c1.85,2,3.67,4,5.54,6a1.5,1.5,0,0,0,2,.16c.2-.17.48-.45.71-.68,1-.94,2-1.87,2.92-2.84,1.94-1.9,3.78-3.89,5.62-5.89Z"/><path class="cls-5" d="M223.59,91.19l-.66-1.68c-.1-.25-.2-.5-.31-.74-.28-.69-.58-1.38-.88-2.06-.09-.23-.19-.45-.29-.66-.24-.55-.49-1.1-.75-1.64-.53-1.14-1.09-2.28-1.68-3.41-.37-.71-.74-1.42-1.13-2.12s-.83-1.52-1.28-2.27-.85-1.45-1.28-2.16l-.06-.09q-.69-1.11-1.41-2.22-1.67-2.56-3.51-5l-.56-.75c-.32-.43-.65-.85-1-1.28-1-1.28-2-2.55-3.11-3.79-.29-.35-.6-.7-.91-1.05s-.67-.76-1-1.13c-.5-.56-1-1.12-1.55-1.67s-1.19-1.24-1.8-1.85-1.23-1.21-1.85-1.8l-.45-.43c-.56-.53-1.13-1.05-1.7-1.56s-1.22-1.09-1.84-1.62l-.46-.39c-.61-.52-1.23-1-1.85-1.53-.44-.36-.89-.71-1.34-1.06l-1.28-1-.75-.56a101,101,0,0,0-12.44-7.91c-.69-.37-1.39-.73-2.08-1.08s-1.57-.79-2.36-1.16l-2.06-1c-1-.44-2-.87-3-1.28-.72-.3-1.43-.58-2.15-.86a102.76,102.76,0,0,0-73.63,0h0l-.47.19-1.42.56-1.42.59-.19.08c-.55.23-1.1.47-1.64.72s-1.14.51-1.7.78c-1.12.53-2.24,1.08-3.35,1.65l-1.25.65-.88.48-1.17.65c-.79.44-1.58.9-2.36,1.37l-1.26.77q-1.23.75-2.43,1.56c-.66.43-1.31.87-2,1.32l-1.56,1.11c-.43.31-.86.62-1.29,1q-.89.66-1.77,1.35h0l-1.59,1.27a.31.31,0,0,0-.11.09l-.11.09s0,0,0,0l-.13.1-1.64,1.37a.19.19,0,0,0-.07.06l-1.13,1-.47.42c-.12.1-.24.2-.36.32l-.35.32c-.39.35-.78.72-1.17,1.08a.46.46,0,0,0-.07.07l-.34.31-.29.28-1.6,1.57c-.53.53-1,1.06-1.57,1.6l-.28.29c-.6.64-1.19,1.28-1.78,1.93-.12.12-.22.24-.32.36-.48.53-1,1.06-1.41,1.6l-.06.07-1,1.23-.67.81-.18.22L48,64a2.56,2.56,0,0,0-.2.26c-.1.11-.19.22-.28.34s0,0,0,.06l-.31.4q-.69.89-1.35,1.77c-.33.43-.64.86-1,1.29s-.75,1-1.11,1.56-.89,1.3-1.32,2c-.34.51-.68,1-1,1.55-.24.37-.48.75-.71,1.13-.69,1.11-1.35,2.24-2,3.37-.29.51-.57,1-.84,1.53s-.5.92-.75,1.39c-.34.65-.67,1.31-1,2q-2.1,4.23-3.78,8.6a102.76,102.76,0,0,0,0,73.63h0c.29.75.58,1.49.89,2.23s.67,1.6,1,2.4a101.23,101.23,0,0,0,6.58,12.48c.26.41.51.82.78,1.23s.51.8.78,1.2c.43.66.87,1.31,1.32,2,.67,1,1.35,1.91,2.06,2.85q.66.89,1.35,1.77c.49.63,1,1.25,1.5,1.87,1.14,1.41,2.34,2.79,3.58,4.15.51.56,1,1.12,1.56,1.67s1.16,1.21,1.75,1.8,1.19,1.18,1.8,1.75,1.11,1.05,1.67,1.56c1.36,1.24,2.74,2.44,4.15,3.58.62.51,1.24,1,1.87,1.5s1.18.91,1.77,1.35c.94.71,1.89,1.39,2.85,2.06.65.45,1.3.89,2,1.32a102.26,102.26,0,0,0,93.16,10h0c.75-.29,1.49-.58,2.23-.89s1.6-.67,2.4-1a101.23,101.23,0,0,0,12.48-6.58c.41-.26.82-.51,1.23-.78s.8-.51,1.2-.78c.66-.43,1.31-.87,2-1.32,1-.67,1.91-1.35,2.85-2.06q.89-.66,1.77-1.35c.63-.49,1.25-1,1.87-1.5s1.17-1,1.75-1.45l0,0h0l.06-.05a5.2,5.2,0,0,0,.44-.38l1-.91c.17-.14.33-.28.49-.44l1.93-1.78.41-.39,1.48-1.46,1.13-1.14c.1-.11.21-.23.33-.34s.27-.27.39-.41l.38-.41c.47-.5.94-1,1.4-1.52l.7-.78,0,0c.63-.72,1.25-1.44,1.86-2.17l.8-1q.21-.24.39-.48l.29-.36c.23-.28.46-.57.68-.86h0c1.38-1.77,2.7-3.57,3.94-5.4l.78-1.15c1-1.5,1.93-3,2.83-4.55l.87-1.51a.05.05,0,0,0,0,0c.28-.5.56-1,.83-1.49.49-.9,1-1.8,1.41-2.71.25-.48.49-1,.72-1.45.39-.8.76-1.6,1.12-2.4.13-.28.25-.57.38-.85q1-2.26,1.89-4.56A102.76,102.76,0,0,0,223.59,91.19Zm-39.41,55.94c-.37,1.08-.76,2.14-1.19,3.2-.19.48-.39.95-.61,1.43q-1,2.2-2.11,4.34c-.2.38-.41.75-.62,1.12-.41.73-.84,1.46-1.28,2.17s-.84,1.32-1.29,2-.8,1.15-1.22,1.72c-.24.34-.49.67-.75,1s-.74,1-1.13,1.43-.54.66-.83,1c-.69.82-1.42,1.63-2.19,2.42-.32.36-.66.7-1,1s-.68.68-1,1a5.77,5.77,0,0,1-.44.42c-.35.34-.71.66-1.07,1l-.73.64-.64.54c-.31.27-.63.53-.95.78l-.71.56a58.35,58.35,0,0,1-5.2,3.62l-1.62,1-.18.11c-.37.22-.75.42-1.12.62s-1,.53-1.48.77-1,.51-1.5.74c-1,.46-1.95.89-2.95,1.29s-2.12.82-3.2,1.19a59.53,59.53,0,0,1-38.26,0l-1.55-.55h0c-.51-.19-1-.38-1.54-.59s-1-.42-1.53-.65l-.9-.4-1-.45c-.73-.34-1.45-.71-2.16-1.09l-.87-.47c-.74-.41-1.47-.83-2.19-1.27l-.76-.48c-.51-.32-1-.65-1.52-1-.3-.19-.59-.39-.88-.6s-.78-.55-1.16-.84c-.79-.57-1.57-1.18-2.34-1.81l-.66-.55c-.94-.78-1.85-1.6-2.75-2.47-.36-.32-.7-.66-1-1-.67-.67-1.32-1.36-2-2.05-.32-.34-.62-.69-.93-1s-.61-.7-.9-1.06a.69.69,0,0,1-.11-.13c-.22-.25-.43-.5-.63-.77-.39-.5-.78-1-1.15-1.5s-.69-.92-1-1.39-.64-.9-.94-1.36-.63-1-.93-1.47-.6-1-.87-1.45c-.57-1-1.1-1.95-1.6-2.95-.75-1.46-1.42-2.94-2-4.45-.43-1.06-.82-2.12-1.19-3.2a59.53,59.53,0,0,1,0-38.26c.53-1.56,1.13-3.11,1.8-4.63.22-.51.45-1,.69-1.52s.48-1,.73-1.5.51-1,.78-1.48.53-1,.82-1.46.57-1,.87-1.45.61-1,.93-1.47.61-.91.94-1.36.65-.93,1-1.39.61-.81.93-1.21c.45-.58.92-1.16,1.4-1.72l.83-1,.14-.17.72-.79.58-.61c.35-.37.71-.74,1.07-1.1L87.15,85l.61-.58.79-.72.17-.14c.34-.31.69-.61,1-.9l.35-.29c.33-.28.66-.56,1-.82l.21-.17,1.29-1c.46-.35.92-.69,1.39-1s.9-.64,1.36-.94,1-.63,1.47-.93,1-.6,1.45-.87,1-.56,1.46-.82,1-.53,1.48-.78,1-.5,1.5-.73,1-.47,1.52-.69.79-.35,1.19-.5c1.13-.47,2.28-.91,3.44-1.3a59.35,59.35,0,0,1,75.31,75.31Z"/><path class="cls-2" d="M222.69,91.54c-.3-.77-.6-1.58-.91-2.31l-1-2.32c-.64-1.5-1.37-3-2.1-4.5-1.48-3-3.09-5.87-4.86-8.69C213,72.28,212,71,211.05,69.58l-1.42-2-1.5-2L205,61.67c-1.07-1.28-2.2-2.48-3.33-3.71A101.47,101.47,0,0,0,91.34,32.82l-.58.22v-.62h0l.58.4c-1.08.43-2.21.87-3.29,1.34h0c-2,.84-4,1.81-6,2.8s-3.9,2-5.8,3.17-3.74,2.31-5.56,3.55-3.59,2.55-5.33,3.9l-.14.11h-.18l.31-.11-1.58,1.27-.09.06a.06.06,0,0,0,.06-.06l-.1.1,0,0-.13.1a.14.14,0,0,0,.08-.05l-.06.05-.07,0,0,0-1.63,1.37-.1.06a.23.23,0,0,0,.13-.11l-.09.1-1.78,1.58L59,53l-.43.41-.22.2c-.07,0-.18.18-.14.12l-.1.11c-.63.57-1.29,1.25-1.94,1.88l-1.92,1.95-1.86,2-1.79,2,0,0-.06.06,0,0L49.4,63.19l-.57.71-.54.68-.06.06-.24.3-.05.06a.4.4,0,0,0,.12-.33l-.12.34a103.81,103.81,0,0,0-13.4,22.58q-1.3,3-2.37,6.14c-.77,2-1.36,4.16-2,6.26a104.58,104.58,0,0,0-2.71,12.86,98.84,98.84,0,0,0-1,13.09c-.08,2.19,0,4.38.09,6.56l.23,3.28q.11,1.64.33,3.27a102.49,102.49,0,0,0,6.25,25.41l.5,1.3H32.41l.9-1.31a100.79,100.79,0,0,0,21.3,33.32,86.27,86.27,0,0,0,7.25,6.8,87.56,87.56,0,0,0,7.83,6.12,101.42,101.42,0,0,0,94.58,11.48l2-.79v2.19h0l-2-1.4a102.32,102.32,0,0,0,15.41-7.47c2.43-1.47,4.85-3,7.15-4.71s4.58-3.45,6.76-5.29l1-.35a1.51,1.51,0,0,0-.77.22,1.37,1.37,0,0,0-.53.58l1.32-.81h0l-1.48,1.48h0v-.63l.43-.42a2.09,2.09,0,0,1,.45-.33l-.27.17.32-.27.09-.08.94-.83.86-.78,1.84-1.7c1.16-1.14,2.34-2.29,3.44-3.44l1.71-1.84c.58-.63,1.12-1.24,1.64-1.85s1.06-1.22,1.6-1.88l1.52-1.88-.29.87h0v-.47l.3-.41,2.22-3c.72-1,1.5-2,2.19-3s1.33-2.11,2-3.16,1.33-2.11,1.94-3.2l.23-.29a1.23,1.23,0,0,0-.39.92l.18-.67a96.21,96.21,0,0,0,4.94-10c.71-1.71,1.46-3.4,2.06-5.16l.95-2.61.83-2.66a107.78,107.78,0,0,0,2.68-10.8,105.51,105.51,0,0,0,1.44-11,100.38,100.38,0,0,0-.72-22.25A104.2,104.2,0,0,0,222.69,91.54Zm1.8-.7a106.09,106.09,0,0,1,5.86,22,102.19,102.19,0,0,1,.94,22.72,110.28,110.28,0,0,1-1.36,11.32,111.24,111.24,0,0,1-2.65,11.1l-.83,2.73-.94,2.69c-.6,1.81-1.36,3.56-2.07,5.33a101.12,101.12,0,0,1-5,10.26l.18-.67a1.54,1.54,0,0,1-.43,1l.23-.29c-.62,1.11-1.29,2.2-2,3.29s-1.33,2.2-2,3.27-1.48,2.08-2.22,3.13l-2.26,3.12.3-.88h0v.49l-.29.37c-.56.72-1,1.3-1.61,2s-1.07,1.28-1.62,1.93-1.11,1.3-1.65,1.9l-1.68,1.83c-1.18,1.26-2.39,2.44-3.6,3.63L198,204.8l-1,.9-.94.82.09-.08-.56.49-.27.17a.94.94,0,0,0,.33-.23l.43-1h0v1.48h-1.49l1.32-.82a1.64,1.64,0,0,1-.55.61,1.6,1.6,0,0,1-.79.23l1-.35c-2.26,1.89-4.53,3.72-6.94,5.43s-4.84,3.33-7.37,4.86A104.49,104.49,0,0,1,165.35,225l-2,.79v-2.19h0l2,1.4a104.68,104.68,0,0,1-40,6.77,103.47,103.47,0,0,1-39.49-8.93A101,101,0,0,1,68.27,212.7a89.7,89.7,0,0,1-8-6.32,88.72,88.72,0,0,1-7.35-7,102.71,102.71,0,0,1-21.45-34.2l-.5-1.31h1.41l-.9,1.31a104.26,104.26,0,0,1-6.14-25.92c-.13-1.1-.24-2.21-.3-3.32l-.2-3.33c0-2.23-.14-4.45,0-6.67A98.37,98.37,0,0,1,26,112.63a105.17,105.17,0,0,1,2.86-13c.67-2.12,1.28-4.25,2.08-6.33s1.54-4.16,2.43-6.2A104.7,104.7,0,0,1,47.06,64.32l-.12.35a.77.77,0,0,1,.2-.46l0,.06.32-.38-.06.07c.25-.33.4-.5.61-.76l.59-.72,1.19-1.41,0,0,.06-.07,0,0,1.85-2.08,1.87-2,1.94-2c.67-.64,1.29-1.28,2-1.94l-.1.12c.18-.21.22-.22.29-.3l.23-.2.44-.4.89-.82L61,49.83l-.09.1a1,1,0,0,1,.27-.23l-.1.06,1.65-1.37,0,0,.19-.15-.06,0a1.19,1.19,0,0,1,.18-.15l-.13.1.17-.14-.1.1a1.61,1.61,0,0,1,.28-.24l-.09.06,1.6-1.27.14-.1h.18l-.31.1c1.76-1.35,3.55-2.68,5.4-3.91s3.72-2.45,5.64-3.56,3.86-2.2,5.86-3.18,4-1.92,6.08-2.81h0c1.11-.46,2.2-.89,3.33-1.34l.58-.22v.63h0L91,32A103.36,103.36,0,0,1,224.49,90.84Z"/><path class="cls-2" d="M185.09,147.44l-1.29,3.38c-.47,1.13-1,2.21-1.55,3.29s-1,2.18-1.66,3.22-1.21,2.09-1.88,3.09a61.18,61.18,0,0,1-4.31,5.82,68.61,68.61,0,0,1-5,5.26l.05,0a59.24,59.24,0,0,1-13.68,9.65,61.59,61.59,0,0,1-15.74,5.5,63,63,0,0,1-16.62,1A61.6,61.6,0,0,1,107.17,184l-.29-.4a.45.45,0,0,0,.12.28.47.47,0,0,0,.31.13l-.15,0a60.87,60.87,0,0,1-7.16-3.17c-1.15-.6-2.28-1.27-3.4-1.94s-2.2-1.39-3.27-2.15-2.08-1.58-3.13-2.36-2-1.72-2.94-2.58-1.91-1.8-2.8-2.74-1.77-1.93-2.63-2.93l0,0-.19-.24.06.08a57.75,57.75,0,0,1-6-8.74L74.45,155l-1.11-2.41c-.36-.81-.77-1.59-1.08-2.42l-1-2.48a59.91,59.91,0,0,1-3.45-20.86,58.45,58.45,0,0,1,4-20.81,53.33,53.33,0,0,1,4.64-9.59c.91-1.54,1.93-3,3-4.46s2.21-2.86,3.3-4.12l0,0h0a65.64,65.64,0,0,1,4.9-5h0l0-.05c.55-.46,1.22-1.08,1.86-1.6l.92-.76,1-.76c1.34-1,2.67-2,4.07-2.87s2.84-1.75,4.3-2.51c.72-.4,1.48-.75,2.23-1.12s1.47-.69,2.27-1a61,61,0,0,1,39.05-2.92,60.16,60.16,0,0,1,41.9,39.26A60.7,60.7,0,0,1,185.09,147.44Zm-1.82-.63a58.39,58.39,0,0,0-77.82-72.27c-.71.28-1.45.63-2.18.95s-1.42.68-2.12,1.06c-1.43.73-2.8,1.52-4.14,2.35s-2.66,1.76-3.94,2.68l-.95.7-1,.78c-.63.49-1.16,1-1.86,1.55l.06-.06a66,66,0,0,0-4.84,4.77l0-.06c-.62.72-1.16,1.33-1.71,2s-1.08,1.33-1.61,2c-1,1.38-2,2.78-2.91,4.24a51.47,51.47,0,0,0-4.63,9.2,56.6,56.6,0,0,0-4.2,20.12,58.38,58.38,0,0,0,3.06,20.39l.89,2.45c.29.81.69,1.58,1,2.37l1.07,2.37,1.22,2.29a57.13,57.13,0,0,0,5.8,8.58l.06.09s0,0,0,0l0,0c.82,1,1.64,2,2.54,2.88S87,170.18,88,171s1.89,1.76,2.89,2.57,2,1.6,3,2.35,2.12,1.44,3.2,2.14,2.2,1.33,3.34,1.94a59.73,59.73,0,0,0,7,3.18l-.15,0a.43.43,0,0,1,.32.14.44.44,0,0,1,.13.29l-.29-.39a59.08,59.08,0,0,0,16,3.49,57.88,57.88,0,0,0,16.35-1.07,59.92,59.92,0,0,0,15.38-5.59,57.94,57.94,0,0,0,13.16-9.59l.05-.05a67.22,67.22,0,0,0,4.75-5.18,59.47,59.47,0,0,0,4.1-5.72c.63-1,1.19-2,1.78-3s1-2.1,1.55-3.15,1-2.12,1.45-3.2Z"/><path class="cls-6" d="M55.57,200.43a103.7,103.7,0,0,1-8.4-9.49l-2.79,2.8c.47.68,1,1.35,1.46,2s.89,1.18,1.35,1.77,1,1.25,1.5,1.87c1.14,1.41,2.34,2.79,3.58,4.15.51.56,1,1.12,1.56,1.67s1.16,1.21,1.75,1.8,1.19,1.18,1.8,1.75,1.11,1.05,1.67,1.56c.79.72,1.6,1.44,2.41,2.12l3.6-3.61A102.39,102.39,0,0,1,55.57,200.43Zm153.24-9.49c-.22.29-.45.58-.68.86l-.29.36q-.18.24-.39.48c-.19.25-.4.5-.6.75-.67.81-1.35,1.6-2.06,2.39h0L203.73,197h0c-.48.52-1,1-1.46,1.56-.12.14-.25.27-.39.41l-.33.34c-.37.38-.74.76-1.13,1.14h0l-1.48,1.45-.41.39c-.64.61-1.28,1.2-1.93,1.78-.16.16-.32.3-.49.44-.34.31-.68.62-1,.91a5.2,5.2,0,0,1-.44.38.34.34,0,0,1-.06.06h0l0,0c-1.19,1-2.4,2-3.62,3l3.61,3.61h0l0,0h0l.06,0a5.2,5.2,0,0,0,.44-.38l1-.91c.17-.14.33-.28.49-.44l1.93-1.78.41-.39,1.48-1.46,1.13-1.14c.1-.11.21-.23.33-.34s.27-.27.39-.41l.38-.41c.47-.5.94-1,1.4-1.52l.7-.78,0,0c.63-.72,1.25-1.44,1.86-2.17l.8-1q.21-.24.39-.48l.29-.36c.23-.28.46-.57.68-.86h0q1.45-1.86,2.81-3.77Z"/><path class="cls-7" d="M223.59,91.19l-39.41,17.68a59.47,59.47,0,0,0-37.05-37.05L164.82,32.4c.72.28,1.43.56,2.15.86,1,.41,2,.84,3,1.28l2.06,1c.79.37,1.58.76,2.36,1.16s1.39.71,2.08,1.08a101,101,0,0,1,12.44,7.91l.75.56,1.28,1c.45.35.9.7,1.34,1.06.62.5,1.24,1,1.85,1.53l.46.39c.62.53,1.23,1.07,1.84,1.62s1.14,1,1.7,1.56l.45.43c.62.59,1.24,1.19,1.85,1.8s1.21,1.23,1.8,1.85,1.05,1.11,1.55,1.67c.35.37.69.75,1,1.13s.62.7.91,1.05c1.08,1.24,2.11,2.51,3.11,3.79.33.43.66.85,1,1.28l.56.75q1.85,2.48,3.51,5,.72,1.11,1.41,2.22l.06.09c.43.71.86,1.43,1.28,2.16s.87,1.51,1.28,2.27.76,1.41,1.13,2.12c.59,1.13,1.15,2.27,1.68,3.41.26.54.51,1.09.75,1.64.1.21.2.43.29.66.3.68.6,1.37.88,2.06.11.24.21.49.31.74Z"/><path class="cls-2" d="M224.19,91.43l-20,8.87-9.95,4.4-9.91,4.44-.3.14-.1-.31a59,59,0,0,0-5.76-12.18,59.29,59.29,0,0,0-19-18.82A57.82,57.82,0,0,0,147,72.3l-.53-.17.22-.52L164,32l.33-.75.77.3a102.66,102.66,0,0,1,19.23,9.72,101.26,101.26,0,0,1,16.76,13.57,103.94,103.94,0,0,1,13.51,16.8,91.92,91.92,0,0,1,5.31,9.38c.77,1.63,1.55,3.24,2.26,4.9l1,2.48A16.16,16.16,0,0,1,224.19,91.43ZM223,91a8.8,8.8,0,0,1-1-2l-1.09-2.44c-.73-1.6-1.56-3.18-2.36-4.75-1.68-3.14-3.41-6.16-5.4-9.13s-4-5.83-6.32-8.5a96.11,96.11,0,0,0-7.08-7.88,106.75,106.75,0,0,0-16.41-13.35,101.43,101.43,0,0,0-18.8-9.72l1.1-.45L147.6,72l-.3-.69a60.38,60.38,0,0,1,37.16,37.43l-.4-.17,9.8-4.4,9.75-4.44Z"/><path class="cls-7" d="M223.6,164.82q-.89,2.3-1.89,4.56c-.13.28-.25.57-.38.85-.36.8-.73,1.6-1.12,2.4-.23.49-.47,1-.72,1.45-.45.91-.92,1.81-1.41,2.71-.27.5-.55,1-.83,1.49a.05.05,0,0,1,0,0l-.87,1.51c-.9,1.54-1.85,3-2.83,4.55l-.78,1.15c-1.24,1.83-2.56,3.63-3.94,5.4h0c-.22.29-.45.58-.68.86l-.29.36q-.18.24-.39.48c-.19.25-.4.5-.6.75l-.2.22c-.61.73-1.23,1.45-1.86,2.17h0l0,0-.7.78-.32.36h0l-1.08,1.15-.38.41c-.12.14-.25.27-.39.41s-.23.23-.33.34c-.37.38-.74.76-1.13,1.14l-1.48,1.46-.41.39-1.93,1.78c-.16.16-.32.3-.49.44l-1,.91a5.2,5.2,0,0,1-.44.38l-.06.05h0l0,0c-.58.49-1.16,1-1.75,1.45s-1.24,1-1.87,1.5-1.18.91-1.77,1.35c-.94.71-1.89,1.39-2.85,2.06-.65.45-1.3.89-2,1.32q-.6.41-1.2.78c-.41.27-.82.52-1.23.78a101.23,101.23,0,0,1-12.48,6.58q-1.2.52-2.4,1c-.74.31-1.48.6-2.23.89h0l-17.68-39.4c1.08-.37,2.14-.76,3.2-1.19s2-.83,2.95-1.29c.5-.24,1-.48,1.5-.74s1-.51,1.48-.77l1.12-.62.18-.11c.55-.31,1.08-.63,1.62-1a58.35,58.35,0,0,0,5.2-3.62l.71-.56c.32-.25.64-.51.95-.78s.43-.36.64-.54l.73-.64c.36-.32.72-.64,1.07-1a5.77,5.77,0,0,0,.44-.42c.35-.32.7-.66,1-1s.68-.69,1-1c.77-.79,1.5-1.6,2.19-2.42.28-.32.56-.65.83-1s.77-.95,1.13-1.43.51-.66.75-1c.42-.57.83-1.14,1.22-1.72s.87-1.31,1.29-2,.87-1.44,1.28-2.17c.22-.37.42-.74.62-1.12q1.15-2.13,2.11-4.34c.21-.47.41-.95.61-1.43.43-1.06.82-2.12,1.19-3.2Z"/><path class="cls-2" d="M224.19,164.58c-.44,1.26-.92,2.56-1.44,3.82s-1.05,2.35-1.6,3.49-1.12,2.24-1.71,3.33-1.18,2.2-1.81,3.27l.05-.21a.52.52,0,0,1-.14.34l.07-.09c-.63,1.1-1.3,2.18-2,3.25s-1.34,2.16-2.05,3.21-1.5,2-2.24,3.08l-2.26,3.06.06-.2h0v.12l-.06.08-2,2.44h0l0,0c-.32.35-.68.78-1,1.17l-1,1.2.07-.2h0l-.16.27,0,0,0,0-.07.08-.13.14-.26.29-.53.59.08-.2h0v.12l-.08.09-2.08,2.2-2.14,2.14c-.71.72-1.46,1.39-2.2,2.07s-1.51,1.38-2.26,2h0l-.47.4,0,0h0l-.2.08a.24.24,0,0,0,.18-.08.28.28,0,0,0,.09-.2l0,.13a.34.34,0,0,1-.28.18l.19-.07c-2.23,1.87-4.5,3.68-6.87,5.38s-4.77,3.32-7.26,4.83A103.2,103.2,0,0,1,165,224l-.57.22v-.61h0l0,.17-18-39.25-.34-.75.8-.3,2.6-1c.87-.32,1.69-.74,2.54-1.1,1.69-.75,3.32-1.63,4.93-2.54l0,0,.18-.11,0,0h0c1-.6,2-1.19,3-1.85s1.93-1.32,2.86-2,1.84-1.44,2.73-2.2c.45-.38.87-.76,1.31-1.15l1.24-1.16,0-.06a66.29,66.29,0,0,0,4.75-5.14,57.61,57.61,0,0,0,4.11-5.7c.64-1,1.22-2,1.81-3s1-2.09,1.57-3.13,1-2.1,1.48-3.18l1.24-3.29.38-1,1,.43,10,4.52,9.95,4.6C211.17,158.41,217.69,161.53,224.19,164.58Zm-1.18.48c-6.64-2.84-13.26-5.62-19.77-8.46l-9.76-4.24-9.7-4.33,1.33-.58-1.27,3.4c-.45,1.13-1,2.21-1.52,3.3s-1,2.19-1.63,3.25-1.19,2.1-1.86,3.11a60.9,60.9,0,0,1-4.3,5.84,69,69,0,0,1-5,5.3l0-.06c-.5.49-.92.86-1.36,1.26s-.92.81-1.38,1.19c-.92.77-1.86,1.52-2.82,2.23s-2,1.41-3,2.07-2.05,1.27-3.09,1.87l0,0-.18.11-.05,0c-1.67.92-3.36,1.78-5.11,2.53-.88.36-1.74.78-2.64,1.09l-2.68,1,.46-1,17.35,39.55,0,.08v.09h0l-.57-.39a101.72,101.72,0,0,0,15.61-7.49c2.47-1.48,4.92-3,7.25-4.74s4.63-3.47,6.84-5.33l.19-.07a.24.24,0,0,0-.24.14l0,.13a.33.33,0,0,1,.09-.22.3.3,0,0,1,.2-.08l-.2.08.14-.1,0,0,.41-.36h0c.76-.68,1.49-1.32,2.23-2s1.49-1.36,2.2-2.08l2.12-2.13,2.07-2.2-.08.21h0v-.12l.08-.09.52-.58.27-.3.13-.15.07-.07,0,0a.47.47,0,0,1,.12-.09l-.16.27h0v-.11l.07-.09,1-1.2c.36-.4.66-.78,1-1.21l0,0,1.94-2.46-.06.2h0v-.1l.06-.1,2.21-3.07c.73-1,1.5-2,2.18-3.09s1.33-2.14,2-3.21,1.32-2.15,1.92-3.25l.07-.1a.38.38,0,0,0-.1.27l.05-.21c.61-1.08,1.16-2.19,1.71-3.29s1.1-2.21,1.6-3.35,1-2.31,1.42-3.31S222.5,166.1,223,165.06Z"/><path class="cls-7" d="M108.87,71.82c-1.16.39-2.31.83-3.44,1.3l-1.19.5c-.51.22-1,.45-1.52.69l-1.5.73c-.49.25-1,.51-1.48.78s-1,.54-1.46.82-1,.57-1.45.87-1,.61-1.47.93L94,79.38c-.47.32-.93.65-1.39,1l-1.29,1-.21.17-1,.82-.35.29c-.35.29-.7.59-1,.9l-.17.14-.79.72-.61.58-1.1,1.07c-.36.36-.72.73-1.07,1.1l-.58.61-.72.79-.14.17-.83,1c-.48.56-.95,1.14-1.4,1.72-.32.4-.63.81-.93,1.21s-.68.92-1,1.39-.63.9-.94,1.36-.63,1-.93,1.47-.59,1-.87,1.45-.55,1-.82,1.46-.53,1-.78,1.48-.49,1-.73,1.5-.47,1-.69,1.52c-.67,1.52-1.27,3.07-1.8,4.63L32.4,91.18q1.68-4.37,3.78-8.6c.32-.65.65-1.31,1-2,.25-.47.49-.93.75-1.39s.55-1,.84-1.53c.64-1.13,1.3-2.26,2-3.37.23-.38.47-.76.71-1.13.32-.52.66-1,1-1.55.43-.66.87-1.31,1.32-2s.73-1,1.11-1.56.62-.86,1-1.29q.66-.89,1.35-1.77c.41-.54.84-1.07,1.27-1.6l.23-.27q.72-.89,1.47-1.77l.06-.07c.46-.54.93-1.07,1.41-1.6.1-.12.2-.24.32-.36.59-.65,1.18-1.29,1.78-1.93l.28-.29c.52-.54,1-1.07,1.57-1.6L57.18,54l.29-.28.34-.31.06-.07h0c.39-.36.78-.73,1.17-1.08L59.4,52c.12-.12.24-.22.36-.32l.47-.42,1.13-1a.19.19,0,0,1,.07-.06c.4-.35.8-.68,1.2-1l.57-.46.16-.14a.31.31,0,0,1,.11-.09l1.59-1.27h0q.89-.69,1.77-1.35c.43-.33.86-.64,1.29-1l1.56-1.11c.65-.45,1.3-.89,2-1.32s1.61-1.06,2.43-1.56l1.26-.77c.78-.47,1.57-.93,2.36-1.37l1.17-.65.88-.48L81,37c1.11-.57,2.23-1.12,3.35-1.65.56-.27,1.13-.53,1.7-.78s1.09-.49,1.64-.72l.19-.08c1.1-.47,2.2-.91,3.31-1.34Z"/><path class="cls-2" d="M109.46,72.08c-1,.45-2,.91-3.06,1.3l-.77.29L105,74c-.45.18-.9.38-1.34.57a54.72,54.72,0,0,0-5.25,2.63,48.24,48.24,0,0,0-5,3.16c-.8.57-1.57,1.14-2.36,1.77S89.56,83.31,88.78,84l0,0a65.28,65.28,0,0,0-4.88,4.82v0c-1.33,1.49-2.54,3-3.71,4.6A53.32,53.32,0,0,0,77,98.27a55.18,55.18,0,0,0-2.72,5.23c-.81,1.78-1.45,3.64-2.19,5.46l-.12.29-.27-.12L52,100.37,32.19,91.65l-.44-.2.17-.45c1-2.73,2.17-5.42,3.43-8s2.62-5.22,4.11-7.73,3-5,4.74-7.37c.85-1.2,1.71-2.36,2.6-3.52s1.83-2.3,2.75-3.42l0,0,.06-.07,0,.05,1.83-2.11,1.85-2,1.93-2c.67-.65,1.27-1.29,2-2l-.06.06,0,.06.73-.39h0l-.6.23L59,51.1l1.76-1.56-.16.18a1.32,1.32,0,0,1,.41-.37l-.18.13c.59-.5,1.19-1,1.79-1.51l-.08.07.22-.19-.14.15a1.65,1.65,0,0,1,.43-.36l-.17.11,1.6-1.28.24-.2h.34l-.57.19c1.75-1.36,3.55-2.71,5.4-4s3.72-2.48,5.64-3.61,3.86-2.24,5.88-3.22c1-.48,2-1,3-1.46L86,33.51l1.62-.7-.08,0,3.34-1.35.87-.35.39.87,4.47,10,4.37,10.06C103.85,58.82,106.63,65.48,109.46,72.08Zm-1.18-.52L99.13,52.12l-4.47-9.64-4.37-9.67,1.26.52-3.28,1.33-.08,0-1.42.63-1.5.68c-1,.46-2,1-3,1.45-2,1-3.88,2-5.78,3.12S72.8,42.85,71,44.07s-3.58,2.51-5.33,3.85l-.26.2h-.32l.57-.2-1.58,1.26-.17.11a.41.41,0,0,0,.21-.18l-.15.15-.09.09-.08.07c-.6.47-1.17,1-1.75,1.43l-.19.13a.62.62,0,0,0,.28-.25L62,50.9,60.2,52.43,58.48,54l-.26.23h-.35l.73-.39a1.63,1.63,0,0,1-.17.2h0l-.06.05c-.6.54-1.27,1.22-1.92,1.84l-1.93,1.93-1.88,2-1.81,2,0,0-.06.07,0,0c-.93,1.11-1.88,2.21-2.76,3.32s-1.78,2.28-2.63,3.43c-1.7,2.32-3.31,4.72-4.79,7.19s-2.9,5-4.19,7.57-2.46,5.22-3.52,7.9l-.27-.65,19.65,9,19.68,8.93-.39.17c.74-1.84,1.38-3.72,2.2-5.53a58.88,58.88,0,0,1,6-10.26c1.16-1.6,2.43-3.16,3.7-4.64h0a68.38,68.38,0,0,1,4.86-4.92l0,0c.72-.62,1.49-1.31,2.25-1.93s1.56-1.23,2.36-1.81a58.53,58.53,0,0,1,4.95-3.32,57.71,57.71,0,0,1,5.26-2.82c.45-.22.9-.43,1.36-.63l.69-.3.61-.23C106.6,72.05,107.42,71.81,108.28,71.56Z"/><path class="cls-7" d="M32.41,164.82l39.41-17.69a59.47,59.47,0,0,0,37.05,37.05L91.18,223.6a102.63,102.63,0,0,1-58.77-58.78Z"/><path class="cls-2" d="M31.81,164.57l20-8.86,9.95-4.41,9.91-4.44.3-.13.11.31a58.38,58.38,0,0,0,5.75,12.17,59.4,59.4,0,0,0,19,18.82A57.37,57.37,0,0,0,109,183.69l.53.18-.23.52L92,224l-.32.75-.78-.29a103.58,103.58,0,0,1-19.23-9.72,100.25,100.25,0,0,1-16.76-13.57,98.51,98.51,0,0,1-13.51-16.79,92.32,92.32,0,0,1-5.31-9.39c-.81-1.61-1.54-3.25-2.26-4.89-.35-.83-.7-1.66-1-2.49A17.56,17.56,0,0,1,31.81,164.57Zm1.19.49a8.29,8.29,0,0,1,1,2c.35.81.72,1.62,1.08,2.42.76,1.6,1.53,3.2,2.36,4.76,1.67,3.12,3.45,6.18,5.41,9.12a106.94,106.94,0,0,0,13.4,16.38,105.22,105.22,0,0,0,16.41,13.35,101.43,101.43,0,0,0,18.8,9.72l-1.1.45,18-39.27.3.69a60.38,60.38,0,0,1-37.16-37.43l.4.18-9.8,4.4-9.75,4.43Z"/><path class="cls-8" d="M223.59,91.19l-39.41,17.68a59.47,59.47,0,0,0-37.05-37.05L164.82,32.4c.72.28,1.43.56,2.15.86,1,.41,2,.84,3,1.28l2.06,1c.79.37,1.58.76,2.36,1.16s1.39.71,2.08,1.08a101,101,0,0,1,12.44,7.91l.75.56,1.28,1c.45.35.9.7,1.34,1.06.62.5,1.24,1,1.85,1.53l.46.39c.62.53,1.23,1.07,1.84,1.62s1.14,1,1.7,1.56l.45.43c.62.59,1.24,1.19,1.85,1.8s1.21,1.23,1.8,1.85,1.05,1.11,1.55,1.67c.35.37.69.75,1,1.13s.62.7.91,1.05c1.08,1.24,2.11,2.51,3.11,3.79.33.43.66.85,1,1.28l.56.75q1.85,2.48,3.51,5,.72,1.11,1.41,2.22l.06.09c.43.71.86,1.43,1.28,2.16s.87,1.51,1.28,2.27.76,1.41,1.13,2.12c.59,1.13,1.15,2.27,1.68,3.41.26.54.51,1.09.75,1.64.1.21.2.43.29.66.3.68.6,1.37.88,2.06.11.24.21.49.31.74Z"/><path class="cls-2" d="M224.19,91.43l-20,8.87-9.95,4.4-9.91,4.44-.3.14-.1-.31a59,59,0,0,0-5.76-12.18,59.29,59.29,0,0,0-19-18.82A57.82,57.82,0,0,0,147,72.3l-.53-.17.22-.52L164,32l.33-.75.77.3a102.66,102.66,0,0,1,19.23,9.72,101.26,101.26,0,0,1,16.76,13.57,103.94,103.94,0,0,1,13.51,16.8,91.92,91.92,0,0,1,5.31,9.38c.77,1.63,1.55,3.24,2.26,4.9l1,2.48A16.16,16.16,0,0,1,224.19,91.43ZM223,91a8.8,8.8,0,0,1-1-2l-1.09-2.44c-.73-1.6-1.56-3.18-2.36-4.75-1.68-3.14-3.41-6.16-5.4-9.13s-4-5.83-6.32-8.5a96.11,96.11,0,0,0-7.08-7.88,106.75,106.75,0,0,0-16.41-13.35,101.43,101.43,0,0,0-18.8-9.72l1.1-.45L147.6,72l-.3-.69a60.38,60.38,0,0,1,37.16,37.43l-.4-.17,9.8-4.4,9.75-4.44Z"/><path class="cls-8" d="M223.6,164.82q-.89,2.3-1.89,4.56c-.13.28-.25.57-.38.85-.36.8-.73,1.6-1.12,2.4-.23.49-.47,1-.72,1.45-.45.91-.92,1.81-1.41,2.71-.27.5-.55,1-.83,1.49a.05.05,0,0,1,0,0l-.87,1.51c-.9,1.54-1.85,3-2.83,4.55l-.78,1.15c-1.24,1.83-2.56,3.63-3.94,5.4h0c-.22.29-.45.58-.68.86l-.29.36q-.18.24-.39.48c-.19.25-.4.5-.6.75l-.2.22c-.61.73-1.23,1.45-1.86,2.17h0l0,0-.7.78-.32.36h0l-1.08,1.15-.38.41c-.12.14-.25.27-.39.41s-.23.23-.33.34c-.37.38-.74.76-1.13,1.14l-1.48,1.46-.41.39-1.93,1.78c-.16.16-.32.3-.49.44l-1,.91a5.2,5.2,0,0,1-.44.38l-.06.05h0l0,0c-.58.49-1.16,1-1.75,1.45s-1.24,1-1.87,1.5-1.18.91-1.77,1.35c-.94.71-1.89,1.39-2.85,2.06-.65.45-1.3.89-2,1.32q-.6.41-1.2.78c-.41.27-.82.52-1.23.78a101.23,101.23,0,0,1-12.48,6.58q-1.2.52-2.4,1c-.74.31-1.48.6-2.23.89h0l-17.68-39.4c1.08-.37,2.14-.76,3.2-1.19s2-.83,2.95-1.29c.5-.24,1-.48,1.5-.74s1-.51,1.48-.77l1.12-.62.18-.11c.55-.31,1.08-.63,1.62-1a58.35,58.35,0,0,0,5.2-3.62l.71-.56c.32-.25.64-.51.95-.78s.43-.36.64-.54l.73-.64c.36-.32.72-.64,1.07-1a5.77,5.77,0,0,0,.44-.42c.35-.32.7-.66,1-1s.68-.69,1-1c.77-.79,1.5-1.6,2.19-2.42.28-.32.56-.65.83-1s.77-.95,1.13-1.43.51-.66.75-1c.42-.57.83-1.14,1.22-1.72s.87-1.31,1.29-2,.87-1.44,1.28-2.17c.22-.37.42-.74.62-1.12q1.15-2.13,2.11-4.34c.21-.47.41-.95.61-1.43.43-1.06.82-2.12,1.19-3.2Z"/><path class="cls-2" d="M224.19,164.58c-.44,1.26-.92,2.56-1.44,3.82s-1.05,2.35-1.6,3.49-1.12,2.24-1.71,3.33-1.18,2.2-1.81,3.27l.05-.21a.52.52,0,0,1-.14.34l.07-.09c-.63,1.1-1.3,2.18-2,3.25s-1.34,2.16-2.05,3.21-1.5,2-2.24,3.08l-2.26,3.06.06-.2h0v.12l-.06.08-2,2.44h0l0,0c-.32.35-.68.78-1,1.17l-1,1.2.07-.2h0l-.16.27,0,0,0,0-.07.08-.13.14-.26.29-.53.59.08-.2h0v.12l-.08.09-2.08,2.2-2.14,2.14c-.71.72-1.46,1.39-2.2,2.07s-1.51,1.38-2.26,2h0l-.47.4,0,0h0l-.2.08a.24.24,0,0,0,.18-.08.28.28,0,0,0,.09-.2l0,.13a.34.34,0,0,1-.28.18l.19-.07c-2.23,1.87-4.5,3.68-6.87,5.38s-4.77,3.32-7.26,4.83A103.2,103.2,0,0,1,165,224l-.57.22v-.61h0l0,.17-18-39.25-.34-.75.8-.3,2.6-1c.87-.32,1.69-.74,2.54-1.1,1.69-.75,3.32-1.63,4.93-2.54l0,0,.18-.11,0,0h0c1-.6,2-1.19,3-1.85s1.93-1.32,2.86-2,1.84-1.44,2.73-2.2c.45-.38.87-.76,1.31-1.15l1.24-1.16,0-.06a66.29,66.29,0,0,0,4.75-5.14,57.61,57.61,0,0,0,4.11-5.7c.64-1,1.22-2,1.81-3s1-2.09,1.57-3.13,1-2.1,1.48-3.18l1.24-3.29.38-1,1,.43,10,4.52,9.95,4.6C211.17,158.41,217.69,161.53,224.19,164.58Zm-1.18.48c-6.64-2.84-13.26-5.62-19.77-8.46l-9.76-4.24-9.7-4.33,1.33-.58-1.27,3.4c-.45,1.13-1,2.21-1.52,3.3s-1,2.19-1.63,3.25-1.19,2.1-1.86,3.11a60.9,60.9,0,0,1-4.3,5.84,69,69,0,0,1-5,5.3l0-.06c-.5.49-.92.86-1.36,1.26s-.92.81-1.38,1.19c-.92.77-1.86,1.52-2.82,2.23s-2,1.41-3,2.07-2.05,1.27-3.09,1.87l0,0-.18.11-.05,0c-1.67.92-3.36,1.78-5.11,2.53-.88.36-1.74.78-2.64,1.09l-2.68,1,.46-1,17.35,39.55,0,.08v.09h0l-.57-.39a101.72,101.72,0,0,0,15.61-7.49c2.47-1.48,4.92-3,7.25-4.74s4.63-3.47,6.84-5.33l.19-.07a.24.24,0,0,0-.24.14l0,.13a.33.33,0,0,1,.09-.22.3.3,0,0,1,.2-.08l-.2.08.14-.1,0,0,.41-.36h0c.76-.68,1.49-1.32,2.23-2s1.49-1.36,2.2-2.08l2.12-2.13,2.07-2.2-.08.21h0v-.12l.08-.09.52-.58.27-.3.13-.15.07-.07,0,0a.47.47,0,0,1,.12-.09l-.16.27h0v-.11l.07-.09,1-1.2c.36-.4.66-.78,1-1.21l0,0,1.94-2.46-.06.2h0v-.1l.06-.1,2.21-3.07c.73-1,1.5-2,2.18-3.09s1.33-2.14,2-3.21,1.32-2.15,1.92-3.25l.07-.1a.38.38,0,0,0-.1.27l.05-.21c.61-1.08,1.16-2.19,1.71-3.29s1.1-2.21,1.6-3.35,1-2.31,1.42-3.31S222.5,166.1,223,165.06Z"/><path class="cls-8" d="M108.87,71.82c-1.16.39-2.31.83-3.44,1.3l-1.19.5c-.51.22-1,.45-1.52.69l-1.5.73c-.49.25-1,.51-1.48.78s-1,.54-1.46.82-1,.57-1.45.87-1,.61-1.47.93L94,79.38c-.47.32-.93.65-1.39,1l-1.29,1-.21.17-1,.82-.35.29c-.35.29-.7.59-1,.9l-.17.14-.79.72-.61.58-1.1,1.07c-.36.36-.72.73-1.07,1.1l-.58.61-.72.79-.14.17-.83,1c-.48.56-.95,1.14-1.4,1.72-.32.4-.63.81-.93,1.21s-.68.92-1,1.39-.63.9-.94,1.36-.63,1-.93,1.47-.59,1-.87,1.45-.55,1-.82,1.46-.53,1-.78,1.48-.49,1-.73,1.5-.47,1-.69,1.52c-.67,1.52-1.27,3.07-1.8,4.63L32.4,91.18q1.68-4.37,3.78-8.6c.32-.65.65-1.31,1-2,.25-.47.49-.93.75-1.39s.55-1,.84-1.53c.64-1.13,1.3-2.26,2-3.37.23-.38.47-.76.71-1.13.32-.52.66-1,1-1.55.43-.66.87-1.31,1.32-2s.73-1,1.11-1.56.62-.86,1-1.29q.66-.89,1.35-1.77c.41-.54.84-1.07,1.27-1.6l.23-.27q.72-.89,1.47-1.77l.06-.07c.46-.54.93-1.07,1.41-1.6.1-.12.2-.24.32-.36.59-.65,1.18-1.29,1.78-1.93l.28-.29c.52-.54,1-1.07,1.57-1.6L57.18,54l.29-.28.34-.31.06-.07h0c.39-.36.78-.73,1.17-1.08L59.4,52c.12-.12.24-.22.36-.32l.47-.42,1.13-1a.19.19,0,0,1,.07-.06c.4-.35.8-.68,1.2-1l.57-.46.16-.14a.31.31,0,0,1,.11-.09l1.59-1.27h0q.89-.69,1.77-1.35c.43-.33.86-.64,1.29-1l1.56-1.11c.65-.45,1.3-.89,2-1.32s1.61-1.06,2.43-1.56l1.26-.77c.78-.47,1.57-.93,2.36-1.37l1.17-.65.88-.48L81,37c1.11-.57,2.23-1.12,3.35-1.65.56-.27,1.13-.53,1.7-.78s1.09-.49,1.64-.72l.19-.08c1.1-.47,2.2-.91,3.31-1.34Z"/><path class="cls-2" d="M109.46,72.08c-1,.45-2,.91-3.06,1.3l-.77.29L105,74c-.45.18-.9.38-1.34.57a54.72,54.72,0,0,0-5.25,2.63,48.24,48.24,0,0,0-5,3.16c-.8.57-1.57,1.14-2.36,1.77S89.56,83.31,88.78,84l0,0a65.28,65.28,0,0,0-4.88,4.82v0c-1.33,1.49-2.54,3-3.71,4.6A53.32,53.32,0,0,0,77,98.27a55.18,55.18,0,0,0-2.72,5.23c-.81,1.78-1.45,3.64-2.19,5.46l-.12.29-.27-.12L52,100.37,32.19,91.65l-.44-.2.17-.45c1-2.73,2.17-5.42,3.43-8s2.62-5.22,4.11-7.73,3-5,4.74-7.37c.85-1.2,1.71-2.36,2.6-3.52s1.83-2.3,2.75-3.42l0,0,.06-.07,0,.05,1.83-2.11,1.85-2,1.93-2c.67-.65,1.27-1.29,2-2l-.06.06,0,.06.73-.39h0l-.6.23L59,51.1l1.76-1.56-.16.18a1.32,1.32,0,0,1,.41-.37l-.18.13c.59-.5,1.19-1,1.79-1.51l-.08.07.22-.19-.14.15a1.65,1.65,0,0,1,.43-.36l-.17.11,1.6-1.28.24-.2h.34l-.57.19c1.75-1.36,3.55-2.71,5.4-4s3.72-2.48,5.64-3.61,3.86-2.24,5.88-3.22c1-.48,2-1,3-1.46L86,33.51l1.62-.7-.08,0,3.34-1.35.87-.35.39.87,4.47,10,4.37,10.06C103.85,58.82,106.63,65.48,109.46,72.08Zm-1.18-.52L99.13,52.12l-4.47-9.64-4.37-9.67,1.26.52-3.28,1.33-.08,0-1.42.63-1.5.68c-1,.46-2,1-3,1.45-2,1-3.88,2-5.78,3.12S72.8,42.85,71,44.07s-3.58,2.51-5.33,3.85l-.26.2h-.32l.57-.2-1.58,1.26-.17.11a.41.41,0,0,0,.21-.18l-.15.15-.09.09-.08.07c-.6.47-1.17,1-1.75,1.43l-.19.13a.62.62,0,0,0,.28-.25L62,50.9,60.2,52.43,58.48,54l-.26.23h-.35l.73-.39a1.63,1.63,0,0,1-.17.2h0l-.06.05c-.6.54-1.27,1.22-1.92,1.84l-1.93,1.93-1.88,2-1.81,2,0,0-.06.07,0,0c-.93,1.11-1.88,2.21-2.76,3.32s-1.78,2.28-2.63,3.43c-1.7,2.32-3.31,4.72-4.79,7.19s-2.9,5-4.19,7.57-2.46,5.22-3.52,7.9l-.27-.65,19.65,9,19.68,8.93-.39.17c.74-1.84,1.38-3.72,2.2-5.53a58.88,58.88,0,0,1,6-10.26c1.16-1.6,2.43-3.16,3.7-4.64h0a68.38,68.38,0,0,1,4.86-4.92l0,0c.72-.62,1.49-1.31,2.25-1.93s1.56-1.23,2.36-1.81a58.53,58.53,0,0,1,4.95-3.32,57.71,57.71,0,0,1,5.26-2.82c.45-.22.9-.43,1.36-.63l.69-.3.61-.23C106.6,72.05,107.42,71.81,108.28,71.56Z"/><path class="cls-2" d="M226.3,181.58,212.85,195l-.42.42L212,195l-3.61-3.62.87-.06-2,2.47-2.08,2.4.14-.38h0V196l-.14.15-.76.83,0,0-.34.38.15-.38h0v.22l-.15.16-1.64,1.74-.85.87-.85.86.17-.4h0v.23l-.16.16c-.88.85-1.75,1.72-2.65,2.53l-1.35,1.23-1.39,1.22,0,0-.48.42.14-.17a.65.65,0,0,1-.13.16l0,0-.15.16h-.23l.47-.29a.61.61,0,0,1-.49.31l.34-.13c-1.2,1-2.43,2-3.64,3l0-.76,3.6,3.62.36.35-.36.35-13.83,13.75a75.49,75.49,0,0,1-106-.12L61.23,212.67l-.22-.23.22-.23,3.6-3.61,0,.49a104.12,104.12,0,0,1-18-17.92l.57,0-3.6,3.61-.27.28-.27-.28L29.49,181.05A75.64,75.64,0,0,1,29.33,74.8L43.08,61l.48-.48L44,61l3.62,3.6-1,0,.31-.4-.16.43a.73.73,0,0,1,.17-.45c.11-.11.15-.12.16-.14l-.11.09-.2.49a.75.75,0,0,1,.4-.63l-.38.61a.8.8,0,0,1,.21-.51L47,64.2l.32-.39-.06.08c.26-.35.39-.5.61-.78l.59-.71L49.63,61l0,0,.06-.07,0,0L51,59.42c.46-.53.9-1,1.34-1.47.87-1,1.83-1.94,2.74-2.87l.2-.21h.31l-.5.21c.76-.75,1.51-1.5,2.3-2.26l.2-.19h.3l-.49.19,1.73-1.59,1.76-1.56-.12.15a1.12,1.12,0,0,1,.34-.31l-.15.1,1.69-1.41-.09.07.21-.16-.08.06a1.37,1.37,0,0,1,.24-.18l-.19.13.19-.15-.14.14a1.28,1.28,0,0,1,.36-.3l-.13.08,1.59-1.28-.06,1.1L60.92,44.1l-.52-.53.52-.53L74.7,29.24a75.84,75.84,0,0,1,53.3-22,75.94,75.94,0,0,1,53.46,21.82l13.78,13.8.69.69-.69.69-3.62,3.62-.09-1.46c.84.66,1.67,1.33,2.48,2s1.64,1.39,2.43,2.09S198,52,198.8,52.67l2.3,2.23c1.49,1.52,3,3.06,4.37,4.67s2.72,3.28,4.08,4.92l-1.41-.09,3.63-3.61.66-.67.66.67,12.1,12.12a82,82,0,0,1,11.06,13.28,75.77,75.77,0,0,1,11.81,32.24,76.73,76.73,0,0,1,.17,17.27,77.81,77.81,0,0,1-3.72,16.86A76,76,0,0,1,226.3,181.58Zm-.9-.9a74.88,74.88,0,0,0,17.72-28.6,76,76,0,0,0,3.57-16.54,74.79,74.79,0,0,0-11.95-48.36,79.93,79.93,0,0,0-10.85-13l-12.12-12.1h1.32l-3.61,3.63-.73.73-.68-.82c-1.35-1.6-2.64-3.26-4-4.83s-2.83-3.07-4.3-4.56l-2.25-2.19c-.78-.7-1.54-1.42-2.33-2.1s-1.56-1.38-2.38-2-1.63-1.33-2.45-2l-.86-.68.77-.78,3.62-3.62v1.38L180.05,30.5a74.23,74.23,0,0,0-104.26-.15L62,44.1V43l3.6,3.63.58.58-.64.52L63.93,49l-.13.08a.19.19,0,0,0,.14-.12h0l-.15.15,0,0-.65.29.46-.16a.39.39,0,0,0,.14-.08l-.08.06,0,0-.09.07-1.59,1.33-.15.1a.41.41,0,0,0,.2-.19l-.12.15-1.75,1.54-1.72,1.57-.21.19h-.29l.49-.19c-.76.71-1.52,1.46-2.28,2.2l-.21.21h-.3l.5-.21c-.92,1-1.82,1.84-2.71,2.83-.44.48-.91,1-1.31,1.43l-1.3,1.47,0,0-.06.07,0,0-1.18,1.41-.58.7-.54.66-.06.08-.24.29L48,65.1a.68.68,0,0,0,.19-.47l-.38.62a.69.69,0,0,0,.36-.6l-.2.49a.5.5,0,0,1-.14.1s0,0,.15-.12a.7.7,0,0,0,.17-.44l-.16.43-.32.4-.47.59-.55-.54-3.6-3.62h1L30.24,75.71a74.6,74.6,0,0,0-.15,104.75l13.75,13.82H43.3l3.6-3.61.31-.3.26.34a103.68,103.68,0,0,0,17.79,17.86l.3.23-.27.26-3.6,3.61v-.46L75.46,226a74.6,74.6,0,0,0,105-.11l13.76-13.81v.7l-3.62-3.6-.4-.4.44-.36c1.2-1,2.43-2,3.6-3l.34-.13a.52.52,0,0,0-.45.27l.47-.29h0l-.37.16,0,0a.23.23,0,0,0-.07.1l.14-.17.4-.34,0,0,1.34-1.2,1.34-1.24c.91-.82,1.75-1.67,2.61-2.52l-.16.39h0v-.22L200,200l.83-.84.82-.84,1.63-1.75-.15.38h0v-.21l.15-.17.3-.34h0l0,0,.72-.79-.14.37h0v-.21l.14-.17,2-2.36,1.95-2.45.41-.52.46.46,3.63,3.6H212Z"/><path class="cls-6" d="M71.82,108.87c.53-1.56,1.13-3.11,1.8-4.63.22-.51.45-1,.69-1.52s.48-1,.73-1.5.51-1,.78-1.48.53-1,.82-1.46.57-1,.87-1.45.61-1,.93-1.47.61-.91.94-1.36.65-.93,1-1.39.61-.81.93-1.21c.45-.58.92-1.16,1.4-1.72l.83-1,.14-.17.72-.79.58-.61c.35-.37.71-.74,1.07-1.1L87.15,85l.61-.58.79-.72.17-.14c.34-.31.69-.61,1-.9l.35-.29c.33-.28.66-.56,1-.82l.21-.17,1.29-1c.46-.35.92-.68,1.39-1s.9-.64,1.36-.94,1-.63,1.47-.93,1-.6,1.45-.87,1-.56,1.46-.82,1-.53,1.48-.78,1-.5,1.5-.73,1-.47,1.52-.69.79-.35,1.19-.5c1.13-.47,2.28-.91,3.44-1.3a59.31,59.31,0,0,1,78.38,53,59.43,59.43,0,0,0-1.45-16.65,56.66,56.66,0,0,0-1.62-5.69A59.45,59.45,0,0,0,149.6,66.31c-.82-.33-1.64-.63-2.47-.91a59.53,59.53,0,0,0-38.26,0c-.83.28-1.66.58-2.47.91l-1,.39c-.4.15-.8.32-1.19.5s-1,.45-1.52.69-1,.48-1.5.73-1,.51-1.48.78-1,.53-1.46.82-1,.56-1.45.87-1,.61-1.47.93-.91.61-1.36.94-.93.65-1.39,1l-1.29,1-.21.17c-.34.26-.67.54-1,.82l-.35.29c-.35.29-.7.59-1,.9l-.17.14-.79.72-.61.58-1.1,1.07c-.36.36-.72.73-1.07,1.1l-.58.61-.72.79-.14.17-.83,1c-.48.56-.95,1.14-1.4,1.72-.32.4-.63.81-.93,1.21s-.69.93-1,1.39-.64.9-.94,1.36-.63,1-.93,1.47-.59,1-.87,1.45-.56,1-.82,1.46-.53,1-.78,1.48-.49,1-.73,1.5-.47,1-.69,1.52c-.67,1.52-1.27,3.07-1.8,4.63a56.66,56.66,0,0,0-1.62,5.69,59.43,59.43,0,0,0-1.45,16.65A59.67,59.67,0,0,1,71.82,108.87Z"/><path class="cls-9" d="M32.41,164.82l39.41-17.69a59.47,59.47,0,0,0,37.05,37.05L91.18,223.6a102.63,102.63,0,0,1-58.77-58.78Z"/><path class="cls-2" d="M31.81,164.57l20-8.86,9.95-4.41,9.91-4.44.3-.13.11.31a58.38,58.38,0,0,0,5.75,12.17,59.4,59.4,0,0,0,19,18.82A57.37,57.37,0,0,0,109,183.69l.53.18-.23.52L92,224l-.32.75-.78-.29a103.58,103.58,0,0,1-19.23-9.72,100.25,100.25,0,0,1-16.76-13.57,98.51,98.51,0,0,1-13.51-16.79,92.32,92.32,0,0,1-5.31-9.39c-.81-1.61-1.54-3.25-2.26-4.89-.35-.83-.7-1.66-1-2.49A17.56,17.56,0,0,1,31.81,164.57Zm1.19.49a8.29,8.29,0,0,1,1,2c.35.81.72,1.62,1.08,2.42.76,1.6,1.53,3.2,2.36,4.76,1.67,3.12,3.45,6.18,5.41,9.12a106.94,106.94,0,0,0,13.4,16.38,105.22,105.22,0,0,0,16.41,13.35,101.43,101.43,0,0,0,18.8,9.72l-1.1.45,18-39.27.3.69a60.38,60.38,0,0,1-37.16-37.43l.4.18-9.8,4.4-9.75,4.43Z"/></svg>