<svg id="Layer_1" data-name="Layer 1" xmlns="http://www.w3.org/2000/svg" xmlns:xlink="http://www.w3.org/1999/xlink" viewBox="0 0 256 256"><defs><style>.cls-1{fill:none;}.cls-2{fill:#253759;}.cls-3{clip-path:url(#clip-path);}.cls-4{clip-path:url(#clip-path-2);}.cls-5,.cls-6{fill:url(#New_Pattern_Swatch_1);}.cls-6{stroke:#253759;stroke-linecap:round;stroke-linejoin:round;}</style><clipPath id="clip-path"><rect class="cls-1" x="42.85" width="43" height="43"/></clipPath><clipPath id="clip-path-2"><rect class="cls-1" x="-0.05" width="43" height="43"/></clipPath><pattern id="New_Pattern_Swatch_1" data-name="New Pattern Swatch 1" width="42.9" height="43" patternTransform="translate(0 387)" patternUnits="userSpaceOnUse" viewBox="0 0 42.9 43"><rect class="cls-1" width="42.9" height="43"/><circle class="cls-2" cx="42.91" cy="1.85" r="0.57"/><circle class="cls-2" cx="42.91" cy="5.42" r="0.57"/><circle class="cls-2" cx="42.91" cy="8.99" r="0.57"/><circle class="cls-2" cx="42.91" cy="12.57" r="0.57"/><circle class="cls-2" cx="42.91" cy="16.14" r="0.57"/><circle class="cls-2" cx="42.91" cy="19.71" r="0.57"/><circle class="cls-2" cx="42.91" cy="23.29" r="0.57"/><circle class="cls-2" cx="42.91" cy="26.86" r="0.57"/><circle class="cls-2" cx="42.91" cy="30.43" r="0.57"/><circle class="cls-2" cx="42.91" cy="34.01" r="0.57"/><circle class="cls-2" cx="42.91" cy="37.58" r="0.57"/><circle class="cls-2" cx="42.91" cy="41.15" r="0.57"/><circle class="cls-2" cx="42.89" cy="1.85" r="0.57"/><circle class="cls-2" cx="42.89" cy="5.42" r="0.57"/><circle class="cls-2" cx="42.89" cy="8.99" r="0.57"/><circle class="cls-2" cx="42.89" cy="12.57" r="0.57"/><circle class="cls-2" cx="42.89" cy="16.14" r="0.57"/><circle class="cls-2" cx="42.89" cy="19.71" r="0.57"/><circle class="cls-2" cx="42.89" cy="23.29" r="0.57"/><circle class="cls-2" cx="42.89" cy="26.86" r="0.57"/><circle class="cls-2" cx="42.89" cy="30.43" r="0.57"/><circle class="cls-2" cx="42.89" cy="34.01" r="0.57"/><circle class="cls-2" cx="42.89" cy="37.58" r="0.57"/><circle class="cls-2" cx="42.89" cy="41.15" r="0.57"/><g class="cls-3"><circle class="cls-2" cx="42.81" cy="1.85" r="0.57"/><circle class="cls-2" cx="42.81" cy="5.42" r="0.57"/><circle class="cls-2" cx="42.81" cy="8.99" r="0.57"/><circle class="cls-2" cx="42.81" cy="12.57" r="0.57"/><circle class="cls-2" cx="42.81" cy="16.14" r="0.57"/><circle class="cls-2" cx="42.81" cy="19.71" r="0.57"/><circle class="cls-2" cx="42.81" cy="23.29" r="0.57"/><circle class="cls-2" cx="42.81" cy="26.86" r="0.57"/><circle class="cls-2" cx="42.81" cy="30.43" r="0.57"/><circle class="cls-2" cx="42.81" cy="34.01" r="0.57"/><circle class="cls-2" cx="42.81" cy="37.58" r="0.57"/><circle class="cls-2" cx="42.81" cy="41.15" r="0.57"/><circle class="cls-2" cx="42.79" cy="1.85" r="0.57"/><circle class="cls-2" cx="42.79" cy="5.42" r="0.57"/><circle class="cls-2" cx="42.79" cy="8.99" r="0.57"/><circle class="cls-2" cx="42.79" cy="12.57" r="0.57"/><circle class="cls-2" cx="42.79" cy="16.14" r="0.57"/><circle class="cls-2" cx="42.79" cy="19.71" r="0.57"/><circle class="cls-2" cx="42.79" cy="23.29" r="0.57"/><circle class="cls-2" cx="42.79" cy="26.86" r="0.57"/><circle class="cls-2" cx="42.79" cy="30.43" r="0.57"/><circle class="cls-2" cx="42.79" cy="34.01" r="0.57"/><circle class="cls-2" cx="42.79" cy="37.58" r="0.57"/><circle class="cls-2" cx="42.79" cy="41.15" r="0.57"/></g><circle class="cls-2" cx="42.91" cy="1.85" r="0.57"/><circle class="cls-2" cx="42.91" cy="5.42" r="0.57"/><circle class="cls-2" cx="42.91" cy="8.99" r="0.57"/><circle class="cls-2" cx="42.91" cy="12.57" r="0.57"/><circle class="cls-2" cx="42.91" cy="16.14" r="0.57"/><circle class="cls-2" cx="42.91" cy="19.71" r="0.57"/><circle class="cls-2" cx="42.91" cy="23.29" r="0.57"/><circle class="cls-2" cx="42.91" cy="26.86" r="0.57"/><circle class="cls-2" cx="42.91" cy="30.43" r="0.57"/><circle class="cls-2" cx="42.91" cy="34.01" r="0.57"/><circle class="cls-2" cx="42.91" cy="37.58" r="0.57"/><circle class="cls-2" cx="42.91" cy="41.15" r="0.57"/><circle class="cls-2" cx="0.01" cy="1.85" r="0.57"/><circle class="cls-2" cx="3.59" cy="1.85" r="0.57"/><circle class="cls-2" cx="7.16" cy="1.85" r="0.57"/><circle class="cls-2" cx="10.73" cy="1.85" r="0.57"/><circle class="cls-2" cx="0.01" cy="5.42" r="0.57"/><circle class="cls-2" cx="3.59" cy="5.42" r="0.57"/><circle class="cls-2" cx="7.16" cy="5.42" r="0.57"/><circle class="cls-2" cx="10.73" cy="5.42" r="0.57"/><circle class="cls-2" cx="0.01" cy="8.99" r="0.57"/><circle class="cls-2" cx="3.59" cy="8.99" r="0.57"/><circle class="cls-2" cx="7.16" cy="8.99" r="0.57"/><circle class="cls-2" cx="10.73" cy="8.99" r="0.57"/><circle class="cls-2" cx="0.01" cy="12.57" r="0.57"/><circle class="cls-2" cx="3.59" cy="12.57" r="0.57"/><circle class="cls-2" cx="7.16" cy="12.57" r="0.57"/><circle class="cls-2" cx="10.73" cy="12.57" r="0.57"/><circle class="cls-2" cx="0.01" cy="16.14" r="0.57"/><circle class="cls-2" cx="3.59" cy="16.14" r="0.57"/><circle class="cls-2" cx="7.16" cy="16.14" r="0.57"/><circle class="cls-2" cx="10.73" cy="16.14" r="0.57"/><circle class="cls-2" cx="0.01" cy="19.71" r="0.57"/><circle class="cls-2" cx="3.59" cy="19.71" r="0.57"/><circle class="cls-2" cx="7.16" cy="19.71" r="0.57"/><circle class="cls-2" cx="10.73" cy="19.71" r="0.57"/><circle class="cls-2" cx="14.3" cy="1.85" r="0.57"/><circle class="cls-2" cx="17.88" cy="1.85" r="0.57"/><circle class="cls-2" cx="21.45" cy="1.85" r="0.57"/><circle class="cls-2" cx="25.02" cy="1.85" r="0.57"/><circle class="cls-2" cx="28.6" cy="1.85" r="0.57"/><circle class="cls-2" cx="14.3" cy="5.42" r="0.57"/><circle class="cls-2" cx="17.88" cy="5.42" r="0.57"/><circle class="cls-2" cx="21.45" cy="5.42" r="0.57"/><circle class="cls-2" cx="25.02" cy="5.42" r="0.57"/><circle class="cls-2" cx="28.6" cy="5.42" r="0.57"/><circle class="cls-2" cx="14.3" cy="8.99" r="0.57"/><circle class="cls-2" cx="17.88" cy="8.99" r="0.57"/><circle class="cls-2" cx="21.45" cy="8.99" r="0.57"/><circle class="cls-2" cx="25.02" cy="8.99" r="0.57"/><circle class="cls-2" cx="28.6" cy="8.99" r="0.57"/><circle class="cls-2" cx="14.3" cy="12.57" r="0.57"/><circle class="cls-2" cx="17.88" cy="12.57" r="0.57"/><circle class="cls-2" cx="21.45" cy="12.57" r="0.57"/><circle class="cls-2" cx="25.02" cy="12.57" r="0.57"/><circle class="cls-2" cx="28.6" cy="12.57" r="0.57"/><circle class="cls-2" cx="14.3" cy="16.14" r="0.57"/><circle class="cls-2" cx="17.88" cy="16.14" r="0.57"/><circle class="cls-2" cx="21.45" cy="16.14" r="0.57"/><circle class="cls-2" cx="25.02" cy="16.14" r="0.57"/><circle class="cls-2" cx="28.6" cy="16.14" r="0.57"/><circle class="cls-2" cx="14.3" cy="19.71" r="0.57"/><circle class="cls-2" cx="17.88" cy="19.71" r="0.57"/><circle class="cls-2" cx="21.45" cy="19.71" r="0.57"/><circle class="cls-2" cx="25.02" cy="19.71" r="0.57"/><circle class="cls-2" cx="28.6" cy="19.71" r="0.57"/><circle class="cls-2" cx="32.17" cy="1.85" r="0.57"/><circle class="cls-2" cx="35.74" cy="1.85" r="0.57"/><circle class="cls-2" cx="39.31" cy="1.85" r="0.57"/><circle class="cls-2" cx="42.89" cy="1.85" r="0.57"/><circle class="cls-2" cx="32.17" cy="5.42" r="0.57"/><circle class="cls-2" cx="35.74" cy="5.42" r="0.57"/><circle class="cls-2" cx="39.31" cy="5.42" r="0.57"/><circle class="cls-2" cx="42.89" cy="5.42" r="0.57"/><circle class="cls-2" cx="32.17" cy="8.99" r="0.57"/><circle class="cls-2" cx="35.74" cy="8.99" r="0.57"/><circle class="cls-2" cx="39.31" cy="8.99" r="0.57"/><circle class="cls-2" cx="42.89" cy="8.99" r="0.57"/><circle class="cls-2" cx="32.17" cy="12.57" r="0.57"/><circle class="cls-2" cx="35.74" cy="12.57" r="0.57"/><circle class="cls-2" cx="39.31" cy="12.57" r="0.57"/><circle class="cls-2" cx="42.89" cy="12.57" r="0.57"/><circle class="cls-2" cx="32.17" cy="16.14" r="0.57"/><circle class="cls-2" cx="35.74" cy="16.14" r="0.57"/><circle class="cls-2" cx="39.31" cy="16.14" r="0.57"/><circle class="cls-2" cx="42.89" cy="16.14" r="0.57"/><circle class="cls-2" cx="32.17" cy="19.71" r="0.57"/><circle class="cls-2" cx="35.74" cy="19.71" r="0.57"/><circle class="cls-2" cx="39.31" cy="19.71" r="0.57"/><circle class="cls-2" cx="42.89" cy="19.71" r="0.57"/><circle class="cls-2" cx="0.01" cy="23.29" r="0.57"/><circle class="cls-2" cx="3.59" cy="23.29" r="0.57"/><circle class="cls-2" cx="7.16" cy="23.29" r="0.57"/><circle class="cls-2" cx="10.73" cy="23.29" r="0.57"/><circle class="cls-2" cx="0.01" cy="26.86" r="0.57"/><circle class="cls-2" cx="3.59" cy="26.86" r="0.57"/><circle class="cls-2" cx="7.16" cy="26.86" r="0.57"/><circle class="cls-2" cx="10.73" cy="26.86" r="0.57"/><circle class="cls-2" cx="0.01" cy="30.43" r="0.57"/><circle class="cls-2" cx="3.59" cy="30.43" r="0.57"/><circle class="cls-2" cx="7.16" cy="30.43" r="0.57"/><circle class="cls-2" cx="10.73" cy="30.43" r="0.57"/><circle class="cls-2" cx="0.01" cy="34.01" r="0.57"/><circle class="cls-2" cx="3.59" cy="34.01" r="0.57"/><circle class="cls-2" cx="7.16" cy="34.01" r="0.57"/><circle class="cls-2" cx="10.73" cy="34.01" r="0.57"/><circle class="cls-2" cx="0.01" cy="37.58" r="0.57"/><circle class="cls-2" cx="3.59" cy="37.58" r="0.57"/><circle class="cls-2" cx="7.16" cy="37.58" r="0.57"/><circle class="cls-2" cx="10.73" cy="37.58" r="0.57"/><circle class="cls-2" cx="0.01" cy="41.15" r="0.57"/><circle class="cls-2" cx="3.59" cy="41.15" r="0.57"/><circle class="cls-2" cx="7.16" cy="41.15" r="0.57"/><circle class="cls-2" cx="10.73" cy="41.15" r="0.57"/><circle class="cls-2" cx="14.3" cy="23.29" r="0.57"/><circle class="cls-2" cx="17.88" cy="23.29" r="0.57"/><circle class="cls-2" cx="21.45" cy="23.29" r="0.57"/><circle class="cls-2" cx="25.02" cy="23.29" r="0.57"/><circle class="cls-2" cx="28.6" cy="23.29" r="0.57"/><circle class="cls-2" cx="14.3" cy="26.86" r="0.57"/><circle class="cls-2" cx="17.88" cy="26.86" r="0.57"/><circle class="cls-2" cx="21.45" cy="26.86" r="0.57"/><circle class="cls-2" cx="25.02" cy="26.86" r="0.57"/><circle class="cls-2" cx="28.6" cy="26.86" r="0.57"/><circle class="cls-2" cx="14.3" cy="30.43" r="0.57"/><circle class="cls-2" cx="17.88" cy="30.43" r="0.57"/><circle class="cls-2" cx="21.45" cy="30.43" r="0.57"/><circle class="cls-2" cx="25.02" cy="30.43" r="0.57"/><circle class="cls-2" cx="28.6" cy="30.43" r="0.57"/><circle class="cls-2" cx="14.3" cy="34.01" r="0.57"/><circle class="cls-2" cx="17.88" cy="34.01" r="0.57"/><circle class="cls-2" cx="21.45" cy="34.01" r="0.57"/><circle class="cls-2" cx="25.02" cy="34.01" r="0.57"/><circle class="cls-2" cx="28.6" cy="34.01" r="0.57"/><circle class="cls-2" cx="14.3" cy="37.58" r="0.57"/><circle class="cls-2" cx="17.88" cy="37.58" r="0.57"/><circle class="cls-2" cx="21.45" cy="37.58" r="0.57"/><circle class="cls-2" cx="25.02" cy="37.58" r="0.57"/><circle class="cls-2" cx="28.6" cy="37.58" r="0.57"/><circle class="cls-2" cx="14.3" cy="41.15" r="0.57"/><circle class="cls-2" cx="17.88" cy="41.15" r="0.57"/><circle class="cls-2" cx="21.45" cy="41.15" r="0.57"/><circle class="cls-2" cx="25.02" cy="41.15" r="0.57"/><circle class="cls-2" cx="28.6" cy="41.15" r="0.57"/><circle class="cls-2" cx="32.17" cy="23.29" r="0.57"/><circle class="cls-2" cx="35.74" cy="23.29" r="0.57"/><circle class="cls-2" cx="39.31" cy="23.29" r="0.57"/><circle class="cls-2" cx="42.89" cy="23.29" r="0.57"/><circle class="cls-2" cx="32.17" cy="26.86" r="0.57"/><circle class="cls-2" cx="35.74" cy="26.86" r="0.57"/><circle class="cls-2" cx="39.31" cy="26.86" r="0.57"/><circle class="cls-2" cx="42.89" cy="26.86" r="0.57"/><circle class="cls-2" cx="32.17" cy="30.43" r="0.57"/><circle class="cls-2" cx="35.74" cy="30.43" r="0.57"/><circle class="cls-2" cx="39.31" cy="30.43" r="0.57"/><circle class="cls-2" cx="42.89" cy="30.43" r="0.57"/><circle class="cls-2" cx="32.17" cy="34.01" r="0.57"/><circle class="cls-2" cx="35.74" cy="34.01" r="0.57"/><circle class="cls-2" cx="39.31" cy="34.01" r="0.57"/><circle class="cls-2" cx="42.89" cy="34.01" r="0.57"/><circle class="cls-2" cx="32.17" cy="37.58" r="0.57"/><circle class="cls-2" cx="35.74" cy="37.58" r="0.57"/><circle class="cls-2" cx="39.31" cy="37.58" r="0.57"/><circle class="cls-2" cx="42.89" cy="37.58" r="0.57"/><circle class="cls-2" cx="32.17" cy="41.15" r="0.57"/><circle class="cls-2" cx="35.74" cy="41.15" r="0.57"/><circle class="cls-2" cx="39.31" cy="41.15" r="0.57"/><circle class="cls-2" cx="42.89" cy="41.15" r="0.57"/><circle class="cls-2" cx="-0.01" cy="1.85" r="0.57"/><circle class="cls-2" cx="-0.01" cy="5.42" r="0.57"/><circle class="cls-2" cx="-0.01" cy="8.99" r="0.57"/><circle class="cls-2" cx="-0.01" cy="12.57" r="0.57"/><circle class="cls-2" cx="-0.01" cy="16.14" r="0.57"/><circle class="cls-2" cx="-0.01" cy="19.71" r="0.57"/><circle class="cls-2" cx="-0.01" cy="23.29" r="0.57"/><circle class="cls-2" cx="-0.01" cy="26.86" r="0.57"/><circle class="cls-2" cx="-0.01" cy="30.43" r="0.57"/><circle class="cls-2" cx="-0.01" cy="34.01" r="0.57"/><circle class="cls-2" cx="-0.01" cy="37.58" r="0.57"/><circle class="cls-2" cx="-0.01" cy="41.15" r="0.57"/><g class="cls-4"><circle class="cls-2" cx="-0.09" cy="1.85" r="0.57"/><circle class="cls-2" cx="-0.09" cy="5.42" r="0.57"/><circle class="cls-2" cx="-0.09" cy="8.99" r="0.57"/><circle class="cls-2" cx="-0.09" cy="12.57" r="0.57"/><circle class="cls-2" cx="-0.09" cy="16.14" r="0.57"/><circle class="cls-2" cx="-0.09" cy="19.71" r="0.57"/><circle class="cls-2" cx="-0.09" cy="23.29" r="0.57"/><circle class="cls-2" cx="-0.09" cy="26.86" r="0.57"/><circle class="cls-2" cx="-0.09" cy="30.43" r="0.57"/><circle class="cls-2" cx="-0.09" cy="34.01" r="0.57"/><circle class="cls-2" cx="-0.09" cy="37.58" r="0.57"/><circle class="cls-2" cx="-0.09" cy="41.15" r="0.57"/><circle class="cls-2" cx="-0.11" cy="1.85" r="0.57"/><circle class="cls-2" cx="-0.11" cy="5.42" r="0.57"/><circle class="cls-2" cx="-0.11" cy="8.99" r="0.57"/><circle class="cls-2" cx="-0.11" cy="12.57" r="0.57"/><circle class="cls-2" cx="-0.11" cy="16.14" r="0.57"/><circle class="cls-2" cx="-0.11" cy="19.71" r="0.57"/><circle class="cls-2" cx="-0.11" cy="23.29" r="0.57"/><circle class="cls-2" cx="-0.11" cy="26.86" r="0.57"/><circle class="cls-2" cx="-0.11" cy="30.43" r="0.57"/><circle class="cls-2" cx="-0.11" cy="34.01" r="0.57"/><circle class="cls-2" cx="-0.11" cy="37.58" r="0.57"/><circle class="cls-2" cx="-0.11" cy="41.15" r="0.57"/></g><circle class="cls-2" cx="0.01" cy="1.85" r="0.57"/><circle class="cls-2" cx="0.01" cy="5.42" r="0.57"/><circle class="cls-2" cx="0.01" cy="8.99" r="0.57"/><circle class="cls-2" cx="0.01" cy="12.57" r="0.57"/><circle class="cls-2" cx="0.01" cy="16.14" r="0.57"/><circle class="cls-2" cx="0.01" cy="19.71" r="0.57"/><circle class="cls-2" cx="0.01" cy="23.29" r="0.57"/><circle class="cls-2" cx="0.01" cy="26.86" r="0.57"/><circle class="cls-2" cx="0.01" cy="30.43" r="0.57"/><circle class="cls-2" cx="0.01" cy="34.01" r="0.57"/><circle class="cls-2" cx="0.01" cy="37.58" r="0.57"/><circle class="cls-2" cx="0.01" cy="41.15" r="0.57"/><circle class="cls-2" cx="-0.01" cy="1.85" r="0.57"/><circle class="cls-2" cx="-0.01" cy="5.42" r="0.57"/><circle class="cls-2" cx="-0.01" cy="8.99" r="0.57"/><circle class="cls-2" cx="-0.01" cy="12.57" r="0.57"/><circle class="cls-2" cx="-0.01" cy="16.14" r="0.57"/><circle class="cls-2" cx="-0.01" cy="19.71" r="0.57"/><circle class="cls-2" cx="-0.01" cy="23.29" r="0.57"/><circle class="cls-2" cx="-0.01" cy="26.86" r="0.57"/><circle class="cls-2" cx="-0.01" cy="30.43" r="0.57"/><circle class="cls-2" cx="-0.01" cy="34.01" r="0.57"/><circle class="cls-2" cx="-0.01" cy="37.58" r="0.57"/><circle class="cls-2" cx="-0.01" cy="41.15" r="0.57"/></pattern></defs><title>10-free-finance-icon</title><path class="cls-5" d="M50.24,225.19v10a14.49,14.49,0,0,0,14.48,14.48H159.5a12.41,12.41,0,0,0,12.41-12.41V225.19Zm83.24,12.47a6.67,6.67,0,0,1-6.67,6.66H95.34a6.67,6.67,0,0,1-6.67-6.66v-.46a6.67,6.67,0,0,1,6.67-6.66h31.47a6.67,6.67,0,0,1,6.67,6.66Z"/><path class="cls-2" d="M50.73,225.68c.13,3.21.22,6.31.22,9.46a13.8,13.8,0,0,0,11,13.51,24.33,24.33,0,0,0,4.8.27h5l39.77-.07,39.77-.06h5a44.62,44.62,0,0,0,4.84-.14,11.51,11.51,0,0,0,9.57-8.77,10.76,10.76,0,0,0,.28-2.27c0-.77,0-1.64,0-2.46l0-9.94,1,1Zm-1-1,122.16-.47a1,1,0,0,1,1,1h0v9.94c0,.84,0,1.63,0,2.51a13.17,13.17,0,0,1-.34,2.65,13.33,13.33,0,0,1-11.14,10.15,44.13,44.13,0,0,1-5.09.13h-5l-39.77-.06-39.77-.07h-5c-.84,0-1.63,0-2.5,0-.44,0-.88,0-1.31-.09l-1.29-.2a15.24,15.24,0,0,1-12.15-15C49.53,231.65,49.63,228.12,49.75,224.7Z"/><path class="cls-2" d="M134.18,237.66a7.67,7.67,0,0,1-.88,3.51,7.47,7.47,0,0,1-2.45,2.67,7.35,7.35,0,0,1-3.42,1.19c-.64.05-1.16,0-1.72,0h-1.65l-13.21.06-13.22.06H96a10.1,10.1,0,0,1-1.78-.09,7.27,7.27,0,0,1-3.42-1.43,7.54,7.54,0,0,1-2.34-2.88,8.09,8.09,0,0,1-.7-3.6,7.61,7.61,0,0,1,3.43-6.37,7.5,7.5,0,0,1,3.54-1.21c.66,0,1.17,0,1.73,0h1.65l13.22.08,13.21.12a33.56,33.56,0,0,1,3.41.1,7.24,7.24,0,0,1,3.33,1.42,7.35,7.35,0,0,1,2.26,2.83A7.75,7.75,0,0,1,134.18,237.66Zm-1.39,0a6,6,0,0,0-2.39-5.19,5.8,5.8,0,0,0-2.69-1.13,30,30,0,0,0-3.19-.06l-13.21.12-13.22.08H96.44c-.54,0-1.14,0-1.57,0a5.72,5.72,0,0,0-2.65.91,5.67,5.67,0,0,0-2.62,4.77,8.46,8.46,0,0,0,.09,1.48,5.36,5.36,0,0,0,.42,1.36,5.77,5.77,0,0,0,4.36,3.32,31.57,31.57,0,0,0,3.16.09l13.22.06,13.21.06h1.65c.55,0,1.13,0,1.59,0a5.93,5.93,0,0,0,4.75-3.07A6.21,6.21,0,0,0,132.79,237.66Z"/><path class="cls-6" d="M159.5,6.33H64.72A14.49,14.49,0,0,0,50.24,20.81v10H171.91V18.74A12.41,12.41,0,0,0,159.5,6.33Zm-28.77,16H91.43V15.13h39.3Z"/><polygon class="cls-5" points="42.5 99.27 50.25 103.67 50.25 71.15 42.5 75.55 42.5 99.27"/><path class="cls-2" d="M42.94,99c2.53,1.4,5,2.81,7.54,4.25l-.7.41-.4-32.52,1.3.76-7.77,4.35.41-.71Zm-.88.51-.38-24a.82.82,0,0,1,.4-.71h0l7.72-4.44h0a.86.86,0,0,1,1.18.32.85.85,0,0,1,.11.44l-.4,32.52a.47.47,0,0,1-.47.47.56.56,0,0,1-.23-.06Q46,101.83,42.06,99.52Z"/><path class="cls-2" d="M100.22,236.43c3.62.06,7.24.14,10.86.27,1.81.05,3.62.14,5.43.21l2.71.11,1.36,0,.68,0,.34,0h.17s.11,0,.17.31-.12.31-.17.31h-.17l-.34,0-.68,0-1.36.05-2.71.11c-1.81.07-3.62.16-5.43.21-3.62.13-7.24.21-10.86.27a1,1,0,1,1,0-2Z"/><path class="cls-5" d="M159.5,6.33H64.72A14.49,14.49,0,0,0,50.24,20.81v10H171.91V18.74A12.41,12.41,0,0,0,159.5,6.33Zm-28.77,16H91.43V15.13h39.3Z"/><path class="cls-2" d="M159.5,6.33l-31.88.13c-10.62,0-21.25.2-31.88.3L79.8,6.93l-8,.08-4,0-2,0c-.67,0-1.33,0-2,.06a13.8,13.8,0,0,0-11.66,8.25,13.54,13.54,0,0,0-1,3.59,14.56,14.56,0,0,0-.13,1.87v2l0,8-.95-.95,15.21,0,15.21.06c10.14.05,20.28.05,30.42.19l30.41.32c10.14.1,20.28.26,30.42.29l-.13.13,0-7.89c-.05-2.62.27-5.29-.51-7.82a12.44,12.44,0,0,0-11.8-8.77Zm0,0a12.49,12.49,0,0,1,11.92,8.74c.82,2.55.51,5.24.59,7.85l0,7.89a.13.13,0,0,1-.13.13h0c-10.14,0-20.28.19-30.42.29l-30.41.32c-10.14.14-20.28.14-30.42.19l-15.21.06-15.21,0h0a1,1,0,0,1-.94-1h0l0-8v-2a16.65,16.65,0,0,1,.16-2.11,15.65,15.65,0,0,1,1.14-4.06,16.93,16.93,0,0,1,2.21-3.58A16.38,16.38,0,0,1,56,8.26a15.07,15.07,0,0,1,7.87-2.65c.71,0,1.38,0,2,0l2,0,4,0,8,.08,15.94.17c10.63.1,21.26.26,31.88.3Z"/><path class="cls-2" d="M130.73,22.36l-9.59.35-9.79.3c-3.29.08-6.6.18-9.93.21s-6.66.11-10,.11a1,1,0,0,1-1-1l0-7.23a1,1,0,0,1,1-1h0q9.82,0,19.65.15l9.83.21c3.27.08,6.55.18,9.82.32h0a.3.3,0,0,1,.29.32h0Zm0,0-.32-7.23.32.32c-3.27.14-6.55.24-9.82.32l-9.83.21q-9.83.15-19.65.15l1-1,0,7.23-1-1c3.22,0,6.44.06,9.66.11s6.47.14,9.72.21l9.86.3Z"/><path class="cls-2" d="M74.9,80.21l0,61.49a8.39,8.39,0,0,0,2.84,6.23,8.09,8.09,0,0,0,3,1.71,11,11,0,0,0,3.59.36H99.79l30.75,0a.77.77,0,0,1,.77.78h0l-.38,28.74-1.37-.56,27.12-28.75a.83.83,0,0,1,.6-.26h14.64a.83.83,0,0,1,.83.83h0v74.44a.83.83,0,0,1-.83.83h0l-121.67-.23a.62.62,0,0,1-.61-.6h0c0-16.2.07-32.4,0-48.6L49.47,128l-.18-48.59c-.06-8.1,0-16.2,0-24.3s0-16.2.14-24.3h0a.82.82,0,0,1,.82-.81l60.83-.12,30.42,0,30.42,0a.94.94,0,0,1,.93.94h0l-.07,40.34a.87.87,0,0,1-.86.87l-51.44-.09-25.72,0H83.51A10.3,10.3,0,0,0,82,72a8.27,8.27,0,0,0-5.08,2.8A8.48,8.48,0,0,0,74.9,80.21Zm-1.39,0a9.87,9.87,0,0,1,2.35-6.36,9.7,9.7,0,0,1,5.94-3.3,12.51,12.51,0,0,1,1.71-.12H94.76l25.72,0,51.44-.09-.87.87L171,30.81l.94.94-30.42,0-30.42,0-60.83-.12.81-.82c.11,8.1.13,16.2.14,24.3s.06,16.2,0,24.3L51,128l-.16,48.59c-.08,16.2,0,32.4,0,48.6l-.6-.6,121.67-.23-.84.83V150.75l.83.83H157.28l.59-.26L130.72,180a.8.8,0,0,1-1.38-.56l.42-28.74.78.79-30.75,0H84.42a12.77,12.77,0,0,1-4-.43,9.84,9.84,0,0,1-6.93-9.37Z"/><path class="cls-5" d="M204.44,71.15H83.26a9.06,9.06,0,0,0-9.05,9.06v61.48a9.06,9.06,0,0,0,9.05,9.06h47.28l-.4,28.74,27.14-28.74h47.16a9.06,9.06,0,0,0,9.06-9.06V80.21A9.06,9.06,0,0,0,204.44,71.15Zm-58.29,67v8.41h-5.1v-8.09c-4.69-.08-9.46-1.54-12.29-3.56l1.93-5.42A21.88,21.88,0,0,0,142.27,133c5.74,0,9.63-3.32,9.63-7.94,0-4.45-3.16-7.2-9.14-9.63-4.31-1.69-7.76-3.53-10.07-5.91a11.15,11.15,0,0,1-3.29-8.17c0-6.72,4.78-11.82,12.14-13V80.2h5.1v7.86a22,22,0,0,1,10.52,2.83l-2,5.34a19.45,19.45,0,0,0-10.2-2.83c-6.23,0-8.58,3.72-8.58,7,0,4.06,2.88,6.16,9.65,9.07l.39.17c8.33,3.39,12.55,7.52,12.55,14.73C159,130.87,154.49,136.86,146.15,138.16Z"/><path class="cls-2" d="M204.44,72.51l-32.3-.23-32.29-.4c-10.77-.13-21.54-.28-32.3-.32L91.4,71.45l-8.08,0a8.73,8.73,0,0,0-8.57,6.7,15.53,15.53,0,0,0-.26,3.94v40.38l.06,16.14c0,1.33,0,2.73.06,4a8.75,8.75,0,0,0,1.26,3.64,8.66,8.66,0,0,0,6.3,4c1.25.14,2.65.05,4,.07l4,0,8.07,0,32.3-.27a.7.7,0,0,1,.72.71h0L131,179.5l-1.4-.57,27-28.82a.93.93,0,0,1,.67-.29h0l34.27-.14,8.57,0,4.29,0a8.14,8.14,0,0,0,3.6-.88,7.87,7.87,0,0,0,4.19-5.83,36,36,0,0,0,.09-4.1l0-4.28-.13-34.27V83.12a40.22,40.22,0,0,0-.1-4.07,7.35,7.35,0,0,0-1.36-3.33A7.71,7.71,0,0,0,204.44,72.51Zm0-2.72a10.46,10.46,0,0,1,8.45,4.33,10.06,10.06,0,0,1,1.85,4.52,13.81,13.81,0,0,1,.13,2.34v19.28l-.13,34.27,0,4.28V141a13.59,13.59,0,0,1-.14,2.32,10.24,10.24,0,0,1-10.15,8.6l-4.29,0-8.57,0-34.27-.14.68-.29-27.23,28.66h0a.81.81,0,0,1-1.15,0,.78.78,0,0,1-.25-.6l.49-28.74.72.73-32.3-.27-8.07,0-4,0c-1.36,0-2.66.06-4.08-.1a9.44,9.44,0,0,1-8.12-8.38c-.1-1.41,0-2.71,0-4.07L74,122.45V82.07A16.63,16.63,0,0,1,74.21,78,9.55,9.55,0,0,1,76,74.3a9.39,9.39,0,0,1,7.28-3.43l8.08,0,16.15-.11c10.76,0,21.53-.19,32.3-.32l32.29-.4Z"/><path class="cls-2" d="M147.18,139.05c.12,2.51.14,4.95.06,7.52v.07a1.06,1.06,0,0,1-1.09,1l-5.1-.15H141a.92.92,0,0,1-.89-.94l.17-8.09.76.77a27.43,27.43,0,0,1-6.56-1.08,20.08,20.08,0,0,1-6-2.82h0a.52.52,0,0,1-.18-.6l2-5.39h0a.46.46,0,0,1,.58-.27l.09.05a21.24,21.24,0,0,0,9.21,3.39,15.25,15.25,0,0,0,4.91-.14,9,9,0,0,0,4.32-2.15,7.29,7.29,0,0,0,1.27-8.91,10.45,10.45,0,0,0-3.48-3.39,26.92,26.92,0,0,0-4.46-2.23,33.6,33.6,0,0,1-9-4.75,13.45,13.45,0,0,1-3.36-3.91,11.67,11.67,0,0,1-1.39-5,13.83,13.83,0,0,1,.68-5.14,12.51,12.51,0,0,1,2.64-4.49,16,16,0,0,1,9.13-4.72l-.52.61-.07-8.1a.68.68,0,0,1,.68-.69h0l5.1,0a.72.72,0,0,1,.73.72h0l0,7.86-.76-.78a25,25,0,0,1,5.63.75,22,22,0,0,1,5.29,2.12.85.85,0,0,1,.38,1h0l-2,5.35h0a.87.87,0,0,1-1.12.51.84.84,0,0,1-.14-.06,18.48,18.48,0,0,0-9-2.64,11.9,11.9,0,0,0-4.49.61,5.93,5.93,0,0,0-3.18,2.67,6.06,6.06,0,0,0-.55,4.08,5.9,5.9,0,0,0,2.4,3.35A24.27,24.27,0,0,0,144,107.4c.74.34,1.47.67,2.21,1l2.3,1a23.19,23.19,0,0,1,8.49,5.87,13,13,0,0,1,2.55,4.74,16.16,16.16,0,0,1,.59,5.3,14.5,14.5,0,0,1-4.31,9.65,15.65,15.65,0,0,1-4.41,3,11.91,11.91,0,0,1-1.23.52,12.4,12.4,0,0,1-1.26.42l-.64.19-.32.09h-.15A2.06,2.06,0,0,1,147.18,139.05Zm-2.06-1.78a11.51,11.51,0,0,1,1.77-.62l.46-.1.28-.08.55-.15a8,8,0,0,0,1.08-.35,7.46,7.46,0,0,0,1.05-.43,13,13,0,0,0,3.72-2.48,12,12,0,0,0,3.65-7.93,11.81,11.81,0,0,0-2.49-8.4,21,21,0,0,0-7.59-5.32l-2.23-1c-.78-.35-1.54-.69-2.3-1.06a26.16,26.16,0,0,1-4.44-2.61,10.07,10.07,0,0,1-1.94-2,6.6,6.6,0,0,1-1.18-2.63,8,8,0,0,1,.81-5.49,7.9,7.9,0,0,1,4.25-3.52,13.74,13.74,0,0,1,5.24-.67,20.48,20.48,0,0,1,5.09.87,21.75,21.75,0,0,1,4.68,2.11l-1.27.46,2.06-5.33.37,1a20,20,0,0,0-4.87-2,23.69,23.69,0,0,0-5.25-.77h0a.77.77,0,0,1-.74-.78l0-7.86.73.73-5.1,0,.69-.69-.07,8.1h0a.61.61,0,0,1-.52.6,14.92,14.92,0,0,0-8.56,4.21,12.19,12.19,0,0,0-3.23,8.88,10.87,10.87,0,0,0,1.21,4.67,12.69,12.69,0,0,0,3.13,3.73,32.86,32.86,0,0,0,8.73,4.77,30.17,30.17,0,0,1,4.54,2.29,10.83,10.83,0,0,1,3.67,3.58,7.86,7.86,0,0,1-1.36,9.6A9.8,9.8,0,0,1,145.2,133a15.53,15.53,0,0,1-5.13.22,22.79,22.79,0,0,1-9.63-3.32l.68-.23-1.87,5.45-.19-.61a18.5,18.5,0,0,0,5.76,2.44,25.83,25.83,0,0,0,6.24.78.76.76,0,0,1,.76.74v0l.17,8.09-.94-.94,5.1-.15-1.09,1.09C145,143.53,145,140.37,145.12,137.27Z"/><path class="cls-2" d="M206.48,80.2l.39,43.18.09,10.79,0,5.4v2a2.53,2.53,0,0,1-.13.91,2.59,2.59,0,0,1-1.19,1.47,3.19,3.19,0,0,1-1.7.34l-21.59.19a1,1,0,1,1,0-2h0l21.59.2a1.59,1.59,0,0,0,.92-.12,1,1,0,0,0,.49-.57,1.45,1.45,0,0,0,.06-.42v-2l0-5.4.1-10.79L206,80.2a.22.22,0,0,1,.22-.22A.22.22,0,0,1,206.48,80.2Z"/><path class="cls-2" d="M81.22,114.36l-.38-32.72,0-1c0-.19,0-.31,0-.55a2.64,2.64,0,0,1,.13-.68A2.49,2.49,0,0,1,83,77.74c.26,0,.4,0,.58,0h1.53l2,0,8.18-.09,16.36-.2a1,1,0,1,1,0,2h0L95.34,79.2l-8.18-.1-4,0a1.16,1.16,0,0,0-1,.76.88.88,0,0,0-.07.32c0,.1,0,.32,0,.48l0,1-.38,32.72a.23.23,0,0,1-.23.22A.22.22,0,0,1,81.22,114.36Z"/></svg>