<svg id="Layer_1" data-name="Layer 1" xmlns="http://www.w3.org/2000/svg" xmlns:xlink="http://www.w3.org/1999/xlink" viewBox="0 0 256 256"><defs><style>.cls-1{fill:none;}.cls-2{fill:#253759;}.cls-3{clip-path:url(#clip-path);}.cls-4{clip-path:url(#clip-path-2);}.cls-5{fill:#fff;}.cls-6{fill:#a7a6c1;}.cls-7{fill:url(#New_Pattern_Swatch_1);}.cls-8{fill:#a6d5fe;}.cls-9{fill:#d5ebfe;}.cls-10{opacity:0.3;}.cls-11{fill:#ff9d9d;}</style><clipPath id="clip-path"><rect class="cls-1" x="42.85" width="43" height="43"/></clipPath><clipPath id="clip-path-2"><rect class="cls-1" x="-0.05" width="43" height="43"/></clipPath><pattern id="New_Pattern_Swatch_1" data-name="New Pattern Swatch 1" width="42.9" height="43" patternTransform="translate(-5.06 732.26) scale(1.14)" patternUnits="userSpaceOnUse" viewBox="0 0 42.9 43"><rect class="cls-1" width="42.9" height="43"/><circle class="cls-2" cx="42.91" cy="1.85" r="0.57"/><circle class="cls-2" cx="42.91" cy="5.42" r="0.57"/><circle class="cls-2" cx="42.91" cy="8.99" r="0.57"/><circle class="cls-2" cx="42.91" cy="12.57" r="0.57"/><circle class="cls-2" cx="42.91" cy="16.14" r="0.57"/><circle class="cls-2" cx="42.91" cy="19.71" r="0.57"/><circle class="cls-2" cx="42.91" cy="23.29" r="0.57"/><circle class="cls-2" cx="42.91" cy="26.86" r="0.57"/><circle class="cls-2" cx="42.91" cy="30.43" r="0.57"/><circle class="cls-2" cx="42.91" cy="34.01" r="0.57"/><circle class="cls-2" cx="42.91" cy="37.58" r="0.57"/><circle class="cls-2" cx="42.91" cy="41.15" r="0.57"/><circle class="cls-2" cx="42.89" cy="1.85" r="0.57"/><circle class="cls-2" cx="42.89" cy="5.42" r="0.57"/><circle class="cls-2" cx="42.89" cy="8.99" r="0.57"/><circle class="cls-2" cx="42.89" cy="12.57" r="0.57"/><circle class="cls-2" cx="42.89" cy="16.14" r="0.57"/><circle class="cls-2" cx="42.89" cy="19.71" r="0.57"/><circle class="cls-2" cx="42.89" cy="23.29" r="0.57"/><circle class="cls-2" cx="42.89" cy="26.86" r="0.57"/><circle class="cls-2" cx="42.89" cy="30.43" r="0.57"/><circle class="cls-2" cx="42.89" cy="34.01" r="0.57"/><circle class="cls-2" cx="42.89" cy="37.58" r="0.57"/><circle class="cls-2" cx="42.89" cy="41.15" r="0.57"/><g class="cls-3"><circle class="cls-2" cx="42.81" cy="1.85" r="0.57"/><circle class="cls-2" cx="42.81" cy="5.42" r="0.57"/><circle class="cls-2" cx="42.81" cy="8.99" r="0.57"/><circle class="cls-2" cx="42.81" cy="12.57" r="0.57"/><circle class="cls-2" cx="42.81" cy="16.14" r="0.57"/><circle class="cls-2" cx="42.81" cy="19.71" r="0.57"/><circle class="cls-2" cx="42.81" cy="23.29" r="0.57"/><circle class="cls-2" cx="42.81" cy="26.86" r="0.57"/><circle class="cls-2" cx="42.81" cy="30.43" r="0.57"/><circle class="cls-2" cx="42.81" cy="34.01" r="0.57"/><circle class="cls-2" cx="42.81" cy="37.58" r="0.57"/><circle class="cls-2" cx="42.81" cy="41.15" r="0.57"/><circle class="cls-2" cx="42.79" cy="1.85" r="0.57"/><circle class="cls-2" cx="42.79" cy="5.42" r="0.57"/><circle class="cls-2" cx="42.79" cy="8.99" r="0.57"/><circle class="cls-2" cx="42.79" cy="12.57" r="0.57"/><circle class="cls-2" cx="42.79" cy="16.14" r="0.57"/><circle class="cls-2" cx="42.79" cy="19.71" r="0.57"/><circle class="cls-2" cx="42.79" cy="23.29" r="0.57"/><circle class="cls-2" cx="42.79" cy="26.86" r="0.57"/><circle class="cls-2" cx="42.79" cy="30.43" r="0.57"/><circle class="cls-2" cx="42.79" cy="34.01" r="0.57"/><circle class="cls-2" cx="42.79" cy="37.58" r="0.57"/><circle class="cls-2" cx="42.79" cy="41.15" r="0.57"/></g><circle class="cls-2" cx="42.91" cy="1.85" r="0.57"/><circle class="cls-2" cx="42.91" cy="5.42" r="0.57"/><circle class="cls-2" cx="42.91" cy="8.99" r="0.57"/><circle class="cls-2" cx="42.91" cy="12.57" r="0.57"/><circle class="cls-2" cx="42.91" cy="16.14" r="0.57"/><circle class="cls-2" cx="42.91" cy="19.71" r="0.57"/><circle class="cls-2" cx="42.91" cy="23.29" r="0.57"/><circle class="cls-2" cx="42.91" cy="26.86" r="0.57"/><circle class="cls-2" cx="42.91" cy="30.43" r="0.57"/><circle class="cls-2" cx="42.91" cy="34.01" r="0.57"/><circle class="cls-2" cx="42.91" cy="37.58" r="0.57"/><circle class="cls-2" cx="42.91" cy="41.15" r="0.57"/><circle class="cls-2" cx="0.01" cy="1.85" r="0.57"/><circle class="cls-2" cx="3.59" cy="1.85" r="0.57"/><circle class="cls-2" cx="7.16" cy="1.85" r="0.57"/><circle class="cls-2" cx="10.73" cy="1.85" r="0.57"/><circle class="cls-2" cx="0.01" cy="5.42" r="0.57"/><circle class="cls-2" cx="3.59" cy="5.42" r="0.57"/><circle class="cls-2" cx="7.16" cy="5.42" r="0.57"/><circle class="cls-2" cx="10.73" cy="5.42" r="0.57"/><circle class="cls-2" cx="0.01" cy="8.99" r="0.57"/><circle class="cls-2" cx="3.59" cy="8.99" r="0.57"/><circle class="cls-2" cx="7.16" cy="8.99" r="0.57"/><circle class="cls-2" cx="10.73" cy="8.99" r="0.57"/><circle class="cls-2" cx="0.01" cy="12.57" r="0.57"/><circle class="cls-2" cx="3.59" cy="12.57" r="0.57"/><circle class="cls-2" cx="7.16" cy="12.57" r="0.57"/><circle class="cls-2" cx="10.73" cy="12.57" r="0.57"/><circle class="cls-2" cx="0.01" cy="16.14" r="0.57"/><circle class="cls-2" cx="3.59" cy="16.14" r="0.57"/><circle class="cls-2" cx="7.16" cy="16.14" r="0.57"/><circle class="cls-2" cx="10.73" cy="16.14" r="0.57"/><circle class="cls-2" cx="0.01" cy="19.71" r="0.57"/><circle class="cls-2" cx="3.59" cy="19.71" r="0.57"/><circle class="cls-2" cx="7.16" cy="19.71" r="0.57"/><circle class="cls-2" cx="10.73" cy="19.71" r="0.57"/><circle class="cls-2" cx="14.3" cy="1.85" r="0.57"/><circle class="cls-2" cx="17.88" cy="1.85" r="0.57"/><circle class="cls-2" cx="21.45" cy="1.85" r="0.57"/><circle class="cls-2" cx="25.02" cy="1.85" r="0.57"/><circle class="cls-2" cx="28.6" cy="1.85" r="0.57"/><circle class="cls-2" cx="14.3" cy="5.42" r="0.57"/><circle class="cls-2" cx="17.88" cy="5.42" r="0.57"/><circle class="cls-2" cx="21.45" cy="5.42" r="0.57"/><circle class="cls-2" cx="25.02" cy="5.42" r="0.57"/><circle class="cls-2" cx="28.6" cy="5.42" r="0.57"/><circle class="cls-2" cx="14.3" cy="8.99" r="0.57"/><circle class="cls-2" cx="17.88" cy="8.99" r="0.57"/><circle class="cls-2" cx="21.45" cy="8.99" r="0.57"/><circle class="cls-2" cx="25.02" cy="8.99" r="0.57"/><circle class="cls-2" cx="28.6" cy="8.99" r="0.57"/><circle class="cls-2" cx="14.3" cy="12.57" r="0.57"/><circle class="cls-2" cx="17.88" cy="12.57" r="0.57"/><circle class="cls-2" cx="21.45" cy="12.57" r="0.57"/><circle class="cls-2" cx="25.02" cy="12.57" r="0.57"/><circle class="cls-2" cx="28.6" cy="12.57" r="0.57"/><circle class="cls-2" cx="14.3" cy="16.14" r="0.57"/><circle class="cls-2" cx="17.88" cy="16.14" r="0.57"/><circle class="cls-2" cx="21.45" cy="16.14" r="0.57"/><circle class="cls-2" cx="25.02" cy="16.14" r="0.57"/><circle class="cls-2" cx="28.6" cy="16.14" r="0.57"/><circle class="cls-2" cx="14.3" cy="19.71" r="0.57"/><circle class="cls-2" cx="17.88" cy="19.71" r="0.57"/><circle class="cls-2" cx="21.45" cy="19.71" r="0.57"/><circle class="cls-2" cx="25.02" cy="19.71" r="0.57"/><circle class="cls-2" cx="28.6" cy="19.71" r="0.57"/><circle class="cls-2" cx="32.17" cy="1.85" r="0.57"/><circle class="cls-2" cx="35.74" cy="1.85" r="0.57"/><circle class="cls-2" cx="39.31" cy="1.85" r="0.57"/><circle class="cls-2" cx="42.89" cy="1.85" r="0.57"/><circle class="cls-2" cx="32.17" cy="5.42" r="0.57"/><circle class="cls-2" cx="35.74" cy="5.42" r="0.57"/><circle class="cls-2" cx="39.31" cy="5.42" r="0.57"/><circle class="cls-2" cx="42.89" cy="5.42" r="0.57"/><circle class="cls-2" cx="32.17" cy="8.99" r="0.57"/><circle class="cls-2" cx="35.74" cy="8.99" r="0.57"/><circle class="cls-2" cx="39.31" cy="8.99" r="0.57"/><circle class="cls-2" cx="42.89" cy="8.99" r="0.57"/><circle class="cls-2" cx="32.17" cy="12.57" r="0.57"/><circle class="cls-2" cx="35.74" cy="12.57" r="0.57"/><circle class="cls-2" cx="39.31" cy="12.57" r="0.57"/><circle class="cls-2" cx="42.89" cy="12.57" r="0.57"/><circle class="cls-2" cx="32.17" cy="16.14" r="0.57"/><circle class="cls-2" cx="35.74" cy="16.14" r="0.57"/><circle class="cls-2" cx="39.31" cy="16.14" r="0.57"/><circle class="cls-2" cx="42.89" cy="16.14" r="0.57"/><circle class="cls-2" cx="32.17" cy="19.71" r="0.57"/><circle class="cls-2" cx="35.74" cy="19.71" r="0.57"/><circle class="cls-2" cx="39.31" cy="19.71" r="0.57"/><circle class="cls-2" cx="42.89" cy="19.71" r="0.57"/><circle class="cls-2" cx="0.01" cy="23.29" r="0.57"/><circle class="cls-2" cx="3.59" cy="23.29" r="0.57"/><circle class="cls-2" cx="7.16" cy="23.29" r="0.57"/><circle class="cls-2" cx="10.73" cy="23.29" r="0.57"/><circle class="cls-2" cx="0.01" cy="26.86" r="0.57"/><circle class="cls-2" cx="3.59" cy="26.86" r="0.57"/><circle class="cls-2" cx="7.16" cy="26.86" r="0.57"/><circle class="cls-2" cx="10.73" cy="26.86" r="0.57"/><circle class="cls-2" cx="0.01" cy="30.43" r="0.57"/><circle class="cls-2" cx="3.59" cy="30.43" r="0.57"/><circle class="cls-2" cx="7.16" cy="30.43" r="0.57"/><circle class="cls-2" cx="10.73" cy="30.43" r="0.57"/><circle class="cls-2" cx="0.01" cy="34.01" r="0.57"/><circle class="cls-2" cx="3.59" cy="34.01" r="0.57"/><circle class="cls-2" cx="7.16" cy="34.01" r="0.57"/><circle class="cls-2" cx="10.73" cy="34.01" r="0.57"/><circle class="cls-2" cx="0.01" cy="37.58" r="0.57"/><circle class="cls-2" cx="3.59" cy="37.58" r="0.57"/><circle class="cls-2" cx="7.16" cy="37.58" r="0.57"/><circle class="cls-2" cx="10.73" cy="37.58" r="0.57"/><circle class="cls-2" cx="0.01" cy="41.15" r="0.57"/><circle class="cls-2" cx="3.59" cy="41.15" r="0.57"/><circle class="cls-2" cx="7.16" cy="41.15" r="0.57"/><circle class="cls-2" cx="10.73" cy="41.15" r="0.57"/><circle class="cls-2" cx="14.3" cy="23.29" r="0.57"/><circle class="cls-2" cx="17.88" cy="23.29" r="0.57"/><circle class="cls-2" cx="21.45" cy="23.29" r="0.57"/><circle class="cls-2" cx="25.02" cy="23.29" r="0.57"/><circle class="cls-2" cx="28.6" cy="23.29" r="0.57"/><circle class="cls-2" cx="14.3" cy="26.86" r="0.57"/><circle class="cls-2" cx="17.88" cy="26.86" r="0.57"/><circle class="cls-2" cx="21.45" cy="26.86" r="0.57"/><circle class="cls-2" cx="25.02" cy="26.86" r="0.57"/><circle class="cls-2" cx="28.6" cy="26.86" r="0.57"/><circle class="cls-2" cx="14.3" cy="30.43" r="0.57"/><circle class="cls-2" cx="17.88" cy="30.43" r="0.57"/><circle class="cls-2" cx="21.45" cy="30.43" r="0.57"/><circle class="cls-2" cx="25.02" cy="30.43" r="0.57"/><circle class="cls-2" cx="28.6" cy="30.43" r="0.57"/><circle class="cls-2" cx="14.3" cy="34.01" r="0.57"/><circle class="cls-2" cx="17.88" cy="34.01" r="0.57"/><circle class="cls-2" cx="21.45" cy="34.01" r="0.57"/><circle class="cls-2" cx="25.02" cy="34.01" r="0.57"/><circle class="cls-2" cx="28.6" cy="34.01" r="0.57"/><circle class="cls-2" cx="14.3" cy="37.58" r="0.57"/><circle class="cls-2" cx="17.88" cy="37.58" r="0.57"/><circle class="cls-2" cx="21.45" cy="37.58" r="0.57"/><circle class="cls-2" cx="25.02" cy="37.58" r="0.57"/><circle class="cls-2" cx="28.6" cy="37.58" r="0.57"/><circle class="cls-2" cx="14.3" cy="41.15" r="0.57"/><circle class="cls-2" cx="17.88" cy="41.15" r="0.57"/><circle class="cls-2" cx="21.45" cy="41.15" r="0.57"/><circle class="cls-2" cx="25.02" cy="41.15" r="0.57"/><circle class="cls-2" cx="28.6" cy="41.15" r="0.57"/><circle class="cls-2" cx="32.17" cy="23.29" r="0.57"/><circle class="cls-2" cx="35.74" cy="23.29" r="0.57"/><circle class="cls-2" cx="39.31" cy="23.29" r="0.57"/><circle class="cls-2" cx="42.89" cy="23.29" r="0.57"/><circle class="cls-2" cx="32.17" cy="26.86" r="0.57"/><circle class="cls-2" cx="35.74" cy="26.86" r="0.57"/><circle class="cls-2" cx="39.31" cy="26.86" r="0.57"/><circle class="cls-2" cx="42.89" cy="26.86" r="0.57"/><circle class="cls-2" cx="32.17" cy="30.43" r="0.57"/><circle class="cls-2" cx="35.74" cy="30.43" r="0.57"/><circle class="cls-2" cx="39.31" cy="30.43" r="0.57"/><circle class="cls-2" cx="42.89" cy="30.43" r="0.57"/><circle class="cls-2" cx="32.17" cy="34.01" r="0.57"/><circle class="cls-2" cx="35.74" cy="34.01" r="0.57"/><circle class="cls-2" cx="39.31" cy="34.01" r="0.57"/><circle class="cls-2" cx="42.89" cy="34.01" r="0.57"/><circle class="cls-2" cx="32.17" cy="37.58" r="0.57"/><circle class="cls-2" cx="35.74" cy="37.58" r="0.57"/><circle class="cls-2" cx="39.31" cy="37.58" r="0.57"/><circle class="cls-2" cx="42.89" cy="37.58" r="0.57"/><circle class="cls-2" cx="32.17" cy="41.15" r="0.57"/><circle class="cls-2" cx="35.74" cy="41.15" r="0.57"/><circle class="cls-2" cx="39.31" cy="41.15" r="0.57"/><circle class="cls-2" cx="42.89" cy="41.15" r="0.57"/><circle class="cls-2" cx="-0.01" cy="1.85" r="0.57"/><circle class="cls-2" cx="-0.01" cy="5.42" r="0.57"/><circle class="cls-2" cx="-0.01" cy="8.99" r="0.57"/><circle class="cls-2" cx="-0.01" cy="12.57" r="0.57"/><circle class="cls-2" cx="-0.01" cy="16.14" r="0.57"/><circle class="cls-2" cx="-0.01" cy="19.71" r="0.57"/><circle class="cls-2" cx="-0.01" cy="23.29" r="0.57"/><circle class="cls-2" cx="-0.01" cy="26.86" r="0.57"/><circle class="cls-2" cx="-0.01" cy="30.43" r="0.57"/><circle class="cls-2" cx="-0.01" cy="34.01" r="0.57"/><circle class="cls-2" cx="-0.01" cy="37.58" r="0.57"/><circle class="cls-2" cx="-0.01" cy="41.15" r="0.57"/><g class="cls-4"><circle class="cls-2" cx="-0.09" cy="1.85" r="0.57"/><circle class="cls-2" cx="-0.09" cy="5.42" r="0.57"/><circle class="cls-2" cx="-0.09" cy="8.99" r="0.57"/><circle class="cls-2" cx="-0.09" cy="12.57" r="0.57"/><circle class="cls-2" cx="-0.09" cy="16.14" r="0.57"/><circle class="cls-2" cx="-0.09" cy="19.71" r="0.57"/><circle class="cls-2" cx="-0.09" cy="23.29" r="0.57"/><circle class="cls-2" cx="-0.09" cy="26.86" r="0.57"/><circle class="cls-2" cx="-0.09" cy="30.43" r="0.57"/><circle class="cls-2" cx="-0.09" cy="34.01" r="0.57"/><circle class="cls-2" cx="-0.09" cy="37.58" r="0.57"/><circle class="cls-2" cx="-0.09" cy="41.15" r="0.57"/><circle class="cls-2" cx="-0.11" cy="1.85" r="0.57"/><circle class="cls-2" cx="-0.11" cy="5.42" r="0.57"/><circle class="cls-2" cx="-0.11" cy="8.99" r="0.57"/><circle class="cls-2" cx="-0.11" cy="12.57" r="0.57"/><circle class="cls-2" cx="-0.11" cy="16.14" r="0.57"/><circle class="cls-2" cx="-0.11" cy="19.71" r="0.57"/><circle class="cls-2" cx="-0.11" cy="23.29" r="0.57"/><circle class="cls-2" cx="-0.11" cy="26.86" r="0.57"/><circle class="cls-2" cx="-0.11" cy="30.43" r="0.57"/><circle class="cls-2" cx="-0.11" cy="34.01" r="0.57"/><circle class="cls-2" cx="-0.11" cy="37.58" r="0.57"/><circle class="cls-2" cx="-0.11" cy="41.15" r="0.57"/></g><circle class="cls-2" cx="0.01" cy="1.85" r="0.57"/><circle class="cls-2" cx="0.01" cy="5.42" r="0.57"/><circle class="cls-2" cx="0.01" cy="8.99" r="0.57"/><circle class="cls-2" cx="0.01" cy="12.57" r="0.57"/><circle class="cls-2" cx="0.01" cy="16.14" r="0.57"/><circle class="cls-2" cx="0.01" cy="19.71" r="0.57"/><circle class="cls-2" cx="0.01" cy="23.29" r="0.57"/><circle class="cls-2" cx="0.01" cy="26.86" r="0.57"/><circle class="cls-2" cx="0.01" cy="30.43" r="0.57"/><circle class="cls-2" cx="0.01" cy="34.01" r="0.57"/><circle class="cls-2" cx="0.01" cy="37.58" r="0.57"/><circle class="cls-2" cx="0.01" cy="41.15" r="0.57"/><circle class="cls-2" cx="-0.01" cy="1.85" r="0.57"/><circle class="cls-2" cx="-0.01" cy="5.42" r="0.57"/><circle class="cls-2" cx="-0.01" cy="8.99" r="0.57"/><circle class="cls-2" cx="-0.01" cy="12.57" r="0.57"/><circle class="cls-2" cx="-0.01" cy="16.14" r="0.57"/><circle class="cls-2" cx="-0.01" cy="19.71" r="0.57"/><circle class="cls-2" cx="-0.01" cy="23.29" r="0.57"/><circle class="cls-2" cx="-0.01" cy="26.86" r="0.57"/><circle class="cls-2" cx="-0.01" cy="30.43" r="0.57"/><circle class="cls-2" cx="-0.01" cy="34.01" r="0.57"/><circle class="cls-2" cx="-0.01" cy="37.58" r="0.57"/><circle class="cls-2" cx="-0.01" cy="41.15" r="0.57"/></pattern></defs><title>10-free-finance-icon</title><path class="cls-5" d="M244.52,78.79v144a11.38,11.38,0,0,1-11.38,11.38H22.86a11.39,11.39,0,0,1-11.38-11.38v-144A11.39,11.39,0,0,1,22.86,67.41H233.14A11.38,11.38,0,0,1,244.52,78.79Z"/><path class="cls-2" d="M245.8,78.79l.18,97.49,0,24.38,0,12.18v9.91l-.05.86a14,14,0,0,1-.21,1.71,12.84,12.84,0,0,1-12.26,10.31c-1.11,0-2.06,0-3.09,0h-6.1l-24.37,0-97.49-.17-48.75-.08-24.37,0h-6.1a13,13,0,0,1-6.42-1.55,12.6,12.6,0,0,1-6.53-11l.17-97.49,0-24.38,0-12.18V78.79l0-.82a15.14,15.14,0,0,1,.21-1.63A12.42,12.42,0,0,1,19.24,67a12.69,12.69,0,0,1,3.24-.53c1.07,0,2.05,0,3.07,0h6.1l24.37,0,97.5-.14,48.74-.07,24.38,0h6.09a13,13,0,0,1,6.47,1.53,12.74,12.74,0,0,1,6.6,11.1Zm-2.56,0A10.21,10.21,0,0,0,238,69.91a10.57,10.57,0,0,0-5.25-1.24h-6.09l-24.38,0-48.74-.07L56,68.41l-24.37,0h-6.1c-1,0-2.06,0-3,0a10.75,10.75,0,0,0-2.76.44A10.59,10.59,0,0,0,12.6,76.7a13.9,13.9,0,0,0-.21,2.86V88.7l0,12.18,0,24.38.17,97.49A10.3,10.3,0,0,0,18,231.7a10.51,10.51,0,0,0,5.29,1.24h6.1l24.37-.05,48.75-.08,97.49-.17,24.37,0h6.1c1,0,2.08,0,3,0a10.78,10.78,0,0,0,2.59-.42,10,10,0,0,0,6.75-7.46c0-.43.16-.86.16-1.3l0-.66v-9.91l0-12.18,0-24.38Z"/><path class="cls-6" d="M58,67.41a46.53,46.53,0,0,1-46.53,46.53V78.79A11.39,11.39,0,0,1,22.86,67.41Z"/><path class="cls-2" d="M58.47,67c0,1.65,0,3.4-.14,5.05s-.51,3-.77,4.57-.78,3-1.17,4.46-1.07,2.88-1.59,4.32a48.35,48.35,0,0,1-10.21,15.16,47.54,47.54,0,0,1-33.11,14,.55.55,0,0,1-.55-.54h0v0l-.26-22-.09-11V79.5c0-.45,0-.92,0-1.43a12.14,12.14,0,0,1,3.53-8A12.59,12.59,0,0,1,19.19,67a12.33,12.33,0,0,1,2.94-.51c1-.07,1.9,0,2.86,0l11.25.07,11.19.19Zm-.91.91-11,.28-10.85.19L24.9,68.4c-.88,0-1.84,0-2.65,0a11,11,0,0,0-2.47.44,11,11,0,0,0-4.28,2.56,10.85,10.85,0,0,0-2.61,4.26,10.42,10.42,0,0,0-.45,2.48c0,.41,0,.85,0,1.32v1.38l-.1,11-.26,22-.55-.55a45.52,45.52,0,0,0,17.66-3.34,45.2,45.2,0,0,0,25-25c.49-1.43,1-2.83,1.48-4.28s.76-2.92,1-4.4.42-3,.57-4.46A37.2,37.2,0,0,1,57.56,67.87Z"/><path class="cls-6" d="M244.52,78.79v35.15A46.53,46.53,0,0,1,198,67.41h35.15A11.38,11.38,0,0,1,244.52,78.79Z"/><path class="cls-2" d="M245.16,78.79l-.22,17.58c-.06,5.86-.14,11.72-.13,17.57a.3.3,0,0,1-.29.3h0a47.52,47.52,0,0,1-33.28-13.55,47.11,47.11,0,0,1-10.4-15.18,46.64,46.64,0,0,1-3.77-18.1.91.91,0,0,1,.91-.91h0l13.25-.08c4.42,0,8.84,0,13.26,0l6.63.06c1.1,0,2.19,0,3.4.13a13.05,13.05,0,0,1,3.42.94,13.2,13.2,0,0,1,3,1.89,12.4,12.4,0,0,1,2.31,2.65,12.1,12.1,0,0,1,1.92,6.66Zm-1.28,0a12.24,12.24,0,0,0-.5-3.07A11.24,11.24,0,0,0,242,72.93,11.54,11.54,0,0,0,240,70.65a11.73,11.73,0,0,0-2.64-1.57,11.25,11.25,0,0,0-3-.74c-1-.09-2.1,0-3.21,0l-6.63.07c-4.42.06-8.84,0-13.26,0L198,68.33l.92-.92a46.93,46.93,0,0,0,3.32,17.52,45.9,45.9,0,0,0,9.77,15,45.56,45.56,0,0,0,32.52,13.72l-.29.29c0-5.85-.07-11.71-.14-17.57Z"/><path class="cls-6" d="M58,234.13H22.86a11.39,11.39,0,0,1-11.38-11.38V187.58A46.54,46.54,0,0,1,58,234.13Z"/><path class="cls-2" d="M58.47,234.58l-22.41-.15H25c-.93,0-1.84,0-2.79,0a11.84,11.84,0,0,1-2.77-.49A12.26,12.26,0,0,1,14.59,231a11.56,11.56,0,0,1-3.44-7.58c-.07-1,0-1.85-.05-2.78l-.09-11-.26-22a.73.73,0,0,1,.71-.74h0a46.85,46.85,0,0,1,33.61,13.67A46.56,46.56,0,0,1,55.33,216c.5,1.47,1.07,2.92,1.52,4.4s.78,3,1.07,4.53.43,3.05.59,4.62C58.58,231.23,58.53,233,58.47,234.58Zm-.91-.91c-.22-1.44-.43-2.73-.51-4s-.5-3-.75-4.41-.77-2.89-1.14-4.34-1-2.79-1.55-4.19a47.09,47.09,0,0,0-9.93-14.76,46.23,46.23,0,0,0-32.2-13.6l.73-.73-.26,22-.09,11a17,17,0,0,0,.46,5.36A11.46,11.46,0,0,0,15,230.57a11.33,11.33,0,0,0,4.54,2.77,17.12,17.12,0,0,0,5.36.49h11Z"/><path class="cls-6" d="M244.52,187.58v35.17a11.38,11.38,0,0,1-11.38,11.38H198A46.55,46.55,0,0,1,244.52,187.58Z"/><path class="cls-2" d="M245,187.13l-.15,22.41v11.1c0,.93,0,1.84,0,2.79a11.64,11.64,0,0,1-3.37,7.58,12.25,12.25,0,0,1-4.79,2.94,12,12,0,0,1-2.79.5c-1,.08-1.84,0-2.77.06l-11,.09-22,.26a.73.73,0,0,1-.73-.72h0a46.66,46.66,0,0,1,29.1-43.86c1.46-.5,2.91-1.07,4.4-1.52s3-.79,4.52-1.08,3.05-.42,4.63-.59S243.37,187.07,245,187.13Zm-.91.91c-1.43.22-2.72.42-4.05.51s-2.94.5-4.41.75-2.89.76-4.33,1.14-2.8,1-4.2,1.55a46.36,46.36,0,0,0-28.35,42.14l-.73-.73,22,.25,11,.1a17.06,17.06,0,0,0,5.36-.46,11.07,11.07,0,0,0,7.32-7.26,17.11,17.11,0,0,0,.48-5.36V209.72Z"/><path class="cls-7" d="M58,67.41a46.53,46.53,0,0,1-46.53,46.53V78.79A11.39,11.39,0,0,1,22.86,67.41Z"/><path class="cls-2" d="M58.47,67c0,1.65,0,3.4-.14,5.05s-.51,3-.77,4.57-.78,3-1.17,4.46-1.07,2.88-1.59,4.32a48.35,48.35,0,0,1-10.21,15.16,47.54,47.54,0,0,1-33.11,14,.55.55,0,0,1-.55-.54h0v0l-.26-22-.09-11V79.5c0-.45,0-.92,0-1.43a12.14,12.14,0,0,1,3.53-8A12.59,12.59,0,0,1,19.19,67a12.33,12.33,0,0,1,2.94-.51c1-.07,1.9,0,2.86,0l11.25.07,11.19.19Zm-.91.91-11,.28-10.85.19L24.9,68.4c-.88,0-1.84,0-2.65,0a11,11,0,0,0-2.47.44,11,11,0,0,0-4.28,2.56,10.85,10.85,0,0,0-2.61,4.26,10.42,10.42,0,0,0-.45,2.48c0,.41,0,.85,0,1.32v1.38l-.1,11-.26,22-.55-.55a45.52,45.52,0,0,0,17.66-3.34,45.2,45.2,0,0,0,25-25c.49-1.43,1-2.83,1.48-4.28s.76-2.92,1-4.4.42-3,.57-4.46A37.2,37.2,0,0,1,57.56,67.87Z"/><path class="cls-7" d="M244.52,78.79v35.15A46.53,46.53,0,0,1,198,67.41h35.15A11.38,11.38,0,0,1,244.52,78.79Z"/><path class="cls-2" d="M245.16,78.79l-.22,17.58c-.06,5.86-.14,11.72-.13,17.57a.3.3,0,0,1-.29.3h0a47.52,47.52,0,0,1-33.28-13.55,47.11,47.11,0,0,1-10.4-15.18,46.64,46.64,0,0,1-3.77-18.1.91.91,0,0,1,.91-.91h0l13.25-.08c4.42,0,8.84,0,13.26,0l6.63.06c1.1,0,2.19,0,3.4.13a13.05,13.05,0,0,1,3.42.94,13.2,13.2,0,0,1,3,1.89,12.4,12.4,0,0,1,2.31,2.65,12.1,12.1,0,0,1,1.92,6.66Zm-1.28,0a12.24,12.24,0,0,0-.5-3.07A11.24,11.24,0,0,0,242,72.93,11.54,11.54,0,0,0,240,70.65a11.73,11.73,0,0,0-2.64-1.57,11.25,11.25,0,0,0-3-.74c-1-.09-2.1,0-3.21,0l-6.63.07c-4.42.06-8.84,0-13.26,0L198,68.33l.92-.92a46.93,46.93,0,0,0,3.32,17.52,45.9,45.9,0,0,0,9.77,15,45.56,45.56,0,0,0,32.52,13.72l-.29.29c0-5.85-.07-11.71-.14-17.57Z"/><path class="cls-7" d="M58,234.13H22.86a11.39,11.39,0,0,1-11.38-11.38V187.58A46.54,46.54,0,0,1,58,234.13Z"/><path class="cls-2" d="M58.47,234.58l-22.41-.15H25c-.93,0-1.84,0-2.79,0a11.84,11.84,0,0,1-2.77-.49A12.26,12.26,0,0,1,14.59,231a11.56,11.56,0,0,1-3.44-7.58c-.07-1,0-1.85-.05-2.78l-.09-11-.26-22a.73.73,0,0,1,.71-.74h0a46.85,46.85,0,0,1,33.61,13.67A46.56,46.56,0,0,1,55.33,216c.5,1.47,1.07,2.92,1.52,4.4s.78,3,1.07,4.53.43,3.05.59,4.62C58.58,231.23,58.53,233,58.47,234.58Zm-.91-.91c-.22-1.44-.43-2.73-.51-4s-.5-3-.75-4.41-.77-2.89-1.14-4.34-1-2.79-1.55-4.19a47.09,47.09,0,0,0-9.93-14.76,46.23,46.23,0,0,0-32.2-13.6l.73-.73-.26,22-.09,11a17,17,0,0,0,.46,5.36A11.46,11.46,0,0,0,15,230.57a11.33,11.33,0,0,0,4.54,2.77,17.12,17.12,0,0,0,5.36.49h11Z"/><path class="cls-7" d="M244.52,187.58v35.17a11.38,11.38,0,0,1-11.38,11.38H198A46.55,46.55,0,0,1,244.52,187.58Z"/><path class="cls-2" d="M245,187.13l-.15,22.41v11.1c0,.93,0,1.84,0,2.79a11.64,11.64,0,0,1-3.37,7.58,12.25,12.25,0,0,1-4.79,2.94,12,12,0,0,1-2.79.5c-1,.08-1.84,0-2.77.06l-11,.09-22,.26a.73.73,0,0,1-.73-.72h0a46.66,46.66,0,0,1,29.1-43.86c1.46-.5,2.91-1.07,4.4-1.52s3-.79,4.52-1.08,3.05-.42,4.63-.59S243.37,187.07,245,187.13Zm-.91.91c-1.43.22-2.72.42-4.05.51s-2.94.5-4.41.75-2.89.76-4.33,1.14-2.8,1-4.2,1.55a46.36,46.36,0,0,0-28.35,42.14l-.73-.73,22,.25,11,.1a17.06,17.06,0,0,0,5.36-.46,11.07,11.07,0,0,0,7.32-7.26,17.11,17.11,0,0,0,.48-5.36V209.72Z"/><rect class="cls-5" x="69.93" y="55.49" width="27.69" height="11.92"/><path class="cls-2" d="M96.74,56.38c-9,.16-17.81.21-26.81.12l1-1-.36,11.92-.65-.64c4.62-.12,9.23-.19,13.85-.26l6.92-.1c2.31,0,4.61,0,6.92,0l-1,1C96.54,63.67,96.58,60.08,96.74,56.38Zm1.77-1.77c.15,4.24.2,8.6.09,12.8a1,1,0,0,1-1,1c-2.31,0-4.61,0-6.92,0l-6.92-.1c-4.62-.08-9.23-.14-13.85-.26a.67.67,0,0,1-.64-.65l-.36-11.92a1,1,0,0,1,.94-1h.06C79.4,54.4,89,54.45,98.51,54.61Z"/><rect class="cls-5" x="157.81" y="55.49" width="27.69" height="11.92"/><path class="cls-2" d="M184.63,56.36c-4.46,0-8.9.06-13.36,0l-13.46-.1.8-.81-.16,11.92-.64-.65h13.84l6.92,0c2.31,0,4.62,0,6.92.11l-.52.52C184.73,63.55,184.58,60,184.63,56.36Zm1.73-1.73c0,4.35-.1,8.7-.34,12.78v0a.55.55,0,0,1-.53.51c-2.3.07-4.61.07-6.92.11l-6.92,0H157.81a.64.64,0,0,1-.65-.64h0L157,55.49a.78.78,0,0,1,.78-.8h0l14.22-.1C176.8,54.56,181.59,54.58,186.36,54.63Z"/><path class="cls-8" d="M178.19,28.7V55.49h-13v-21H90.63v21h-13V28.7a6.82,6.82,0,0,1,6.82-6.83h86.94A6.83,6.83,0,0,1,178.19,28.7Z"/><path class="cls-2" d="M178.83,28.7l-.18,26.79h0a.47.47,0,0,1-.46.46l-13-.09a.38.38,0,0,1-.39-.38l.09-21,.29.29c-12.42,0-24.84,0-37.26.07l-37.26.17.54-.53.13,21a.67.67,0,0,1-.66.67h0l-13,.08a.75.75,0,0,1-.75-.74h0l-.11-16.9,0-8.44c0-.72,0-1.37,0-2.2a8.1,8.1,0,0,1,.59-2.31,7.71,7.71,0,0,1,3.08-3.55,8.1,8.1,0,0,1,4.52-1.15h4.22l8.45,0,16.9,0c11.26,0,22.52.06,33.79.13l16.89.11,4.23,0,2.13,0a7.78,7.78,0,0,1,2.28.42A7.53,7.53,0,0,1,178.83,28.7Zm-1.29,0a6.14,6.14,0,0,0-6-6.11h-2.09l-4.23,0-16.89.11c-11.27.07-22.53.14-33.79.13l-16.9,0-8.45,0-4.22,0H84.4l-.45,0a6.5,6.5,0,0,0-.9.14,5.68,5.68,0,0,0-1.69.69A6,6,0,0,0,79,26.35a6.42,6.42,0,0,0-.46,1.77c0,.57,0,1.34,0,2l0,8.44-.1,16.9-.75-.75,13,.08-.67.67.13-21h0a.53.53,0,0,1,.54-.53l37.26.18c12.42,0,24.84.09,37.26.06a.29.29,0,0,1,.3.3l.09,21-.38-.38,13-.09-.47.47Z"/><path class="cls-7" d="M178.19,28.7V55.49h-13v-21H90.63v21h-13V28.7a6.82,6.82,0,0,1,6.82-6.83h86.94A6.83,6.83,0,0,1,178.19,28.7Z"/><path class="cls-2" d="M178.83,28.7l-.18,26.79h0a.47.47,0,0,1-.46.46l-13-.09a.38.38,0,0,1-.39-.38l.09-21,.29.29c-12.42,0-24.84,0-37.26.06l-37.26.18.54-.53.13,21a.67.67,0,0,1-.66.67h0l-13,.08a.75.75,0,0,1-.75-.74h0l-.11-16.9,0-8.44c0-.72,0-1.37,0-2.2a8.1,8.1,0,0,1,.59-2.31,7.71,7.71,0,0,1,3.08-3.55,8.1,8.1,0,0,1,4.52-1.15h4.22l8.45,0,16.9,0c11.26,0,22.52.06,33.79.13l16.89.11,4.23,0,2.13,0a7.78,7.78,0,0,1,2.28.42A7.53,7.53,0,0,1,178.83,28.7Zm-1.29,0a6.14,6.14,0,0,0-6-6.11h-2.09l-4.23,0-16.89.11c-11.27.07-22.53.14-33.79.13l-16.9,0-8.45,0-4.22,0H84.4l-.45,0a6.5,6.5,0,0,0-.9.14,5.68,5.68,0,0,0-1.69.69A6,6,0,0,0,79,26.35a6.42,6.42,0,0,0-.46,1.77c0,.57,0,1.34,0,2l0,8.44-.1,16.9-.75-.75,13,.08-.67.67.13-21h0a.53.53,0,0,1,.54-.53l37.26.18c12.42,0,24.84.09,37.26.06a.29.29,0,0,1,.3.3l.09,21-.38-.38,13-.09-.47.47Z"/><path class="cls-9" d="M128,93.28a57.49,57.49,0,0,0-4.1,114.84c1.36.1,2.72.14,4.1.14h.08a57.49,57.49,0,0,0-.08-115Zm0,106.91a49.42,49.42,0,1,1,49.42-49.42A49.48,49.48,0,0,1,128,200.19Z"/><path class="cls-2" d="M128,93.92a56.83,56.83,0,0,0-21.77,109.42A58.09,58.09,0,0,0,128,207.62a56.85,56.85,0,0,0,0-113.7Zm0-1.29a58.14,58.14,0,1,1,0,116.28,59.32,59.32,0,0,1-22.2-4.55,58.27,58.27,0,0,1-31.27-31.45,58.05,58.05,0,0,1,12.53-63.07A58,58,0,0,1,128,92.63Z"/><path class="cls-2" d="M128,200.84a50.19,50.19,0,1,1,19.2-3.71A50.24,50.24,0,0,1,128,200.84Zm0-1.29a48.77,48.77,0,1,0-34.64-83.42A48.78,48.78,0,0,0,128,199.55Z"/><path class="cls-7" d="M128,93.28a57.49,57.49,0,0,0-4.1,114.84c1.36.1,2.72.14,4.1.14h.08a57.49,57.49,0,0,0-.08-115Zm0,106.91a49.42,49.42,0,1,1,49.42-49.42A49.48,49.48,0,0,1,128,200.19Z"/><path class="cls-2" d="M128,93.92a56.83,56.83,0,0,0-21.77,109.42A58.09,58.09,0,0,0,128,207.62a56.85,56.85,0,0,0,0-113.7Zm0-1.29a58.14,58.14,0,1,1,0,116.28,59.32,59.32,0,0,1-22.2-4.55,58.27,58.27,0,0,1-31.27-31.45,58.05,58.05,0,0,1,12.53-63.07A58,58,0,0,1,128,92.63Z"/><path class="cls-2" d="M128,200.84a50.19,50.19,0,1,1,19.2-3.71A50.24,50.24,0,0,1,128,200.84Zm0-1.29a48.77,48.77,0,1,0-34.64-83.42A48.78,48.78,0,0,0,128,199.55Z"/><g class="cls-10"><path class="cls-2" d="M128,101.35a49.48,49.48,0,0,0-49.42,49.42c0,.68,0,1.35,0,2a49.41,49.41,0,0,1,98.74,0c0-.68,0-1.35,0-2A49.48,49.48,0,0,0,128,101.35Z"/><path class="cls-2" d="M128.08,208.26H128c-1.38,0-2.74,0-4.1-.14a57.48,57.48,0,0,1-53.34-55.28c0,.66,0,1.32,0,2a57.5,57.5,0,0,0,53.39,57.35c1.36.1,2.72.14,4.1.14h.08a57.48,57.48,0,0,0,57.41-57.49c0-.68,0-1.36-.05-2A57.47,57.47,0,0,1,128.08,208.26Z"/></g><path class="cls-11" d="M124.81,188.63V179.4c-5.35-.09-10.8-1.75-14-4.06l2.21-6.19a24.91,24.91,0,0,0,13.21,4c6.56,0,11-3.79,11-9.05,0-5.08-3.6-8.22-10.44-11-9.42-3.69-15.23-8-15.23-16.07,0-7.66,5.44-13.48,13.85-14.87v-9.23h5.82v9a25.33,25.33,0,0,1,12,3.24l-2.31,6.09A22.12,22.12,0,0,0,129.25,128c-7.11,0-9.79,4.25-9.79,8,0,4.71,3.41,7.12,11.45,10.53,9.51,3.88,14.31,8.59,14.31,16.81,0,7.39-5.08,14.22-14.59,15.7v9.6Z"/><path class="cls-2" d="M124.42,189c-.07-3.19-.1-6.44-.06-9.63l.45.46a30.93,30.93,0,0,1-7.41-1.15,22.36,22.36,0,0,1-6.82-3.1.33.33,0,0,1-.12-.39l2.24-6.17a.32.32,0,0,1,.4-.19l.06,0a24.49,24.49,0,0,0,10.61,3.83,17.78,17.78,0,0,0,5.64-.2,10.45,10.45,0,0,0,5-2.49,8.38,8.38,0,0,0,1.46-10.25,11.56,11.56,0,0,0-4-3.88,31.85,31.85,0,0,0-5.1-2.53,38.7,38.7,0,0,1-10.2-5.44,14.78,14.78,0,0,1-3.8-4.45,13.24,13.24,0,0,1-1.55-5.66A14.72,14.72,0,0,1,115,126.94a18.07,18.07,0,0,1,10.34-5.28l-.42.48,0-9.23a.54.54,0,0,1,.53-.54h0l5.82,0a.55.55,0,0,1,.56.55h0l0,9-.58-.6a29.6,29.6,0,0,1,6.34.87,25.27,25.27,0,0,1,6,2.39.66.66,0,0,1,.29.8h0l-2.28,6.11a.7.7,0,0,1-.89.4l-.1-.05a23.16,23.16,0,0,0-5-2.21,22.13,22.13,0,0,0-5.37-.86,13.89,13.89,0,0,0-5.25.71,7.06,7.06,0,0,0-3.81,3.2,7.2,7.2,0,0,0-.68,4.91,7,7,0,0,0,2.86,4,28.82,28.82,0,0,0,4.73,2.72c1.67.8,3.37,1.5,5.13,2.27,3.45,1.59,6.92,3.55,9.48,6.62a14.5,14.5,0,0,1,2.77,5.25,17.88,17.88,0,0,1,.62,5.86,15.94,15.94,0,0,1-4.82,10.54,19,19,0,0,1-10.46,4.9l.6-.7-.1,9.6v0a.6.6,0,0,1-.61.6C128.55,189.23,126.44,189.14,124.42,189Zm.78-.79c1.87-.11,3.64-.2,5.43-.22l-.61.61-.1-9.6a.71.71,0,0,1,.58-.7h0a17.78,17.78,0,0,0,9.59-4.61,14.31,14.31,0,0,0,4.24-9.53,16.57,16.57,0,0,0-.56-5.3,12.88,12.88,0,0,0-2.47-4.63c-2.28-2.74-5.53-4.62-8.87-6.14s-7-2.85-10.18-5.22a10.74,10.74,0,0,1-2.15-2.16,7.33,7.33,0,0,1-1.28-2.86,8.87,8.87,0,0,1,.88-6,8.63,8.63,0,0,1,4.66-3.86,15.31,15.31,0,0,1,5.85-.76,23.08,23.08,0,0,1,5.72,1,24.33,24.33,0,0,1,5.27,2.37l-1,.36,2.34-6.09.29.81a23.36,23.36,0,0,0-5.64-2.32,27.45,27.45,0,0,0-6.06-.88h0a.62.62,0,0,1-.58-.61l0-9,.57.56-5.82,0,.53-.53,0,9.23a.5.5,0,0,1-.41.49,17.14,17.14,0,0,0-9.85,4.91,13.89,13.89,0,0,0-3.66,10.24,12.45,12.45,0,0,0,1.41,5.35,14,14,0,0,0,3.59,4.28,38.13,38.13,0,0,0,10,5.43,32.59,32.59,0,0,1,5.17,2.62,12.64,12.64,0,0,1,4.16,4.07,8.88,8.88,0,0,1-1.54,10.87,10.87,10.87,0,0,1-5.19,2.62,18,18,0,0,1-5.81.22,25.65,25.65,0,0,1-10.89-3.84l.46-.15-2.18,6.2-.13-.39a21.46,21.46,0,0,0,6.64,2.91,29.26,29.26,0,0,0,7.21,1,.45.45,0,0,1,.45.45h0C125.31,182.37,125.28,185.28,125.2,188.24Z"/><path class="cls-7" d="M124.81,188.63V179.4c-5.35-.09-10.8-1.75-14-4.06l2.21-6.19a24.91,24.91,0,0,0,13.21,4c6.56,0,11-3.79,11-9.05,0-5.08-3.6-8.22-10.44-11-9.42-3.69-15.23-8-15.23-16.07,0-7.66,5.44-13.48,13.85-14.87v-9.23h5.82v9a25.33,25.33,0,0,1,12,3.24l-2.31,6.09A22.12,22.12,0,0,0,129.25,128c-7.11,0-9.79,4.25-9.79,8,0,4.71,3.41,7.12,11.45,10.53,9.51,3.88,14.31,8.59,14.31,16.81,0,7.39-5.08,14.22-14.59,15.7v9.6Z"/><path class="cls-2" d="M124.42,189c-.07-3.19-.1-6.44-.06-9.63l.45.46a30.93,30.93,0,0,1-7.41-1.15,22.36,22.36,0,0,1-6.82-3.1.33.33,0,0,1-.12-.39l2.24-6.17a.32.32,0,0,1,.4-.19l.06,0a24.49,24.49,0,0,0,10.61,3.83,17.78,17.78,0,0,0,5.64-.2,10.45,10.45,0,0,0,5-2.49,8.38,8.38,0,0,0,1.46-10.25,11.56,11.56,0,0,0-4-3.88,31.85,31.85,0,0,0-5.1-2.53,38.7,38.7,0,0,1-10.2-5.44,14.78,14.78,0,0,1-3.8-4.45,13.24,13.24,0,0,1-1.55-5.66A14.72,14.72,0,0,1,115,126.94a18.07,18.07,0,0,1,10.34-5.28l-.42.48,0-9.23a.54.54,0,0,1,.53-.54h0l5.82,0a.55.55,0,0,1,.56.55h0l0,9-.58-.6a29.6,29.6,0,0,1,6.34.87,25.27,25.27,0,0,1,6,2.39.66.66,0,0,1,.29.8h0l-2.28,6.11a.7.7,0,0,1-.89.4l-.1-.05a23.16,23.16,0,0,0-5-2.21,22.13,22.13,0,0,0-5.37-.86,13.89,13.89,0,0,0-5.25.71,7.06,7.06,0,0,0-3.81,3.2,7.2,7.2,0,0,0-.68,4.91,7,7,0,0,0,2.86,4,28.82,28.82,0,0,0,4.73,2.72c1.67.8,3.37,1.5,5.13,2.27,3.45,1.59,6.92,3.55,9.48,6.62a14.5,14.5,0,0,1,2.77,5.25,17.88,17.88,0,0,1,.62,5.86,15.94,15.94,0,0,1-4.82,10.54,19,19,0,0,1-10.46,4.9l.6-.7-.1,9.6v0a.6.6,0,0,1-.61.6C128.55,189.23,126.44,189.14,124.42,189Zm.78-.79c1.87-.11,3.64-.2,5.43-.22l-.61.61-.1-9.6a.71.71,0,0,1,.58-.7h0a17.78,17.78,0,0,0,9.59-4.61,14.31,14.31,0,0,0,4.24-9.53,16.57,16.57,0,0,0-.56-5.3,12.88,12.88,0,0,0-2.47-4.63c-2.28-2.74-5.53-4.62-8.87-6.14s-7-2.85-10.18-5.22a10.74,10.74,0,0,1-2.15-2.16,7.33,7.33,0,0,1-1.28-2.86,8.87,8.87,0,0,1,.88-6,8.63,8.63,0,0,1,4.66-3.86,15.31,15.31,0,0,1,5.85-.76,23.08,23.08,0,0,1,5.72,1,24.33,24.33,0,0,1,5.27,2.37l-1,.36,2.34-6.09.29.81a23.36,23.36,0,0,0-5.64-2.32,27.45,27.45,0,0,0-6.06-.88h0a.62.62,0,0,1-.58-.61l0-9,.57.56-5.82,0,.53-.53,0,9.23a.5.5,0,0,1-.41.49,17.14,17.14,0,0,0-9.85,4.91,13.89,13.89,0,0,0-3.66,10.24,12.45,12.45,0,0,0,1.41,5.35,14,14,0,0,0,3.59,4.28,38.13,38.13,0,0,0,10,5.43,32.59,32.59,0,0,1,5.17,2.62,12.64,12.64,0,0,1,4.16,4.07,8.88,8.88,0,0,1-1.54,10.87,10.87,10.87,0,0,1-5.19,2.62,18,18,0,0,1-5.81.22,25.65,25.65,0,0,1-10.89-3.84l.46-.15-2.18,6.2-.13-.39a21.46,21.46,0,0,0,6.64,2.91,29.26,29.26,0,0,0,7.21,1,.45.45,0,0,1,.45.45h0C125.31,182.37,125.28,185.28,125.2,188.24Z"/></svg>