<svg id="Layer_1" data-name="Layer 1" xmlns="http://www.w3.org/2000/svg" xmlns:xlink="http://www.w3.org/1999/xlink" viewBox="0 0 256 256"><defs><style>.cls-1,.cls-6{fill:none;}.cls-2{fill:#253759;}.cls-3{clip-path:url(#clip-path);}.cls-4{clip-path:url(#clip-path-2);}.cls-5{fill:url(#New_Pattern_Swatch_1);}.cls-6{stroke:#253759;stroke-miterlimit:10;stroke-width:2px;}</style><clipPath id="clip-path"><rect class="cls-1" x="42.85" width="43" height="43"/></clipPath><clipPath id="clip-path-2"><rect class="cls-1" x="-0.05" width="43" height="43"/></clipPath><pattern id="New_Pattern_Swatch_1" data-name="New Pattern Swatch 1" width="42.9" height="43" patternTransform="translate(0 387)" patternUnits="userSpaceOnUse" viewBox="0 0 42.9 43"><rect class="cls-1" width="42.9" height="43"/><circle class="cls-2" cx="42.91" cy="1.85" r="0.57"/><circle class="cls-2" cx="42.91" cy="5.42" r="0.57"/><circle class="cls-2" cx="42.91" cy="8.99" r="0.57"/><circle class="cls-2" cx="42.91" cy="12.57" r="0.57"/><circle class="cls-2" cx="42.91" cy="16.14" r="0.57"/><circle class="cls-2" cx="42.91" cy="19.71" r="0.57"/><circle class="cls-2" cx="42.91" cy="23.29" r="0.57"/><circle class="cls-2" cx="42.91" cy="26.86" r="0.57"/><circle class="cls-2" cx="42.91" cy="30.43" r="0.57"/><circle class="cls-2" cx="42.91" cy="34.01" r="0.57"/><circle class="cls-2" cx="42.91" cy="37.58" r="0.57"/><circle class="cls-2" cx="42.91" cy="41.15" r="0.57"/><circle class="cls-2" cx="42.89" cy="1.85" r="0.57"/><circle class="cls-2" cx="42.89" cy="5.42" r="0.57"/><circle class="cls-2" cx="42.89" cy="8.99" r="0.57"/><circle class="cls-2" cx="42.89" cy="12.57" r="0.57"/><circle class="cls-2" cx="42.89" cy="16.14" r="0.57"/><circle class="cls-2" cx="42.89" cy="19.71" r="0.57"/><circle class="cls-2" cx="42.89" cy="23.29" r="0.57"/><circle class="cls-2" cx="42.89" cy="26.86" r="0.57"/><circle class="cls-2" cx="42.89" cy="30.43" r="0.57"/><circle class="cls-2" cx="42.89" cy="34.01" r="0.57"/><circle class="cls-2" cx="42.89" cy="37.58" r="0.57"/><circle class="cls-2" cx="42.89" cy="41.15" r="0.57"/><g class="cls-3"><circle class="cls-2" cx="42.81" cy="1.85" r="0.57"/><circle class="cls-2" cx="42.81" cy="5.42" r="0.57"/><circle class="cls-2" cx="42.81" cy="8.99" r="0.57"/><circle class="cls-2" cx="42.81" cy="12.57" r="0.57"/><circle class="cls-2" cx="42.81" cy="16.14" r="0.57"/><circle class="cls-2" cx="42.81" cy="19.71" r="0.57"/><circle class="cls-2" cx="42.81" cy="23.29" r="0.57"/><circle class="cls-2" cx="42.81" cy="26.86" r="0.57"/><circle class="cls-2" cx="42.81" cy="30.43" r="0.57"/><circle class="cls-2" cx="42.81" cy="34.01" r="0.57"/><circle class="cls-2" cx="42.81" cy="37.58" r="0.57"/><circle class="cls-2" cx="42.81" cy="41.15" r="0.57"/><circle class="cls-2" cx="42.79" cy="1.85" r="0.57"/><circle class="cls-2" cx="42.79" cy="5.42" r="0.57"/><circle class="cls-2" cx="42.79" cy="8.99" r="0.57"/><circle class="cls-2" cx="42.79" cy="12.57" r="0.57"/><circle class="cls-2" cx="42.79" cy="16.14" r="0.57"/><circle class="cls-2" cx="42.79" cy="19.71" r="0.57"/><circle class="cls-2" cx="42.79" cy="23.29" r="0.57"/><circle class="cls-2" cx="42.79" cy="26.86" r="0.57"/><circle class="cls-2" cx="42.79" cy="30.43" r="0.57"/><circle class="cls-2" cx="42.79" cy="34.01" r="0.57"/><circle class="cls-2" cx="42.79" cy="37.58" r="0.57"/><circle class="cls-2" cx="42.79" cy="41.15" r="0.57"/></g><circle class="cls-2" cx="42.91" cy="1.85" r="0.57"/><circle class="cls-2" cx="42.91" cy="5.42" r="0.57"/><circle class="cls-2" cx="42.91" cy="8.99" r="0.57"/><circle class="cls-2" cx="42.91" cy="12.57" r="0.57"/><circle class="cls-2" cx="42.91" cy="16.14" r="0.57"/><circle class="cls-2" cx="42.91" cy="19.71" r="0.57"/><circle class="cls-2" cx="42.91" cy="23.29" r="0.57"/><circle class="cls-2" cx="42.91" cy="26.86" r="0.57"/><circle class="cls-2" cx="42.91" cy="30.43" r="0.57"/><circle class="cls-2" cx="42.91" cy="34.01" r="0.57"/><circle class="cls-2" cx="42.91" cy="37.58" r="0.57"/><circle class="cls-2" cx="42.91" cy="41.15" r="0.57"/><circle class="cls-2" cx="0.01" cy="1.85" r="0.57"/><circle class="cls-2" cx="3.59" cy="1.85" r="0.57"/><circle class="cls-2" cx="7.16" cy="1.85" r="0.57"/><circle class="cls-2" cx="10.73" cy="1.85" r="0.57"/><circle class="cls-2" cx="0.01" cy="5.42" r="0.57"/><circle class="cls-2" cx="3.59" cy="5.42" r="0.57"/><circle class="cls-2" cx="7.16" cy="5.42" r="0.57"/><circle class="cls-2" cx="10.73" cy="5.42" r="0.57"/><circle class="cls-2" cx="0.01" cy="8.99" r="0.57"/><circle class="cls-2" cx="3.59" cy="8.99" r="0.57"/><circle class="cls-2" cx="7.16" cy="8.99" r="0.57"/><circle class="cls-2" cx="10.73" cy="8.99" r="0.57"/><circle class="cls-2" cx="0.01" cy="12.57" r="0.57"/><circle class="cls-2" cx="3.59" cy="12.57" r="0.57"/><circle class="cls-2" cx="7.16" cy="12.57" r="0.57"/><circle class="cls-2" cx="10.73" cy="12.57" r="0.57"/><circle class="cls-2" cx="0.01" cy="16.14" r="0.57"/><circle class="cls-2" cx="3.59" cy="16.14" r="0.57"/><circle class="cls-2" cx="7.16" cy="16.14" r="0.57"/><circle class="cls-2" cx="10.73" cy="16.14" r="0.57"/><circle class="cls-2" cx="0.01" cy="19.71" r="0.57"/><circle class="cls-2" cx="3.59" cy="19.71" r="0.57"/><circle class="cls-2" cx="7.16" cy="19.71" r="0.57"/><circle class="cls-2" cx="10.73" cy="19.71" r="0.57"/><circle class="cls-2" cx="14.3" cy="1.85" r="0.57"/><circle class="cls-2" cx="17.88" cy="1.85" r="0.57"/><circle class="cls-2" cx="21.45" cy="1.85" r="0.57"/><circle class="cls-2" cx="25.02" cy="1.85" r="0.57"/><circle class="cls-2" cx="28.6" cy="1.85" r="0.57"/><circle class="cls-2" cx="14.3" cy="5.42" r="0.57"/><circle class="cls-2" cx="17.88" cy="5.42" r="0.57"/><circle class="cls-2" cx="21.45" cy="5.42" r="0.57"/><circle class="cls-2" cx="25.02" cy="5.42" r="0.57"/><circle class="cls-2" cx="28.6" cy="5.42" r="0.57"/><circle class="cls-2" cx="14.3" cy="8.99" r="0.57"/><circle class="cls-2" cx="17.88" cy="8.99" r="0.57"/><circle class="cls-2" cx="21.45" cy="8.99" r="0.57"/><circle class="cls-2" cx="25.02" cy="8.99" r="0.57"/><circle class="cls-2" cx="28.6" cy="8.99" r="0.57"/><circle class="cls-2" cx="14.3" cy="12.57" r="0.57"/><circle class="cls-2" cx="17.88" cy="12.57" r="0.57"/><circle class="cls-2" cx="21.45" cy="12.57" r="0.57"/><circle class="cls-2" cx="25.02" cy="12.57" r="0.57"/><circle class="cls-2" cx="28.6" cy="12.57" r="0.57"/><circle class="cls-2" cx="14.3" cy="16.14" r="0.57"/><circle class="cls-2" cx="17.88" cy="16.14" r="0.57"/><circle class="cls-2" cx="21.45" cy="16.14" r="0.57"/><circle class="cls-2" cx="25.02" cy="16.14" r="0.57"/><circle class="cls-2" cx="28.6" cy="16.14" r="0.57"/><circle class="cls-2" cx="14.3" cy="19.71" r="0.57"/><circle class="cls-2" cx="17.88" cy="19.71" r="0.57"/><circle class="cls-2" cx="21.45" cy="19.71" r="0.57"/><circle class="cls-2" cx="25.02" cy="19.71" r="0.57"/><circle class="cls-2" cx="28.6" cy="19.71" r="0.57"/><circle class="cls-2" cx="32.17" cy="1.85" r="0.57"/><circle class="cls-2" cx="35.74" cy="1.85" r="0.57"/><circle class="cls-2" cx="39.31" cy="1.85" r="0.57"/><circle class="cls-2" cx="42.89" cy="1.85" r="0.57"/><circle class="cls-2" cx="32.17" cy="5.42" r="0.57"/><circle class="cls-2" cx="35.74" cy="5.42" r="0.57"/><circle class="cls-2" cx="39.31" cy="5.42" r="0.57"/><circle class="cls-2" cx="42.89" cy="5.42" r="0.57"/><circle class="cls-2" cx="32.17" cy="8.99" r="0.57"/><circle class="cls-2" cx="35.74" cy="8.99" r="0.57"/><circle class="cls-2" cx="39.31" cy="8.99" r="0.57"/><circle class="cls-2" cx="42.89" cy="8.99" r="0.57"/><circle class="cls-2" cx="32.17" cy="12.57" r="0.57"/><circle class="cls-2" cx="35.74" cy="12.57" r="0.57"/><circle class="cls-2" cx="39.31" cy="12.57" r="0.57"/><circle class="cls-2" cx="42.89" cy="12.57" r="0.57"/><circle class="cls-2" cx="32.17" cy="16.14" r="0.57"/><circle class="cls-2" cx="35.74" cy="16.14" r="0.57"/><circle class="cls-2" cx="39.31" cy="16.14" r="0.57"/><circle class="cls-2" cx="42.89" cy="16.14" r="0.57"/><circle class="cls-2" cx="32.17" cy="19.71" r="0.57"/><circle class="cls-2" cx="35.74" cy="19.71" r="0.57"/><circle class="cls-2" cx="39.31" cy="19.71" r="0.57"/><circle class="cls-2" cx="42.89" cy="19.71" r="0.57"/><circle class="cls-2" cx="0.01" cy="23.29" r="0.57"/><circle class="cls-2" cx="3.59" cy="23.29" r="0.57"/><circle class="cls-2" cx="7.16" cy="23.29" r="0.57"/><circle class="cls-2" cx="10.73" cy="23.29" r="0.57"/><circle class="cls-2" cx="0.01" cy="26.86" r="0.57"/><circle class="cls-2" cx="3.59" cy="26.86" r="0.57"/><circle class="cls-2" cx="7.16" cy="26.86" r="0.57"/><circle class="cls-2" cx="10.73" cy="26.86" r="0.57"/><circle class="cls-2" cx="0.01" cy="30.43" r="0.57"/><circle class="cls-2" cx="3.59" cy="30.43" r="0.57"/><circle class="cls-2" cx="7.16" cy="30.43" r="0.57"/><circle class="cls-2" cx="10.73" cy="30.43" r="0.57"/><circle class="cls-2" cx="0.01" cy="34.01" r="0.57"/><circle class="cls-2" cx="3.59" cy="34.01" r="0.57"/><circle class="cls-2" cx="7.16" cy="34.01" r="0.57"/><circle class="cls-2" cx="10.73" cy="34.01" r="0.57"/><circle class="cls-2" cx="0.01" cy="37.58" r="0.57"/><circle class="cls-2" cx="3.59" cy="37.58" r="0.57"/><circle class="cls-2" cx="7.16" cy="37.58" r="0.57"/><circle class="cls-2" cx="10.73" cy="37.58" r="0.57"/><circle class="cls-2" cx="0.01" cy="41.15" r="0.57"/><circle class="cls-2" cx="3.59" cy="41.15" r="0.57"/><circle class="cls-2" cx="7.16" cy="41.15" r="0.57"/><circle class="cls-2" cx="10.73" cy="41.15" r="0.57"/><circle class="cls-2" cx="14.3" cy="23.29" r="0.57"/><circle class="cls-2" cx="17.88" cy="23.29" r="0.57"/><circle class="cls-2" cx="21.45" cy="23.29" r="0.57"/><circle class="cls-2" cx="25.02" cy="23.29" r="0.57"/><circle class="cls-2" cx="28.6" cy="23.29" r="0.57"/><circle class="cls-2" cx="14.3" cy="26.86" r="0.57"/><circle class="cls-2" cx="17.88" cy="26.86" r="0.57"/><circle class="cls-2" cx="21.45" cy="26.86" r="0.57"/><circle class="cls-2" cx="25.02" cy="26.86" r="0.57"/><circle class="cls-2" cx="28.6" cy="26.86" r="0.57"/><circle class="cls-2" cx="14.3" cy="30.43" r="0.57"/><circle class="cls-2" cx="17.88" cy="30.43" r="0.57"/><circle class="cls-2" cx="21.45" cy="30.43" r="0.57"/><circle class="cls-2" cx="25.02" cy="30.43" r="0.57"/><circle class="cls-2" cx="28.6" cy="30.43" r="0.57"/><circle class="cls-2" cx="14.3" cy="34.01" r="0.57"/><circle class="cls-2" cx="17.88" cy="34.01" r="0.57"/><circle class="cls-2" cx="21.45" cy="34.01" r="0.57"/><circle class="cls-2" cx="25.02" cy="34.01" r="0.57"/><circle class="cls-2" cx="28.6" cy="34.01" r="0.57"/><circle class="cls-2" cx="14.3" cy="37.58" r="0.57"/><circle class="cls-2" cx="17.88" cy="37.58" r="0.57"/><circle class="cls-2" cx="21.45" cy="37.58" r="0.57"/><circle class="cls-2" cx="25.02" cy="37.58" r="0.57"/><circle class="cls-2" cx="28.6" cy="37.58" r="0.57"/><circle class="cls-2" cx="14.3" cy="41.15" r="0.57"/><circle class="cls-2" cx="17.88" cy="41.15" r="0.57"/><circle class="cls-2" cx="21.45" cy="41.15" r="0.57"/><circle class="cls-2" cx="25.02" cy="41.15" r="0.57"/><circle class="cls-2" cx="28.6" cy="41.15" r="0.57"/><circle class="cls-2" cx="32.17" cy="23.29" r="0.57"/><circle class="cls-2" cx="35.74" cy="23.29" r="0.57"/><circle class="cls-2" cx="39.31" cy="23.29" r="0.57"/><circle class="cls-2" cx="42.89" cy="23.29" r="0.57"/><circle class="cls-2" cx="32.17" cy="26.86" r="0.57"/><circle class="cls-2" cx="35.74" cy="26.86" r="0.57"/><circle class="cls-2" cx="39.31" cy="26.86" r="0.57"/><circle class="cls-2" cx="42.89" cy="26.86" r="0.57"/><circle class="cls-2" cx="32.17" cy="30.43" r="0.57"/><circle class="cls-2" cx="35.74" cy="30.43" r="0.57"/><circle class="cls-2" cx="39.31" cy="30.43" r="0.57"/><circle class="cls-2" cx="42.89" cy="30.43" r="0.57"/><circle class="cls-2" cx="32.17" cy="34.01" r="0.57"/><circle class="cls-2" cx="35.74" cy="34.01" r="0.57"/><circle class="cls-2" cx="39.31" cy="34.01" r="0.57"/><circle class="cls-2" cx="42.89" cy="34.01" r="0.57"/><circle class="cls-2" cx="32.17" cy="37.58" r="0.57"/><circle class="cls-2" cx="35.74" cy="37.58" r="0.57"/><circle class="cls-2" cx="39.31" cy="37.58" r="0.57"/><circle class="cls-2" cx="42.89" cy="37.58" r="0.57"/><circle class="cls-2" cx="32.17" cy="41.15" r="0.57"/><circle class="cls-2" cx="35.74" cy="41.15" r="0.57"/><circle class="cls-2" cx="39.31" cy="41.15" r="0.57"/><circle class="cls-2" cx="42.89" cy="41.15" r="0.57"/><circle class="cls-2" cx="-0.01" cy="1.85" r="0.57"/><circle class="cls-2" cx="-0.01" cy="5.42" r="0.57"/><circle class="cls-2" cx="-0.01" cy="8.99" r="0.57"/><circle class="cls-2" cx="-0.01" cy="12.57" r="0.57"/><circle class="cls-2" cx="-0.01" cy="16.14" r="0.57"/><circle class="cls-2" cx="-0.01" cy="19.71" r="0.57"/><circle class="cls-2" cx="-0.01" cy="23.29" r="0.57"/><circle class="cls-2" cx="-0.01" cy="26.86" r="0.57"/><circle class="cls-2" cx="-0.01" cy="30.43" r="0.57"/><circle class="cls-2" cx="-0.01" cy="34.01" r="0.57"/><circle class="cls-2" cx="-0.01" cy="37.58" r="0.57"/><circle class="cls-2" cx="-0.01" cy="41.15" r="0.57"/><g class="cls-4"><circle class="cls-2" cx="-0.09" cy="1.85" r="0.57"/><circle class="cls-2" cx="-0.09" cy="5.42" r="0.57"/><circle class="cls-2" cx="-0.09" cy="8.99" r="0.57"/><circle class="cls-2" cx="-0.09" cy="12.57" r="0.57"/><circle class="cls-2" cx="-0.09" cy="16.14" r="0.57"/><circle class="cls-2" cx="-0.09" cy="19.71" r="0.57"/><circle class="cls-2" cx="-0.09" cy="23.29" r="0.57"/><circle class="cls-2" cx="-0.09" cy="26.86" r="0.57"/><circle class="cls-2" cx="-0.09" cy="30.43" r="0.57"/><circle class="cls-2" cx="-0.09" cy="34.01" r="0.57"/><circle class="cls-2" cx="-0.09" cy="37.58" r="0.57"/><circle class="cls-2" cx="-0.09" cy="41.15" r="0.57"/><circle class="cls-2" cx="-0.11" cy="1.85" r="0.57"/><circle class="cls-2" cx="-0.11" cy="5.42" r="0.57"/><circle class="cls-2" cx="-0.11" cy="8.99" r="0.57"/><circle class="cls-2" cx="-0.11" cy="12.57" r="0.57"/><circle class="cls-2" cx="-0.11" cy="16.14" r="0.57"/><circle class="cls-2" cx="-0.11" cy="19.71" r="0.57"/><circle class="cls-2" cx="-0.11" cy="23.29" r="0.57"/><circle class="cls-2" cx="-0.11" cy="26.86" r="0.57"/><circle class="cls-2" cx="-0.11" cy="30.43" r="0.57"/><circle class="cls-2" cx="-0.11" cy="34.01" r="0.57"/><circle class="cls-2" cx="-0.11" cy="37.58" r="0.57"/><circle class="cls-2" cx="-0.11" cy="41.15" r="0.57"/></g><circle class="cls-2" cx="0.01" cy="1.85" r="0.57"/><circle class="cls-2" cx="0.01" cy="5.42" r="0.57"/><circle class="cls-2" cx="0.01" cy="8.99" r="0.57"/><circle class="cls-2" cx="0.01" cy="12.57" r="0.57"/><circle class="cls-2" cx="0.01" cy="16.14" r="0.57"/><circle class="cls-2" cx="0.01" cy="19.71" r="0.57"/><circle class="cls-2" cx="0.01" cy="23.29" r="0.57"/><circle class="cls-2" cx="0.01" cy="26.86" r="0.57"/><circle class="cls-2" cx="0.01" cy="30.43" r="0.57"/><circle class="cls-2" cx="0.01" cy="34.01" r="0.57"/><circle class="cls-2" cx="0.01" cy="37.58" r="0.57"/><circle class="cls-2" cx="0.01" cy="41.15" r="0.57"/><circle class="cls-2" cx="-0.01" cy="1.85" r="0.57"/><circle class="cls-2" cx="-0.01" cy="5.42" r="0.57"/><circle class="cls-2" cx="-0.01" cy="8.99" r="0.57"/><circle class="cls-2" cx="-0.01" cy="12.57" r="0.57"/><circle class="cls-2" cx="-0.01" cy="16.14" r="0.57"/><circle class="cls-2" cx="-0.01" cy="19.71" r="0.57"/><circle class="cls-2" cx="-0.01" cy="23.29" r="0.57"/><circle class="cls-2" cx="-0.01" cy="26.86" r="0.57"/><circle class="cls-2" cx="-0.01" cy="30.43" r="0.57"/><circle class="cls-2" cx="-0.01" cy="34.01" r="0.57"/><circle class="cls-2" cx="-0.01" cy="37.58" r="0.57"/><circle class="cls-2" cx="-0.01" cy="41.15" r="0.57"/></pattern></defs><title>10-free-finance-icon</title><path class="cls-2" d="M223,91.42A102,102,0,0,0,91.29,32.69l-.39.15v-.42h0l.39.27c-1.09.44-2.21.88-3.29,1.34h0c-2,.84-4,1.81-6,2.8S78.1,38.88,76.2,40s-3.75,2.32-5.58,3.56S67,46.12,65.29,47.47l-.1.07h-.13l.22-.07L63.7,48.74l-.07,0s0,0,0,0l-.08.08-.07,0-.09.07,0,0,0,0-.09.06,0,0-1.64,1.37-.07,0a.09.09,0,0,0,.07-.06l-.06.07-1.78,1.58-.88.81-.44.4-.21.2c-.07.06-.17.17-.17.15l-.07.08c-.64.58-1.29,1.25-1.95,1.89l-1.91,1.95-1.87,2-1.8,2,0,0-.06.07,0,0L49.29,63.1l-.58.71-.55.69,0,0-.25.31,0,.05a.25.25,0,0,0,.08-.23l-.09.25A103.77,103.77,0,0,0,34.4,87.53q-1.32,3-2.38,6.14c-.78,2.06-1.37,4.18-2,6.28a104.84,104.84,0,0,0-2.74,12.87,99.47,99.47,0,0,0-1.07,13.12c-.09,2.19,0,4.39.07,6.58l.23,3.28c.06,1.1.17,2.19.31,3.28A102.78,102.78,0,0,0,33,164.58l.33.87h-.94l.6-.87a101.26,101.26,0,0,0,21.31,33.49,86.87,86.87,0,0,0,7.26,6.84,86.46,86.46,0,0,0,7.85,6.16,100.32,100.32,0,0,0,17.33,9.81,102.17,102.17,0,0,0,77.69,1.77l1.36-.53v1.46h0l-1.36-.93a101,101,0,0,0,15.49-7.5c2.45-1.47,4.88-3,7.19-4.73s4.6-3.46,6.8-5.3l.62-.22a.86.86,0,0,0-.49.13.9.9,0,0,0-.34.37l.85-.52h0l-1,1h0v-.4l.28-.27a1.33,1.33,0,0,1,.3-.23L194,205l.37-.31.05,0,.94-.83.89-.8,1.83-1.7c1.18-1.15,2.36-2.3,3.47-3.47L203.3,196c.57-.63,1.11-1.24,1.64-1.87s1.06-1.23,1.6-1.89l1.53-1.9-.19.56h0v-.3l.2-.27,2.22-3c.73-1,1.51-2,2.19-3.06s1.34-2.12,2-3.17,1.33-2.13,1.94-3.23l.15-.19a.84.84,0,0,0-.25.6l.12-.44a98.16,98.16,0,0,0,4.94-10c.71-1.72,1.46-3.42,2.06-5.18l.95-2.63.82-2.67a96.7,96.7,0,0,0,4.11-21.94,101.11,101.11,0,0,0-.75-22.33A105.14,105.14,0,0,0,223,91.42Zm1.2-.46A106.14,106.14,0,0,1,230,112.85a102.18,102.18,0,0,1,.9,22.65,100.1,100.1,0,0,1-4,22.32l-.83,2.72-.94,2.68c-.6,1.8-1.35,3.54-2.07,5.3a98.12,98.12,0,0,1-5,10.2l.12-.44a1,1,0,0,1-.29.68l.15-.19c-.62,1.11-1.28,2.2-2,3.28s-1.33,2.18-2,3.24-1.49,2.07-2.23,3.11l-2.25,3.1.2-.57h0v.32l-.19.24c-.55.7-1,1.3-1.6,2s-1.07,1.28-1.62,1.92-1.1,1.29-1.65,1.89L203,199.13c-1.18,1.24-2.38,2.42-3.58,3.6l-1.83,1.69-1,.88-.93.82.05-.05-.51.45-.17.11a.46.46,0,0,0,.18-.13l.28-.67h0v.95h-1l.85-.52a.94.94,0,0,1-.36.39,1,1,0,0,1-.51.15l.62-.22c-2.24,1.88-4.51,3.71-6.91,5.41s-4.81,3.32-7.32,4.84a103.94,103.94,0,0,1-15.77,7.68l-1.36.53v-1.46h0l1.36.93a103.94,103.94,0,0,1-79.07-2.13,102.15,102.15,0,0,1-17.57-10,90.84,90.84,0,0,1-7.94-6.28,87.87,87.87,0,0,1-7.33-7,102.61,102.61,0,0,1-21.45-34l-.33-.87h.94l-.6.87a104,104,0,0,1-6.18-25.83c-.13-1.11-.25-2.21-.3-3.32l-.22-3.32c0-2.22-.14-4.44,0-6.66a101.23,101.23,0,0,1,1.14-13.24,104.92,104.92,0,0,1,2.83-13c.66-2.11,1.27-4.25,2.06-6.32s1.54-4.16,2.43-6.19A104.59,104.59,0,0,1,47.18,64.42l-.09.25a.66.66,0,0,1,.16-.35l0,.05.31-.37,0,0c.23-.3.39-.49.6-.74l.59-.72,1.19-1.41,0,0,.06-.07,0,0L51.76,59l1.87-2,1.94-2c.66-.64,1.29-1.28,2-1.93l-.07.08a1.93,1.93,0,0,1,.27-.26l.22-.21.44-.4.89-.81L61.12,50l-.06.07a.61.61,0,0,1,.21-.18l-.07,0,1.64-1.37,0,0L63,48.4l0,0a.53.53,0,0,1,.14-.12l-.09.07.15-.13-.08.08a1.11,1.11,0,0,1,.24-.2l-.06,0,1.59-1.27.1-.07h.13l-.22.07c1.76-1.35,3.55-2.67,5.39-3.91s3.72-2.44,5.63-3.55,3.86-2.2,5.86-3.17,4-1.93,6.06-2.81h0c1.1-.47,2.2-.89,3.32-1.34l.39-.15v.42h0l-.39-.27A103.09,103.09,0,0,1,224.19,91Z"/><path class="cls-5" d="M223.59,91.19l-39.41,17.68a59.47,59.47,0,0,0-37.05-37.05L164.82,32.4c.72.28,1.43.56,2.15.86,1,.41,2,.84,3,1.28l2.06,1c.79.37,1.58.76,2.36,1.16s1.39.71,2.08,1.08a101,101,0,0,1,12.44,7.91l.75.56,1.28,1c.45.35.9.7,1.34,1.06.62.5,1.24,1,1.85,1.53l.46.39c.62.53,1.23,1.07,1.84,1.62s1.14,1,1.7,1.56l.45.43c.62.59,1.24,1.19,1.85,1.8s1.21,1.23,1.8,1.85,1.05,1.11,1.55,1.67c.35.37.69.75,1,1.13s.62.7.91,1.05c1.08,1.24,2.11,2.51,3.11,3.79.33.43.66.85,1,1.28l.56.75q1.85,2.48,3.51,5,.72,1.11,1.41,2.22l.06.09c.43.71.86,1.43,1.28,2.16s.87,1.51,1.28,2.27.76,1.41,1.13,2.12c.59,1.13,1.15,2.27,1.68,3.41.26.54.51,1.09.75,1.64.1.21.2.43.29.66.3.68.6,1.37.88,2.06.11.24.21.49.31.74Z"/><path class="cls-2" d="M224.19,91.43l-20,8.87-9.95,4.4-9.91,4.44-.3.14-.1-.31a59,59,0,0,0-5.76-12.18,59.29,59.29,0,0,0-19-18.82A57.82,57.82,0,0,0,147,72.3l-.53-.17.22-.52L164,32l.33-.75.77.3a102.66,102.66,0,0,1,19.23,9.72,101.26,101.26,0,0,1,16.76,13.57,103.94,103.94,0,0,1,13.51,16.8,91.92,91.92,0,0,1,5.31,9.38c.77,1.63,1.55,3.24,2.26,4.9l1,2.48A16.16,16.16,0,0,1,224.19,91.43ZM223,91a8.8,8.8,0,0,1-1-2l-1.09-2.44c-.73-1.6-1.56-3.18-2.36-4.75-1.68-3.14-3.41-6.16-5.4-9.13s-4-5.83-6.32-8.5a96.11,96.11,0,0,0-7.08-7.88,106.75,106.75,0,0,0-16.41-13.35,101.43,101.43,0,0,0-18.8-9.72l1.1-.45L147.6,72l-.3-.69a60.38,60.38,0,0,1,37.16,37.43l-.4-.17,9.8-4.4,9.75-4.44Z"/><path class="cls-5" d="M223.6,164.82q-.89,2.3-1.89,4.56c-.13.28-.25.57-.38.85-.36.8-.73,1.6-1.12,2.4-.23.49-.47,1-.72,1.45-.45.91-.92,1.81-1.41,2.71-.27.5-.55,1-.83,1.49a.05.05,0,0,1,0,0l-.87,1.51c-.9,1.54-1.85,3-2.83,4.55l-.78,1.15c-1.24,1.83-2.56,3.63-3.94,5.4h0c-.22.29-.45.58-.68.86l-.29.36q-.18.24-.39.48c-.19.25-.4.5-.6.75l-.2.22c-.61.73-1.23,1.45-1.86,2.17h0l0,0-.7.78-.32.36h0l-1.08,1.15-.38.41c-.12.14-.25.27-.39.41s-.23.23-.33.34c-.37.38-.74.76-1.13,1.14l-1.48,1.46-.41.39-1.93,1.78c-.16.16-.32.3-.49.44l-1,.91a5.2,5.2,0,0,1-.44.38l-.06.05h0l0,0c-.58.49-1.16,1-1.75,1.45s-1.24,1-1.87,1.5-1.18.91-1.77,1.35c-.94.71-1.89,1.39-2.85,2.06-.65.45-1.3.89-2,1.32q-.6.41-1.2.78c-.41.27-.82.52-1.23.78a101.23,101.23,0,0,1-12.48,6.58q-1.2.52-2.4,1c-.74.31-1.48.6-2.23.89h0l-17.68-39.4c1.08-.37,2.14-.76,3.2-1.19s2-.83,2.95-1.29c.5-.24,1-.48,1.5-.74s1-.51,1.48-.77l1.12-.62.18-.11c.55-.31,1.08-.63,1.62-1a58.35,58.35,0,0,0,5.2-3.62l.71-.56c.32-.25.64-.51.95-.78s.43-.36.64-.54l.73-.64c.36-.32.72-.64,1.07-1a5.77,5.77,0,0,0,.44-.42c.35-.32.7-.66,1-1s.68-.69,1-1c.77-.79,1.5-1.6,2.19-2.42.28-.32.56-.65.83-1s.77-.95,1.13-1.43.51-.66.75-1c.42-.57.83-1.14,1.22-1.72s.87-1.31,1.29-2,.87-1.44,1.28-2.17c.22-.37.42-.74.62-1.12q1.15-2.13,2.11-4.34c.21-.47.41-.95.61-1.43.43-1.06.82-2.12,1.19-3.2Z"/><path class="cls-2" d="M224.19,164.58c-.44,1.26-.92,2.56-1.44,3.82s-1.05,2.35-1.6,3.49-1.12,2.24-1.71,3.33-1.18,2.2-1.81,3.27l.05-.21a.52.52,0,0,1-.14.34l.07-.09c-.63,1.1-1.3,2.18-2,3.25s-1.34,2.16-2.05,3.21-1.5,2-2.24,3.08l-2.26,3.06.06-.2h0v.12l-.06.08-2,2.44h0l0,0c-.32.35-.68.78-1,1.17l-1,1.2.07-.2h0l-.16.27,0,0,0,0-.07.08-.13.14-.26.29-.53.59.08-.2h0v.12l-.08.09-2.08,2.2-2.14,2.14c-.71.72-1.46,1.39-2.2,2.07s-1.51,1.38-2.26,2h0l-.47.4,0,0h0l-.2.08a.24.24,0,0,0,.18-.08.28.28,0,0,0,.09-.2l0,.13a.34.34,0,0,1-.28.18l.19-.07c-2.23,1.87-4.5,3.68-6.87,5.38s-4.77,3.32-7.26,4.83A103.2,103.2,0,0,1,165,224l-.57.22v-.61h0l0,.17-18-39.25-.34-.75.8-.3,2.6-1c.87-.32,1.69-.74,2.54-1.1,1.69-.75,3.32-1.63,4.93-2.54l0,0,.18-.11,0,0h0c1-.6,2-1.19,3-1.85s1.93-1.32,2.86-2,1.84-1.44,2.73-2.2c.45-.38.87-.76,1.31-1.15l1.24-1.16,0-.06a66.29,66.29,0,0,0,4.75-5.14,57.61,57.61,0,0,0,4.11-5.7c.64-1,1.22-2,1.81-3s1-2.09,1.57-3.13,1-2.1,1.48-3.18l1.24-3.29.38-1,1,.43,10,4.52,9.95,4.6C211.17,158.41,217.69,161.53,224.19,164.58Zm-1.18.48c-6.64-2.84-13.26-5.62-19.77-8.46l-9.76-4.24-9.7-4.33,1.33-.58-1.27,3.4c-.45,1.13-1,2.21-1.52,3.3s-1,2.19-1.63,3.25-1.19,2.1-1.86,3.11a60.9,60.9,0,0,1-4.3,5.84,69,69,0,0,1-5,5.3l0-.06c-.5.49-.92.86-1.36,1.26s-.92.81-1.38,1.19c-.92.77-1.86,1.52-2.82,2.23s-2,1.41-3,2.07-2.05,1.27-3.09,1.87l0,0-.18.11-.05,0c-1.67.92-3.36,1.78-5.11,2.53-.88.36-1.74.78-2.64,1.09l-2.68,1,.46-1,17.35,39.55,0,.08v.09h0l-.57-.39a101.72,101.72,0,0,0,15.61-7.49c2.47-1.48,4.92-3,7.25-4.74s4.63-3.47,6.84-5.33l.19-.07a.24.24,0,0,0-.24.14l0,.13a.33.33,0,0,1,.09-.22.3.3,0,0,1,.2-.08l-.2.08.14-.1,0,0,.41-.36h0c.76-.68,1.49-1.32,2.23-2s1.49-1.36,2.2-2.08l2.12-2.13,2.07-2.2-.08.21h0v-.12l.08-.09.52-.58.27-.3.13-.15.07-.07,0,0a.47.47,0,0,1,.12-.09l-.16.27h0v-.11l.07-.09,1-1.2c.36-.4.66-.78,1-1.21l0,0,1.94-2.46-.06.2h0v-.1l.06-.1,2.21-3.07c.73-1,1.5-2,2.18-3.09s1.33-2.14,2-3.21,1.32-2.15,1.92-3.25l.07-.1a.38.38,0,0,0-.1.27l.05-.21c.61-1.08,1.16-2.19,1.71-3.29s1.1-2.21,1.6-3.35,1-2.31,1.42-3.31S222.5,166.1,223,165.06Z"/><path class="cls-5" d="M108.87,71.82c-1.16.39-2.31.83-3.44,1.3l-1.19.5c-.51.22-1,.45-1.52.69l-1.5.73c-.49.25-1,.51-1.48.78s-1,.54-1.46.82-1,.57-1.45.87-1,.61-1.47.93L94,79.38c-.47.32-.93.65-1.39,1l-1.29,1-.21.17-1,.82-.35.29c-.35.29-.7.59-1,.9l-.17.14-.79.72-.61.58-1.1,1.07c-.36.36-.72.73-1.07,1.1l-.58.61-.72.79-.14.17-.83,1c-.48.56-.95,1.14-1.4,1.72-.32.4-.63.81-.93,1.21s-.68.92-1,1.39-.63.9-.94,1.36-.63,1-.93,1.47-.59,1-.87,1.45-.55,1-.82,1.46-.53,1-.78,1.48-.49,1-.73,1.5-.47,1-.69,1.52c-.67,1.52-1.27,3.07-1.8,4.63L32.4,91.18q1.68-4.37,3.78-8.6c.32-.65.65-1.31,1-2,.25-.47.49-.93.75-1.39s.55-1,.84-1.53c.64-1.13,1.3-2.26,2-3.37.23-.38.47-.76.71-1.13.32-.52.66-1,1-1.55.43-.66.87-1.31,1.32-2s.73-1,1.11-1.56.62-.86,1-1.29q.66-.89,1.35-1.77c.41-.54.84-1.07,1.27-1.6l.23-.27q.72-.89,1.47-1.77l.06-.07c.46-.54.93-1.07,1.41-1.6.1-.12.2-.24.32-.36.59-.65,1.18-1.29,1.78-1.93l.28-.29c.52-.54,1-1.07,1.57-1.6L57.18,54l.29-.28.34-.31.06-.07h0c.39-.36.78-.73,1.17-1.08L59.4,52c.12-.12.24-.22.36-.32l.47-.42,1.13-1a.19.19,0,0,1,.07-.06c.4-.35.8-.68,1.2-1l.57-.46.16-.14a.31.31,0,0,1,.11-.09l1.59-1.27h0q.89-.69,1.77-1.35c.43-.33.86-.64,1.29-1l1.56-1.11c.65-.45,1.3-.89,2-1.32s1.61-1.06,2.43-1.56l1.26-.77c.78-.47,1.57-.93,2.36-1.37l1.17-.65.88-.48L81,37c1.11-.57,2.23-1.12,3.35-1.65.56-.27,1.13-.53,1.7-.78s1.09-.49,1.64-.72l.19-.08c1.1-.47,2.2-.91,3.31-1.34Z"/><path class="cls-2" d="M109.46,72.08c-1,.45-2,.91-3.06,1.3l-.77.29L105,74c-.45.18-.9.38-1.34.57a54.72,54.72,0,0,0-5.25,2.63,48.24,48.24,0,0,0-5,3.16c-.8.57-1.57,1.14-2.36,1.77S89.56,83.31,88.78,84l0,0a65.28,65.28,0,0,0-4.88,4.82v0c-1.33,1.49-2.54,3-3.71,4.6A53.32,53.32,0,0,0,77,98.27a55.18,55.18,0,0,0-2.72,5.23c-.81,1.78-1.45,3.64-2.19,5.46l-.12.29-.27-.12L52,100.37,32.19,91.65l-.44-.2.17-.45c1-2.73,2.17-5.42,3.43-8s2.62-5.22,4.11-7.73,3-5,4.74-7.37c.85-1.2,1.71-2.36,2.6-3.52s1.83-2.3,2.75-3.42l0,0,.06-.07,0,.05,1.83-2.11,1.85-2,1.93-2c.67-.65,1.27-1.29,2-2l-.06.06,0,.06.73-.39h0l-.6.23L59,51.1l1.76-1.56-.16.18a1.32,1.32,0,0,1,.41-.37l-.18.13c.59-.5,1.19-1,1.79-1.51l-.08.07.22-.19-.14.15a1.65,1.65,0,0,1,.43-.36l-.17.11,1.6-1.28.24-.2h.34l-.57.19c1.75-1.36,3.55-2.71,5.4-4s3.72-2.48,5.64-3.61,3.86-2.24,5.88-3.22c1-.48,2-1,3-1.46L86,33.51l1.62-.7-.08,0,3.34-1.35.87-.35.39.87,4.47,10,4.37,10.06C103.85,58.82,106.63,65.48,109.46,72.08Zm-1.18-.52L99.13,52.12l-4.47-9.64-4.37-9.67,1.26.52-3.28,1.33-.08,0-1.42.63-1.5.68c-1,.46-2,1-3,1.45-2,1-3.88,2-5.78,3.12S72.8,42.85,71,44.07s-3.58,2.51-5.33,3.85l-.26.2h-.32l.57-.2-1.58,1.26-.17.11a.41.41,0,0,0,.21-.18l-.15.15-.09.09-.08.07c-.6.47-1.17,1-1.75,1.43l-.19.13a.62.62,0,0,0,.28-.25L62,50.9,60.2,52.43,58.48,54l-.26.23h-.35l.73-.39a1.63,1.63,0,0,1-.17.2h0l-.06.05c-.6.54-1.27,1.22-1.92,1.84l-1.93,1.93-1.88,2-1.81,2,0,0-.06.07,0,0c-.93,1.11-1.88,2.21-2.76,3.32s-1.78,2.28-2.63,3.43c-1.7,2.32-3.31,4.72-4.79,7.19s-2.9,5-4.19,7.57-2.46,5.22-3.52,7.9l-.27-.65,19.65,9,19.68,8.93-.39.17c.74-1.84,1.38-3.72,2.2-5.53a58.88,58.88,0,0,1,6-10.26c1.16-1.6,2.43-3.16,3.7-4.64h0a68.38,68.38,0,0,1,4.86-4.92l0,0c.72-.62,1.49-1.31,2.25-1.93s1.56-1.23,2.36-1.81a58.53,58.53,0,0,1,4.95-3.32,57.71,57.71,0,0,1,5.26-2.82c.45-.22.9-.43,1.36-.63l.69-.3.61-.23C106.6,72.05,107.42,71.81,108.28,71.56Z"/><path class="cls-2" d="M65.7,208.79c-1.38,1.48-2.86,2.93-4.23,4.22l-2,1.9a2.42,2.42,0,0,1-2.94.19,12.38,12.38,0,0,1-1-1l-1-1-2-1.94-3.94-3.83-4-3.82-2-1.89-1-1-.5-.47a3.2,3.2,0,0,1-.54-.59,2.68,2.68,0,0,1,.19-3.32l1.91-2c1.27-1.32,2.51-2.67,3.79-4l.68-.7.63.78q2,2.44,4.09,4.77c1.42,1.54,2.85,3.07,4.33,4.55s3,3,4.5,4.39l2.32,2.12,1.17,1.05.59.52A3.85,3.85,0,0,1,65.7,208.79Zm-1.28.08c-.23,0-.33.07-.41,0l-.65-.47-1.28-1c-.85-.64-1.67-1.31-2.49-2-1.63-1.38-3.21-2.81-4.73-4.31s-3-3.06-4.36-4.68-2.74-3.28-4-5l1.31.08c-1.3,1.29-2.65,2.53-4,3.8l-2,1.87a1.4,1.4,0,0,0-.19,1.74,2.15,2.15,0,0,0,.37.44l.47.5.95,1,1.89,2,3.82,3.95L53,210.79l1.94,2,1,1a11.09,11.09,0,0,0,1,.9,1.7,1.7,0,0,0,2.13-.2l1.9-2C62.11,211.13,63.21,210,64.42,208.87Z"/><path class="cls-2" d="M215,200.06l-5.92,5.6c-2,1.86-3.93,3.74-5.85,5.67-1,.95-1.9,1.94-2.85,2.91-.25.25-.44.47-.73.74a2.47,2.47,0,0,1-1.06.53,2.43,2.43,0,0,1-2.22-.64c-1.93-1.91-3.93-3.75-5.89-5.63l-.46-.43.51-.44,3.51-3.05.47-.17a.68.68,0,0,0-.62.37l.64-.39h0l-.51.2,0,0,.15-.16.37-.34.05,0,1.3-1.23,1.31-1.26c.88-.85,1.72-1.7,2.56-2.56l-.26.64h0v-.35l.28-.29,1.63-1.71,1.6-1.76-.26.66h0v-.36l.27-.3,1-1.17-.25.66h0v-.36l.26-.31,2-2.34,2-2.41.71-.86.72.76,3.93,4.13,1,1,.49.51.25.27a2.79,2.79,0,0,1-.09,3.85Zm-.9-.9a1.39,1.39,0,0,0,.09-1.75,1.22,1.22,0,0,0-.15-.17l-.26-.24-.51-.49-1-1-4.13-3.91,1.43-.1c-.62.85-1.31,1.69-2,2.5l-2.08,2.42.25-.66h0v.4l-.25.26-1.09,1.17.26-.66h0v.4l-.26.26-1.67,1.73-.86.86-.86.84.27-.64h0v.39l-.25.25c-.9.84-1.77,1.71-2.7,2.49L197,204.77,195.55,206l0,0-.51.42.15-.16-.15.17-.23.21h-.29l.64-.39a.8.8,0,0,1-.66.41l.47-.17-3.73,2.89.05-.87c1.88,2,3.72,4,5.63,5.89a1.65,1.65,0,0,0,1.52.49,1.57,1.57,0,0,0,.75-.35c.21-.18.48-.46.71-.68,1-1,2-1.88,2.91-2.85,1.93-1.91,3.82-3.87,5.68-5.84Z"/><path class="cls-2" d="M65.7,47.23a16.42,16.42,0,0,1-1.89,1.65l-.1.06s.07,0,.07-.07l-.1.1c-.64.48-1.31,1-2,1.51l-.09.06a.16.16,0,0,0,.1-.08l-.08.09L60,51.9l0,0-.34.29,0,0-.32.28,0,0-1.19,1-.1.09h-.13l.22-.09c-.79.71-1.54,1.47-2.31,2.2l-.09.09h-.12l.2-.08c-.92.94-1.83,1.86-2.71,2.84s-1.72,2-2.58,3l-.07.07s.05,0,.05-.06l-.05.07-2.92,3.67-.28.35-.33-.31c-1.3-1.29-2.65-2.53-4-3.79l-2-1.92a2.7,2.7,0,0,1-.3-3.34,3.44,3.44,0,0,1,.28-.36l.25-.26.47-.5.94-1,1.89-2,3.82-4,3.84-3.94,1.94-2,1-1,.49-.49.27-.25a2.94,2.94,0,0,1,4.12,0l1.93,2A59.68,59.68,0,0,1,65.7,47.23Zm-1.28-.08a47.37,47.37,0,0,1-3.86-3.23l-2-1.87A1.11,1.11,0,0,0,57.25,42l-3.76,3.75-3.93,3.83-4,3.83-2,1.89-1,.94-.49.47-.24.23-.16.17a1.39,1.39,0,0,0,.08,1.73l1.87,2c1.26,1.33,2.5,2.68,3.79,4l-.61,0,3.06-3.61,0,.07a1.63,1.63,0,0,1,.17-.2l-.07.07c.88-1,1.78-2,2.68-2.92s1.82-1.9,2.73-2.85l.08-.08h.13l-.2.08,2.27-2.26.09-.09h.14l-.22.09L58.81,52l0,0,.38-.36,0,0,.38-.35,0,0,1.59-1.47L61,50a.91.91,0,0,1,.24-.2l-.09.06L63,48.13l-.1.1a1.41,1.41,0,0,1,.29-.25l-.1.06A6.87,6.87,0,0,1,64.42,47.15Z"/><path class="cls-2" d="M215,59.76l-5.94,5.6-.33.31-.28-.35c-1.31-1.64-2.55-3.36-4-4.93s-2.86-3.1-4.36-4.57-3.06-2.89-4.67-4.25-3.27-2.65-5-3.9l-.54-.4.49-.51,3.08-3.25,1.53-1.63.77-.82a3.35,3.35,0,0,1,1.13-.87,2.89,2.89,0,0,1,3,.41c.23.2.33.3.47.44l.4.39.8.78,3.21,3.11c2.13,2.1,4.22,4.22,6.27,6.39L214.24,55l.77.81a4,4,0,0,1,.45.55,3,3,0,0,1,.31.69A2.75,2.75,0,0,1,215,59.76Zm-.9-.92a1.37,1.37,0,0,0,.28-1.39,1.49,1.49,0,0,0-.45-.62l-.82-.77L209.9,53q-3.26-3.08-6.4-6.27l-3.12-3.21L198.88,42a1.18,1.18,0,0,0-1.2-.21,1.68,1.68,0,0,0-.63.47l-.81.77-1.63,1.54-3.25,3.08-.05-.91c1.63,1.36,3.24,2.75,4.78,4.21l2.32,2.17,2.25,2.25c1.46,1.54,2.89,3.09,4.32,4.66l4.15,4.82-.61,0Z"/><path class="cls-2" d="M226.3,181.58,212.85,195l-.42.42L212,195l-3.61-3.62.87-.06-2,2.47-2.08,2.4.14-.38h0V196l-.14.15-.76.83,0,0-.34.38.15-.38h0v.22l-.15.16-1.64,1.74-.85.87-.85.86.17-.4h0v.23l-.16.16c-.88.85-1.75,1.72-2.65,2.53l-1.35,1.23-1.39,1.22,0,0-.48.42.14-.17a.65.65,0,0,1-.13.16l0,0-.15.16h-.23l.47-.29a.61.61,0,0,1-.49.31l.34-.13c-1.2,1-2.43,2-3.64,3l0-.76,3.6,3.62.36.35-.36.35-13.83,13.75a75.49,75.49,0,0,1-106-.12L61.23,212.67l-.22-.23.22-.23,3.6-3.61,0,.49a104.12,104.12,0,0,1-18-17.92l.57,0-3.6,3.61-.27.28-.27-.28L29.49,181.05A75.64,75.64,0,0,1,29.33,74.8L43.08,61l.48-.48L44,61l3.62,3.6-1,0,.31-.4-.16.43a.73.73,0,0,1,.17-.45c.11-.11.15-.12.16-.14l-.11.09-.2.49a.75.75,0,0,1,.4-.63l-.38.61a.8.8,0,0,1,.21-.51L47,64.2l.32-.39-.06.08c.26-.35.39-.5.61-.78l.59-.71L49.63,61l0,0,.06-.07,0,0L51,59.42c.46-.53.9-1,1.34-1.47.87-1,1.83-1.94,2.74-2.87l.2-.21h.31l-.5.21c.76-.75,1.51-1.5,2.3-2.26l.2-.19h.3l-.49.19,1.73-1.59,1.76-1.56-.12.15a1.12,1.12,0,0,1,.34-.31l-.15.1,1.69-1.41-.09.07.21-.16-.08.06a1.37,1.37,0,0,1,.24-.18l-.19.13.19-.15-.14.14a1.28,1.28,0,0,1,.36-.3l-.13.08,1.59-1.28-.06,1.1L60.92,44.1l-.52-.53.52-.53L74.7,29.24a75.84,75.84,0,0,1,53.3-22,75.94,75.94,0,0,1,53.46,21.82l13.78,13.8.69.69-.69.69-3.62,3.62-.09-1.46c.84.66,1.67,1.33,2.48,2s1.64,1.39,2.43,2.09S198,52,198.8,52.67l2.3,2.23c1.49,1.52,3,3.06,4.37,4.67s2.72,3.28,4.08,4.92l-1.41-.09,3.63-3.61.66-.67.66.67,12.1,12.12a82,82,0,0,1,11.06,13.28,75.77,75.77,0,0,1,11.81,32.24,76.73,76.73,0,0,1,.17,17.27,77.81,77.81,0,0,1-3.72,16.86A76,76,0,0,1,226.3,181.58Zm-.9-.9a74.88,74.88,0,0,0,17.72-28.6,76,76,0,0,0,3.57-16.54,74.79,74.79,0,0,0-11.95-48.36,79.93,79.93,0,0,0-10.85-13l-12.12-12.1h1.32l-3.61,3.63-.73.73-.68-.82c-1.35-1.6-2.64-3.26-4-4.83s-2.83-3.07-4.3-4.56l-2.25-2.19c-.78-.7-1.54-1.42-2.33-2.1s-1.56-1.38-2.38-2-1.63-1.33-2.45-2l-.86-.68.77-.78,3.62-3.62v1.38L180.05,30.5a74.23,74.23,0,0,0-104.26-.15L62,44.1V43l3.6,3.63.58.58-.64.52L63.93,49l-.13.08a.19.19,0,0,0,.14-.12h0l-.15.15,0,0-.65.29.46-.16a.39.39,0,0,0,.14-.08l-.08.06,0,0-.09.07-1.59,1.33-.15.1a.41.41,0,0,0,.2-.19l-.12.15-1.75,1.54-1.72,1.57-.21.19h-.29l.49-.19c-.76.71-1.52,1.46-2.28,2.2l-.21.21h-.3l.5-.21c-.92,1-1.82,1.84-2.71,2.83-.44.48-.91,1-1.31,1.43l-1.3,1.47,0,0-.06.07,0,0-1.18,1.41-.58.7-.54.66-.06.08-.24.29L48,65.1a.68.68,0,0,0,.19-.47l-.38.62a.69.69,0,0,0,.36-.6l-.2.49a.5.5,0,0,1-.14.1s0,0,.15-.12a.7.7,0,0,0,.17-.44l-.16.43-.32.4-.47.59-.55-.54-3.6-3.62h1L30.24,75.71a74.6,74.6,0,0,0-.15,104.75l13.75,13.82H43.3l3.6-3.61.31-.3.26.34a103.68,103.68,0,0,0,17.79,17.86l.3.23-.27.26-3.6,3.61v-.46L75.46,226a74.6,74.6,0,0,0,105-.11l13.76-13.81v.7l-3.62-3.6-.4-.4.44-.36c1.2-1,2.43-2,3.6-3l.34-.13a.52.52,0,0,0-.45.27l.47-.29h0l-.37.16,0,0a.23.23,0,0,0-.07.1l.14-.17.4-.34,0,0,1.34-1.2,1.34-1.24c.91-.82,1.75-1.67,2.61-2.52l-.16.39h0v-.22L200,200l.83-.84.82-.84,1.63-1.75-.15.38h0v-.21l.15-.17.3-.34h0l0,0,.72-.79-.14.37h0v-.21l.14-.17,2-2.36,1.95-2.45.41-.52.46.46,3.63,3.6H212Z"/><path class="cls-6" d="M183,150.33c-.19.48-.39.95-.61,1.43q-1,2.2-2.11,4.34c-.2.38-.41.75-.62,1.12-.41.73-.84,1.46-1.28,2.17s-.84,1.32-1.29,2-.8,1.15-1.22,1.72c-.24.34-.49.67-.75,1s-.74,1-1.13,1.43-.54.66-.83,1c-.69.82-1.42,1.63-2.19,2.42-.32.36-.66.7-1,1s-.68.68-1,1a5.77,5.77,0,0,1-.44.42c-.35.34-.71.66-1.07,1l-.73.64-.64.54c-.31.27-.63.53-.95.78l-.71.56a58.35,58.35,0,0,1-5.2,3.62l-1.62,1-.18.11c-.37.22-.75.42-1.12.62s-1,.53-1.48.77-1,.51-1.5.74c-1,.46-1.95.89-2.95,1.29s-2.12.82-3.2,1.19a59.53,59.53,0,0,1-38.26,0l-1.55-.55h0c-.51-.19-1-.38-1.54-.59s-1-.42-1.53-.65l-.9-.4-1-.45c-.73-.34-1.45-.71-2.16-1.09l-.87-.47c-.74-.41-1.47-.83-2.19-1.27l-.76-.48c-.51-.32-1-.65-1.52-1-.3-.19-.59-.39-.88-.6s-.78-.55-1.16-.84c-.79-.57-1.57-1.18-2.34-1.81l-.66-.55c-.94-.78-1.85-1.6-2.75-2.47-.36-.32-.7-.66-1-1-.67-.67-1.32-1.36-2-2.05-.32-.34-.62-.69-.93-1s-.61-.7-.9-1.06a.69.69,0,0,1-.11-.13c-.22-.25-.43-.5-.63-.77-.39-.5-.78-1-1.15-1.5s-.69-.92-1-1.39-.64-.9-.94-1.36-.63-1-.93-1.47-.6-1-.87-1.45c-.57-1-1.1-1.95-1.6-2.95-.75-1.46-1.42-2.94-2-4.45-.43-1.06-.82-2.12-1.19-3.2a59.53,59.53,0,0,1,0-38.26c.53-1.56,1.13-3.11,1.8-4.63.22-.51.45-1,.69-1.52s.48-1,.73-1.5.51-1,.78-1.48.53-1,.82-1.46.57-1,.87-1.45.61-1,.93-1.47.61-.91.94-1.36.65-.93,1-1.39.61-.81.93-1.21c.45-.58.92-1.16,1.4-1.72l.83-1,.14-.17.72-.79.58-.61c.35-.37.71-.74,1.07-1.1L87.15,85l.61-.58.79-.72.17-.14c.34-.31.69-.61,1-.9l.35-.29c.33-.28.66-.56,1-.82l.21-.17,1.29-1c.46-.35.92-.69,1.39-1s.9-.64,1.36-.94,1-.63,1.47-.93,1-.6,1.45-.87,1-.56,1.46-.82,1-.53,1.48-.78,1-.5,1.5-.73,1-.47,1.52-.69.79-.35,1.19-.5c1.13-.47,2.28-.91,3.44-1.3a59.35,59.35,0,0,1,75.31,75.31C183.81,148.21,183.42,149.27,183,150.33Z"/><path class="cls-5" d="M32.41,164.82l39.41-17.69a59.47,59.47,0,0,0,37.05,37.05L91.18,223.6a102.63,102.63,0,0,1-58.77-58.78Z"/><path class="cls-2" d="M31.81,164.57l20-8.86,9.95-4.41,9.91-4.44.3-.13.11.31a58.38,58.38,0,0,0,5.75,12.17,59.4,59.4,0,0,0,19,18.82A57.37,57.37,0,0,0,109,183.69l.53.18-.23.52L92,224l-.32.75-.78-.29a103.58,103.58,0,0,1-19.23-9.72,100.25,100.25,0,0,1-16.76-13.57,98.51,98.51,0,0,1-13.51-16.79,92.32,92.32,0,0,1-5.31-9.39c-.81-1.61-1.54-3.25-2.26-4.89-.35-.83-.7-1.66-1-2.49A17.56,17.56,0,0,1,31.81,164.57Zm1.19.49a8.29,8.29,0,0,1,1,2c.35.81.72,1.62,1.08,2.42.76,1.6,1.53,3.2,2.36,4.76,1.67,3.12,3.45,6.18,5.41,9.12a106.94,106.94,0,0,0,13.4,16.38,105.22,105.22,0,0,0,16.41,13.35,101.43,101.43,0,0,0,18.8,9.72l-1.1.45,18-39.27.3.69a60.38,60.38,0,0,1-37.16-37.43l.4.18-9.8,4.4-9.75,4.43Z"/></svg>