<svg id="Layer_1" data-name="Layer 1" xmlns="http://www.w3.org/2000/svg" xmlns:xlink="http://www.w3.org/1999/xlink" viewBox="0 0 256 256"><defs><style>.cls-1,.cls-9{fill:none;}.cls-2,.cls-8{fill:#253759;}.cls-3{clip-path:url(#clip-path);}.cls-4{clip-path:url(#clip-path-2);}.cls-5{fill:#fff;}.cls-6{fill:#a6d5fe;}.cls-7{fill:url(#New_Pattern_Swatch_1);}.cls-8{opacity:0.3;}.cls-9{stroke:#253759;stroke-linecap:round;stroke-linejoin:round;}.cls-10{fill:#ff9d9d;}.cls-11{fill:#a7a6c1;}.cls-12{fill:#d5ebfe;}</style><clipPath id="clip-path"><rect class="cls-1" x="42.85" width="43" height="43"/></clipPath><clipPath id="clip-path-2"><rect class="cls-1" x="-0.05" width="43" height="43"/></clipPath><pattern id="New_Pattern_Swatch_1" data-name="New Pattern Swatch 1" width="42.9" height="43" patternTransform="translate(0 596.97)" patternUnits="userSpaceOnUse" viewBox="0 0 42.9 43"><rect class="cls-1" width="42.9" height="43"/><circle class="cls-2" cx="42.91" cy="1.85" r="0.57"/><circle class="cls-2" cx="42.91" cy="5.42" r="0.57"/><circle class="cls-2" cx="42.91" cy="8.99" r="0.57"/><circle class="cls-2" cx="42.91" cy="12.57" r="0.57"/><circle class="cls-2" cx="42.91" cy="16.14" r="0.57"/><circle class="cls-2" cx="42.91" cy="19.71" r="0.57"/><circle class="cls-2" cx="42.91" cy="23.29" r="0.57"/><circle class="cls-2" cx="42.91" cy="26.86" r="0.57"/><circle class="cls-2" cx="42.91" cy="30.43" r="0.57"/><circle class="cls-2" cx="42.91" cy="34.01" r="0.57"/><circle class="cls-2" cx="42.91" cy="37.58" r="0.57"/><circle class="cls-2" cx="42.91" cy="41.15" r="0.57"/><circle class="cls-2" cx="42.89" cy="1.85" r="0.57"/><circle class="cls-2" cx="42.89" cy="5.42" r="0.57"/><circle class="cls-2" cx="42.89" cy="8.99" r="0.57"/><circle class="cls-2" cx="42.89" cy="12.57" r="0.57"/><circle class="cls-2" cx="42.89" cy="16.14" r="0.57"/><circle class="cls-2" cx="42.89" cy="19.71" r="0.57"/><circle class="cls-2" cx="42.89" cy="23.29" r="0.57"/><circle class="cls-2" cx="42.89" cy="26.86" r="0.57"/><circle class="cls-2" cx="42.89" cy="30.43" r="0.57"/><circle class="cls-2" cx="42.89" cy="34.01" r="0.57"/><circle class="cls-2" cx="42.89" cy="37.58" r="0.57"/><circle class="cls-2" cx="42.89" cy="41.15" r="0.57"/><g class="cls-3"><circle class="cls-2" cx="42.81" cy="1.85" r="0.57"/><circle class="cls-2" cx="42.81" cy="5.42" r="0.57"/><circle class="cls-2" cx="42.81" cy="8.99" r="0.57"/><circle class="cls-2" cx="42.81" cy="12.57" r="0.57"/><circle class="cls-2" cx="42.81" cy="16.14" r="0.57"/><circle class="cls-2" cx="42.81" cy="19.71" r="0.57"/><circle class="cls-2" cx="42.81" cy="23.29" r="0.57"/><circle class="cls-2" cx="42.81" cy="26.86" r="0.57"/><circle class="cls-2" cx="42.81" cy="30.43" r="0.57"/><circle class="cls-2" cx="42.81" cy="34.01" r="0.57"/><circle class="cls-2" cx="42.81" cy="37.58" r="0.57"/><circle class="cls-2" cx="42.81" cy="41.15" r="0.57"/><circle class="cls-2" cx="42.79" cy="1.85" r="0.57"/><circle class="cls-2" cx="42.79" cy="5.42" r="0.57"/><circle class="cls-2" cx="42.79" cy="8.99" r="0.57"/><circle class="cls-2" cx="42.79" cy="12.57" r="0.57"/><circle class="cls-2" cx="42.79" cy="16.14" r="0.57"/><circle class="cls-2" cx="42.79" cy="19.71" r="0.57"/><circle class="cls-2" cx="42.79" cy="23.29" r="0.57"/><circle class="cls-2" cx="42.79" cy="26.86" r="0.57"/><circle class="cls-2" cx="42.79" cy="30.43" r="0.57"/><circle class="cls-2" cx="42.79" cy="34.01" r="0.57"/><circle class="cls-2" cx="42.79" cy="37.58" r="0.57"/><circle class="cls-2" cx="42.79" cy="41.15" r="0.57"/></g><circle class="cls-2" cx="42.91" cy="1.85" r="0.57"/><circle class="cls-2" cx="42.91" cy="5.42" r="0.57"/><circle class="cls-2" cx="42.91" cy="8.99" r="0.57"/><circle class="cls-2" cx="42.91" cy="12.57" r="0.57"/><circle class="cls-2" cx="42.91" cy="16.14" r="0.57"/><circle class="cls-2" cx="42.91" cy="19.71" r="0.57"/><circle class="cls-2" cx="42.91" cy="23.29" r="0.57"/><circle class="cls-2" cx="42.91" cy="26.86" r="0.57"/><circle class="cls-2" cx="42.91" cy="30.43" r="0.57"/><circle class="cls-2" cx="42.91" cy="34.01" r="0.57"/><circle class="cls-2" cx="42.91" cy="37.58" r="0.57"/><circle class="cls-2" cx="42.91" cy="41.15" r="0.57"/><circle class="cls-2" cx="0.01" cy="1.85" r="0.57"/><circle class="cls-2" cx="3.59" cy="1.85" r="0.57"/><circle class="cls-2" cx="7.16" cy="1.85" r="0.57"/><circle class="cls-2" cx="10.73" cy="1.85" r="0.57"/><circle class="cls-2" cx="0.01" cy="5.42" r="0.57"/><circle class="cls-2" cx="3.59" cy="5.42" r="0.57"/><circle class="cls-2" cx="7.16" cy="5.42" r="0.57"/><circle class="cls-2" cx="10.73" cy="5.42" r="0.57"/><circle class="cls-2" cx="0.01" cy="8.99" r="0.57"/><circle class="cls-2" cx="3.59" cy="8.99" r="0.57"/><circle class="cls-2" cx="7.16" cy="8.99" r="0.57"/><circle class="cls-2" cx="10.73" cy="8.99" r="0.57"/><circle class="cls-2" cx="0.01" cy="12.57" r="0.57"/><circle class="cls-2" cx="3.59" cy="12.57" r="0.57"/><circle class="cls-2" cx="7.16" cy="12.57" r="0.57"/><circle class="cls-2" cx="10.73" cy="12.57" r="0.57"/><circle class="cls-2" cx="0.01" cy="16.14" r="0.57"/><circle class="cls-2" cx="3.59" cy="16.14" r="0.57"/><circle class="cls-2" cx="7.16" cy="16.14" r="0.57"/><circle class="cls-2" cx="10.73" cy="16.14" r="0.57"/><circle class="cls-2" cx="0.01" cy="19.71" r="0.57"/><circle class="cls-2" cx="3.59" cy="19.71" r="0.57"/><circle class="cls-2" cx="7.16" cy="19.71" r="0.57"/><circle class="cls-2" cx="10.73" cy="19.71" r="0.57"/><circle class="cls-2" cx="14.3" cy="1.85" r="0.57"/><circle class="cls-2" cx="17.88" cy="1.85" r="0.57"/><circle class="cls-2" cx="21.45" cy="1.85" r="0.57"/><circle class="cls-2" cx="25.02" cy="1.85" r="0.57"/><circle class="cls-2" cx="28.6" cy="1.85" r="0.57"/><circle class="cls-2" cx="14.3" cy="5.42" r="0.57"/><circle class="cls-2" cx="17.88" cy="5.42" r="0.57"/><circle class="cls-2" cx="21.45" cy="5.42" r="0.57"/><circle class="cls-2" cx="25.02" cy="5.42" r="0.57"/><circle class="cls-2" cx="28.6" cy="5.42" r="0.57"/><circle class="cls-2" cx="14.3" cy="8.99" r="0.57"/><circle class="cls-2" cx="17.88" cy="8.99" r="0.57"/><circle class="cls-2" cx="21.45" cy="8.99" r="0.57"/><circle class="cls-2" cx="25.02" cy="8.99" r="0.57"/><circle class="cls-2" cx="28.6" cy="8.99" r="0.57"/><circle class="cls-2" cx="14.3" cy="12.57" r="0.57"/><circle class="cls-2" cx="17.88" cy="12.57" r="0.57"/><circle class="cls-2" cx="21.45" cy="12.57" r="0.57"/><circle class="cls-2" cx="25.02" cy="12.57" r="0.57"/><circle class="cls-2" cx="28.6" cy="12.57" r="0.57"/><circle class="cls-2" cx="14.3" cy="16.14" r="0.57"/><circle class="cls-2" cx="17.88" cy="16.14" r="0.57"/><circle class="cls-2" cx="21.45" cy="16.14" r="0.57"/><circle class="cls-2" cx="25.02" cy="16.14" r="0.57"/><circle class="cls-2" cx="28.6" cy="16.14" r="0.57"/><circle class="cls-2" cx="14.3" cy="19.71" r="0.57"/><circle class="cls-2" cx="17.88" cy="19.71" r="0.57"/><circle class="cls-2" cx="21.45" cy="19.71" r="0.57"/><circle class="cls-2" cx="25.02" cy="19.71" r="0.57"/><circle class="cls-2" cx="28.6" cy="19.71" r="0.57"/><circle class="cls-2" cx="32.17" cy="1.85" r="0.57"/><circle class="cls-2" cx="35.74" cy="1.85" r="0.57"/><circle class="cls-2" cx="39.31" cy="1.85" r="0.57"/><circle class="cls-2" cx="42.89" cy="1.85" r="0.57"/><circle class="cls-2" cx="32.17" cy="5.42" r="0.57"/><circle class="cls-2" cx="35.74" cy="5.42" r="0.57"/><circle class="cls-2" cx="39.31" cy="5.42" r="0.57"/><circle class="cls-2" cx="42.89" cy="5.42" r="0.57"/><circle class="cls-2" cx="32.17" cy="8.99" r="0.57"/><circle class="cls-2" cx="35.74" cy="8.99" r="0.57"/><circle class="cls-2" cx="39.31" cy="8.99" r="0.57"/><circle class="cls-2" cx="42.89" cy="8.99" r="0.57"/><circle class="cls-2" cx="32.17" cy="12.57" r="0.57"/><circle class="cls-2" cx="35.74" cy="12.57" r="0.57"/><circle class="cls-2" cx="39.31" cy="12.57" r="0.57"/><circle class="cls-2" cx="42.89" cy="12.57" r="0.57"/><circle class="cls-2" cx="32.17" cy="16.14" r="0.57"/><circle class="cls-2" cx="35.74" cy="16.14" r="0.57"/><circle class="cls-2" cx="39.31" cy="16.14" r="0.57"/><circle class="cls-2" cx="42.89" cy="16.14" r="0.57"/><circle class="cls-2" cx="32.17" cy="19.71" r="0.57"/><circle class="cls-2" cx="35.74" cy="19.71" r="0.57"/><circle class="cls-2" cx="39.31" cy="19.71" r="0.57"/><circle class="cls-2" cx="42.89" cy="19.71" r="0.57"/><circle class="cls-2" cx="0.01" cy="23.29" r="0.57"/><circle class="cls-2" cx="3.59" cy="23.29" r="0.57"/><circle class="cls-2" cx="7.16" cy="23.29" r="0.57"/><circle class="cls-2" cx="10.73" cy="23.29" r="0.57"/><circle class="cls-2" cx="0.01" cy="26.86" r="0.57"/><circle class="cls-2" cx="3.59" cy="26.86" r="0.57"/><circle class="cls-2" cx="7.16" cy="26.86" r="0.57"/><circle class="cls-2" cx="10.73" cy="26.86" r="0.57"/><circle class="cls-2" cx="0.01" cy="30.43" r="0.57"/><circle class="cls-2" cx="3.59" cy="30.43" r="0.57"/><circle class="cls-2" cx="7.16" cy="30.43" r="0.57"/><circle class="cls-2" cx="10.73" cy="30.43" r="0.57"/><circle class="cls-2" cx="0.01" cy="34.01" r="0.57"/><circle class="cls-2" cx="3.59" cy="34.01" r="0.57"/><circle class="cls-2" cx="7.16" cy="34.01" r="0.57"/><circle class="cls-2" cx="10.73" cy="34.01" r="0.57"/><circle class="cls-2" cx="0.01" cy="37.58" r="0.57"/><circle class="cls-2" cx="3.59" cy="37.58" r="0.57"/><circle class="cls-2" cx="7.16" cy="37.58" r="0.57"/><circle class="cls-2" cx="10.73" cy="37.58" r="0.57"/><circle class="cls-2" cx="0.01" cy="41.15" r="0.57"/><circle class="cls-2" cx="3.59" cy="41.15" r="0.57"/><circle class="cls-2" cx="7.16" cy="41.15" r="0.57"/><circle class="cls-2" cx="10.73" cy="41.15" r="0.57"/><circle class="cls-2" cx="14.3" cy="23.29" r="0.57"/><circle class="cls-2" cx="17.88" cy="23.29" r="0.57"/><circle class="cls-2" cx="21.45" cy="23.29" r="0.57"/><circle class="cls-2" cx="25.02" cy="23.29" r="0.57"/><circle class="cls-2" cx="28.6" cy="23.29" r="0.57"/><circle class="cls-2" cx="14.3" cy="26.86" r="0.57"/><circle class="cls-2" cx="17.88" cy="26.86" r="0.57"/><circle class="cls-2" cx="21.45" cy="26.86" r="0.57"/><circle class="cls-2" cx="25.02" cy="26.86" r="0.57"/><circle class="cls-2" cx="28.6" cy="26.86" r="0.57"/><circle class="cls-2" cx="14.3" cy="30.43" r="0.57"/><circle class="cls-2" cx="17.88" cy="30.43" r="0.57"/><circle class="cls-2" cx="21.45" cy="30.43" r="0.57"/><circle class="cls-2" cx="25.02" cy="30.43" r="0.57"/><circle class="cls-2" cx="28.6" cy="30.43" r="0.57"/><circle class="cls-2" cx="14.3" cy="34.01" r="0.57"/><circle class="cls-2" cx="17.88" cy="34.01" r="0.57"/><circle class="cls-2" cx="21.45" cy="34.01" r="0.57"/><circle class="cls-2" cx="25.02" cy="34.01" r="0.57"/><circle class="cls-2" cx="28.6" cy="34.01" r="0.57"/><circle class="cls-2" cx="14.3" cy="37.58" r="0.57"/><circle class="cls-2" cx="17.88" cy="37.58" r="0.57"/><circle class="cls-2" cx="21.45" cy="37.58" r="0.57"/><circle class="cls-2" cx="25.02" cy="37.58" r="0.57"/><circle class="cls-2" cx="28.6" cy="37.58" r="0.57"/><circle class="cls-2" cx="14.3" cy="41.15" r="0.57"/><circle class="cls-2" cx="17.88" cy="41.15" r="0.57"/><circle class="cls-2" cx="21.45" cy="41.15" r="0.57"/><circle class="cls-2" cx="25.02" cy="41.15" r="0.57"/><circle class="cls-2" cx="28.6" cy="41.15" r="0.57"/><circle class="cls-2" cx="32.17" cy="23.29" r="0.57"/><circle class="cls-2" cx="35.74" cy="23.29" r="0.57"/><circle class="cls-2" cx="39.31" cy="23.29" r="0.57"/><circle class="cls-2" cx="42.89" cy="23.29" r="0.57"/><circle class="cls-2" cx="32.17" cy="26.86" r="0.57"/><circle class="cls-2" cx="35.74" cy="26.86" r="0.57"/><circle class="cls-2" cx="39.31" cy="26.86" r="0.57"/><circle class="cls-2" cx="42.89" cy="26.86" r="0.57"/><circle class="cls-2" cx="32.17" cy="30.43" r="0.57"/><circle class="cls-2" cx="35.74" cy="30.43" r="0.57"/><circle class="cls-2" cx="39.31" cy="30.43" r="0.57"/><circle class="cls-2" cx="42.89" cy="30.43" r="0.57"/><circle class="cls-2" cx="32.17" cy="34.01" r="0.57"/><circle class="cls-2" cx="35.74" cy="34.01" r="0.57"/><circle class="cls-2" cx="39.31" cy="34.01" r="0.57"/><circle class="cls-2" cx="42.89" cy="34.01" r="0.57"/><circle class="cls-2" cx="32.17" cy="37.58" r="0.57"/><circle class="cls-2" cx="35.74" cy="37.58" r="0.57"/><circle class="cls-2" cx="39.31" cy="37.58" r="0.57"/><circle class="cls-2" cx="42.89" cy="37.58" r="0.57"/><circle class="cls-2" cx="32.17" cy="41.15" r="0.57"/><circle class="cls-2" cx="35.74" cy="41.15" r="0.57"/><circle class="cls-2" cx="39.31" cy="41.15" r="0.57"/><circle class="cls-2" cx="42.89" cy="41.15" r="0.57"/><circle class="cls-2" cx="-0.01" cy="1.85" r="0.57"/><circle class="cls-2" cx="-0.01" cy="5.42" r="0.57"/><circle class="cls-2" cx="-0.01" cy="8.99" r="0.57"/><circle class="cls-2" cx="-0.01" cy="12.57" r="0.57"/><circle class="cls-2" cx="-0.01" cy="16.14" r="0.57"/><circle class="cls-2" cx="-0.01" cy="19.71" r="0.57"/><circle class="cls-2" cx="-0.01" cy="23.29" r="0.57"/><circle class="cls-2" cx="-0.01" cy="26.86" r="0.57"/><circle class="cls-2" cx="-0.01" cy="30.43" r="0.57"/><circle class="cls-2" cx="-0.01" cy="34.01" r="0.57"/><circle class="cls-2" cx="-0.01" cy="37.58" r="0.57"/><circle class="cls-2" cx="-0.01" cy="41.15" r="0.57"/><g class="cls-4"><circle class="cls-2" cx="-0.09" cy="1.85" r="0.57"/><circle class="cls-2" cx="-0.09" cy="5.42" r="0.57"/><circle class="cls-2" cx="-0.09" cy="8.99" r="0.57"/><circle class="cls-2" cx="-0.09" cy="12.57" r="0.57"/><circle class="cls-2" cx="-0.09" cy="16.14" r="0.57"/><circle class="cls-2" cx="-0.09" cy="19.71" r="0.57"/><circle class="cls-2" cx="-0.09" cy="23.29" r="0.57"/><circle class="cls-2" cx="-0.09" cy="26.86" r="0.57"/><circle class="cls-2" cx="-0.09" cy="30.43" r="0.57"/><circle class="cls-2" cx="-0.09" cy="34.01" r="0.57"/><circle class="cls-2" cx="-0.09" cy="37.58" r="0.57"/><circle class="cls-2" cx="-0.09" cy="41.15" r="0.57"/><circle class="cls-2" cx="-0.11" cy="1.85" r="0.57"/><circle class="cls-2" cx="-0.11" cy="5.42" r="0.57"/><circle class="cls-2" cx="-0.11" cy="8.99" r="0.57"/><circle class="cls-2" cx="-0.11" cy="12.57" r="0.57"/><circle class="cls-2" cx="-0.11" cy="16.14" r="0.57"/><circle class="cls-2" cx="-0.11" cy="19.71" r="0.57"/><circle class="cls-2" cx="-0.11" cy="23.29" r="0.57"/><circle class="cls-2" cx="-0.11" cy="26.86" r="0.57"/><circle class="cls-2" cx="-0.11" cy="30.43" r="0.57"/><circle class="cls-2" cx="-0.11" cy="34.01" r="0.57"/><circle class="cls-2" cx="-0.11" cy="37.58" r="0.57"/><circle class="cls-2" cx="-0.11" cy="41.15" r="0.57"/></g><circle class="cls-2" cx="0.01" cy="1.85" r="0.57"/><circle class="cls-2" cx="0.01" cy="5.42" r="0.57"/><circle class="cls-2" cx="0.01" cy="8.99" r="0.57"/><circle class="cls-2" cx="0.01" cy="12.57" r="0.57"/><circle class="cls-2" cx="0.01" cy="16.14" r="0.57"/><circle class="cls-2" cx="0.01" cy="19.71" r="0.57"/><circle class="cls-2" cx="0.01" cy="23.29" r="0.57"/><circle class="cls-2" cx="0.01" cy="26.86" r="0.57"/><circle class="cls-2" cx="0.01" cy="30.43" r="0.57"/><circle class="cls-2" cx="0.01" cy="34.01" r="0.57"/><circle class="cls-2" cx="0.01" cy="37.58" r="0.57"/><circle class="cls-2" cx="0.01" cy="41.15" r="0.57"/><circle class="cls-2" cx="-0.01" cy="1.85" r="0.57"/><circle class="cls-2" cx="-0.01" cy="5.42" r="0.57"/><circle class="cls-2" cx="-0.01" cy="8.99" r="0.57"/><circle class="cls-2" cx="-0.01" cy="12.57" r="0.57"/><circle class="cls-2" cx="-0.01" cy="16.14" r="0.57"/><circle class="cls-2" cx="-0.01" cy="19.71" r="0.57"/><circle class="cls-2" cx="-0.01" cy="23.29" r="0.57"/><circle class="cls-2" cx="-0.01" cy="26.86" r="0.57"/><circle class="cls-2" cx="-0.01" cy="30.43" r="0.57"/><circle class="cls-2" cx="-0.01" cy="34.01" r="0.57"/><circle class="cls-2" cx="-0.01" cy="37.58" r="0.57"/><circle class="cls-2" cx="-0.01" cy="41.15" r="0.57"/></pattern></defs><title>10-free-finance-icon</title><rect class="cls-5" x="105.59" y="230.54" width="44.81" height="13.78" rx="6.66"/><path class="cls-2" d="M151.1,237.66a7.7,7.7,0,0,1-.88,3.51,7.56,7.56,0,0,1-2.45,2.67,7.35,7.35,0,0,1-3.43,1.19c-.63.05-1.15,0-1.71,0H141l-13.21.06-13.22.06H112.9a10.1,10.1,0,0,1-1.78-.09,7.27,7.27,0,0,1-3.42-1.43,7.54,7.54,0,0,1-2.34-2.88,8.09,8.09,0,0,1-.7-3.6,7.54,7.54,0,0,1,3.43-6.37,7.5,7.5,0,0,1,3.54-1.21c.66,0,1.17,0,1.73,0H115l13.22.08,13.21.12a33.56,33.56,0,0,1,3.41.1,7.24,7.24,0,0,1,3.33,1.42,7.35,7.35,0,0,1,2.26,2.83A7.89,7.89,0,0,1,151.1,237.66Zm-1.4,0a6,6,0,0,0-2.38-5.19,5.84,5.84,0,0,0-2.69-1.13,30,30,0,0,0-3.19-.06l-13.21.12-13.22.08h-1.65c-.54,0-1.14,0-1.58,0a5.68,5.68,0,0,0-2.64.91,5.89,5.89,0,0,0-1.92,2,6,6,0,0,0-.7,2.72,6.88,6.88,0,0,0,.09,1.48A5.36,5.36,0,0,0,107,240a5.73,5.73,0,0,0,4.35,3.32c.88.13,2.1.06,3.17.09l13.22.06,13.21.06h1.65c.55,0,1.13,0,1.59,0a5.94,5.94,0,0,0,5.48-5.9Z"/><path class="cls-6" d="M67.16,225.19v10a14.49,14.49,0,0,0,14.48,14.48h94.78a12.41,12.41,0,0,0,12.41-12.41V225.19Zm83.24,12.47a6.67,6.67,0,0,1-6.67,6.66H112.26a6.67,6.67,0,0,1-6.67-6.66v-.46a6.67,6.67,0,0,1,6.67-6.66h31.47a6.67,6.67,0,0,1,6.67,6.66Z"/><path class="cls-2" d="M67.65,225.68c.13,3.21.22,6.31.22,9.45a13.8,13.8,0,0,0,11,13.52,24.24,24.24,0,0,0,4.8.27h5l39.77-.07,39.77-.06h5a44.62,44.62,0,0,0,4.84-.14,11.49,11.49,0,0,0,7.67-4.62,11.27,11.27,0,0,0,1.89-4.15,10.77,10.77,0,0,0,.29-2.27c0-.77,0-1.64,0-2.46l0-9.94,1,1Zm-1-1,122.16-.47a1,1,0,0,1,1,1h0l0,9.94c0,.84,0,1.63,0,2.51a13.17,13.17,0,0,1-.34,2.65,13.33,13.33,0,0,1-11.14,10.15,44.13,44.13,0,0,1-5.09.13h-5l-39.77-.06-39.77-.07h-5c-.84,0-1.63,0-2.51,0-.43,0-.87,0-1.3-.09l-1.29-.2a15.24,15.24,0,0,1-12.15-15C66.45,231.65,66.54,228.12,66.67,224.7Z"/><path class="cls-2" d="M151.1,237.66a7.7,7.7,0,0,1-.88,3.51,7.56,7.56,0,0,1-2.45,2.67,7.35,7.35,0,0,1-3.43,1.19c-.63.05-1.15,0-1.71,0H141l-13.21.06-13.22.06H112.9a10.1,10.1,0,0,1-1.78-.09,7.27,7.27,0,0,1-3.42-1.43,7.54,7.54,0,0,1-2.34-2.88,8.09,8.09,0,0,1-.7-3.6,7.54,7.54,0,0,1,3.43-6.37,7.5,7.5,0,0,1,3.54-1.21c.66,0,1.17,0,1.73,0H115l13.22.08,13.21.12a33.56,33.56,0,0,1,3.41.1,7.24,7.24,0,0,1,3.33,1.42,7.35,7.35,0,0,1,2.26,2.83A7.89,7.89,0,0,1,151.1,237.66Zm-1.4,0a6,6,0,0,0-2.38-5.19,5.84,5.84,0,0,0-2.69-1.13,30,30,0,0,0-3.19-.06l-13.21.12-13.22.08h-1.65c-.54,0-1.14,0-1.58,0a5.68,5.68,0,0,0-2.64.91,5.89,5.89,0,0,0-1.92,2,6,6,0,0,0-.7,2.72,6.88,6.88,0,0,0,.09,1.48A5.36,5.36,0,0,0,107,240a5.73,5.73,0,0,0,4.35,3.32c.88.13,2.1.06,3.17.09l13.22.06,13.21.06h1.65c.55,0,1.13,0,1.59,0a5.94,5.94,0,0,0,5.48-5.9Z"/><polygon class="cls-6" points="196.58 100.94 188.83 96.54 188.83 129.06 196.58 124.66 196.58 100.94"/><path class="cls-2" d="M196.32,101.09l-7.69-4.19.62-.36,0,32.52-.65-.38,7.72-4.44-.25.42Zm.52-.3.22,23.87a.47.47,0,0,1-.24.42l-7.77,4.36a.44.44,0,0,1-.6-.17.39.39,0,0,1-.06-.21l0-32.52h0a.41.41,0,0,1,.41-.41.39.39,0,0,1,.21.06Z"/><polygon class="cls-6" points="196.58 51.67 188.83 47.27 188.83 79.79 196.58 75.39 196.58 51.67"/><path class="cls-2" d="M196.27,51.85l-7.66-4.19.66-.39.09,32.52-.79-.45,7.67-4.54-.34.59Zm.61-.35.38,23.89a.66.66,0,0,1-.35.59l-7.82,4.27h0a.54.54,0,0,1-.71-.21.58.58,0,0,1-.06-.26l.08-32.52h0a.44.44,0,0,1,.44-.44.4.4,0,0,1,.22.06Z"/><polygon class="cls-6" points="59.42 99.27 67.17 103.67 67.17 71.15 59.42 75.55 59.42 99.27"/><path class="cls-2" d="M59.86,99c2.53,1.4,5,2.81,7.54,4.25l-.7.41-.4-32.52,1.3.76-7.77,4.35.41-.71Zm-.88.51-.38-24a.82.82,0,0,1,.4-.71h0l7.72-4.44h0a.87.87,0,0,1,1.3.76l-.4,32.52a.47.47,0,0,1-.47.47.52.52,0,0,1-.23-.06Q63,101.83,59,99.52Z"/><path class="cls-7" d="M67.16,225.19v10a14.49,14.49,0,0,0,14.48,14.48h94.78a12.41,12.41,0,0,0,12.41-12.41V225.19Zm83.24,12.47a6.67,6.67,0,0,1-6.67,6.66H112.26a6.67,6.67,0,0,1-6.67-6.66v-.46a6.67,6.67,0,0,1,6.67-6.66h31.47a6.67,6.67,0,0,1,6.67,6.66Z"/><path class="cls-2" d="M67.65,225.68c.13,3.21.22,6.31.22,9.45a13.8,13.8,0,0,0,11,13.52,24.24,24.24,0,0,0,4.8.27h5l39.77-.07,39.77-.06h5a44.62,44.62,0,0,0,4.84-.14,11.49,11.49,0,0,0,7.67-4.62,11.27,11.27,0,0,0,1.89-4.15,10.77,10.77,0,0,0,.29-2.27c0-.77,0-1.64,0-2.46l0-9.94,1,1Zm-1-1,122.16-.47a1,1,0,0,1,1,1h0l0,9.94c0,.84,0,1.63,0,2.51a13.17,13.17,0,0,1-.34,2.65,13.33,13.33,0,0,1-11.14,10.15,44.13,44.13,0,0,1-5.09.13h-5l-39.77-.06-39.77-.07h-5c-.84,0-1.63,0-2.51,0-.43,0-.87,0-1.3-.09l-1.29-.2a15.24,15.24,0,0,1-12.15-15C66.45,231.65,66.54,228.12,66.67,224.7Z"/><path class="cls-2" d="M151.1,237.66a7.7,7.7,0,0,1-.88,3.51,7.56,7.56,0,0,1-2.45,2.67,7.35,7.35,0,0,1-3.43,1.19c-.63.05-1.15,0-1.71,0H141l-13.21.06-13.22.06H112.9a10.1,10.1,0,0,1-1.78-.09,7.27,7.27,0,0,1-3.42-1.43,7.54,7.54,0,0,1-2.34-2.88,8.09,8.09,0,0,1-.7-3.6,7.54,7.54,0,0,1,3.43-6.37,7.5,7.5,0,0,1,3.54-1.21c.66,0,1.17,0,1.73,0H115l13.22.08,13.21.12a33.56,33.56,0,0,1,3.41.1,7.24,7.24,0,0,1,3.33,1.42,7.35,7.35,0,0,1,2.26,2.83A7.89,7.89,0,0,1,151.1,237.66Zm-1.4,0a6,6,0,0,0-2.38-5.19,5.84,5.84,0,0,0-2.69-1.13,30,30,0,0,0-3.19-.06l-13.21.12-13.22.08h-1.65c-.54,0-1.14,0-1.58,0a5.68,5.68,0,0,0-2.64.91,5.89,5.89,0,0,0-1.92,2,6,6,0,0,0-.7,2.72,6.88,6.88,0,0,0,.09,1.48A5.36,5.36,0,0,0,107,240a5.73,5.73,0,0,0,4.35,3.32c.88.13,2.1.06,3.17.09l13.22.06,13.21.06h1.65c.55,0,1.13,0,1.59,0a5.94,5.94,0,0,0,5.48-5.9Z"/><rect class="cls-5" x="108.35" y="15.13" width="39.3" height="7.23"/><path class="cls-2" d="M147.65,22.36l-9.59.35-9.79.3c-3.3.08-6.6.18-9.93.21s-6.66.11-10,.11a1,1,0,0,1-1-1l0-7.23a1,1,0,0,1,1-1h0q9.83,0,19.65.15l9.82.21c3.28.08,6.55.18,9.83.32h0a.3.3,0,0,1,.29.32h0Zm0,0-.32-7.23.32.32c-3.28.14-6.55.24-9.83.32L128,16q-9.82.15-19.65.15l1-1,0,7.23-1-1c3.22,0,6.43.06,9.66.11s6.47.13,9.72.21l9.86.3Z"/><polygon class="cls-8" points="111.46 17.79 147.65 17.79 147.65 15.13 108.35 15.13 108.35 22.36 111.46 22.36 111.46 17.79"/><path class="cls-9" d="M176.42,6.33H81.64A14.49,14.49,0,0,0,67.16,20.81v10H188.83V18.74A12.41,12.41,0,0,0,176.42,6.33Zm-28.77,16h-39.3V15.13h39.3Z"/><polygon class="cls-7" points="196.58 100.94 188.83 96.54 188.83 129.06 196.58 124.66 196.58 100.94"/><path class="cls-2" d="M196.32,101.09l-7.69-4.19.62-.36,0,32.52-.65-.38,7.72-4.44-.25.42Zm.52-.3.22,23.87a.47.47,0,0,1-.24.42l-7.77,4.36a.44.44,0,0,1-.6-.17.39.39,0,0,1-.06-.21l0-32.52h0a.41.41,0,0,1,.41-.41.39.39,0,0,1,.21.06Z"/><polygon class="cls-7" points="196.58 51.67 188.83 47.27 188.83 79.79 196.58 75.39 196.58 51.67"/><path class="cls-2" d="M196.27,51.85l-7.66-4.19.66-.39.09,32.52-.79-.45,7.67-4.54-.34.59Zm.61-.35.38,23.89a.66.66,0,0,1-.35.59l-7.82,4.27h0a.54.54,0,0,1-.71-.21.58.58,0,0,1-.06-.26l.08-32.52h0a.44.44,0,0,1,.44-.44.4.4,0,0,1,.22.06Z"/><polygon class="cls-7" points="59.42 99.27 67.17 103.67 67.17 71.15 59.42 75.55 59.42 99.27"/><path class="cls-2" d="M59.86,99c2.53,1.4,5,2.81,7.54,4.25l-.7.41-.4-32.52,1.3.76-7.77,4.35.41-.71Zm-.88.51-.38-24a.82.82,0,0,1,.4-.71h0l7.72-4.44h0a.87.87,0,0,1,1.3.76l-.4,32.52a.47.47,0,0,1-.47.47.52.52,0,0,1-.23-.06Q63,101.83,59,99.52Z"/><path class="cls-2" d="M117.14,236.43c3.62.06,7.24.14,10.85.27,1.81.05,3.62.14,5.43.21l2.72.11,1.36,0,.67,0,.34,0h.17c.06,0,.12,0,.17.31s-.11.31-.17.31h-.17l-.34,0-.67,0-1.36.05-2.72.11c-1.81.07-3.62.16-5.43.21-3.61.13-7.23.21-10.85.27a1,1,0,1,1,0-2Z"/><path class="cls-6" d="M176.42,6.33H81.64A14.49,14.49,0,0,0,67.16,20.81v10H188.83V18.74A12.41,12.41,0,0,0,176.42,6.33Zm-28.77,16h-39.3V15.13h39.3Z"/><path class="cls-2" d="M176.42,6.33l-31.88.13c-10.63,0-21.25.2-31.88.3l-15.94.17-8,.08-4,0-2,0c-.67,0-1.34,0-2,.06a13.79,13.79,0,0,0-11.66,8.25,14,14,0,0,0-1,3.59,16.62,16.62,0,0,0-.13,1.87v2l0,8-.94-.95,15.21,0,15.21.06c10.14.05,20.28.05,30.41.19l30.42.32c10.14.1,20.28.26,30.42.29l-.13.13,0-7.89c0-2.62.27-5.29-.51-7.82a12.44,12.44,0,0,0-11.8-8.77Zm0,0a12.49,12.49,0,0,1,11.92,8.74c.82,2.55.51,5.24.59,7.85l0,7.89a.13.13,0,0,1-.13.13h0c-10.14,0-20.28.19-30.42.29L128,31.55c-10.13.14-20.27.14-30.41.19l-15.21.06-15.21,0h0a1,1,0,0,1-.94-1h0l0-8v-2a16.65,16.65,0,0,1,.16-2.11,15.27,15.27,0,0,1,1.14-4.06,15.28,15.28,0,0,1,5.31-6.42,15.07,15.07,0,0,1,7.87-2.65c.71,0,1.38,0,2,0l2,0,4,0,8,.08,15.94.17c10.63.1,21.25.26,31.88.3Z"/><path class="cls-2" d="M147.65,22.36l-9.59.35-9.79.3c-3.3.08-6.6.18-9.93.21s-6.66.11-10,.11a1,1,0,0,1-1-1l0-7.23a1,1,0,0,1,1-1h0q9.83,0,19.65.15l9.82.21c3.28.08,6.55.18,9.83.32h0a.3.3,0,0,1,.29.32h0Zm0,0-.32-7.23.32.32c-3.28.14-6.55.24-9.83.32L128,16q-9.82.15-19.65.15l1-1,0,7.23-1-1c3.22,0,6.43.06,9.66.11s6.47.13,9.72.21l9.86.3Z"/><path class="cls-7" d="M176.42,6.33H81.64A14.49,14.49,0,0,0,67.16,20.81v10H188.83V18.74A12.41,12.41,0,0,0,176.42,6.33Zm-28.77,16h-39.3V15.13h39.3Z"/><path class="cls-2" d="M176.42,6.33l-31.88.13c-10.63,0-21.25.2-31.88.3l-15.94.17-8,.08-4,0-2,0c-.67,0-1.34,0-2,.06a13.79,13.79,0,0,0-11.66,8.25,14,14,0,0,0-1,3.59,16.62,16.62,0,0,0-.13,1.87v2l0,8-.94-.95,15.21,0,15.21.06c10.14.05,20.28.05,30.41.19l30.42.32c10.14.1,20.28.26,30.42.29l-.13.13,0-7.89c0-2.62.27-5.29-.51-7.82a12.44,12.44,0,0,0-11.8-8.77Zm0,0a12.49,12.49,0,0,1,11.92,8.74c.82,2.55.51,5.24.59,7.85l0,7.89a.13.13,0,0,1-.13.13h0c-10.14,0-20.28.19-30.42.29L128,31.55c-10.13.14-20.27.14-30.41.19l-15.21.06-15.21,0h0a1,1,0,0,1-.94-1h0l0-8v-2a16.65,16.65,0,0,1,.16-2.11,15.27,15.27,0,0,1,1.14-4.06,15.28,15.28,0,0,1,5.31-6.42,15.07,15.07,0,0,1,7.87-2.65c.71,0,1.38,0,2,0l2,0,4,0,8,.08,15.94.17c10.63.1,21.25.26,31.88.3Z"/><path class="cls-2" d="M147.65,22.36l-9.59.35-9.79.3c-3.3.08-6.6.18-9.93.21s-6.66.11-10,.11a1,1,0,0,1-1-1l0-7.23a1,1,0,0,1,1-1h0q9.83,0,19.65.15l9.82.21c3.28.08,6.55.18,9.83.32h0a.3.3,0,0,1,.29.32h0Zm0,0-.32-7.23.32.32c-3.28.14-6.55.24-9.83.32L128,16q-9.82.15-19.65.15l1-1,0,7.23-1-1c3.22,0,6.43.06,9.66.11s6.47.13,9.72.21l9.86.3Z"/><rect class="cls-5" x="67.16" y="30.81" width="121.67" height="194.39"/><path class="cls-2" d="M189.32,30.32l.38,194.87a.87.87,0,0,1-.86.87h0l-121.66-.31a.56.56,0,0,1-.56-.56L66.19,30.81a1,1,0,0,1,1-1h0Zm-1,1-121.17.48,1-1-.42,194.38-.55-.55,121.66-.31-.87.86Z"/><path class="cls-8" d="M149.71,234.27a6.58,6.58,0,0,1,.69,2.93v.46a6.67,6.67,0,0,1-6.67,6.66H112.26a6.59,6.59,0,0,1-2.94-.69,6.66,6.66,0,0,0,6,3.73h31.47a6.67,6.67,0,0,0,6.67-6.66v-.46A6.65,6.65,0,0,0,149.71,234.27Z"/><path class="cls-2" d="M88.66,81.22l.73,99.21a1,1,0,1,1-2,0v0l.73-99.21a.27.27,0,0,1,.54,0Z"/><polygon class="cls-2" points="82.03 93.04 83.91 93.72 88.39 81.42 92.87 93.72 94.75 93.04 88.39 75.57 82.03 93.04"/><path class="cls-2" d="M172.5,171.63l-94.65.72a1,1,0,0,1-1-1,1,1,0,0,1,1-1h0l94.65.73a.28.28,0,0,1,.27.28A.28.28,0,0,1,172.5,171.63Z"/><polygon class="cls-2" points="160.68 164.99 159.99 166.87 172.3 171.35 159.99 175.84 160.68 177.71 178.15 171.35 160.68 164.99"/><rect class="cls-10" x="95.85" y="140.6" width="13.95" height="24.18"/><path class="cls-2" d="M109.35,141.05l-6.67-.09c-2.26,0-4.54-.07-6.83-.06l.3-.3c0,2,0,4,0,6l.08,6.05c0,4,.18,8.06.26,12.09l-.64-.64,7-.18c2.32-.07,4.65-.07,7-.11l-.93.93c0-2-.06-3.91-.05-5.86l.08-5.85c0-1.95.12-3.95.18-5.93S109.25,143.12,109.35,141.05Zm.91-.91c.1,2,.2,4,.27,6s.15,4.08.18,6.16l.07,6.24c0,2.08,0,4.16,0,6.23v0a.9.9,0,0,1-.92.9h0c-2.32,0-4.65,0-7-.11l-7-.18h0a.62.62,0,0,1-.61-.64c.09-4,.23-8.06.26-12.09l.08-6.05c0-2,0-4,0-6a.29.29,0,0,1,.3-.3h0c2.36,0,4.73,0,7.13-.06Z"/><rect class="cls-7" x="95.85" y="140.6" width="13.95" height="24.18"/><path class="cls-2" d="M109.35,141.05l-6.67-.09c-2.26,0-4.54-.07-6.83-.06l.3-.3c0,2,0,4,0,6l.08,6.05c0,4,.18,8.06.26,12.09l-.64-.64,7-.18c2.32-.07,4.65-.07,7-.11l-.93.93c0-2-.06-3.91-.05-5.86l.08-5.85c0-1.95.12-3.95.18-5.93S109.25,143.12,109.35,141.05Zm.91-.91c.1,2,.2,4,.27,6s.15,4.08.18,6.16l.07,6.24c0,2.08,0,4.16,0,6.23v0a.9.9,0,0,1-.92.9h0c-2.32,0-4.65,0-7-.11l-7-.18h0a.62.62,0,0,1-.61-.64c.09-4,.23-8.06.26-12.09l.08-6.05c0-2,0-4,0-6a.29.29,0,0,1,.3-.3h0c2.36,0,4.73,0,7.13-.06Z"/><rect class="cls-11" x="119.46" y="129" width="13.95" height="35.78"/><path class="cls-2" d="M133,129.46l-13.49-.14.31-.32,0,8.95c0,3,0,6,.06,8.94s0,6,.12,9l.17,8.94-.64-.64c4.65-.08,9.3-.2,14-.25l-.89.89-.07-8.76c0-2.91,0-5.83.05-8.75s.09-5.86.17-8.82S132.84,132.5,133,129.46Zm.91-.91c.11,2.92.22,5.89.29,8.9s.15,6,.17,9.07.08,6.08.05,9.13l-.07,9.13v0a.89.89,0,0,1-.89.87h0c-4.65,0-9.3-.17-14-.25h0a.63.63,0,0,1-.62-.64h0l.17-8.94c.07-3,.08-6,.12-9s.09-6,.07-8.94l0-8.95a.32.32,0,0,1,.32-.31Z"/><rect class="cls-7" x="119.46" y="129" width="13.95" height="35.78"/><path class="cls-2" d="M133,129.46l-13.49-.14.31-.32,0,8.95c0,3,0,6,.06,8.94s0,6,.12,9l.17,8.94-.64-.64c4.65-.08,9.3-.2,14-.25l-.89.89-.07-8.76c0-2.91,0-5.83.05-8.75s.09-5.86.17-8.82S132.84,132.5,133,129.46Zm.91-.91c.11,2.92.22,5.89.29,8.9s.15,6,.17,9.07.08,6.08.05,9.13l-.07,9.13v0a.89.89,0,0,1-.89.87h0c-4.65,0-9.3-.17-14-.25h0a.63.63,0,0,1-.62-.64h0l.17-8.94c.07-3,.08-6,.12-9s.09-6,.07-8.94l0-8.95a.32.32,0,0,1,.32-.31Z"/><rect class="cls-12" x="143.06" y="115.95" width="13.95" height="48.83"/><path class="cls-2" d="M156.56,116.4l-6.7,0-6.8-.06.36-.36c-.07,4.07,0,8.14-.06,12.21s0,8.14,0,12.2l.12,12.21.18,12.21-.64-.64,13.95-.21-.85.85-.09-12c0-4,0-8,0-12s.07-8,.17-12.08S156.44,120.54,156.56,116.4Zm.91-.91q.18,6,.29,12.16t.17,12.34c0,4.12.06,8.26,0,12.4l-.08,12.39v0a.85.85,0,0,1-.85.83h0l-13.95-.21h0a.62.62,0,0,1-.62-.64l.18-12.21.12-12.21c0-4.06.07-8.13.05-12.2s0-8.14-.07-12.21a.35.35,0,0,1,.35-.36h0l7.15-.07Z"/><rect class="cls-7" x="143.06" y="115.95" width="13.95" height="48.83"/><path class="cls-2" d="M156.56,116.4l-6.7,0-6.8-.06.36-.36c-.07,4.07,0,8.14-.06,12.21s0,8.14,0,12.2l.12,12.21.18,12.21-.64-.64,13.95-.21-.85.85-.09-12c0-4,0-8,0-12s.07-8,.17-12.08S156.44,120.54,156.56,116.4Zm.91-.91q.18,6,.29,12.16t.17,12.34c0,4.12.06,8.26,0,12.4l-.08,12.39v0a.85.85,0,0,1-.85.83h0l-13.95-.21h0a.62.62,0,0,1-.62-.64l.18-12.21.12-12.21c0-4.06.07-8.13.05-12.2s0-8.14-.07-12.21a.35.35,0,0,1,.35-.36h0l7.15-.07Z"/><path class="cls-2" d="M94.84,128.79a155.39,155.39,0,0,0,24.51-13.35,143.19,143.19,0,0,0,21.51-17.68.85.85,0,0,1,1.2,0,.84.84,0,0,1,0,1.19h0a144.1,144.1,0,0,1-22.1,17.37A155.91,155.91,0,0,1,95,129.21a.23.23,0,1,1-.18-.42Z"/><polygon class="cls-2" points="146.62 107.24 151.2 87.83 132.1 93.56 146.62 107.24"/></svg>