<svg id="Layer_1" data-name="Layer 1" xmlns="http://www.w3.org/2000/svg" xmlns:xlink="http://www.w3.org/1999/xlink" viewBox="0 0 256 256"><defs><style>.cls-1{fill:none;}.cls-2,.cls-8{fill:#253759;}.cls-3{clip-path:url(#clip-path);}.cls-4{clip-path:url(#clip-path-2);}.cls-5{fill:#fff;}.cls-6{fill:#a6d5fe;}.cls-7{fill:url(#New_Pattern_Swatch_1);}.cls-8,.cls-9{opacity:0.3;}</style><clipPath id="clip-path"><rect class="cls-1" x="42.85" width="43" height="43"/></clipPath><clipPath id="clip-path-2"><rect class="cls-1" x="-0.05" width="43" height="43"/></clipPath><pattern id="New_Pattern_Swatch_1" data-name="New Pattern Swatch 1" width="42.9" height="43" patternTransform="translate(0 575.63)" patternUnits="userSpaceOnUse" viewBox="0 0 42.9 43"><rect class="cls-1" width="42.9" height="43"/><circle class="cls-2" cx="42.91" cy="1.85" r="0.57"/><circle class="cls-2" cx="42.91" cy="5.42" r="0.57"/><circle class="cls-2" cx="42.91" cy="8.99" r="0.57"/><circle class="cls-2" cx="42.91" cy="12.57" r="0.57"/><circle class="cls-2" cx="42.91" cy="16.14" r="0.57"/><circle class="cls-2" cx="42.91" cy="19.71" r="0.57"/><circle class="cls-2" cx="42.91" cy="23.29" r="0.57"/><circle class="cls-2" cx="42.91" cy="26.86" r="0.57"/><circle class="cls-2" cx="42.91" cy="30.43" r="0.57"/><circle class="cls-2" cx="42.91" cy="34.01" r="0.57"/><circle class="cls-2" cx="42.91" cy="37.58" r="0.57"/><circle class="cls-2" cx="42.91" cy="41.15" r="0.57"/><circle class="cls-2" cx="42.89" cy="1.85" r="0.57"/><circle class="cls-2" cx="42.89" cy="5.42" r="0.57"/><circle class="cls-2" cx="42.89" cy="8.99" r="0.57"/><circle class="cls-2" cx="42.89" cy="12.57" r="0.57"/><circle class="cls-2" cx="42.89" cy="16.14" r="0.57"/><circle class="cls-2" cx="42.89" cy="19.71" r="0.57"/><circle class="cls-2" cx="42.89" cy="23.29" r="0.57"/><circle class="cls-2" cx="42.89" cy="26.86" r="0.57"/><circle class="cls-2" cx="42.89" cy="30.43" r="0.57"/><circle class="cls-2" cx="42.89" cy="34.01" r="0.57"/><circle class="cls-2" cx="42.89" cy="37.58" r="0.57"/><circle class="cls-2" cx="42.89" cy="41.15" r="0.57"/><g class="cls-3"><circle class="cls-2" cx="42.81" cy="1.85" r="0.57"/><circle class="cls-2" cx="42.81" cy="5.42" r="0.57"/><circle class="cls-2" cx="42.81" cy="8.99" r="0.57"/><circle class="cls-2" cx="42.81" cy="12.57" r="0.57"/><circle class="cls-2" cx="42.81" cy="16.14" r="0.57"/><circle class="cls-2" cx="42.81" cy="19.71" r="0.57"/><circle class="cls-2" cx="42.81" cy="23.29" r="0.57"/><circle class="cls-2" cx="42.81" cy="26.86" r="0.57"/><circle class="cls-2" cx="42.81" cy="30.43" r="0.57"/><circle class="cls-2" cx="42.81" cy="34.01" r="0.57"/><circle class="cls-2" cx="42.81" cy="37.58" r="0.57"/><circle class="cls-2" cx="42.81" cy="41.15" r="0.57"/><circle class="cls-2" cx="42.79" cy="1.85" r="0.57"/><circle class="cls-2" cx="42.79" cy="5.42" r="0.57"/><circle class="cls-2" cx="42.79" cy="8.99" r="0.57"/><circle class="cls-2" cx="42.79" cy="12.57" r="0.57"/><circle class="cls-2" cx="42.79" cy="16.14" r="0.57"/><circle class="cls-2" cx="42.79" cy="19.71" r="0.57"/><circle class="cls-2" cx="42.79" cy="23.29" r="0.57"/><circle class="cls-2" cx="42.79" cy="26.86" r="0.57"/><circle class="cls-2" cx="42.79" cy="30.43" r="0.57"/><circle class="cls-2" cx="42.79" cy="34.01" r="0.57"/><circle class="cls-2" cx="42.79" cy="37.58" r="0.57"/><circle class="cls-2" cx="42.79" cy="41.15" r="0.57"/></g><circle class="cls-2" cx="42.91" cy="1.85" r="0.57"/><circle class="cls-2" cx="42.91" cy="5.42" r="0.57"/><circle class="cls-2" cx="42.91" cy="8.99" r="0.57"/><circle class="cls-2" cx="42.91" cy="12.57" r="0.57"/><circle class="cls-2" cx="42.91" cy="16.14" r="0.57"/><circle class="cls-2" cx="42.91" cy="19.71" r="0.57"/><circle class="cls-2" cx="42.91" cy="23.29" r="0.57"/><circle class="cls-2" cx="42.91" cy="26.86" r="0.57"/><circle class="cls-2" cx="42.91" cy="30.43" r="0.57"/><circle class="cls-2" cx="42.91" cy="34.01" r="0.57"/><circle class="cls-2" cx="42.91" cy="37.58" r="0.57"/><circle class="cls-2" cx="42.91" cy="41.15" r="0.57"/><circle class="cls-2" cx="0.01" cy="1.85" r="0.57"/><circle class="cls-2" cx="3.59" cy="1.85" r="0.57"/><circle class="cls-2" cx="7.16" cy="1.85" r="0.57"/><circle class="cls-2" cx="10.73" cy="1.85" r="0.57"/><circle class="cls-2" cx="0.01" cy="5.42" r="0.57"/><circle class="cls-2" cx="3.59" cy="5.42" r="0.57"/><circle class="cls-2" cx="7.16" cy="5.42" r="0.57"/><circle class="cls-2" cx="10.73" cy="5.42" r="0.57"/><circle class="cls-2" cx="0.01" cy="8.99" r="0.57"/><circle class="cls-2" cx="3.59" cy="8.99" r="0.57"/><circle class="cls-2" cx="7.16" cy="8.99" r="0.57"/><circle class="cls-2" cx="10.73" cy="8.99" r="0.57"/><circle class="cls-2" cx="0.01" cy="12.57" r="0.57"/><circle class="cls-2" cx="3.59" cy="12.57" r="0.57"/><circle class="cls-2" cx="7.16" cy="12.57" r="0.57"/><circle class="cls-2" cx="10.73" cy="12.57" r="0.57"/><circle class="cls-2" cx="0.01" cy="16.14" r="0.57"/><circle class="cls-2" cx="3.59" cy="16.14" r="0.57"/><circle class="cls-2" cx="7.16" cy="16.14" r="0.57"/><circle class="cls-2" cx="10.73" cy="16.14" r="0.57"/><circle class="cls-2" cx="0.01" cy="19.71" r="0.57"/><circle class="cls-2" cx="3.59" cy="19.71" r="0.57"/><circle class="cls-2" cx="7.16" cy="19.71" r="0.57"/><circle class="cls-2" cx="10.73" cy="19.71" r="0.57"/><circle class="cls-2" cx="14.3" cy="1.85" r="0.57"/><circle class="cls-2" cx="17.88" cy="1.85" r="0.57"/><circle class="cls-2" cx="21.45" cy="1.85" r="0.57"/><circle class="cls-2" cx="25.02" cy="1.85" r="0.57"/><circle class="cls-2" cx="28.6" cy="1.85" r="0.57"/><circle class="cls-2" cx="14.3" cy="5.42" r="0.57"/><circle class="cls-2" cx="17.88" cy="5.42" r="0.57"/><circle class="cls-2" cx="21.45" cy="5.42" r="0.57"/><circle class="cls-2" cx="25.02" cy="5.42" r="0.57"/><circle class="cls-2" cx="28.6" cy="5.42" r="0.57"/><circle class="cls-2" cx="14.3" cy="8.99" r="0.57"/><circle class="cls-2" cx="17.88" cy="8.99" r="0.57"/><circle class="cls-2" cx="21.45" cy="8.99" r="0.57"/><circle class="cls-2" cx="25.02" cy="8.99" r="0.57"/><circle class="cls-2" cx="28.6" cy="8.99" r="0.57"/><circle class="cls-2" cx="14.3" cy="12.57" r="0.57"/><circle class="cls-2" cx="17.88" cy="12.57" r="0.57"/><circle class="cls-2" cx="21.45" cy="12.57" r="0.57"/><circle class="cls-2" cx="25.02" cy="12.57" r="0.57"/><circle class="cls-2" cx="28.6" cy="12.57" r="0.57"/><circle class="cls-2" cx="14.3" cy="16.14" r="0.57"/><circle class="cls-2" cx="17.88" cy="16.14" r="0.57"/><circle class="cls-2" cx="21.45" cy="16.14" r="0.57"/><circle class="cls-2" cx="25.02" cy="16.14" r="0.57"/><circle class="cls-2" cx="28.6" cy="16.14" r="0.57"/><circle class="cls-2" cx="14.3" cy="19.71" r="0.57"/><circle class="cls-2" cx="17.88" cy="19.71" r="0.57"/><circle class="cls-2" cx="21.45" cy="19.71" r="0.57"/><circle class="cls-2" cx="25.02" cy="19.71" r="0.57"/><circle class="cls-2" cx="28.6" cy="19.71" r="0.57"/><circle class="cls-2" cx="32.17" cy="1.85" r="0.57"/><circle class="cls-2" cx="35.74" cy="1.85" r="0.57"/><circle class="cls-2" cx="39.31" cy="1.85" r="0.57"/><circle class="cls-2" cx="42.89" cy="1.85" r="0.57"/><circle class="cls-2" cx="32.17" cy="5.42" r="0.57"/><circle class="cls-2" cx="35.74" cy="5.42" r="0.57"/><circle class="cls-2" cx="39.31" cy="5.42" r="0.57"/><circle class="cls-2" cx="42.89" cy="5.42" r="0.57"/><circle class="cls-2" cx="32.17" cy="8.99" r="0.57"/><circle class="cls-2" cx="35.74" cy="8.99" r="0.57"/><circle class="cls-2" cx="39.31" cy="8.99" r="0.57"/><circle class="cls-2" cx="42.89" cy="8.99" r="0.57"/><circle class="cls-2" cx="32.17" cy="12.57" r="0.57"/><circle class="cls-2" cx="35.74" cy="12.57" r="0.57"/><circle class="cls-2" cx="39.31" cy="12.57" r="0.57"/><circle class="cls-2" cx="42.89" cy="12.57" r="0.57"/><circle class="cls-2" cx="32.17" cy="16.14" r="0.57"/><circle class="cls-2" cx="35.74" cy="16.14" r="0.57"/><circle class="cls-2" cx="39.31" cy="16.14" r="0.57"/><circle class="cls-2" cx="42.89" cy="16.14" r="0.57"/><circle class="cls-2" cx="32.17" cy="19.71" r="0.57"/><circle class="cls-2" cx="35.74" cy="19.71" r="0.57"/><circle class="cls-2" cx="39.31" cy="19.71" r="0.57"/><circle class="cls-2" cx="42.89" cy="19.71" r="0.57"/><circle class="cls-2" cx="0.01" cy="23.29" r="0.57"/><circle class="cls-2" cx="3.59" cy="23.29" r="0.57"/><circle class="cls-2" cx="7.16" cy="23.29" r="0.57"/><circle class="cls-2" cx="10.73" cy="23.29" r="0.57"/><circle class="cls-2" cx="0.01" cy="26.86" r="0.57"/><circle class="cls-2" cx="3.59" cy="26.86" r="0.57"/><circle class="cls-2" cx="7.16" cy="26.86" r="0.57"/><circle class="cls-2" cx="10.73" cy="26.86" r="0.57"/><circle class="cls-2" cx="0.01" cy="30.43" r="0.57"/><circle class="cls-2" cx="3.59" cy="30.43" r="0.57"/><circle class="cls-2" cx="7.16" cy="30.43" r="0.57"/><circle class="cls-2" cx="10.73" cy="30.43" r="0.57"/><circle class="cls-2" cx="0.01" cy="34.01" r="0.57"/><circle class="cls-2" cx="3.59" cy="34.01" r="0.57"/><circle class="cls-2" cx="7.16" cy="34.01" r="0.57"/><circle class="cls-2" cx="10.73" cy="34.01" r="0.57"/><circle class="cls-2" cx="0.01" cy="37.58" r="0.57"/><circle class="cls-2" cx="3.59" cy="37.58" r="0.57"/><circle class="cls-2" cx="7.16" cy="37.58" r="0.57"/><circle class="cls-2" cx="10.73" cy="37.58" r="0.57"/><circle class="cls-2" cx="0.01" cy="41.15" r="0.57"/><circle class="cls-2" cx="3.59" cy="41.15" r="0.57"/><circle class="cls-2" cx="7.16" cy="41.15" r="0.57"/><circle class="cls-2" cx="10.73" cy="41.15" r="0.57"/><circle class="cls-2" cx="14.3" cy="23.29" r="0.57"/><circle class="cls-2" cx="17.88" cy="23.29" r="0.57"/><circle class="cls-2" cx="21.45" cy="23.29" r="0.57"/><circle class="cls-2" cx="25.02" cy="23.29" r="0.57"/><circle class="cls-2" cx="28.6" cy="23.29" r="0.57"/><circle class="cls-2" cx="14.3" cy="26.86" r="0.57"/><circle class="cls-2" cx="17.88" cy="26.86" r="0.57"/><circle class="cls-2" cx="21.45" cy="26.86" r="0.57"/><circle class="cls-2" cx="25.02" cy="26.86" r="0.57"/><circle class="cls-2" cx="28.6" cy="26.86" r="0.57"/><circle class="cls-2" cx="14.3" cy="30.43" r="0.57"/><circle class="cls-2" cx="17.88" cy="30.43" r="0.57"/><circle class="cls-2" cx="21.45" cy="30.43" r="0.57"/><circle class="cls-2" cx="25.02" cy="30.43" r="0.57"/><circle class="cls-2" cx="28.6" cy="30.43" r="0.57"/><circle class="cls-2" cx="14.3" cy="34.01" r="0.57"/><circle class="cls-2" cx="17.88" cy="34.01" r="0.57"/><circle class="cls-2" cx="21.45" cy="34.01" r="0.57"/><circle class="cls-2" cx="25.02" cy="34.01" r="0.57"/><circle class="cls-2" cx="28.6" cy="34.01" r="0.57"/><circle class="cls-2" cx="14.3" cy="37.58" r="0.57"/><circle class="cls-2" cx="17.88" cy="37.58" r="0.57"/><circle class="cls-2" cx="21.45" cy="37.58" r="0.57"/><circle class="cls-2" cx="25.02" cy="37.58" r="0.57"/><circle class="cls-2" cx="28.6" cy="37.58" r="0.57"/><circle class="cls-2" cx="14.3" cy="41.15" r="0.57"/><circle class="cls-2" cx="17.88" cy="41.15" r="0.57"/><circle class="cls-2" cx="21.45" cy="41.15" r="0.57"/><circle class="cls-2" cx="25.02" cy="41.15" r="0.57"/><circle class="cls-2" cx="28.6" cy="41.15" r="0.57"/><circle class="cls-2" cx="32.17" cy="23.29" r="0.57"/><circle class="cls-2" cx="35.74" cy="23.29" r="0.57"/><circle class="cls-2" cx="39.31" cy="23.29" r="0.57"/><circle class="cls-2" cx="42.89" cy="23.29" r="0.57"/><circle class="cls-2" cx="32.17" cy="26.86" r="0.57"/><circle class="cls-2" cx="35.74" cy="26.86" r="0.57"/><circle class="cls-2" cx="39.31" cy="26.86" r="0.57"/><circle class="cls-2" cx="42.89" cy="26.86" r="0.57"/><circle class="cls-2" cx="32.17" cy="30.43" r="0.57"/><circle class="cls-2" cx="35.74" cy="30.43" r="0.57"/><circle class="cls-2" cx="39.31" cy="30.43" r="0.57"/><circle class="cls-2" cx="42.89" cy="30.43" r="0.57"/><circle class="cls-2" cx="32.17" cy="34.01" r="0.57"/><circle class="cls-2" cx="35.74" cy="34.01" r="0.57"/><circle class="cls-2" cx="39.31" cy="34.01" r="0.57"/><circle class="cls-2" cx="42.89" cy="34.01" r="0.57"/><circle class="cls-2" cx="32.17" cy="37.58" r="0.57"/><circle class="cls-2" cx="35.74" cy="37.58" r="0.57"/><circle class="cls-2" cx="39.31" cy="37.58" r="0.57"/><circle class="cls-2" cx="42.89" cy="37.58" r="0.57"/><circle class="cls-2" cx="32.17" cy="41.15" r="0.57"/><circle class="cls-2" cx="35.74" cy="41.15" r="0.57"/><circle class="cls-2" cx="39.31" cy="41.15" r="0.57"/><circle class="cls-2" cx="42.89" cy="41.15" r="0.57"/><circle class="cls-2" cx="-0.01" cy="1.85" r="0.57"/><circle class="cls-2" cx="-0.01" cy="5.42" r="0.57"/><circle class="cls-2" cx="-0.01" cy="8.99" r="0.57"/><circle class="cls-2" cx="-0.01" cy="12.57" r="0.57"/><circle class="cls-2" cx="-0.01" cy="16.14" r="0.57"/><circle class="cls-2" cx="-0.01" cy="19.71" r="0.57"/><circle class="cls-2" cx="-0.01" cy="23.29" r="0.57"/><circle class="cls-2" cx="-0.01" cy="26.86" r="0.57"/><circle class="cls-2" cx="-0.01" cy="30.43" r="0.57"/><circle class="cls-2" cx="-0.01" cy="34.01" r="0.57"/><circle class="cls-2" cx="-0.01" cy="37.58" r="0.57"/><circle class="cls-2" cx="-0.01" cy="41.15" r="0.57"/><g class="cls-4"><circle class="cls-2" cx="-0.09" cy="1.85" r="0.57"/><circle class="cls-2" cx="-0.09" cy="5.42" r="0.57"/><circle class="cls-2" cx="-0.09" cy="8.99" r="0.57"/><circle class="cls-2" cx="-0.09" cy="12.57" r="0.57"/><circle class="cls-2" cx="-0.09" cy="16.14" r="0.57"/><circle class="cls-2" cx="-0.09" cy="19.71" r="0.57"/><circle class="cls-2" cx="-0.09" cy="23.29" r="0.57"/><circle class="cls-2" cx="-0.09" cy="26.86" r="0.57"/><circle class="cls-2" cx="-0.09" cy="30.43" r="0.57"/><circle class="cls-2" cx="-0.09" cy="34.01" r="0.57"/><circle class="cls-2" cx="-0.09" cy="37.58" r="0.57"/><circle class="cls-2" cx="-0.09" cy="41.15" r="0.57"/><circle class="cls-2" cx="-0.11" cy="1.85" r="0.57"/><circle class="cls-2" cx="-0.11" cy="5.42" r="0.57"/><circle class="cls-2" cx="-0.11" cy="8.99" r="0.57"/><circle class="cls-2" cx="-0.11" cy="12.57" r="0.57"/><circle class="cls-2" cx="-0.11" cy="16.14" r="0.57"/><circle class="cls-2" cx="-0.11" cy="19.71" r="0.57"/><circle class="cls-2" cx="-0.11" cy="23.29" r="0.57"/><circle class="cls-2" cx="-0.11" cy="26.86" r="0.57"/><circle class="cls-2" cx="-0.11" cy="30.43" r="0.57"/><circle class="cls-2" cx="-0.11" cy="34.01" r="0.57"/><circle class="cls-2" cx="-0.11" cy="37.58" r="0.57"/><circle class="cls-2" cx="-0.11" cy="41.15" r="0.57"/></g><circle class="cls-2" cx="0.01" cy="1.85" r="0.57"/><circle class="cls-2" cx="0.01" cy="5.42" r="0.57"/><circle class="cls-2" cx="0.01" cy="8.99" r="0.57"/><circle class="cls-2" cx="0.01" cy="12.57" r="0.57"/><circle class="cls-2" cx="0.01" cy="16.14" r="0.57"/><circle class="cls-2" cx="0.01" cy="19.71" r="0.57"/><circle class="cls-2" cx="0.01" cy="23.29" r="0.57"/><circle class="cls-2" cx="0.01" cy="26.86" r="0.57"/><circle class="cls-2" cx="0.01" cy="30.43" r="0.57"/><circle class="cls-2" cx="0.01" cy="34.01" r="0.57"/><circle class="cls-2" cx="0.01" cy="37.58" r="0.57"/><circle class="cls-2" cx="0.01" cy="41.15" r="0.57"/><circle class="cls-2" cx="-0.01" cy="1.85" r="0.57"/><circle class="cls-2" cx="-0.01" cy="5.42" r="0.57"/><circle class="cls-2" cx="-0.01" cy="8.99" r="0.57"/><circle class="cls-2" cx="-0.01" cy="12.57" r="0.57"/><circle class="cls-2" cx="-0.01" cy="16.14" r="0.57"/><circle class="cls-2" cx="-0.01" cy="19.71" r="0.57"/><circle class="cls-2" cx="-0.01" cy="23.29" r="0.57"/><circle class="cls-2" cx="-0.01" cy="26.86" r="0.57"/><circle class="cls-2" cx="-0.01" cy="30.43" r="0.57"/><circle class="cls-2" cx="-0.01" cy="34.01" r="0.57"/><circle class="cls-2" cx="-0.01" cy="37.58" r="0.57"/><circle class="cls-2" cx="-0.01" cy="41.15" r="0.57"/></pattern></defs><title>10-free-finance-icon</title><circle class="cls-5" cx="123.27" cy="123.28" r="101.68"/><path class="cls-6" d="M123.26,14.77a108.51,108.51,0,1,0,32.21,212.15,49.85,49.85,0,0,1-7.61-9.43,97.28,97.28,0,1,1,69.63-69.66,50.14,50.14,0,0,1,9.43,7.62A108.59,108.59,0,0,0,123.26,14.77Z"/><path class="cls-2" d="M123.26,15.41a107.83,107.83,0,0,0-44.93,10A106.17,106.17,0,0,0,58.52,37.31,108.79,108.79,0,0,0,41.73,53.19,107.17,107.17,0,0,0,66.54,213.86c26,16.47,59.09,20.66,88.51,11.73h0l-.57,2.34a51.23,51.23,0,0,1-7.75-9.73l1.45.57a98.06,98.06,0,0,1-31.91,2.69c-2.68-.17-5.33-.55-8-.9s-5.28-.93-7.87-1.6a98,98,0,0,1-62.27-46.89,95.91,95.91,0,0,1-6.79-14.48,101.4,101.4,0,0,1-4.31-15.4,95.25,95.25,0,0,1-1.73-15.88c-.11-2.67,0-5.33.05-8s.35-5.33.74-8a97,97,0,0,1,3.36-15.62,101,101,0,0,1,5.88-14.85A98.1,98.1,0,0,1,79.79,35.36a103.25,103.25,0,0,1,14.85-5.92A97,97,0,0,1,110.27,26c2.64-.4,5.31-.57,8-.77s5.33-.19,8-.07a94.56,94.56,0,0,1,15.91,1.73,101.93,101.93,0,0,1,15.42,4.3,97.17,97.17,0,0,1,14.5,6.8A98.53,98.53,0,0,1,214,85.14a97.59,97.59,0,0,1,4.85,15.28c.27,1.31.63,2.6.83,3.92l.67,4c.33,2.65.67,5.3.8,8a95.49,95.49,0,0,1-3.18,31.67v0l-.2-.48a50.5,50.5,0,0,1,9.76,7.42h0l-1.33.32a107.55,107.55,0,0,0-3.56-74A110.9,110.9,0,0,0,210.11,59.3,108.4,108.4,0,0,0,171.91,27,112,112,0,0,0,160.35,22c-2-.66-4-1.4-6-2s-4-1.2-6.09-1.62A110.31,110.31,0,0,0,123.26,15.41Zm0-1.28a111.25,111.25,0,0,1,25.31,3c2.08.43,4.11,1.08,6.16,1.64s4,1.34,6.07,2a113.37,113.37,0,0,1,11.69,5.12,109.67,109.67,0,0,1,38.65,32.67,112.76,112.76,0,0,1,12.64,22.13,110.84,110.84,0,0,1,7.1,24.47,109.55,109.55,0,0,1-3.2,50.55h0a.79.79,0,0,1-1,.52.85.85,0,0,1-.34-.21l0,0a49.71,49.71,0,0,0-9.07-7.79.44.44,0,0,1-.2-.48v0a98.25,98.25,0,0,0-5-61.78A104,104,0,0,0,204.83,72a91.53,91.53,0,0,0-9.39-12.59A97.08,97.08,0,0,0,157,32.84a100.47,100.47,0,0,0-15.14-4.29,94.33,94.33,0,0,0-15.64-1.76c-2.62-.13-5.25,0-7.87,0s-5.25.34-7.85.72a95.56,95.56,0,0,0-15.4,3.3A96.7,96.7,0,0,0,36.58,80.47a100.27,100.27,0,0,0-5.82,14.64,94.44,94.44,0,0,0-3.32,15.41c-.39,2.6-.55,5.23-.75,7.85s-.18,5.26-.05,7.89a94.72,94.72,0,0,0,1.78,15.66,99.47,99.47,0,0,0,4.3,15.15,97.23,97.23,0,0,0,26.63,38.51,95.86,95.86,0,0,0,88.18,20.64,1.3,1.3,0,0,1,1.44.56h0a48.16,48.16,0,0,0,7.47,9.13,1.39,1.39,0,0,1-.55,2.33h0a110.11,110.11,0,0,1-23.16,4.66,97.3,97.3,0,0,1-11.83.38l-3-.06c-1,0-2-.14-3-.2l-3-.22-2.94-.36A108.19,108.19,0,0,1,64.82,216.6,109.54,109.54,0,0,1,40.27,51.93a111.47,111.47,0,0,1,17.18-16,109.37,109.37,0,0,1,65.81-21.77Z"/><path class="cls-7" d="M123.26,14.77a108.51,108.51,0,1,0,32.21,212.15,49.85,49.85,0,0,1-7.61-9.43,97.28,97.28,0,1,1,69.63-69.66,50.14,50.14,0,0,1,9.43,7.62A108.59,108.59,0,0,0,123.26,14.77Z"/><path class="cls-2" d="M123.26,15.41a107.83,107.83,0,0,0-44.93,10A106.17,106.17,0,0,0,58.52,37.31,108.79,108.79,0,0,0,41.73,53.19,107.17,107.17,0,0,0,66.54,213.86c26,16.47,59.09,20.66,88.51,11.73h0l-.57,2.34a51.23,51.23,0,0,1-7.75-9.73l1.45.57a98.06,98.06,0,0,1-31.91,2.69c-2.68-.17-5.33-.55-8-.9s-5.28-.93-7.87-1.6a98,98,0,0,1-62.27-46.89,95.91,95.91,0,0,1-6.79-14.48,101.4,101.4,0,0,1-4.31-15.4,95.25,95.25,0,0,1-1.73-15.88c-.11-2.67,0-5.33.05-8s.35-5.33.74-8a97,97,0,0,1,3.36-15.62,101,101,0,0,1,5.88-14.85A98.1,98.1,0,0,1,79.79,35.36a103.25,103.25,0,0,1,14.85-5.92A97,97,0,0,1,110.27,26c2.64-.4,5.31-.57,8-.77s5.33-.19,8-.07a94.56,94.56,0,0,1,15.91,1.73,101.93,101.93,0,0,1,15.42,4.3,97.17,97.17,0,0,1,14.5,6.8A98.53,98.53,0,0,1,214,85.14a97.59,97.59,0,0,1,4.85,15.28c.27,1.31.63,2.6.83,3.92l.67,4c.33,2.65.67,5.3.8,8a95.49,95.49,0,0,1-3.18,31.67v0l-.2-.48a50.5,50.5,0,0,1,9.76,7.42h0l-1.33.32a107.55,107.55,0,0,0-3.56-74A110.9,110.9,0,0,0,210.11,59.3,108.4,108.4,0,0,0,171.91,27,112,112,0,0,0,160.35,22c-2-.66-4-1.4-6-2s-4-1.2-6.09-1.62A110.31,110.31,0,0,0,123.26,15.41Zm0-1.28a111.25,111.25,0,0,1,25.31,3c2.08.43,4.11,1.08,6.16,1.64s4,1.34,6.07,2a113.37,113.37,0,0,1,11.69,5.12,109.67,109.67,0,0,1,38.65,32.67,112.76,112.76,0,0,1,12.64,22.13,110.84,110.84,0,0,1,7.1,24.47,109.55,109.55,0,0,1-3.2,50.55h0a.79.79,0,0,1-1,.52.85.85,0,0,1-.34-.21l0,0a49.71,49.71,0,0,0-9.07-7.79.44.44,0,0,1-.2-.48v0a98.25,98.25,0,0,0-5-61.78A104,104,0,0,0,204.83,72a91.53,91.53,0,0,0-9.39-12.59A97.08,97.08,0,0,0,157,32.84a100.47,100.47,0,0,0-15.14-4.29,94.33,94.33,0,0,0-15.64-1.76c-2.62-.13-5.25,0-7.87,0s-5.25.34-7.85.72a95.56,95.56,0,0,0-15.4,3.3A96.7,96.7,0,0,0,36.58,80.47a100.27,100.27,0,0,0-5.82,14.64,94.44,94.44,0,0,0-3.32,15.41c-.39,2.6-.55,5.23-.75,7.85s-.18,5.26-.05,7.89a94.72,94.72,0,0,0,1.78,15.66,99.47,99.47,0,0,0,4.3,15.15,97.23,97.23,0,0,0,26.63,38.51,95.86,95.86,0,0,0,88.18,20.64,1.3,1.3,0,0,1,1.44.56h0a48.16,48.16,0,0,0,7.47,9.13,1.39,1.39,0,0,1-.55,2.33h0a110.11,110.11,0,0,1-23.16,4.66,97.3,97.3,0,0,1-11.83.38l-3-.06c-1,0-2-.14-3-.2l-3-.22-2.94-.36A108.19,108.19,0,0,1,64.82,216.6,109.54,109.54,0,0,1,40.27,51.93a111.47,111.47,0,0,1,17.18-16,109.37,109.37,0,0,1,65.81-21.77Z"/><path class="cls-8" d="M220.62,123.27a97.36,97.36,0,0,0-194.71,0c0,.87,0,1.74,0,2.61a97.35,97.35,0,0,1,194.63-.12C220.6,124.93,220.62,124.1,220.62,123.27Z"/><path class="cls-2" d="M125.17,132.86a9.78,9.78,0,0,1-3.81-19.19,10,10,0,0,1,7.42,1.35,9.48,9.48,0,0,1,2.74,13.77A10,10,0,0,1,125.17,132.86Zm-.26-1.27a8.4,8.4,0,0,0,5.27-3.69,8.83,8.83,0,0,0-2.29-11.55,8.22,8.22,0,0,0-6.27-1.38,8.47,8.47,0,1,0,3.29,16.62Z"/><rect class="cls-5" x="35.95" y="120.33" width="19.92" height="5.9"/><path class="cls-2" d="M35.5,126.68c0-2.18.06-4.31.11-6.35v0A.33.33,0,0,1,36,120h0c6.64.17,13.28,0,19.92-.3a.62.62,0,0,1,.64.59h0v0l.22,5.9a.83.83,0,0,1-.8.85h-.06c-3.42.09-6.9.13-10.34.07S38.69,126.92,35.5,126.68Zm.91-.91c3.44-.23,6.69-.41,9.89-.47s6.35,0,9.57.07l-.86.86.22-5.9.64.64c-6.64-.27-13.28-.47-19.92-.3l.35-.34C36.35,122.22,36.41,124,36.41,125.77Z"/><rect class="cls-5" x="190.7" y="120.33" width="19.92" height="5.9"/><path class="cls-2" d="M190.25,126.68c0-2.18.06-4.31.11-6.35v0a.33.33,0,0,1,.34-.33h0c6.64.17,13.28,0,19.92-.3a.62.62,0,0,1,.64.59h0v0l.22,5.9a.82.82,0,0,1-.8.85h-.06c-3.42.09-6.9.13-10.34.07S193.44,126.92,190.25,126.68Zm.91-.91c3.45-.23,6.69-.41,9.89-.47s6.35,0,9.57.07l-.86.86.22-5.9.64.64c-6.64-.27-13.28-.47-19.92-.3l.35-.34C191.1,122.22,191.16,124,191.16,125.77Z"/><rect class="cls-5" x="120.34" y="35.94" width="5.9" height="19.92"/><path class="cls-2" d="M119.88,35.49c2.18,0,4.31,0,6.36.11h0a.33.33,0,0,1,.32.34h0c-.17,6.64,0,13.28.3,19.92a.62.62,0,0,1-.59.64h-.05l-5.9.22a.83.83,0,0,1-.86-.8h0v0c-.1-3.42-.14-6.9-.07-10.34S119.65,38.68,119.88,35.49Zm.91.91c.23,3.44.41,6.69.48,9.89s0,6.35-.08,9.57l-.85-.86,5.9.22-.65.64c.27-6.64.48-13.28.3-19.92l.35.35C124.35,36.34,122.54,36.4,120.79,36.4Z"/><rect class="cls-5" x="120.34" y="190.69" width="5.9" height="19.92"/><path class="cls-2" d="M119.88,190.24c2.18,0,4.31.06,6.36.11h0a.33.33,0,0,1,.32.34h0c-.17,6.64,0,13.28.3,19.92a.62.62,0,0,1-.59.64h-.05l-5.9.22a.82.82,0,0,1-.86-.8h0v0c-.1-3.42-.14-6.9-.07-10.34S119.65,193.43,119.88,190.24Zm.91.91c.23,3.44.41,6.69.48,9.89s0,6.35-.08,9.57l-.85-.86,5.9.22-.65.64c.27-6.64.48-13.28.3-19.92l.35.35C124.35,191.09,122.54,191.15,120.79,191.15Z"/><rect class="cls-5" x="168.04" y="65.61" width="19.92" height="5.9" transform="translate(3.65 145.95) rotate(-45)"/><path class="cls-2" d="M183,58.79c1.55,1.54,3,3.09,4.42,4.57v0a.32.32,0,0,1,0,.47h0c-4.82,4.57-9.36,9.41-13.87,14.3a.62.62,0,0,1-.87,0h0l0,0-4.33-4a.83.83,0,0,1,0-1.17h0l0,0c2.35-2.48,4.79-5,7.27-7.36S180.53,60.88,183,58.79Zm0,1.29c-2.27,2.6-4.44,5-6.65,7.33s-4.48,4.51-6.82,6.72V72.91l4,4.33h-.91c4.88-4.51,9.72-9.06,14.29-13.88v.49C185.51,62.55,184.19,61.32,183,60.08Z"/><rect class="cls-5" x="58.62" y="175.04" width="19.92" height="5.9" transform="translate(-105.77 100.62) rotate(-45)"/><path class="cls-2" d="M73.53,168.22c1.54,1.54,3,3.09,4.42,4.57h0a.34.34,0,0,1,0,.48h0c-4.82,4.57-9.37,9.41-13.88,14.29a.62.62,0,0,1-.87,0h0l0,0-4.32-4a.82.82,0,0,1,0-1.17h0l0,0c2.35-2.49,4.78-5,7.26-7.37S71.1,170.31,73.53,168.22Zm0,1.28c-2.27,2.61-4.44,5-6.66,7.33s-4.47,4.51-6.82,6.72v-1.21l4,4.32h-.91c4.89-4.51,9.73-9,14.3-13.87v.49C76.08,172,74.76,170.74,73.53,169.5Z"/><rect class="cls-5" x="65.62" y="58.61" width="5.9" height="19.92" transform="translate(-28.4 68.57) rotate(-45)"/><path class="cls-2" d="M78.34,73.52c-1.54,1.54-3.08,3-4.57,4.42h0a.34.34,0,0,1-.48,0h0C68.71,73.12,63.87,68.57,59,64.06a.62.62,0,0,1,0-.87h0l0,0,4-4.32a.82.82,0,0,1,1.17,0h0l0,0c2.48,2.35,5,4.78,7.36,7.26S76.25,71.09,78.34,73.52Zm-1.28,0c-2.6-2.27-5-4.44-7.33-6.66S65.22,62.39,63,60h1.22l-4.33,4v-.91C64.41,68,69,72.88,73.77,77.45h-.49C74.58,76.07,75.82,74.75,77.06,73.52Z"/><path class="cls-6" d="M132.39,123.27a9.11,9.11,0,0,1-7.35,9,8.74,8.74,0,0,1-1.78.18,8.57,8.57,0,0,1-1.77-.18,9.13,9.13,0,1,1,10.41-11.89A8.89,8.89,0,0,1,132.39,123.27Z"/><path class="cls-2" d="M133,123.27a9.55,9.55,0,0,1-3,6.73,10,10,0,0,1-6.73,2.69,9.57,9.57,0,0,1-6.74-2.67,9.77,9.77,0,0,1-.32-13.82,10.07,10.07,0,0,1,7.07-3,9.77,9.77,0,0,1,3.87.78,9.94,9.94,0,0,1,3.21,2.26A10.06,10.06,0,0,1,133,123.27Zm-1.28,0a8.28,8.28,0,0,0-2.67-5.82,8.48,8.48,0,0,0-5.81-2.3,8.14,8.14,0,0,0-5.84,2.28,8.45,8.45,0,0,0-2.65,5.84,8.59,8.59,0,0,0,2.33,6.16,8.87,8.87,0,0,0,6.15,2.69,8.5,8.5,0,0,0,8.49-8.85Z"/><path class="cls-5" d="M125,132.22v30.94h-3.55V132.22a8.57,8.57,0,0,0,1.77.18A8.74,8.74,0,0,0,125,132.22Z"/><path class="cls-2" d="M125.45,131.73c-.07,2.72-.11,5.38-.13,8s0,5.24,0,7.83.07,5.18.11,7.78.1,5.2.18,7.81a.54.54,0,0,1-.52.55h0l-3.55.1a.63.63,0,0,1-.64-.61v0l-.21-7.73-.12-7.74c0-2.57,0-5.15,0-7.73s.09-5.16.18-7.73v-.07a.78.78,0,0,1,.81-.76l.17,0a8.59,8.59,0,0,0,1.6.24c.28,0,.55,0,.83,0l.41,0,.2,0h.11A.9.9,0,0,1,125.45,131.73Zm-.82,1a.43.43,0,0,0,.42.16l-.11,0-.24.06-.47.08a6.23,6.23,0,0,1-1,.09,9.13,9.13,0,0,1-2-.12l1-.79c.09,2.57.16,5.15.18,7.73s0,5.16,0,7.73l-.12,7.74-.21,7.73-.64-.64,3.55.1-.55.54c.08-2.54.15-5.09.18-7.65s.11-5.14.11-7.69,0-5.12,0-7.64S124.7,135.16,124.63,132.72Z"/><path class="cls-7" d="M132.39,123.27a9.11,9.11,0,0,1-7.35,9,8.74,8.74,0,0,1-1.78.18,8.57,8.57,0,0,1-1.77-.18,9.13,9.13,0,1,1,10.41-11.89A8.89,8.89,0,0,1,132.39,123.27Z"/><path class="cls-2" d="M133,123.27a9.55,9.55,0,0,1-3,6.73,10,10,0,0,1-6.73,2.69,9.57,9.57,0,0,1-6.74-2.67,9.77,9.77,0,0,1-.32-13.82,10.07,10.07,0,0,1,7.07-3,9.77,9.77,0,0,1,3.87.78,9.94,9.94,0,0,1,3.21,2.26A10.06,10.06,0,0,1,133,123.27Zm-1.28,0a8.28,8.28,0,0,0-2.67-5.82,8.48,8.48,0,0,0-5.81-2.3,8.14,8.14,0,0,0-5.84,2.28,8.45,8.45,0,0,0-2.65,5.84,8.59,8.59,0,0,0,2.33,6.16,8.87,8.87,0,0,0,6.15,2.69,8.5,8.5,0,0,0,8.49-8.85Z"/><path class="cls-8" d="M123.26,132.4a8.57,8.57,0,0,1-1.77-.18v2.61a8.57,8.57,0,0,0,1.77.18,8.74,8.74,0,0,0,1.78-.18v-2.61A8.74,8.74,0,0,1,123.26,132.4Z"/><path class="cls-5" d="M162.17,84.48,131.9,120.33a9.2,9.2,0,0,0-5.52-5.65Z"/><path class="cls-2" d="M162.62,84l-15.3,18.37-7.5,9.12-7.49,9.18a.56.56,0,0,1-.79.08.51.51,0,0,1-.17-.24v0a8.53,8.53,0,0,0-5.23-5.15.71.71,0,0,1-.44-.9.69.69,0,0,1,.2-.3l0,0c3-2.61,6-5.26,9.07-7.84s6.19-5.21,9.33-7.71l9.33-7.39C156.71,88.78,159.72,86.39,162.62,84Zm-.91.91c-3.05,2.67-6,5.31-8.91,7.93l-8.57,7.72c-2.82,2.53-5.67,4.94-8.56,7.39s-5.84,4.84-8.83,7.26l-.21-1.22a9.86,9.86,0,0,1,5.81,6.13l-1-.18,7.64-8.74,7.63-8.81Z"/><path class="cls-5" d="M226.92,155.45A50.53,50.53,0,1,0,187.1,241.1c1.19.1,2.39.13,3.6.13h.07a50.53,50.53,0,0,0,36.15-85.78ZM190.7,234.14a43.44,43.44,0,1,1,24.64-79.21,44.23,44.23,0,0,1,8.9,8.16,43.43,43.43,0,0,1-33.54,71Z"/><path class="cls-2" d="M226.46,155.89a49.81,49.81,0,0,0-16-11.09,49.2,49.2,0,0,0-19.06-4,50.73,50.73,0,0,0-19.1,3.66,50,50,0,0,0-16.2,10.65,49.07,49.07,0,1,0,68.44,70.33A49.54,49.54,0,0,0,235.64,210a49.33,49.33,0,0,0,1.21-37.71A50.09,50.09,0,0,0,226.46,155.89Zm.92-.89a52,52,0,0,1,15,36.39,51.67,51.67,0,0,1-15.08,36.94A52.46,52.46,0,0,1,190,242.93,51.88,51.88,0,0,1,139.07,190a51.15,51.15,0,0,1,4.31-19.66,52.81,52.81,0,0,1,11.49-16.47,51.6,51.6,0,0,1,16.86-10.81,52.33,52.33,0,0,1,19.67-3.54,51.93,51.93,0,0,1,36,15.48Z"/><path class="cls-2" d="M190.7,234.78a44.82,44.82,0,0,1-31.15-12.93,44.1,44.1,0,0,1-13.17-31.15,45.91,45.91,0,0,1,3.29-17,44.72,44.72,0,0,1,58.26-24.58,45.18,45.18,0,0,1,28.23,41.57,45,45,0,0,1-13.89,31.57A45.22,45.22,0,0,1,190.7,234.78Zm0-1.29a41.75,41.75,0,0,0,29.85-13,44,44,0,0,0,8.57-45.76,41.88,41.88,0,0,0-38.41-26.1A42.37,42.37,0,0,0,151.27,207a42.14,42.14,0,0,0,39.43,26.46Z"/><path class="cls-6" d="M224.24,163.09a44.23,44.23,0,0,0-8.9-8.16,43.41,43.41,0,1,0,8.9,8.16ZM193,215.53V224H187.9v-8.12c-4.7-.08-9.49-1.54-12.34-3.57l1.95-5.44a21.82,21.82,0,0,0,11.61,3.49c5.77,0,9.66-3.33,9.66-8,0-4.46-3.16-7.22-9.17-9.66-8.28-3.24-13.4-7.06-13.4-14.12,0-6.74,4.79-11.85,12.18-13.07v-8.12h5.12v7.88a22.23,22.23,0,0,1,10.55,2.84l-2,5.36a19.42,19.42,0,0,0-10.23-2.85c-6.25,0-8.6,3.74-8.6,7.07,0,4.14,3,6.25,10.06,9.25,8.36,3.41,12.58,7.55,12.58,14.77C205.84,208.23,201.38,214.24,193,215.53Z"/><path class="cls-2" d="M223.74,163.5a43.58,43.58,0,0,0-12.86-10.68,42.86,42.86,0,0,0-32.76-3.38,43,43,0,0,0-30.24,37.11,42.8,42.8,0,1,0,75.86-23.05Zm1-.82a44.1,44.1,0,1,1-77.68,23.79,43.48,43.48,0,0,1,5-16.34,44.17,44.17,0,0,1,59.3-18.23A44.69,44.69,0,0,1,224.74,162.68Z"/><path class="cls-2" d="M193.51,216c.06,2.69.08,5.33,0,8v.54H193l-5.12-.07h-.46V224l.07-8.12.38.39a26.58,26.58,0,0,1-6.51-1,19.82,19.82,0,0,1-6-2.72l-.19-.13.08-.22,1.95-5.44.13-.36.33.21a21.69,21.69,0,0,0,9.31,3.32,15.44,15.44,0,0,0,4.94-.17,9,9,0,0,0,4.32-2.18,7.29,7.29,0,0,0,1.23-8.9,10.21,10.21,0,0,0-3.49-3.36,28.62,28.62,0,0,0-4.47-2.22,33.81,33.81,0,0,1-9-4.8,13.09,13.09,0,0,1-3.38-3.94,11.86,11.86,0,0,1-1.4-5,13.15,13.15,0,0,1,3.35-9.7,16.19,16.19,0,0,1,9.19-4.73l-.55.65-.06-8.12v-.72h.73l5.12,0h.76v.77l.07,7.88-.8-.83a25.69,25.69,0,0,1,5.64.76,22.09,22.09,0,0,1,5.32,2.13l.66.38-.27.72-2,5.36-.39,1-.93-.56a18.5,18.5,0,0,0-9-2.66,11.72,11.72,0,0,0-4.5.6,6,6,0,0,0-3.19,2.67,6,6,0,0,0-.59,4.11,5.82,5.82,0,0,0,2.39,3.4,23.42,23.42,0,0,0,4.09,2.38c1.47.71,3,1.32,4.51,2a22.67,22.67,0,0,1,8.39,5.9,13,13,0,0,1,2.46,4.69,16.13,16.13,0,0,1,.52,5.21,14,14,0,0,1-4.32,9.33,15.19,15.19,0,0,1-4.32,2.86,10.29,10.29,0,0,1-1.2.47,8.79,8.79,0,0,1-1.23.39l-.62.17-.31.08-.22,0A7.47,7.47,0,0,1,193.51,216Zm-1-.84c.47-.16,1-.31,1.48-.44l.38-.08.28-.09.57-.17a8.82,8.82,0,0,0,1.13-.38,10.53,10.53,0,0,0,1.09-.47,13.9,13.9,0,0,0,3.83-2.68,12.74,12.74,0,0,0,3.64-8.32,14.47,14.47,0,0,0-.52-4.6,10.92,10.92,0,0,0-2.16-4,21.93,21.93,0,0,0-7.73-5.32c-1.47-.64-3-1.28-4.56-2a25.47,25.47,0,0,1-4.45-2.59,9.68,9.68,0,0,1-1.95-1.94,6.73,6.73,0,0,1-1.18-2.61,8.1,8.1,0,0,1,.79-5.5,8,8,0,0,1,4.25-3.54,13.68,13.68,0,0,1,5.26-.68,20.64,20.64,0,0,1,5.11.87,22,22,0,0,1,4.7,2.13l-1.32.47,2.06-5.36.39,1.1a20,20,0,0,0-4.88-2,24.3,24.3,0,0,0-5.26-.78l-.8,0v-.79l.07-7.88.76.76-5.12,0,.72-.72-.06,8.12v.56l-.55.09a15,15,0,0,0-8.56,4.22,12,12,0,0,0-3.2,8.86,10.88,10.88,0,0,0,1.2,4.65,12.27,12.27,0,0,0,3.12,3.73,33.15,33.15,0,0,0,8.74,4.75,28.44,28.44,0,0,1,4.57,2.32,11,11,0,0,1,3.69,3.62,7.93,7.93,0,0,1-1.41,9.67,9.87,9.87,0,0,1-4.6,2.32,16.07,16.07,0,0,1-5.13.19,22.27,22.27,0,0,1-9.58-3.41l.46-.15-2,5.44-.11-.35a18.78,18.78,0,0,0,5.83,2.55,26.13,26.13,0,0,0,6.34.88h.38v.39l.07,8.12-.46-.46,5.12-.07-.53.53C192.45,221.05,192.47,218.06,192.53,215.11Z"/><path class="cls-7" d="M224.24,163.09a44.23,44.23,0,0,0-8.9-8.16,43.41,43.41,0,1,0,8.9,8.16ZM193,215.53V224H187.9v-8.12c-4.7-.08-9.49-1.54-12.34-3.57l1.95-5.44a21.82,21.82,0,0,0,11.61,3.49c5.77,0,9.66-3.33,9.66-8,0-4.46-3.16-7.22-9.17-9.66-8.28-3.24-13.4-7.06-13.4-14.12,0-6.74,4.79-11.85,12.18-13.07v-8.12h5.12v7.88a22.23,22.23,0,0,1,10.55,2.84l-2,5.36a19.42,19.42,0,0,0-10.23-2.85c-6.25,0-8.6,3.74-8.6,7.07,0,4.14,3,6.25,10.06,9.25,8.36,3.41,12.58,7.55,12.58,14.77C205.84,208.23,201.38,214.24,193,215.53Z"/><path class="cls-2" d="M223.74,163.5a43.58,43.58,0,0,0-12.86-10.68,42.86,42.86,0,0,0-32.76-3.38,43,43,0,0,0-30.24,37.11,42.8,42.8,0,1,0,75.86-23.05Zm1-.82a44.1,44.1,0,1,1-77.68,23.79,43.48,43.48,0,0,1,5-16.34,44.17,44.17,0,0,1,59.3-18.23A44.69,44.69,0,0,1,224.74,162.68Z"/><path class="cls-2" d="M193.51,216c.06,2.69.08,5.33,0,8v.54H193l-5.12-.07h-.46V224l.07-8.12.38.39a26.58,26.58,0,0,1-6.51-1,19.82,19.82,0,0,1-6-2.72l-.19-.13.08-.22,1.95-5.44.13-.36.33.21a21.69,21.69,0,0,0,9.31,3.32,15.44,15.44,0,0,0,4.94-.17,9,9,0,0,0,4.32-2.18,7.29,7.29,0,0,0,1.23-8.9,10.21,10.21,0,0,0-3.49-3.36,28.62,28.62,0,0,0-4.47-2.22,33.81,33.81,0,0,1-9-4.8,13.09,13.09,0,0,1-3.38-3.94,11.86,11.86,0,0,1-1.4-5,13.15,13.15,0,0,1,3.35-9.7,16.19,16.19,0,0,1,9.19-4.73l-.55.65-.06-8.12v-.72h.73l5.12,0h.76v.77l.07,7.88-.8-.83a25.69,25.69,0,0,1,5.64.76,22.09,22.09,0,0,1,5.32,2.13l.66.38-.27.72-2,5.36-.39,1-.93-.56a18.5,18.5,0,0,0-9-2.66,11.72,11.72,0,0,0-4.5.6,6,6,0,0,0-3.19,2.67,6,6,0,0,0-.59,4.11,5.82,5.82,0,0,0,2.39,3.4,23.42,23.42,0,0,0,4.09,2.38c1.47.71,3,1.32,4.51,2a22.67,22.67,0,0,1,8.39,5.9,13,13,0,0,1,2.46,4.69,16.13,16.13,0,0,1,.52,5.21,14,14,0,0,1-4.32,9.33,15.19,15.19,0,0,1-4.32,2.86,10.29,10.29,0,0,1-1.2.47,8.79,8.79,0,0,1-1.23.39l-.62.17-.31.08-.22,0A7.47,7.47,0,0,1,193.51,216Zm-1-.84c.47-.16,1-.31,1.48-.44l.38-.08.28-.09.57-.17a8.82,8.82,0,0,0,1.13-.38,10.53,10.53,0,0,0,1.09-.47,13.9,13.9,0,0,0,3.83-2.68,12.74,12.74,0,0,0,3.64-8.32,14.47,14.47,0,0,0-.52-4.6,10.92,10.92,0,0,0-2.16-4,21.93,21.93,0,0,0-7.73-5.32c-1.47-.64-3-1.28-4.56-2a25.47,25.47,0,0,1-4.45-2.59,9.68,9.68,0,0,1-1.95-1.94,6.73,6.73,0,0,1-1.18-2.61,8.1,8.1,0,0,1,.79-5.5,8,8,0,0,1,4.25-3.54,13.68,13.68,0,0,1,5.26-.68,20.64,20.64,0,0,1,5.11.87,22,22,0,0,1,4.7,2.13l-1.32.47,2.06-5.36.39,1.1a20,20,0,0,0-4.88-2,24.3,24.3,0,0,0-5.26-.78l-.8,0v-.79l.07-7.88.76.76-5.12,0,.72-.72-.06,8.12v.56l-.55.09a15,15,0,0,0-8.56,4.22,12,12,0,0,0-3.2,8.86,10.88,10.88,0,0,0,1.2,4.65,12.27,12.27,0,0,0,3.12,3.73,33.15,33.15,0,0,0,8.74,4.75,28.44,28.44,0,0,1,4.57,2.32,11,11,0,0,1,3.69,3.62,7.93,7.93,0,0,1-1.41,9.67,9.87,9.87,0,0,1-4.6,2.32,16.07,16.07,0,0,1-5.13.19,22.27,22.27,0,0,1-9.58-3.41l.46-.15-2,5.44-.11-.35a18.78,18.78,0,0,0,5.83,2.55,26.13,26.13,0,0,0,6.34.88h.38v.39l.07,8.12-.46-.46,5.12-.07-.53.53C192.45,221.05,192.47,218.06,192.53,215.11Z"/><g class="cls-9"><path class="cls-2" d="M193,215.53v4.73c8.36-1.29,12.82-7.3,12.82-13.8a15.21,15.21,0,0,0-.19-2.48C204.74,209.57,200.4,214.39,193,215.53Z"/><rect class="cls-2" x="187.9" y="223.98" width="5.12" height="4.73"/><path class="cls-2" d="M190.7,152a43.22,43.22,0,0,1,24.64,7.67,44.23,44.23,0,0,1,8.9,8.16,43.24,43.24,0,0,1,9.84,25.27c0-.79.07-1.59.07-2.39a43.27,43.27,0,0,0-9.91-27.61,44.23,44.23,0,0,0-8.9-8.16,43.43,43.43,0,0,0-68.08,35.77c0,.78,0,1.56.07,2.33A43.49,43.49,0,0,1,190.7,152Z"/><path class="cls-2" d="M183.2,177.71a6.45,6.45,0,0,0,.42,2.37c.91-2.52,3.4-4.71,8.18-4.71A19.42,19.42,0,0,1,202,178.22l2-5.36c-.46-.26-1-.52-1.5-.76l-.53,1.39a19.42,19.42,0,0,0-10.23-2.85C185.55,170.64,183.2,174.38,183.2,177.71Z"/><path class="cls-2" d="M187.9,220.59v-4.73a24.69,24.69,0,0,1-11-2.72L175.56,217C178.41,219.05,183.2,220.51,187.9,220.59Z"/><path class="cls-2" d="M189.61,197.45c4.84,2,7.83,4.14,8.81,7.25a7.66,7.66,0,0,0,.36-2.32c0-4.46-3.16-7.22-9.17-9.66-7.31-2.86-12.15-6.18-13.19-11.78a13.36,13.36,0,0,0-.21,2.39C176.21,190.39,181.33,194.21,189.61,197.45Z"/></g><path class="cls-5" d="M193,215.53V224H187.9v-8.12c-4.7-.08-9.49-1.54-12.34-3.57l1.95-5.44a21.82,21.82,0,0,0,11.61,3.49c5.77,0,9.66-3.33,9.66-8,0-4.46-3.16-7.22-9.17-9.66-8.28-3.24-13.4-7.06-13.4-14.12,0-6.74,4.79-11.85,12.18-13.07v-8.12h5.12v7.88a22.23,22.23,0,0,1,10.55,2.84l-2,5.36a19.42,19.42,0,0,0-10.23-2.85c-6.25,0-8.6,3.74-8.6,7.07,0,4.14,3,6.25,10.06,9.25,8.36,3.41,12.58,7.55,12.58,14.77C205.84,208.23,201.38,214.24,193,215.53Z"/><path class="cls-2" d="M193.51,216c.06,2.69.08,5.33,0,8v.54H193l-5.12-.07h-.46V224l.07-8.12.38.39a26.58,26.58,0,0,1-6.51-1,19.82,19.82,0,0,1-6-2.72l-.19-.13.08-.22,1.95-5.44.13-.36.33.21a21.69,21.69,0,0,0,9.31,3.32,15.44,15.44,0,0,0,4.94-.17,9,9,0,0,0,4.32-2.18,7.29,7.29,0,0,0,1.23-8.9,10.21,10.21,0,0,0-3.49-3.36,28.62,28.62,0,0,0-4.47-2.22,33.81,33.81,0,0,1-9-4.8,13.09,13.09,0,0,1-3.38-3.94,11.86,11.86,0,0,1-1.4-5,13.15,13.15,0,0,1,3.35-9.7,16.19,16.19,0,0,1,9.19-4.73l-.55.65-.06-8.12v-.72h.73l5.12,0h.76v.77l.07,7.88-.8-.83a25.69,25.69,0,0,1,5.64.76,22.09,22.09,0,0,1,5.32,2.13l.66.38-.27.72-2,5.36-.39,1-.93-.56a18.5,18.5,0,0,0-9-2.66,11.72,11.72,0,0,0-4.5.6,6,6,0,0,0-3.19,2.67,6,6,0,0,0-.59,4.11,5.82,5.82,0,0,0,2.39,3.4,23.42,23.42,0,0,0,4.09,2.38c1.47.71,3,1.32,4.51,2a22.67,22.67,0,0,1,8.39,5.9,13,13,0,0,1,2.46,4.69,16.13,16.13,0,0,1,.52,5.21,14,14,0,0,1-4.32,9.33,15.19,15.19,0,0,1-4.32,2.86,10.29,10.29,0,0,1-1.2.47,8.79,8.79,0,0,1-1.23.39l-.62.17-.31.08-.22,0A7.47,7.47,0,0,1,193.51,216Zm-1-.84c.47-.16,1-.31,1.48-.44l.38-.08.28-.09.57-.17a8.82,8.82,0,0,0,1.13-.38,10.53,10.53,0,0,0,1.09-.47,13.9,13.9,0,0,0,3.83-2.68,12.74,12.74,0,0,0,3.64-8.32,14.47,14.47,0,0,0-.52-4.6,10.92,10.92,0,0,0-2.16-4,21.93,21.93,0,0,0-7.73-5.32c-1.47-.64-3-1.28-4.56-2a25.47,25.47,0,0,1-4.45-2.59,9.68,9.68,0,0,1-1.95-1.94,6.73,6.73,0,0,1-1.18-2.61,8.1,8.1,0,0,1,.79-5.5,8,8,0,0,1,4.25-3.54,13.68,13.68,0,0,1,5.26-.68,20.64,20.64,0,0,1,5.11.87,22,22,0,0,1,4.7,2.13l-1.32.47,2.06-5.36.39,1.1a20,20,0,0,0-4.88-2,24.3,24.3,0,0,0-5.26-.78l-.8,0v-.79l.07-7.88.76.76-5.12,0,.72-.72-.06,8.12v.56l-.55.09a15,15,0,0,0-8.56,4.22,12,12,0,0,0-3.2,8.86,10.88,10.88,0,0,0,1.2,4.65,12.27,12.27,0,0,0,3.12,3.73,33.15,33.15,0,0,0,8.74,4.75,28.44,28.44,0,0,1,4.57,2.32,11,11,0,0,1,3.69,3.62,7.93,7.93,0,0,1-1.41,9.67,9.87,9.87,0,0,1-4.6,2.32,16.07,16.07,0,0,1-5.13.19,22.27,22.27,0,0,1-9.58-3.41l.46-.15-2,5.44-.11-.35a18.78,18.78,0,0,0,5.83,2.55,26.13,26.13,0,0,0,6.34.88h.38v.39l.07,8.12-.46-.46,5.12-.07-.53.53C192.45,221.05,192.47,218.06,192.53,215.11Z"/></svg>