<svg id="Layer_1" data-name="Layer 1" xmlns="http://www.w3.org/2000/svg" xmlns:xlink="http://www.w3.org/1999/xlink" viewBox="0 0 256 256"><defs><style>.cls-1{fill:none;}.cls-2{fill:#253759;}.cls-3{clip-path:url(#clip-path);}.cls-4{clip-path:url(#clip-path-2);}.cls-5{fill:#fff;}.cls-6{fill:url(#New_Pattern_Swatch_1);}</style><clipPath id="clip-path"><rect class="cls-1" x="42.85" width="43" height="43"/></clipPath><clipPath id="clip-path-2"><rect class="cls-1" x="-0.05" width="43" height="43"/></clipPath><pattern id="New_Pattern_Swatch_1" data-name="New Pattern Swatch 1" width="42.9" height="43" patternTransform="translate(0 516)" patternUnits="userSpaceOnUse" viewBox="0 0 42.9 43"><rect class="cls-1" width="42.9" height="43"/><circle class="cls-2" cx="42.91" cy="1.85" r="0.57"/><circle class="cls-2" cx="42.91" cy="5.42" r="0.57"/><circle class="cls-2" cx="42.91" cy="8.99" r="0.57"/><circle class="cls-2" cx="42.91" cy="12.57" r="0.57"/><circle class="cls-2" cx="42.91" cy="16.14" r="0.57"/><circle class="cls-2" cx="42.91" cy="19.71" r="0.57"/><circle class="cls-2" cx="42.91" cy="23.29" r="0.57"/><circle class="cls-2" cx="42.91" cy="26.86" r="0.57"/><circle class="cls-2" cx="42.91" cy="30.43" r="0.57"/><circle class="cls-2" cx="42.91" cy="34.01" r="0.57"/><circle class="cls-2" cx="42.91" cy="37.58" r="0.57"/><circle class="cls-2" cx="42.91" cy="41.15" r="0.57"/><circle class="cls-2" cx="42.89" cy="1.85" r="0.57"/><circle class="cls-2" cx="42.89" cy="5.42" r="0.57"/><circle class="cls-2" cx="42.89" cy="8.99" r="0.57"/><circle class="cls-2" cx="42.89" cy="12.57" r="0.57"/><circle class="cls-2" cx="42.89" cy="16.14" r="0.57"/><circle class="cls-2" cx="42.89" cy="19.71" r="0.57"/><circle class="cls-2" cx="42.89" cy="23.29" r="0.57"/><circle class="cls-2" cx="42.89" cy="26.86" r="0.57"/><circle class="cls-2" cx="42.89" cy="30.43" r="0.57"/><circle class="cls-2" cx="42.89" cy="34.01" r="0.57"/><circle class="cls-2" cx="42.89" cy="37.58" r="0.57"/><circle class="cls-2" cx="42.89" cy="41.15" r="0.57"/><g class="cls-3"><circle class="cls-2" cx="42.81" cy="1.85" r="0.57"/><circle class="cls-2" cx="42.81" cy="5.42" r="0.57"/><circle class="cls-2" cx="42.81" cy="8.99" r="0.57"/><circle class="cls-2" cx="42.81" cy="12.57" r="0.57"/><circle class="cls-2" cx="42.81" cy="16.14" r="0.57"/><circle class="cls-2" cx="42.81" cy="19.71" r="0.57"/><circle class="cls-2" cx="42.81" cy="23.29" r="0.57"/><circle class="cls-2" cx="42.81" cy="26.86" r="0.57"/><circle class="cls-2" cx="42.81" cy="30.43" r="0.57"/><circle class="cls-2" cx="42.81" cy="34.01" r="0.57"/><circle class="cls-2" cx="42.81" cy="37.58" r="0.57"/><circle class="cls-2" cx="42.81" cy="41.15" r="0.57"/><circle class="cls-2" cx="42.79" cy="1.85" r="0.57"/><circle class="cls-2" cx="42.79" cy="5.42" r="0.57"/><circle class="cls-2" cx="42.79" cy="8.99" r="0.57"/><circle class="cls-2" cx="42.79" cy="12.57" r="0.57"/><circle class="cls-2" cx="42.79" cy="16.14" r="0.57"/><circle class="cls-2" cx="42.79" cy="19.71" r="0.57"/><circle class="cls-2" cx="42.79" cy="23.29" r="0.57"/><circle class="cls-2" cx="42.79" cy="26.86" r="0.57"/><circle class="cls-2" cx="42.79" cy="30.43" r="0.57"/><circle class="cls-2" cx="42.79" cy="34.01" r="0.57"/><circle class="cls-2" cx="42.79" cy="37.58" r="0.57"/><circle class="cls-2" cx="42.79" cy="41.15" r="0.57"/></g><circle class="cls-2" cx="42.91" cy="1.85" r="0.57"/><circle class="cls-2" cx="42.91" cy="5.42" r="0.57"/><circle class="cls-2" cx="42.91" cy="8.99" r="0.57"/><circle class="cls-2" cx="42.91" cy="12.57" r="0.57"/><circle class="cls-2" cx="42.91" cy="16.14" r="0.57"/><circle class="cls-2" cx="42.91" cy="19.71" r="0.57"/><circle class="cls-2" cx="42.91" cy="23.29" r="0.57"/><circle class="cls-2" cx="42.91" cy="26.86" r="0.57"/><circle class="cls-2" cx="42.91" cy="30.43" r="0.57"/><circle class="cls-2" cx="42.91" cy="34.01" r="0.57"/><circle class="cls-2" cx="42.91" cy="37.58" r="0.57"/><circle class="cls-2" cx="42.91" cy="41.15" r="0.57"/><circle class="cls-2" cx="0.01" cy="1.85" r="0.57"/><circle class="cls-2" cx="3.59" cy="1.85" r="0.57"/><circle class="cls-2" cx="7.16" cy="1.85" r="0.57"/><circle class="cls-2" cx="10.73" cy="1.85" r="0.57"/><circle class="cls-2" cx="0.01" cy="5.42" r="0.57"/><circle class="cls-2" cx="3.59" cy="5.42" r="0.57"/><circle class="cls-2" cx="7.16" cy="5.42" r="0.57"/><circle class="cls-2" cx="10.73" cy="5.42" r="0.57"/><circle class="cls-2" cx="0.01" cy="8.99" r="0.57"/><circle class="cls-2" cx="3.59" cy="8.99" r="0.57"/><circle class="cls-2" cx="7.16" cy="8.99" r="0.57"/><circle class="cls-2" cx="10.73" cy="8.99" r="0.57"/><circle class="cls-2" cx="0.01" cy="12.57" r="0.57"/><circle class="cls-2" cx="3.59" cy="12.57" r="0.57"/><circle class="cls-2" cx="7.16" cy="12.57" r="0.57"/><circle class="cls-2" cx="10.73" cy="12.57" r="0.57"/><circle class="cls-2" cx="0.01" cy="16.14" r="0.57"/><circle class="cls-2" cx="3.59" cy="16.14" r="0.57"/><circle class="cls-2" cx="7.16" cy="16.14" r="0.57"/><circle class="cls-2" cx="10.73" cy="16.14" r="0.57"/><circle class="cls-2" cx="0.01" cy="19.71" r="0.57"/><circle class="cls-2" cx="3.59" cy="19.71" r="0.57"/><circle class="cls-2" cx="7.16" cy="19.71" r="0.57"/><circle class="cls-2" cx="10.73" cy="19.71" r="0.57"/><circle class="cls-2" cx="14.3" cy="1.85" r="0.57"/><circle class="cls-2" cx="17.88" cy="1.85" r="0.57"/><circle class="cls-2" cx="21.45" cy="1.85" r="0.57"/><circle class="cls-2" cx="25.02" cy="1.85" r="0.57"/><circle class="cls-2" cx="28.6" cy="1.85" r="0.57"/><circle class="cls-2" cx="14.3" cy="5.42" r="0.57"/><circle class="cls-2" cx="17.88" cy="5.42" r="0.57"/><circle class="cls-2" cx="21.45" cy="5.42" r="0.57"/><circle class="cls-2" cx="25.02" cy="5.42" r="0.57"/><circle class="cls-2" cx="28.6" cy="5.42" r="0.57"/><circle class="cls-2" cx="14.3" cy="8.99" r="0.57"/><circle class="cls-2" cx="17.88" cy="8.99" r="0.57"/><circle class="cls-2" cx="21.45" cy="8.99" r="0.57"/><circle class="cls-2" cx="25.02" cy="8.99" r="0.57"/><circle class="cls-2" cx="28.6" cy="8.99" r="0.57"/><circle class="cls-2" cx="14.3" cy="12.57" r="0.57"/><circle class="cls-2" cx="17.88" cy="12.57" r="0.57"/><circle class="cls-2" cx="21.45" cy="12.57" r="0.57"/><circle class="cls-2" cx="25.02" cy="12.57" r="0.57"/><circle class="cls-2" cx="28.6" cy="12.57" r="0.57"/><circle class="cls-2" cx="14.3" cy="16.14" r="0.57"/><circle class="cls-2" cx="17.88" cy="16.14" r="0.57"/><circle class="cls-2" cx="21.45" cy="16.14" r="0.57"/><circle class="cls-2" cx="25.02" cy="16.14" r="0.57"/><circle class="cls-2" cx="28.6" cy="16.14" r="0.57"/><circle class="cls-2" cx="14.3" cy="19.71" r="0.57"/><circle class="cls-2" cx="17.88" cy="19.71" r="0.57"/><circle class="cls-2" cx="21.45" cy="19.71" r="0.57"/><circle class="cls-2" cx="25.02" cy="19.71" r="0.57"/><circle class="cls-2" cx="28.6" cy="19.71" r="0.57"/><circle class="cls-2" cx="32.17" cy="1.85" r="0.57"/><circle class="cls-2" cx="35.74" cy="1.85" r="0.57"/><circle class="cls-2" cx="39.31" cy="1.85" r="0.57"/><circle class="cls-2" cx="42.89" cy="1.85" r="0.57"/><circle class="cls-2" cx="32.17" cy="5.42" r="0.57"/><circle class="cls-2" cx="35.74" cy="5.42" r="0.57"/><circle class="cls-2" cx="39.31" cy="5.42" r="0.57"/><circle class="cls-2" cx="42.89" cy="5.42" r="0.57"/><circle class="cls-2" cx="32.17" cy="8.99" r="0.57"/><circle class="cls-2" cx="35.74" cy="8.99" r="0.57"/><circle class="cls-2" cx="39.31" cy="8.99" r="0.57"/><circle class="cls-2" cx="42.89" cy="8.99" r="0.57"/><circle class="cls-2" cx="32.17" cy="12.57" r="0.57"/><circle class="cls-2" cx="35.74" cy="12.57" r="0.57"/><circle class="cls-2" cx="39.31" cy="12.57" r="0.57"/><circle class="cls-2" cx="42.89" cy="12.57" r="0.57"/><circle class="cls-2" cx="32.17" cy="16.14" r="0.57"/><circle class="cls-2" cx="35.74" cy="16.14" r="0.57"/><circle class="cls-2" cx="39.31" cy="16.14" r="0.57"/><circle class="cls-2" cx="42.89" cy="16.14" r="0.57"/><circle class="cls-2" cx="32.17" cy="19.71" r="0.57"/><circle class="cls-2" cx="35.74" cy="19.71" r="0.57"/><circle class="cls-2" cx="39.31" cy="19.71" r="0.57"/><circle class="cls-2" cx="42.89" cy="19.71" r="0.57"/><circle class="cls-2" cx="0.01" cy="23.29" r="0.57"/><circle class="cls-2" cx="3.59" cy="23.29" r="0.57"/><circle class="cls-2" cx="7.16" cy="23.29" r="0.57"/><circle class="cls-2" cx="10.73" cy="23.29" r="0.57"/><circle class="cls-2" cx="0.01" cy="26.86" r="0.57"/><circle class="cls-2" cx="3.59" cy="26.86" r="0.57"/><circle class="cls-2" cx="7.16" cy="26.86" r="0.57"/><circle class="cls-2" cx="10.73" cy="26.86" r="0.57"/><circle class="cls-2" cx="0.01" cy="30.43" r="0.57"/><circle class="cls-2" cx="3.59" cy="30.43" r="0.57"/><circle class="cls-2" cx="7.16" cy="30.43" r="0.57"/><circle class="cls-2" cx="10.73" cy="30.43" r="0.57"/><circle class="cls-2" cx="0.01" cy="34.01" r="0.57"/><circle class="cls-2" cx="3.59" cy="34.01" r="0.57"/><circle class="cls-2" cx="7.16" cy="34.01" r="0.57"/><circle class="cls-2" cx="10.73" cy="34.01" r="0.57"/><circle class="cls-2" cx="0.01" cy="37.58" r="0.57"/><circle class="cls-2" cx="3.59" cy="37.58" r="0.57"/><circle class="cls-2" cx="7.16" cy="37.58" r="0.57"/><circle class="cls-2" cx="10.73" cy="37.58" r="0.57"/><circle class="cls-2" cx="0.01" cy="41.15" r="0.57"/><circle class="cls-2" cx="3.59" cy="41.15" r="0.57"/><circle class="cls-2" cx="7.16" cy="41.15" r="0.57"/><circle class="cls-2" cx="10.73" cy="41.15" r="0.57"/><circle class="cls-2" cx="14.3" cy="23.29" r="0.57"/><circle class="cls-2" cx="17.88" cy="23.29" r="0.57"/><circle class="cls-2" cx="21.45" cy="23.29" r="0.57"/><circle class="cls-2" cx="25.02" cy="23.29" r="0.57"/><circle class="cls-2" cx="28.6" cy="23.29" r="0.57"/><circle class="cls-2" cx="14.3" cy="26.86" r="0.57"/><circle class="cls-2" cx="17.88" cy="26.86" r="0.57"/><circle class="cls-2" cx="21.45" cy="26.86" r="0.57"/><circle class="cls-2" cx="25.02" cy="26.86" r="0.57"/><circle class="cls-2" cx="28.6" cy="26.86" r="0.57"/><circle class="cls-2" cx="14.3" cy="30.43" r="0.57"/><circle class="cls-2" cx="17.88" cy="30.43" r="0.57"/><circle class="cls-2" cx="21.45" cy="30.43" r="0.57"/><circle class="cls-2" cx="25.02" cy="30.43" r="0.57"/><circle class="cls-2" cx="28.6" cy="30.43" r="0.57"/><circle class="cls-2" cx="14.3" cy="34.01" r="0.57"/><circle class="cls-2" cx="17.88" cy="34.01" r="0.57"/><circle class="cls-2" cx="21.45" cy="34.01" r="0.57"/><circle class="cls-2" cx="25.02" cy="34.01" r="0.57"/><circle class="cls-2" cx="28.6" cy="34.01" r="0.57"/><circle class="cls-2" cx="14.3" cy="37.58" r="0.57"/><circle class="cls-2" cx="17.88" cy="37.58" r="0.57"/><circle class="cls-2" cx="21.45" cy="37.58" r="0.57"/><circle class="cls-2" cx="25.02" cy="37.58" r="0.57"/><circle class="cls-2" cx="28.6" cy="37.58" r="0.57"/><circle class="cls-2" cx="14.3" cy="41.15" r="0.57"/><circle class="cls-2" cx="17.88" cy="41.15" r="0.57"/><circle class="cls-2" cx="21.45" cy="41.15" r="0.57"/><circle class="cls-2" cx="25.02" cy="41.15" r="0.57"/><circle class="cls-2" cx="28.6" cy="41.15" r="0.57"/><circle class="cls-2" cx="32.17" cy="23.29" r="0.57"/><circle class="cls-2" cx="35.74" cy="23.29" r="0.57"/><circle class="cls-2" cx="39.31" cy="23.29" r="0.57"/><circle class="cls-2" cx="42.89" cy="23.29" r="0.57"/><circle class="cls-2" cx="32.17" cy="26.86" r="0.57"/><circle class="cls-2" cx="35.74" cy="26.86" r="0.57"/><circle class="cls-2" cx="39.31" cy="26.86" r="0.57"/><circle class="cls-2" cx="42.89" cy="26.86" r="0.57"/><circle class="cls-2" cx="32.17" cy="30.43" r="0.57"/><circle class="cls-2" cx="35.74" cy="30.43" r="0.57"/><circle class="cls-2" cx="39.31" cy="30.43" r="0.57"/><circle class="cls-2" cx="42.89" cy="30.43" r="0.57"/><circle class="cls-2" cx="32.17" cy="34.01" r="0.57"/><circle class="cls-2" cx="35.74" cy="34.01" r="0.57"/><circle class="cls-2" cx="39.31" cy="34.01" r="0.57"/><circle class="cls-2" cx="42.89" cy="34.01" r="0.57"/><circle class="cls-2" cx="32.17" cy="37.58" r="0.57"/><circle class="cls-2" cx="35.74" cy="37.58" r="0.57"/><circle class="cls-2" cx="39.31" cy="37.58" r="0.57"/><circle class="cls-2" cx="42.89" cy="37.58" r="0.57"/><circle class="cls-2" cx="32.17" cy="41.15" r="0.57"/><circle class="cls-2" cx="35.74" cy="41.15" r="0.57"/><circle class="cls-2" cx="39.31" cy="41.15" r="0.57"/><circle class="cls-2" cx="42.89" cy="41.15" r="0.57"/><circle class="cls-2" cx="-0.01" cy="1.85" r="0.57"/><circle class="cls-2" cx="-0.01" cy="5.42" r="0.57"/><circle class="cls-2" cx="-0.01" cy="8.99" r="0.57"/><circle class="cls-2" cx="-0.01" cy="12.57" r="0.57"/><circle class="cls-2" cx="-0.01" cy="16.14" r="0.57"/><circle class="cls-2" cx="-0.01" cy="19.71" r="0.57"/><circle class="cls-2" cx="-0.01" cy="23.29" r="0.57"/><circle class="cls-2" cx="-0.01" cy="26.86" r="0.57"/><circle class="cls-2" cx="-0.01" cy="30.43" r="0.57"/><circle class="cls-2" cx="-0.01" cy="34.01" r="0.57"/><circle class="cls-2" cx="-0.01" cy="37.58" r="0.57"/><circle class="cls-2" cx="-0.01" cy="41.15" r="0.57"/><g class="cls-4"><circle class="cls-2" cx="-0.09" cy="1.85" r="0.57"/><circle class="cls-2" cx="-0.09" cy="5.42" r="0.57"/><circle class="cls-2" cx="-0.09" cy="8.99" r="0.57"/><circle class="cls-2" cx="-0.09" cy="12.57" r="0.57"/><circle class="cls-2" cx="-0.09" cy="16.14" r="0.57"/><circle class="cls-2" cx="-0.09" cy="19.71" r="0.57"/><circle class="cls-2" cx="-0.09" cy="23.29" r="0.57"/><circle class="cls-2" cx="-0.09" cy="26.86" r="0.57"/><circle class="cls-2" cx="-0.09" cy="30.43" r="0.57"/><circle class="cls-2" cx="-0.09" cy="34.01" r="0.57"/><circle class="cls-2" cx="-0.09" cy="37.58" r="0.57"/><circle class="cls-2" cx="-0.09" cy="41.15" r="0.57"/><circle class="cls-2" cx="-0.11" cy="1.85" r="0.57"/><circle class="cls-2" cx="-0.11" cy="5.42" r="0.57"/><circle class="cls-2" cx="-0.11" cy="8.99" r="0.57"/><circle class="cls-2" cx="-0.11" cy="12.57" r="0.57"/><circle class="cls-2" cx="-0.11" cy="16.14" r="0.57"/><circle class="cls-2" cx="-0.11" cy="19.71" r="0.57"/><circle class="cls-2" cx="-0.11" cy="23.29" r="0.57"/><circle class="cls-2" cx="-0.11" cy="26.86" r="0.57"/><circle class="cls-2" cx="-0.11" cy="30.43" r="0.57"/><circle class="cls-2" cx="-0.11" cy="34.01" r="0.57"/><circle class="cls-2" cx="-0.11" cy="37.58" r="0.57"/><circle class="cls-2" cx="-0.11" cy="41.15" r="0.57"/></g><circle class="cls-2" cx="0.01" cy="1.85" r="0.57"/><circle class="cls-2" cx="0.01" cy="5.42" r="0.57"/><circle class="cls-2" cx="0.01" cy="8.99" r="0.57"/><circle class="cls-2" cx="0.01" cy="12.57" r="0.57"/><circle class="cls-2" cx="0.01" cy="16.14" r="0.57"/><circle class="cls-2" cx="0.01" cy="19.71" r="0.57"/><circle class="cls-2" cx="0.01" cy="23.29" r="0.57"/><circle class="cls-2" cx="0.01" cy="26.86" r="0.57"/><circle class="cls-2" cx="0.01" cy="30.43" r="0.57"/><circle class="cls-2" cx="0.01" cy="34.01" r="0.57"/><circle class="cls-2" cx="0.01" cy="37.58" r="0.57"/><circle class="cls-2" cx="0.01" cy="41.15" r="0.57"/><circle class="cls-2" cx="-0.01" cy="1.85" r="0.57"/><circle class="cls-2" cx="-0.01" cy="5.42" r="0.57"/><circle class="cls-2" cx="-0.01" cy="8.99" r="0.57"/><circle class="cls-2" cx="-0.01" cy="12.57" r="0.57"/><circle class="cls-2" cx="-0.01" cy="16.14" r="0.57"/><circle class="cls-2" cx="-0.01" cy="19.71" r="0.57"/><circle class="cls-2" cx="-0.01" cy="23.29" r="0.57"/><circle class="cls-2" cx="-0.01" cy="26.86" r="0.57"/><circle class="cls-2" cx="-0.01" cy="30.43" r="0.57"/><circle class="cls-2" cx="-0.01" cy="34.01" r="0.57"/><circle class="cls-2" cx="-0.01" cy="37.58" r="0.57"/><circle class="cls-2" cx="-0.01" cy="41.15" r="0.57"/></pattern></defs><title>10-free-finance-icon</title><path class="cls-5" d="M128,237.53S40.9,213.67,40.9,54.38c0,0,59.74-2.52,87.1-31.21,27.36,28.69,87.1,31.21,87.1,31.21C215.1,213.67,128,237.53,128,237.53Z"/><path class="cls-2" d="M128,238.49l-.43-.08-.26-.08-.41-.14c-.28-.09-.54-.19-.81-.29-.55-.19-1.07-.4-1.6-.61-1.06-.43-2.1-.88-3.13-1.36s-2.06-1-3-1.5-2-1.05-3-1.62a102.21,102.21,0,0,1-11.3-7.47,128.08,128.08,0,0,1-19.51-18.66c-11.66-13.77-20.31-29.82-26.89-46.52a253.18,253.18,0,0,1-13.41-52.09,372.5,372.5,0,0,1-3.86-53.69.54.54,0,0,1,.51-.54h0A199.21,199.21,0,0,0,64.21,51,188.33,188.33,0,0,0,87.06,45.4a126.52,126.52,0,0,0,21.66-9,87.36,87.36,0,0,0,9.91-6.19,70.28,70.28,0,0,0,8.77-7.65.84.84,0,0,1,1.18,0h0a68.61,68.61,0,0,0,8.83,7.57,87.12,87.12,0,0,0,9.94,6.11A124.64,124.64,0,0,0,169.06,45a189.58,189.58,0,0,0,22.83,5.35A201.26,201.26,0,0,0,215.15,53h.06a1.32,1.32,0,0,1,1.24,1.34,413.05,413.05,0,0,1-4.24,53.75,254.23,254.23,0,0,1-13.48,52.17c-6.58,16.73-15.33,32.78-27.07,46.52a127.54,127.54,0,0,1-19.61,18.62,103.74,103.74,0,0,1-11.34,7.42c-1,.57-2,1.11-3,1.61s-2,1-3.06,1.49-2.07.92-3.13,1.34c-.53.21-1.06.42-1.6.61-.28.09-.54.2-.82.28l-.41.14-.26.08A3.25,3.25,0,0,1,128,238.49Zm0-1.92,0,0,.15,0,.38-.12.78-.27c.52-.17,1-.38,1.54-.57q1.55-.6,3.06-1.29c1-.46,2-.92,3-1.43s2-1,2.94-1.55A102.15,102.15,0,0,0,151,224a119.48,119.48,0,0,0,19.39-18.29c11.59-13.57,20.26-29.45,26.78-46.05.83-2.07,1.52-4.19,2.29-6.29l1.13-3.15c.35-1.06.66-2.14,1-3.2l2-6.41,1.69-6.48c1.21-4.31,2-8.71,3-13.07s1.54-8.81,2.3-13.21a338.3,338.3,0,0,0,3.25-53.5L215,55.73h0a201.38,201.38,0,0,1-23.57-3,189.79,189.79,0,0,1-23-5.7,130.09,130.09,0,0,1-21.93-9.12,88.1,88.1,0,0,1-10.11-6.32,70.53,70.53,0,0,1-9-7.84h1.2a71.31,71.31,0,0,1-9.06,7.77,88.42,88.42,0,0,1-10.13,6.22,127,127,0,0,1-22,8.89,189.82,189.82,0,0,1-23,5.51,203.07,203.07,0,0,1-23.5,2.8l.53-.55a371.91,371.91,0,0,0,3.63,53.56,248.81,248.81,0,0,0,13.4,51.89c6.52,16.63,15.29,32.51,27,46.06a119.39,119.39,0,0,0,19.49,18.24,102.25,102.25,0,0,0,11.23,7.18c1,.54,2,1.06,3,1.54s2,1,3,1.42,2,.88,3.06,1.27c.52.19,1,.4,1.55.57l.78.26.38.12.15,0Z"/><path class="cls-2" d="M110.05,220.6a113.22,113.22,0,0,1-20.62-18.68,139.87,139.87,0,0,1-16-22.85,1,1,0,0,1,1.74-1v0a138.81,138.81,0,0,0,15.22,23,112.51,112.51,0,0,0,20,19.1.23.23,0,1,1-.27.37Z"/><path class="cls-2" d="M182.3,178a140.23,140.23,0,0,1-15.19,23.26,114.57,114.57,0,0,1-20,19.43,1,1,0,1,1-1.2-1.6l0,0a113.17,113.17,0,0,0,20.23-18.59,139.93,139.93,0,0,0,15.73-22.69.23.23,0,0,1,.31-.09A.22.22,0,0,1,182.3,178Z"/><path class="cls-5" d="M215.58,43c-15.34-.65-59.49-6.88-79.33-27.69L128,6.65l-8.25,8.65C95.93,40.27,41,43,40.42,43l-10.92.46V54.38c0,68.82,15.55,122.2,46.23,158.65C99.52,241.3,124,248.24,125,248.52l3,.83,3-.83c1-.28,25.47-7.22,49.26-35.49C211,176.58,226.5,123.2,226.5,54.38V43.45ZM128,237.53S40.9,213.67,40.9,54.38c0,0,59.74-2.52,87.1-31.21,27.36,28.69,87.1,31.21,87.1,31.21C215.1,213.67,128,237.53,128,237.53Z"/><path class="cls-2" d="M215.54,44a175.73,175.73,0,0,1-24.32-3.18,173.17,173.17,0,0,1-23.66-6.36,100.18,100.18,0,0,1-22.09-10.65A56.6,56.6,0,0,1,136,15.93l-8.4-8.86h.88c-3.16,3.25-6.22,6.54-9.46,9.75a61.08,61.08,0,0,1-10.86,8.29,109,109,0,0,1-25,10.74A190,190,0,0,1,56.6,41.69c-4.49.67-9,1.21-13.51,1.58-2.26.2-4.53.27-6.79.37l-6.78.3.47-.49c0,5.08,0,10.18.1,15.25l.12,7.62c.08,2.54.23,5.08.33,7.61.17,5.08.63,10.14,1,15.2.16,2.54.51,5.06.78,7.58s.53,5.05.91,7.56c.76,5,1.42,10,2.44,15l.7,3.74c.22,1.25.47,2.5.77,3.73l1.7,7.42c.55,2.47,1.3,4.89,1.94,7.35l1,3.66c.35,1.22.76,2.42,1.14,3.63.79,2.41,1.51,4.84,2.35,7.23l2.64,7.12A199.6,199.6,0,0,0,61.1,190.49,164,164,0,0,0,78.91,215c.85.93,1.66,1.9,2.54,2.8l2.64,2.71,1.32,1.35,1.39,1.29,2.76,2.58a126.84,126.84,0,0,0,11.85,9.36,108.67,108.67,0,0,0,13,7.72c2.23,1.14,4.53,2.14,6.85,3.07,1.16.44,2.33.88,3.5,1.24s2.43.67,3.64,1h-.7c1.21-.34,2.5-.68,3.63-1s2.34-.8,3.49-1.26c2.31-.95,4.61-1.94,6.84-3.08a112.09,112.09,0,0,0,12.95-7.7,128.22,128.22,0,0,0,11.92-9.28l2.78-2.55,1.4-1.28,1.33-1.35,2.67-2.68c.89-.9,1.71-1.86,2.56-2.8A156,156,0,0,0,195,190.57a198,198,0,0,0,13.07-27.38l2.61-7.14c.83-2.39,1.54-4.83,2.32-7.24.37-1.21.78-2.41,1.12-3.63l1-3.67c.63-2.45,1.37-4.88,1.91-7.36l1.66-7.42c.3-1.23.54-2.48.75-3.72l.69-3.75c1-5,1.62-10,2.36-15,.36-2.51.57-5,.87-7.56s.59-5,.74-7.57c.37-5.06.82-10.12,1-15.19.1-2.54.24-5.07.3-7.61l.11-7.61c.1-5.07,0-10.17,0-15.25l.92.95Zm.08-1.92,10.92.47a1,1,0,0,1,.92,1c0,5.09,0,10.17-.08,15.27l-.12,7.64c-.06,2.55-.21,5.1-.32,7.64-.16,5.1-.61,10.18-1,15.26-.16,2.55-.5,5.08-.76,7.61s-.52,5.08-.89,7.6c-.75,5-1.39,10.11-2.4,15.11l-.69,3.77c-.22,1.25-.47,2.51-.76,3.75l-1.68,7.47c-.55,2.49-1.3,4.93-1.93,7.4l-1,3.7c-.35,1.23-.76,2.44-1.13,3.66-.79,2.43-1.51,4.88-2.35,7.29l-2.64,7.19a199.9,199.9,0,0,1-13.22,27.62,174.9,174.9,0,0,1-17.88,24.88c-.85,1-1.65,2-2.54,2.89L173.44,222l-1.32,1.4-1.39,1.33L168,227.38a131.18,131.18,0,0,1-12,9.71,107.81,107.81,0,0,1-13.2,8c-2.29,1.18-4.64,2.24-7.05,3.2-1.22.46-2.43.91-3.69,1.3s-2.48.68-3.72,1h0a1.25,1.25,0,0,1-.69,0c-1.24-.35-2.41-.66-3.71-1.05s-2.47-.86-3.68-1.33c-2.4-1-4.76-2-7-3.21a109.78,109.78,0,0,1-13.2-8,130.84,130.84,0,0,1-12-9.62l-2.79-2.64-1.4-1.33-1.33-1.38-2.67-2.77c-.89-.92-1.71-1.92-2.56-2.87a165.4,165.4,0,0,1-17.89-24.92,199,199,0,0,1-13.12-27.69l-2.62-7.2c-.83-2.41-1.53-4.87-2.31-7.3-.37-1.22-.77-2.43-1.12-3.66l-1-3.7c-.63-2.48-1.36-4.92-1.9-7.42l-1.64-7.47c-.29-1.24-.53-2.49-.74-3.75l-.67-3.77c-1-5-1.6-10.07-2.33-15.11C30.74,94.32,29.81,84.17,29.43,74c-.1-2.55-.24-5.09-.3-7.64L29,58.71c-.1-5.09,0-10.17,0-15.26a.49.49,0,0,1,.47-.49l6.78-.27c2.26-.1,4.52-.15,6.76-.34,4.5-.35,9-.87,13.45-1.52A185.75,185.75,0,0,0,82.88,35,106.7,106.7,0,0,0,107.6,24.27,59.78,59.78,0,0,0,118.21,16c3.16-3.18,6.23-6.54,9.35-9.81a.61.61,0,0,1,.86,0l0,0L136.9,15a55.9,55.9,0,0,0,9.34,7.58,98.57,98.57,0,0,0,21.84,10.32,170.57,170.57,0,0,0,23.48,6.13A176.1,176.1,0,0,0,215.62,42Z"/><path class="cls-2" d="M128,238.49l-.43-.08-.26-.08-.41-.14c-.28-.09-.54-.19-.81-.29-.55-.19-1.07-.4-1.6-.61-1.06-.43-2.1-.88-3.13-1.36s-2.06-1-3-1.5-2-1.05-3-1.62a102.21,102.21,0,0,1-11.3-7.47,128.08,128.08,0,0,1-19.51-18.66c-11.66-13.77-20.31-29.82-26.89-46.52a253.18,253.18,0,0,1-13.41-52.09,372.5,372.5,0,0,1-3.86-53.69.54.54,0,0,1,.51-.54h0A199.21,199.21,0,0,0,64.21,51,188.33,188.33,0,0,0,87.06,45.4a126.52,126.52,0,0,0,21.66-9,87.36,87.36,0,0,0,9.91-6.19,70.28,70.28,0,0,0,8.77-7.65.84.84,0,0,1,1.18,0h0a68.61,68.61,0,0,0,8.83,7.57,87.12,87.12,0,0,0,9.94,6.11A124.64,124.64,0,0,0,169.06,45a189.58,189.58,0,0,0,22.83,5.35A201.26,201.26,0,0,0,215.15,53h.06a1.32,1.32,0,0,1,1.24,1.34,413.05,413.05,0,0,1-4.24,53.75,254.23,254.23,0,0,1-13.48,52.17c-6.58,16.73-15.33,32.78-27.07,46.52a127.54,127.54,0,0,1-19.61,18.62,103.74,103.74,0,0,1-11.34,7.42c-1,.57-2,1.11-3,1.61s-2,1-3.06,1.49-2.07.92-3.13,1.34c-.53.21-1.06.42-1.6.61-.28.09-.54.2-.82.28l-.41.14-.26.08A3.25,3.25,0,0,1,128,238.49Zm0-1.92,0,0,.15,0,.38-.12.78-.27c.52-.17,1-.38,1.54-.57q1.55-.6,3.06-1.29c1-.46,2-.92,3-1.43s2-1,2.94-1.55A102.15,102.15,0,0,0,151,224a119.48,119.48,0,0,0,19.39-18.29c11.59-13.57,20.26-29.45,26.78-46.05.83-2.07,1.52-4.19,2.29-6.29l1.13-3.15c.35-1.06.66-2.14,1-3.2l2-6.41,1.69-6.48c1.21-4.31,2-8.71,3-13.07s1.54-8.81,2.3-13.21a338.3,338.3,0,0,0,3.25-53.5L215,55.73h0a201.38,201.38,0,0,1-23.57-3,189.79,189.79,0,0,1-23-5.7,130.09,130.09,0,0,1-21.93-9.12,88.1,88.1,0,0,1-10.11-6.32,70.53,70.53,0,0,1-9-7.84h1.2a71.31,71.31,0,0,1-9.06,7.77,88.42,88.42,0,0,1-10.13,6.22,127,127,0,0,1-22,8.89,189.82,189.82,0,0,1-23,5.51,203.07,203.07,0,0,1-23.5,2.8l.53-.55a371.91,371.91,0,0,0,3.63,53.56,248.81,248.81,0,0,0,13.4,51.89c6.52,16.63,15.29,32.51,27,46.06a119.39,119.39,0,0,0,19.49,18.24,102.25,102.25,0,0,0,11.23,7.18c1,.54,2,1.06,3,1.54s2,1,3,1.42,2,.88,3.06,1.27c.52.19,1,.4,1.55.57l.78.26.38.12.15,0Z"/><path class="cls-2" d="M182,56.39a219.71,219.71,0,0,0,26.25,3.75.58.58,0,0,1,.54.58v0c0,9.71-.37,19.44-1.16,29.13a1,1,0,0,1-1.07.92,1,1,0,0,1-.92-1.08v0c1-9.62,1.68-19.29,2-29l.54.6a217.09,217.09,0,0,1-26.23-4.49.22.22,0,0,1-.17-.27A.21.21,0,0,1,182,56.39Z"/><path class="cls-2" d="M49.13,89.84c-1.05-9.66-1.68-19.38-2-29.1a.61.61,0,0,1,.55-.63h0a216.66,216.66,0,0,0,26.32-4.52,1,1,0,1,1,.46,2h0a219.94,219.94,0,0,1-26.64,3.83l.57-.64c0,9.7.38,19.4,1.16,29.08a.23.23,0,0,1-.45,0Z"/><path class="cls-5" d="M128,163.94v73.59S40.9,213.67,40.9,54.38c0,0,59.74-2.52,87.1-31.21V163.94Z"/><path class="cls-2" d="M129,163.94l-.13,36.79-.23,36.8v0a.58.58,0,0,1-.59.58l-.17,0a68.17,68.17,0,0,1-12.36-5.59,108.08,108.08,0,0,1-11.29-7.41,124.37,124.37,0,0,1-19.55-18.55C72.93,192.87,64.13,176.9,57.51,160.2a253.06,253.06,0,0,1-13.72-52.07,371.91,371.91,0,0,1-4.07-53.75,1.17,1.17,0,0,1,1.1-1.17h0a203.1,203.1,0,0,0,23.25-2.9,188.22,188.22,0,0,0,22.75-5.57c1.86-.57,3.71-1.21,5.54-1.86l2.76-1,2.72-1.06c3.6-1.46,7.16-3,10.61-4.83a87.5,87.5,0,0,0,10-6,65.48,65.48,0,0,0,8.88-7.48h0a.9.9,0,0,1,1.28,0,.93.93,0,0,1,.27.66c-.13,11.73,0,23.46,0,35.19l0,35.2Zm-1.92,0,.07-70.38,0-35.2c0-11.73.08-23.46,0-35.19l1.57.63a76.62,76.62,0,0,1-9,7.94,90,90,0,0,1-10.07,6.44,101,101,0,0,1-10.78,5.1c-3.67,1.54-7.43,2.83-11.22,4a191.48,191.48,0,0,1-23.1,5.5A204.29,204.29,0,0,1,41,55.55l1.13-1.17a372.29,372.29,0,0,0,3.42,53.49,247.77,247.77,0,0,0,13.09,51.92c6.49,16.63,15.1,32.58,26.71,46.21a123.8,123.8,0,0,0,19.45,18.36A97.72,97.72,0,0,0,116,231.6,66,66,0,0,0,128.16,237l-.76.58-.23-36.8Z"/><path class="cls-6" d="M215.58,43c-15.34-.65-59.49-6.88-79.33-27.69L128,6.65l-8.25,8.65C95.93,40.27,41,43,40.42,43l-10.92.46V54.38c0,68.82,15.55,122.2,46.23,158.65C99.52,241.3,124,248.24,125,248.52l3,.83,3-.83c1-.28,25.47-7.22,49.26-35.49C211,176.58,226.5,123.2,226.5,54.38V43.45ZM128,237.53S40.9,213.67,40.9,54.38c0,0,59.74-2.52,87.1-31.21,27.36,28.69,87.1,31.21,87.1,31.21C215.1,213.67,128,237.53,128,237.53Z"/><path class="cls-2" d="M215.54,44a175.73,175.73,0,0,1-24.32-3.18,173.17,173.17,0,0,1-23.66-6.36,100.18,100.18,0,0,1-22.09-10.65A56.6,56.6,0,0,1,136,15.93l-8.4-8.86h.88c-3.16,3.25-6.22,6.54-9.46,9.75a61.08,61.08,0,0,1-10.86,8.29,109,109,0,0,1-25,10.74A190,190,0,0,1,56.6,41.69c-4.49.67-9,1.21-13.51,1.58-2.26.2-4.53.27-6.79.37l-6.78.3.47-.49c0,5.08,0,10.18.1,15.25l.12,7.62c.08,2.54.23,5.08.33,7.61.17,5.08.63,10.14,1,15.2.16,2.54.51,5.06.78,7.58s.53,5.05.91,7.56c.76,5,1.42,10,2.44,15l.7,3.74c.22,1.25.47,2.5.77,3.73l1.7,7.42c.55,2.47,1.3,4.89,1.94,7.35l1,3.66c.35,1.22.76,2.42,1.14,3.63.79,2.41,1.51,4.84,2.35,7.23l2.64,7.12A199.6,199.6,0,0,0,61.1,190.49,164,164,0,0,0,78.91,215c.85.93,1.66,1.9,2.54,2.8l2.64,2.71,1.32,1.35,1.39,1.29,2.76,2.58a126.84,126.84,0,0,0,11.85,9.36,108.67,108.67,0,0,0,13,7.72c2.23,1.14,4.53,2.14,6.85,3.07,1.16.44,2.33.88,3.5,1.24s2.43.67,3.64,1h-.7c1.21-.34,2.5-.68,3.63-1s2.34-.8,3.49-1.26c2.31-.95,4.61-1.94,6.84-3.08a112.09,112.09,0,0,0,12.95-7.7,128.22,128.22,0,0,0,11.92-9.28l2.78-2.55,1.4-1.28,1.33-1.35,2.67-2.68c.89-.9,1.71-1.86,2.56-2.8A156,156,0,0,0,195,190.57a198,198,0,0,0,13.07-27.38l2.61-7.14c.83-2.39,1.54-4.83,2.32-7.24.37-1.21.78-2.41,1.12-3.63l1-3.67c.63-2.45,1.37-4.88,1.91-7.36l1.66-7.42c.3-1.23.54-2.48.75-3.72l.69-3.75c1-5,1.62-10,2.36-15,.36-2.51.57-5,.87-7.56s.59-5,.74-7.57c.37-5.06.82-10.12,1-15.19.1-2.54.24-5.07.3-7.61l.11-7.61c.1-5.07,0-10.17,0-15.25l.92.95Zm.08-1.92,10.92.47a1,1,0,0,1,.92,1c0,5.09,0,10.17-.08,15.27l-.12,7.64c-.06,2.55-.21,5.1-.32,7.64-.16,5.1-.61,10.18-1,15.26-.16,2.55-.5,5.08-.76,7.61s-.52,5.08-.89,7.6c-.75,5-1.39,10.11-2.4,15.11l-.69,3.77c-.22,1.25-.47,2.51-.76,3.75l-1.68,7.47c-.55,2.49-1.3,4.93-1.93,7.4l-1,3.7c-.35,1.23-.76,2.44-1.13,3.66-.79,2.43-1.51,4.88-2.35,7.29l-2.64,7.19a199.9,199.9,0,0,1-13.22,27.62,174.9,174.9,0,0,1-17.88,24.88c-.85,1-1.65,2-2.54,2.89L173.44,222l-1.32,1.4-1.39,1.33L168,227.38a131.18,131.18,0,0,1-12,9.71,107.81,107.81,0,0,1-13.2,8c-2.29,1.18-4.64,2.24-7.05,3.2-1.22.46-2.43.91-3.69,1.3s-2.48.68-3.72,1h0a1.25,1.25,0,0,1-.69,0c-1.24-.35-2.41-.66-3.71-1.05s-2.47-.86-3.68-1.33c-2.4-1-4.76-2-7-3.21a109.78,109.78,0,0,1-13.2-8,130.84,130.84,0,0,1-12-9.62l-2.79-2.64-1.4-1.33-1.33-1.38-2.67-2.77c-.89-.92-1.71-1.92-2.56-2.87a165.4,165.4,0,0,1-17.89-24.92,199,199,0,0,1-13.12-27.69l-2.62-7.2c-.83-2.41-1.53-4.87-2.31-7.3-.37-1.22-.77-2.43-1.12-3.66l-1-3.7c-.63-2.48-1.36-4.92-1.9-7.42l-1.64-7.47c-.29-1.24-.53-2.49-.74-3.75l-.67-3.77c-1-5-1.6-10.07-2.33-15.11C30.74,94.32,29.81,84.17,29.43,74c-.1-2.55-.24-5.09-.3-7.64L29,58.71c-.1-5.09,0-10.17,0-15.26a.49.49,0,0,1,.47-.49l6.78-.27c2.26-.1,4.52-.15,6.76-.34,4.5-.35,9-.87,13.45-1.52A185.75,185.75,0,0,0,82.88,35,106.7,106.7,0,0,0,107.6,24.27,59.78,59.78,0,0,0,118.21,16c3.16-3.18,6.23-6.54,9.35-9.81a.61.61,0,0,1,.86,0l0,0L136.9,15a55.9,55.9,0,0,0,9.34,7.58,98.57,98.57,0,0,0,21.84,10.32,170.57,170.57,0,0,0,23.48,6.13A176.1,176.1,0,0,0,215.62,42Z"/><path class="cls-2" d="M128,238.49l-.43-.08-.26-.08-.41-.14c-.28-.09-.54-.19-.81-.29-.55-.19-1.07-.4-1.6-.61-1.06-.43-2.1-.88-3.13-1.36s-2.06-1-3-1.5-2-1.05-3-1.62a102.21,102.21,0,0,1-11.3-7.47,128.08,128.08,0,0,1-19.51-18.66c-11.66-13.77-20.31-29.82-26.89-46.52a253.18,253.18,0,0,1-13.41-52.09,372.5,372.5,0,0,1-3.86-53.69.54.54,0,0,1,.51-.54h0A199.21,199.21,0,0,0,64.21,51,188.33,188.33,0,0,0,87.06,45.4a126.52,126.52,0,0,0,21.66-9,87.36,87.36,0,0,0,9.91-6.19,70.28,70.28,0,0,0,8.77-7.65.84.84,0,0,1,1.18,0h0a68.61,68.61,0,0,0,8.83,7.57,87.12,87.12,0,0,0,9.94,6.11A124.64,124.64,0,0,0,169.06,45a189.58,189.58,0,0,0,22.83,5.35A201.26,201.26,0,0,0,215.15,53h.06a1.32,1.32,0,0,1,1.24,1.34,413.05,413.05,0,0,1-4.24,53.75,254.23,254.23,0,0,1-13.48,52.17c-6.58,16.73-15.33,32.78-27.07,46.52a127.54,127.54,0,0,1-19.61,18.62,103.74,103.74,0,0,1-11.34,7.42c-1,.57-2,1.11-3,1.61s-2,1-3.06,1.49-2.07.92-3.13,1.34c-.53.21-1.06.42-1.6.61-.28.09-.54.2-.82.28l-.41.14-.26.08A3.25,3.25,0,0,1,128,238.49Zm0-1.92,0,0,.15,0,.38-.12.78-.27c.52-.17,1-.38,1.54-.57q1.55-.6,3.06-1.29c1-.46,2-.92,3-1.43s2-1,2.94-1.55A102.15,102.15,0,0,0,151,224a119.48,119.48,0,0,0,19.39-18.29c11.59-13.57,20.26-29.45,26.78-46.05.83-2.07,1.52-4.19,2.29-6.29l1.13-3.15c.35-1.06.66-2.14,1-3.2l2-6.41,1.69-6.48c1.21-4.31,2-8.71,3-13.07s1.54-8.81,2.3-13.21a338.3,338.3,0,0,0,3.25-53.5L215,55.73h0a201.38,201.38,0,0,1-23.57-3,189.79,189.79,0,0,1-23-5.7,130.09,130.09,0,0,1-21.93-9.12,88.1,88.1,0,0,1-10.11-6.32,70.53,70.53,0,0,1-9-7.84h1.2a71.31,71.31,0,0,1-9.06,7.77,88.42,88.42,0,0,1-10.13,6.22,127,127,0,0,1-22,8.89,189.82,189.82,0,0,1-23,5.51,203.07,203.07,0,0,1-23.5,2.8l.53-.55a371.91,371.91,0,0,0,3.63,53.56,248.81,248.81,0,0,0,13.4,51.89c6.52,16.63,15.29,32.51,27,46.06a119.39,119.39,0,0,0,19.49,18.24,102.25,102.25,0,0,0,11.23,7.18c1,.54,2,1.06,3,1.54s2,1,3,1.42,2,.88,3.06,1.27c.52.19,1,.4,1.55.57l.78.26.38.12.15,0Z"/><path class="cls-6" d="M128,237.53S40.9,213.67,40.9,54.38c0,0,59.74-2.52,87.1-31.21V237.53Z"/><path class="cls-2" d="M128.58,238.3a1.55,1.55,0,0,1-.9.13l-.21-.05,0,0-.11,0-.41-.14c-.28-.09-.54-.19-.81-.29-.55-.19-1.07-.41-1.6-.62-1.06-.42-2.1-.87-3.13-1.36s-2-1-3-1.5-2-1.06-3-1.62A105.17,105.17,0,0,1,104,225.31a127.53,127.53,0,0,1-19.5-18.66c-11.62-13.79-20.35-29.78-26.91-46.49-.83-2.09-1.52-4.23-2.3-6.34l-1.13-3.17c-.35-1.07-.66-2.15-1-3.22l-2-6.44-1.71-6.52c-1.23-4.32-2-8.75-3-13.13l-.36-1.64L45.86,118l-.57-3.32-1.16-6.64c-.57-4.45-1.22-8.9-1.72-13.36s-.89-8.94-1.2-13.42-.57-9-.75-13.45l-.31-13.47a.73.73,0,0,1,.68-.75h0a203.37,203.37,0,0,0,23.29-3A189,189,0,0,0,86.94,45a126.6,126.6,0,0,0,21.57-9,85.75,85.75,0,0,0,9.87-6.16,69.36,69.36,0,0,0,8.72-7.59,1.26,1.26,0,0,1,1.76,0,1.28,1.28,0,0,1,.38.9c0,17.86.22,35.73-.06,53.59-.13,8.93-.28,17.86-.32,26.8l0,26.79-.08,53.94Zm-1.16-1.54-.18-53.17-.08-53.24,0-26.79c0-8.94-.19-17.87-.32-26.8-.28-17.86-.1-35.73-.06-53.59l2.14.86a71.23,71.23,0,0,1-9.11,7.82,90.34,90.34,0,0,1-10.18,6.27A128.09,128.09,0,0,1,87.55,47a190.45,190.45,0,0,1-23.08,5.43,203.85,203.85,0,0,1-23.54,2.71l.72-.75.16,13.43c.13,4.47.4,8.94.59,13.41s.75,8.92,1.11,13.38,1.1,8.88,1.65,13.33a243.08,243.08,0,0,0,13.31,51.9C65,176.45,73.7,192.38,85.41,205.91a119.86,119.86,0,0,0,19.49,18.25,103.29,103.29,0,0,0,11.25,7.16c1,.54,1.95,1.06,2.95,1.54s2,1,3,1.42,2,.87,3.06,1.27c.52.19,1,.39,1.55.56l.78.26.38.12.1,0,0,0-.11,0A.57.57,0,0,0,127.42,236.76Z"/><polygon class="cls-5" points="194.69 109.06 137.63 163.78 127.6 173.4 89.81 133.99 103.1 121.24 127.21 146.37 139.06 135.02 181.01 94.78 194.69 109.06"/><path class="cls-2" d="M195.1,109.07,178.55,125.3l-16.72,16.29L145,157.85c-5.64,5.42-11.25,10.75-17.14,15.8h0a.37.37,0,0,1-.49,0l-19-19.57-19-19.61a.68.68,0,0,1,0-1h0l13.24-12.8a.75.75,0,0,1,1.07,0h0l24.22,25-1.29,0,13.39-13,13.46-12.89L166.89,107c4.47-4.31,9-8.54,13.53-12.81l0,0a.82.82,0,0,1,1.17,0h0Zm-.82,0L180.39,95.38l1.21,0c-4.46,4.33-8.88,8.69-13.37,13l-13.44,12.91-13.44,12.9L127.84,147h0a.9.9,0,0,1-1.28,0l-24-25.23,1.08,0L90.29,134.48l0-1,18.79,19.8,18.75,19.84h-.49c5.29-5.67,10.86-11.07,16.4-16.36l16.7-15.91L177.28,125Z"/></svg>