<svg id="Layer_1" data-name="Layer 1" xmlns="http://www.w3.org/2000/svg" xmlns:xlink="http://www.w3.org/1999/xlink" viewBox="0 0 256 256"><defs><style>.cls-1{fill:none;}.cls-2{fill:#253759;}.cls-3{clip-path:url(#clip-path);}.cls-4{clip-path:url(#clip-path-2);}.cls-5{fill:#fff;}.cls-6{fill:#ff9d9d;}.cls-7{fill:url(#New_Pattern_Swatch_1);}.cls-8{fill:#d5ebfe;}.cls-9{fill:#a7a6c1;}.cls-10{fill:url(#New_Pattern_Swatch_1-5);}.cls-11{opacity:0.3;}.cls-12{fill:#a6d5fe;}</style><clipPath id="clip-path"><rect class="cls-1" x="42.85" width="43" height="43"/></clipPath><clipPath id="clip-path-2"><rect class="cls-1" x="-0.05" width="43" height="43"/></clipPath><pattern id="New_Pattern_Swatch_1" data-name="New Pattern Swatch 1" width="42.9" height="43" patternTransform="translate(0 596.97)" patternUnits="userSpaceOnUse" viewBox="0 0 42.9 43"><rect class="cls-1" width="42.9" height="43"/><circle class="cls-2" cx="42.91" cy="1.85" r="0.57"/><circle class="cls-2" cx="42.91" cy="5.42" r="0.57"/><circle class="cls-2" cx="42.91" cy="8.99" r="0.57"/><circle class="cls-2" cx="42.91" cy="12.57" r="0.57"/><circle class="cls-2" cx="42.91" cy="16.14" r="0.57"/><circle class="cls-2" cx="42.91" cy="19.71" r="0.57"/><circle class="cls-2" cx="42.91" cy="23.29" r="0.57"/><circle class="cls-2" cx="42.91" cy="26.86" r="0.57"/><circle class="cls-2" cx="42.91" cy="30.43" r="0.57"/><circle class="cls-2" cx="42.91" cy="34.01" r="0.57"/><circle class="cls-2" cx="42.91" cy="37.58" r="0.57"/><circle class="cls-2" cx="42.91" cy="41.15" r="0.57"/><circle class="cls-2" cx="42.89" cy="1.85" r="0.57"/><circle class="cls-2" cx="42.89" cy="5.42" r="0.57"/><circle class="cls-2" cx="42.89" cy="8.99" r="0.57"/><circle class="cls-2" cx="42.89" cy="12.57" r="0.57"/><circle class="cls-2" cx="42.89" cy="16.14" r="0.57"/><circle class="cls-2" cx="42.89" cy="19.71" r="0.57"/><circle class="cls-2" cx="42.89" cy="23.29" r="0.57"/><circle class="cls-2" cx="42.89" cy="26.86" r="0.57"/><circle class="cls-2" cx="42.89" cy="30.43" r="0.57"/><circle class="cls-2" cx="42.89" cy="34.01" r="0.57"/><circle class="cls-2" cx="42.89" cy="37.58" r="0.57"/><circle class="cls-2" cx="42.89" cy="41.15" r="0.57"/><g class="cls-3"><circle class="cls-2" cx="42.81" cy="1.85" r="0.57"/><circle class="cls-2" cx="42.81" cy="5.42" r="0.57"/><circle class="cls-2" cx="42.81" cy="8.99" r="0.57"/><circle class="cls-2" cx="42.81" cy="12.57" r="0.57"/><circle class="cls-2" cx="42.81" cy="16.14" r="0.57"/><circle class="cls-2" cx="42.81" cy="19.71" r="0.57"/><circle class="cls-2" cx="42.81" cy="23.29" r="0.57"/><circle class="cls-2" cx="42.81" cy="26.86" r="0.57"/><circle class="cls-2" cx="42.81" cy="30.43" r="0.57"/><circle class="cls-2" cx="42.81" cy="34.01" r="0.57"/><circle class="cls-2" cx="42.81" cy="37.58" r="0.57"/><circle class="cls-2" cx="42.81" cy="41.15" r="0.57"/><circle class="cls-2" cx="42.79" cy="1.85" r="0.57"/><circle class="cls-2" cx="42.79" cy="5.42" r="0.57"/><circle class="cls-2" cx="42.79" cy="8.99" r="0.57"/><circle class="cls-2" cx="42.79" cy="12.57" r="0.57"/><circle class="cls-2" cx="42.79" cy="16.14" r="0.57"/><circle class="cls-2" cx="42.79" cy="19.71" r="0.57"/><circle class="cls-2" cx="42.79" cy="23.29" r="0.57"/><circle class="cls-2" cx="42.79" cy="26.86" r="0.57"/><circle class="cls-2" cx="42.79" cy="30.43" r="0.57"/><circle class="cls-2" cx="42.79" cy="34.01" r="0.57"/><circle class="cls-2" cx="42.79" cy="37.58" r="0.57"/><circle class="cls-2" cx="42.79" cy="41.15" r="0.57"/></g><circle class="cls-2" cx="42.91" cy="1.85" r="0.57"/><circle class="cls-2" cx="42.91" cy="5.42" r="0.57"/><circle class="cls-2" cx="42.91" cy="8.99" r="0.57"/><circle class="cls-2" cx="42.91" cy="12.57" r="0.57"/><circle class="cls-2" cx="42.91" cy="16.14" r="0.57"/><circle class="cls-2" cx="42.91" cy="19.71" r="0.57"/><circle class="cls-2" cx="42.91" cy="23.29" r="0.57"/><circle class="cls-2" cx="42.91" cy="26.86" r="0.57"/><circle class="cls-2" cx="42.91" cy="30.43" r="0.57"/><circle class="cls-2" cx="42.91" cy="34.01" r="0.57"/><circle class="cls-2" cx="42.91" cy="37.58" r="0.57"/><circle class="cls-2" cx="42.91" cy="41.15" r="0.57"/><circle class="cls-2" cx="0.01" cy="1.85" r="0.57"/><circle class="cls-2" cx="3.59" cy="1.85" r="0.57"/><circle class="cls-2" cx="7.16" cy="1.85" r="0.57"/><circle class="cls-2" cx="10.73" cy="1.85" r="0.57"/><circle class="cls-2" cx="0.01" cy="5.42" r="0.57"/><circle class="cls-2" cx="3.59" cy="5.42" r="0.57"/><circle class="cls-2" cx="7.16" cy="5.42" r="0.57"/><circle class="cls-2" cx="10.73" cy="5.42" r="0.57"/><circle class="cls-2" cx="0.01" cy="8.99" r="0.57"/><circle class="cls-2" cx="3.59" cy="8.99" r="0.57"/><circle class="cls-2" cx="7.16" cy="8.99" r="0.57"/><circle class="cls-2" cx="10.73" cy="8.99" r="0.57"/><circle class="cls-2" cx="0.01" cy="12.57" r="0.57"/><circle class="cls-2" cx="3.59" cy="12.57" r="0.57"/><circle class="cls-2" cx="7.16" cy="12.57" r="0.57"/><circle class="cls-2" cx="10.73" cy="12.57" r="0.57"/><circle class="cls-2" cx="0.01" cy="16.14" r="0.57"/><circle class="cls-2" cx="3.59" cy="16.14" r="0.57"/><circle class="cls-2" cx="7.16" cy="16.14" r="0.57"/><circle class="cls-2" cx="10.73" cy="16.14" r="0.57"/><circle class="cls-2" cx="0.01" cy="19.71" r="0.57"/><circle class="cls-2" cx="3.59" cy="19.71" r="0.57"/><circle class="cls-2" cx="7.16" cy="19.71" r="0.57"/><circle class="cls-2" cx="10.73" cy="19.71" r="0.57"/><circle class="cls-2" cx="14.3" cy="1.85" r="0.57"/><circle class="cls-2" cx="17.88" cy="1.85" r="0.57"/><circle class="cls-2" cx="21.45" cy="1.85" r="0.57"/><circle class="cls-2" cx="25.02" cy="1.85" r="0.57"/><circle class="cls-2" cx="28.6" cy="1.85" r="0.57"/><circle class="cls-2" cx="14.3" cy="5.42" r="0.57"/><circle class="cls-2" cx="17.88" cy="5.42" r="0.57"/><circle class="cls-2" cx="21.45" cy="5.42" r="0.57"/><circle class="cls-2" cx="25.02" cy="5.42" r="0.57"/><circle class="cls-2" cx="28.6" cy="5.42" r="0.57"/><circle class="cls-2" cx="14.3" cy="8.99" r="0.57"/><circle class="cls-2" cx="17.88" cy="8.99" r="0.57"/><circle class="cls-2" cx="21.45" cy="8.99" r="0.57"/><circle class="cls-2" cx="25.02" cy="8.99" r="0.57"/><circle class="cls-2" cx="28.6" cy="8.99" r="0.57"/><circle class="cls-2" cx="14.3" cy="12.57" r="0.57"/><circle class="cls-2" cx="17.88" cy="12.57" r="0.57"/><circle class="cls-2" cx="21.45" cy="12.57" r="0.57"/><circle class="cls-2" cx="25.02" cy="12.57" r="0.57"/><circle class="cls-2" cx="28.6" cy="12.57" r="0.57"/><circle class="cls-2" cx="14.3" cy="16.14" r="0.57"/><circle class="cls-2" cx="17.88" cy="16.14" r="0.57"/><circle class="cls-2" cx="21.45" cy="16.14" r="0.57"/><circle class="cls-2" cx="25.02" cy="16.14" r="0.57"/><circle class="cls-2" cx="28.6" cy="16.14" r="0.57"/><circle class="cls-2" cx="14.3" cy="19.71" r="0.57"/><circle class="cls-2" cx="17.88" cy="19.71" r="0.57"/><circle class="cls-2" cx="21.45" cy="19.71" r="0.57"/><circle class="cls-2" cx="25.02" cy="19.71" r="0.57"/><circle class="cls-2" cx="28.6" cy="19.71" r="0.57"/><circle class="cls-2" cx="32.17" cy="1.85" r="0.57"/><circle class="cls-2" cx="35.74" cy="1.85" r="0.57"/><circle class="cls-2" cx="39.31" cy="1.85" r="0.57"/><circle class="cls-2" cx="42.89" cy="1.85" r="0.57"/><circle class="cls-2" cx="32.17" cy="5.42" r="0.57"/><circle class="cls-2" cx="35.74" cy="5.42" r="0.57"/><circle class="cls-2" cx="39.31" cy="5.42" r="0.57"/><circle class="cls-2" cx="42.89" cy="5.42" r="0.57"/><circle class="cls-2" cx="32.17" cy="8.99" r="0.57"/><circle class="cls-2" cx="35.74" cy="8.99" r="0.57"/><circle class="cls-2" cx="39.31" cy="8.99" r="0.57"/><circle class="cls-2" cx="42.89" cy="8.99" r="0.57"/><circle class="cls-2" cx="32.17" cy="12.57" r="0.57"/><circle class="cls-2" cx="35.74" cy="12.57" r="0.57"/><circle class="cls-2" cx="39.31" cy="12.57" r="0.57"/><circle class="cls-2" cx="42.89" cy="12.57" r="0.57"/><circle class="cls-2" cx="32.17" cy="16.14" r="0.57"/><circle class="cls-2" cx="35.74" cy="16.14" r="0.57"/><circle class="cls-2" cx="39.31" cy="16.14" r="0.57"/><circle class="cls-2" cx="42.89" cy="16.14" r="0.57"/><circle class="cls-2" cx="32.17" cy="19.71" r="0.57"/><circle class="cls-2" cx="35.74" cy="19.71" r="0.57"/><circle class="cls-2" cx="39.31" cy="19.71" r="0.57"/><circle class="cls-2" cx="42.89" cy="19.71" r="0.57"/><circle class="cls-2" cx="0.01" cy="23.29" r="0.57"/><circle class="cls-2" cx="3.59" cy="23.29" r="0.57"/><circle class="cls-2" cx="7.16" cy="23.29" r="0.57"/><circle class="cls-2" cx="10.73" cy="23.29" r="0.57"/><circle class="cls-2" cx="0.01" cy="26.86" r="0.57"/><circle class="cls-2" cx="3.59" cy="26.86" r="0.57"/><circle class="cls-2" cx="7.16" cy="26.86" r="0.57"/><circle class="cls-2" cx="10.73" cy="26.86" r="0.57"/><circle class="cls-2" cx="0.01" cy="30.43" r="0.57"/><circle class="cls-2" cx="3.59" cy="30.43" r="0.57"/><circle class="cls-2" cx="7.16" cy="30.43" r="0.57"/><circle class="cls-2" cx="10.73" cy="30.43" r="0.57"/><circle class="cls-2" cx="0.01" cy="34.01" r="0.57"/><circle class="cls-2" cx="3.59" cy="34.01" r="0.57"/><circle class="cls-2" cx="7.16" cy="34.01" r="0.57"/><circle class="cls-2" cx="10.73" cy="34.01" r="0.57"/><circle class="cls-2" cx="0.01" cy="37.58" r="0.57"/><circle class="cls-2" cx="3.59" cy="37.58" r="0.57"/><circle class="cls-2" cx="7.16" cy="37.58" r="0.57"/><circle class="cls-2" cx="10.73" cy="37.58" r="0.57"/><circle class="cls-2" cx="0.01" cy="41.15" r="0.57"/><circle class="cls-2" cx="3.59" cy="41.15" r="0.57"/><circle class="cls-2" cx="7.16" cy="41.15" r="0.57"/><circle class="cls-2" cx="10.73" cy="41.15" r="0.57"/><circle class="cls-2" cx="14.3" cy="23.29" r="0.57"/><circle class="cls-2" cx="17.88" cy="23.29" r="0.57"/><circle class="cls-2" cx="21.45" cy="23.29" r="0.57"/><circle class="cls-2" cx="25.02" cy="23.29" r="0.57"/><circle class="cls-2" cx="28.6" cy="23.29" r="0.57"/><circle class="cls-2" cx="14.3" cy="26.86" r="0.57"/><circle class="cls-2" cx="17.88" cy="26.86" r="0.57"/><circle class="cls-2" cx="21.45" cy="26.86" r="0.57"/><circle class="cls-2" cx="25.02" cy="26.86" r="0.57"/><circle class="cls-2" cx="28.6" cy="26.86" r="0.57"/><circle class="cls-2" cx="14.3" cy="30.43" r="0.57"/><circle class="cls-2" cx="17.88" cy="30.43" r="0.57"/><circle class="cls-2" cx="21.45" cy="30.43" r="0.57"/><circle class="cls-2" cx="25.02" cy="30.43" r="0.57"/><circle class="cls-2" cx="28.6" cy="30.43" r="0.57"/><circle class="cls-2" cx="14.3" cy="34.01" r="0.57"/><circle class="cls-2" cx="17.88" cy="34.01" r="0.57"/><circle class="cls-2" cx="21.45" cy="34.01" r="0.57"/><circle class="cls-2" cx="25.02" cy="34.01" r="0.57"/><circle class="cls-2" cx="28.6" cy="34.01" r="0.57"/><circle class="cls-2" cx="14.3" cy="37.58" r="0.57"/><circle class="cls-2" cx="17.88" cy="37.58" r="0.57"/><circle class="cls-2" cx="21.45" cy="37.58" r="0.57"/><circle class="cls-2" cx="25.02" cy="37.58" r="0.57"/><circle class="cls-2" cx="28.6" cy="37.58" r="0.57"/><circle class="cls-2" cx="14.3" cy="41.15" r="0.57"/><circle class="cls-2" cx="17.88" cy="41.15" r="0.57"/><circle class="cls-2" cx="21.45" cy="41.15" r="0.57"/><circle class="cls-2" cx="25.02" cy="41.15" r="0.57"/><circle class="cls-2" cx="28.6" cy="41.15" r="0.57"/><circle class="cls-2" cx="32.17" cy="23.29" r="0.57"/><circle class="cls-2" cx="35.74" cy="23.29" r="0.57"/><circle class="cls-2" cx="39.31" cy="23.29" r="0.57"/><circle class="cls-2" cx="42.89" cy="23.29" r="0.57"/><circle class="cls-2" cx="32.17" cy="26.86" r="0.57"/><circle class="cls-2" cx="35.74" cy="26.86" r="0.57"/><circle class="cls-2" cx="39.31" cy="26.86" r="0.57"/><circle class="cls-2" cx="42.89" cy="26.86" r="0.57"/><circle class="cls-2" cx="32.17" cy="30.43" r="0.57"/><circle class="cls-2" cx="35.74" cy="30.43" r="0.57"/><circle class="cls-2" cx="39.31" cy="30.43" r="0.57"/><circle class="cls-2" cx="42.89" cy="30.43" r="0.57"/><circle class="cls-2" cx="32.17" cy="34.01" r="0.57"/><circle class="cls-2" cx="35.74" cy="34.01" r="0.57"/><circle class="cls-2" cx="39.31" cy="34.01" r="0.57"/><circle class="cls-2" cx="42.89" cy="34.01" r="0.57"/><circle class="cls-2" cx="32.17" cy="37.58" r="0.57"/><circle class="cls-2" cx="35.74" cy="37.58" r="0.57"/><circle class="cls-2" cx="39.31" cy="37.58" r="0.57"/><circle class="cls-2" cx="42.89" cy="37.58" r="0.57"/><circle class="cls-2" cx="32.17" cy="41.15" r="0.57"/><circle class="cls-2" cx="35.74" cy="41.15" r="0.57"/><circle class="cls-2" cx="39.31" cy="41.15" r="0.57"/><circle class="cls-2" cx="42.89" cy="41.15" r="0.57"/><circle class="cls-2" cx="-0.01" cy="1.85" r="0.57"/><circle class="cls-2" cx="-0.01" cy="5.42" r="0.57"/><circle class="cls-2" cx="-0.01" cy="8.99" r="0.57"/><circle class="cls-2" cx="-0.01" cy="12.57" r="0.57"/><circle class="cls-2" cx="-0.01" cy="16.14" r="0.57"/><circle class="cls-2" cx="-0.01" cy="19.71" r="0.57"/><circle class="cls-2" cx="-0.01" cy="23.29" r="0.57"/><circle class="cls-2" cx="-0.01" cy="26.86" r="0.57"/><circle class="cls-2" cx="-0.01" cy="30.43" r="0.57"/><circle class="cls-2" cx="-0.01" cy="34.01" r="0.57"/><circle class="cls-2" cx="-0.01" cy="37.58" r="0.57"/><circle class="cls-2" cx="-0.01" cy="41.15" r="0.57"/><g class="cls-4"><circle class="cls-2" cx="-0.09" cy="1.85" r="0.57"/><circle class="cls-2" cx="-0.09" cy="5.42" r="0.57"/><circle class="cls-2" cx="-0.09" cy="8.99" r="0.57"/><circle class="cls-2" cx="-0.09" cy="12.57" r="0.57"/><circle class="cls-2" cx="-0.09" cy="16.14" r="0.57"/><circle class="cls-2" cx="-0.09" cy="19.71" r="0.57"/><circle class="cls-2" cx="-0.09" cy="23.29" r="0.57"/><circle class="cls-2" cx="-0.09" cy="26.86" r="0.57"/><circle class="cls-2" cx="-0.09" cy="30.43" r="0.57"/><circle class="cls-2" cx="-0.09" cy="34.01" r="0.57"/><circle class="cls-2" cx="-0.09" cy="37.58" r="0.57"/><circle class="cls-2" cx="-0.09" cy="41.15" r="0.57"/><circle class="cls-2" cx="-0.11" cy="1.85" r="0.57"/><circle class="cls-2" cx="-0.11" cy="5.42" r="0.57"/><circle class="cls-2" cx="-0.11" cy="8.99" r="0.57"/><circle class="cls-2" cx="-0.11" cy="12.57" r="0.57"/><circle class="cls-2" cx="-0.11" cy="16.14" r="0.57"/><circle class="cls-2" cx="-0.11" cy="19.71" r="0.57"/><circle class="cls-2" cx="-0.11" cy="23.29" r="0.57"/><circle class="cls-2" cx="-0.11" cy="26.86" r="0.57"/><circle class="cls-2" cx="-0.11" cy="30.43" r="0.57"/><circle class="cls-2" cx="-0.11" cy="34.01" r="0.57"/><circle class="cls-2" cx="-0.11" cy="37.58" r="0.57"/><circle class="cls-2" cx="-0.11" cy="41.15" r="0.57"/></g><circle class="cls-2" cx="0.01" cy="1.85" r="0.57"/><circle class="cls-2" cx="0.01" cy="5.42" r="0.57"/><circle class="cls-2" cx="0.01" cy="8.99" r="0.57"/><circle class="cls-2" cx="0.01" cy="12.57" r="0.57"/><circle class="cls-2" cx="0.01" cy="16.14" r="0.57"/><circle class="cls-2" cx="0.01" cy="19.71" r="0.57"/><circle class="cls-2" cx="0.01" cy="23.29" r="0.57"/><circle class="cls-2" cx="0.01" cy="26.86" r="0.57"/><circle class="cls-2" cx="0.01" cy="30.43" r="0.57"/><circle class="cls-2" cx="0.01" cy="34.01" r="0.57"/><circle class="cls-2" cx="0.01" cy="37.58" r="0.57"/><circle class="cls-2" cx="0.01" cy="41.15" r="0.57"/><circle class="cls-2" cx="-0.01" cy="1.85" r="0.57"/><circle class="cls-2" cx="-0.01" cy="5.42" r="0.57"/><circle class="cls-2" cx="-0.01" cy="8.99" r="0.57"/><circle class="cls-2" cx="-0.01" cy="12.57" r="0.57"/><circle class="cls-2" cx="-0.01" cy="16.14" r="0.57"/><circle class="cls-2" cx="-0.01" cy="19.71" r="0.57"/><circle class="cls-2" cx="-0.01" cy="23.29" r="0.57"/><circle class="cls-2" cx="-0.01" cy="26.86" r="0.57"/><circle class="cls-2" cx="-0.01" cy="30.43" r="0.57"/><circle class="cls-2" cx="-0.01" cy="34.01" r="0.57"/><circle class="cls-2" cx="-0.01" cy="37.58" r="0.57"/><circle class="cls-2" cx="-0.01" cy="41.15" r="0.57"/></pattern><pattern id="New_Pattern_Swatch_1-5" data-name="New Pattern Swatch 1" width="42.9" height="43" patternTransform="translate(0 183.34)" patternUnits="userSpaceOnUse" viewBox="0 0 42.9 43"><rect class="cls-1" width="42.9" height="43"/><circle class="cls-2" cx="42.91" cy="1.85" r="0.57"/><circle class="cls-2" cx="42.91" cy="5.42" r="0.57"/><circle class="cls-2" cx="42.91" cy="8.99" r="0.57"/><circle class="cls-2" cx="42.91" cy="12.57" r="0.57"/><circle class="cls-2" cx="42.91" cy="16.14" r="0.57"/><circle class="cls-2" cx="42.91" cy="19.71" r="0.57"/><circle class="cls-2" cx="42.91" cy="23.29" r="0.57"/><circle class="cls-2" cx="42.91" cy="26.86" r="0.57"/><circle class="cls-2" cx="42.91" cy="30.43" r="0.57"/><circle class="cls-2" cx="42.91" cy="34.01" r="0.57"/><circle class="cls-2" cx="42.91" cy="37.58" r="0.57"/><circle class="cls-2" cx="42.91" cy="41.15" r="0.57"/><circle class="cls-2" cx="42.89" cy="1.85" r="0.57"/><circle class="cls-2" cx="42.89" cy="5.42" r="0.57"/><circle class="cls-2" cx="42.89" cy="8.99" r="0.57"/><circle class="cls-2" cx="42.89" cy="12.57" r="0.57"/><circle class="cls-2" cx="42.89" cy="16.14" r="0.57"/><circle class="cls-2" cx="42.89" cy="19.71" r="0.57"/><circle class="cls-2" cx="42.89" cy="23.29" r="0.57"/><circle class="cls-2" cx="42.89" cy="26.86" r="0.57"/><circle class="cls-2" cx="42.89" cy="30.43" r="0.57"/><circle class="cls-2" cx="42.89" cy="34.01" r="0.57"/><circle class="cls-2" cx="42.89" cy="37.58" r="0.57"/><circle class="cls-2" cx="42.89" cy="41.15" r="0.57"/><g class="cls-3"><circle class="cls-2" cx="42.81" cy="1.85" r="0.57"/><circle class="cls-2" cx="42.81" cy="5.42" r="0.57"/><circle class="cls-2" cx="42.81" cy="8.99" r="0.57"/><circle class="cls-2" cx="42.81" cy="12.57" r="0.57"/><circle class="cls-2" cx="42.81" cy="16.14" r="0.57"/><circle class="cls-2" cx="42.81" cy="19.71" r="0.57"/><circle class="cls-2" cx="42.81" cy="23.29" r="0.57"/><circle class="cls-2" cx="42.81" cy="26.86" r="0.57"/><circle class="cls-2" cx="42.81" cy="30.43" r="0.57"/><circle class="cls-2" cx="42.81" cy="34.01" r="0.57"/><circle class="cls-2" cx="42.81" cy="37.58" r="0.57"/><circle class="cls-2" cx="42.81" cy="41.15" r="0.57"/><circle class="cls-2" cx="42.79" cy="1.85" r="0.57"/><circle class="cls-2" cx="42.79" cy="5.42" r="0.57"/><circle class="cls-2" cx="42.79" cy="8.99" r="0.57"/><circle class="cls-2" cx="42.79" cy="12.57" r="0.57"/><circle class="cls-2" cx="42.79" cy="16.14" r="0.57"/><circle class="cls-2" cx="42.79" cy="19.71" r="0.57"/><circle class="cls-2" cx="42.79" cy="23.29" r="0.57"/><circle class="cls-2" cx="42.79" cy="26.86" r="0.57"/><circle class="cls-2" cx="42.79" cy="30.43" r="0.57"/><circle class="cls-2" cx="42.79" cy="34.01" r="0.57"/><circle class="cls-2" cx="42.79" cy="37.58" r="0.57"/><circle class="cls-2" cx="42.79" cy="41.15" r="0.57"/></g><circle class="cls-2" cx="42.91" cy="1.85" r="0.57"/><circle class="cls-2" cx="42.91" cy="5.42" r="0.57"/><circle class="cls-2" cx="42.91" cy="8.99" r="0.57"/><circle class="cls-2" cx="42.91" cy="12.57" r="0.57"/><circle class="cls-2" cx="42.91" cy="16.14" r="0.57"/><circle class="cls-2" cx="42.91" cy="19.71" r="0.57"/><circle class="cls-2" cx="42.91" cy="23.29" r="0.57"/><circle class="cls-2" cx="42.91" cy="26.86" r="0.57"/><circle class="cls-2" cx="42.91" cy="30.43" r="0.57"/><circle class="cls-2" cx="42.91" cy="34.01" r="0.57"/><circle class="cls-2" cx="42.91" cy="37.58" r="0.57"/><circle class="cls-2" cx="42.91" cy="41.15" r="0.57"/><circle class="cls-2" cx="0.01" cy="1.85" r="0.57"/><circle class="cls-2" cx="3.59" cy="1.85" r="0.57"/><circle class="cls-2" cx="7.16" cy="1.85" r="0.57"/><circle class="cls-2" cx="10.73" cy="1.85" r="0.57"/><circle class="cls-2" cx="0.01" cy="5.42" r="0.57"/><circle class="cls-2" cx="3.59" cy="5.42" r="0.57"/><circle class="cls-2" cx="7.16" cy="5.42" r="0.57"/><circle class="cls-2" cx="10.73" cy="5.42" r="0.57"/><circle class="cls-2" cx="0.01" cy="8.99" r="0.57"/><circle class="cls-2" cx="3.59" cy="8.99" r="0.57"/><circle class="cls-2" cx="7.16" cy="8.99" r="0.57"/><circle class="cls-2" cx="10.73" cy="8.99" r="0.57"/><circle class="cls-2" cx="0.01" cy="12.57" r="0.57"/><circle class="cls-2" cx="3.59" cy="12.57" r="0.57"/><circle class="cls-2" cx="7.16" cy="12.57" r="0.57"/><circle class="cls-2" cx="10.73" cy="12.57" r="0.57"/><circle class="cls-2" cx="0.01" cy="16.14" r="0.57"/><circle class="cls-2" cx="3.59" cy="16.14" r="0.57"/><circle class="cls-2" cx="7.16" cy="16.14" r="0.57"/><circle class="cls-2" cx="10.73" cy="16.14" r="0.57"/><circle class="cls-2" cx="0.01" cy="19.71" r="0.57"/><circle class="cls-2" cx="3.59" cy="19.71" r="0.57"/><circle class="cls-2" cx="7.16" cy="19.71" r="0.57"/><circle class="cls-2" cx="10.73" cy="19.71" r="0.57"/><circle class="cls-2" cx="14.3" cy="1.85" r="0.57"/><circle class="cls-2" cx="17.88" cy="1.85" r="0.57"/><circle class="cls-2" cx="21.45" cy="1.85" r="0.57"/><circle class="cls-2" cx="25.02" cy="1.85" r="0.57"/><circle class="cls-2" cx="28.6" cy="1.85" r="0.57"/><circle class="cls-2" cx="14.3" cy="5.42" r="0.57"/><circle class="cls-2" cx="17.88" cy="5.42" r="0.57"/><circle class="cls-2" cx="21.45" cy="5.42" r="0.57"/><circle class="cls-2" cx="25.02" cy="5.42" r="0.57"/><circle class="cls-2" cx="28.6" cy="5.42" r="0.57"/><circle class="cls-2" cx="14.3" cy="8.99" r="0.57"/><circle class="cls-2" cx="17.88" cy="8.99" r="0.57"/><circle class="cls-2" cx="21.45" cy="8.99" r="0.57"/><circle class="cls-2" cx="25.02" cy="8.99" r="0.57"/><circle class="cls-2" cx="28.6" cy="8.99" r="0.57"/><circle class="cls-2" cx="14.3" cy="12.57" r="0.57"/><circle class="cls-2" cx="17.88" cy="12.57" r="0.57"/><circle class="cls-2" cx="21.45" cy="12.57" r="0.57"/><circle class="cls-2" cx="25.02" cy="12.57" r="0.57"/><circle class="cls-2" cx="28.6" cy="12.57" r="0.57"/><circle class="cls-2" cx="14.3" cy="16.14" r="0.57"/><circle class="cls-2" cx="17.88" cy="16.14" r="0.57"/><circle class="cls-2" cx="21.45" cy="16.14" r="0.57"/><circle class="cls-2" cx="25.02" cy="16.14" r="0.57"/><circle class="cls-2" cx="28.6" cy="16.14" r="0.57"/><circle class="cls-2" cx="14.3" cy="19.71" r="0.57"/><circle class="cls-2" cx="17.88" cy="19.71" r="0.57"/><circle class="cls-2" cx="21.45" cy="19.71" r="0.57"/><circle class="cls-2" cx="25.02" cy="19.71" r="0.57"/><circle class="cls-2" cx="28.6" cy="19.71" r="0.57"/><circle class="cls-2" cx="32.17" cy="1.85" r="0.57"/><circle class="cls-2" cx="35.74" cy="1.85" r="0.57"/><circle class="cls-2" cx="39.31" cy="1.85" r="0.57"/><circle class="cls-2" cx="42.89" cy="1.85" r="0.57"/><circle class="cls-2" cx="32.17" cy="5.42" r="0.57"/><circle class="cls-2" cx="35.74" cy="5.42" r="0.57"/><circle class="cls-2" cx="39.31" cy="5.42" r="0.57"/><circle class="cls-2" cx="42.89" cy="5.42" r="0.57"/><circle class="cls-2" cx="32.17" cy="8.99" r="0.57"/><circle class="cls-2" cx="35.74" cy="8.99" r="0.57"/><circle class="cls-2" cx="39.31" cy="8.99" r="0.57"/><circle class="cls-2" cx="42.89" cy="8.99" r="0.57"/><circle class="cls-2" cx="32.17" cy="12.57" r="0.57"/><circle class="cls-2" cx="35.74" cy="12.57" r="0.57"/><circle class="cls-2" cx="39.31" cy="12.57" r="0.57"/><circle class="cls-2" cx="42.89" cy="12.57" r="0.57"/><circle class="cls-2" cx="32.17" cy="16.14" r="0.57"/><circle class="cls-2" cx="35.74" cy="16.14" r="0.57"/><circle class="cls-2" cx="39.31" cy="16.14" r="0.57"/><circle class="cls-2" cx="42.89" cy="16.14" r="0.57"/><circle class="cls-2" cx="32.17" cy="19.71" r="0.57"/><circle class="cls-2" cx="35.74" cy="19.71" r="0.57"/><circle class="cls-2" cx="39.31" cy="19.71" r="0.57"/><circle class="cls-2" cx="42.89" cy="19.71" r="0.57"/><circle class="cls-2" cx="0.01" cy="23.29" r="0.57"/><circle class="cls-2" cx="3.59" cy="23.29" r="0.57"/><circle class="cls-2" cx="7.16" cy="23.29" r="0.57"/><circle class="cls-2" cx="10.73" cy="23.29" r="0.57"/><circle class="cls-2" cx="0.01" cy="26.86" r="0.57"/><circle class="cls-2" cx="3.59" cy="26.86" r="0.57"/><circle class="cls-2" cx="7.16" cy="26.86" r="0.57"/><circle class="cls-2" cx="10.73" cy="26.86" r="0.57"/><circle class="cls-2" cx="0.01" cy="30.43" r="0.57"/><circle class="cls-2" cx="3.59" cy="30.43" r="0.57"/><circle class="cls-2" cx="7.16" cy="30.43" r="0.57"/><circle class="cls-2" cx="10.73" cy="30.43" r="0.57"/><circle class="cls-2" cx="0.01" cy="34.01" r="0.57"/><circle class="cls-2" cx="3.59" cy="34.01" r="0.57"/><circle class="cls-2" cx="7.16" cy="34.01" r="0.57"/><circle class="cls-2" cx="10.73" cy="34.01" r="0.57"/><circle class="cls-2" cx="0.01" cy="37.58" r="0.57"/><circle class="cls-2" cx="3.59" cy="37.58" r="0.57"/><circle class="cls-2" cx="7.16" cy="37.58" r="0.57"/><circle class="cls-2" cx="10.73" cy="37.58" r="0.57"/><circle class="cls-2" cx="0.01" cy="41.15" r="0.57"/><circle class="cls-2" cx="3.59" cy="41.15" r="0.57"/><circle class="cls-2" cx="7.16" cy="41.15" r="0.57"/><circle class="cls-2" cx="10.73" cy="41.15" r="0.57"/><circle class="cls-2" cx="14.3" cy="23.29" r="0.57"/><circle class="cls-2" cx="17.88" cy="23.29" r="0.57"/><circle class="cls-2" cx="21.45" cy="23.29" r="0.57"/><circle class="cls-2" cx="25.02" cy="23.29" r="0.57"/><circle class="cls-2" cx="28.6" cy="23.29" r="0.57"/><circle class="cls-2" cx="14.3" cy="26.86" r="0.57"/><circle class="cls-2" cx="17.88" cy="26.86" r="0.57"/><circle class="cls-2" cx="21.45" cy="26.86" r="0.57"/><circle class="cls-2" cx="25.02" cy="26.86" r="0.57"/><circle class="cls-2" cx="28.6" cy="26.86" r="0.57"/><circle class="cls-2" cx="14.3" cy="30.43" r="0.57"/><circle class="cls-2" cx="17.88" cy="30.43" r="0.57"/><circle class="cls-2" cx="21.45" cy="30.43" r="0.57"/><circle class="cls-2" cx="25.02" cy="30.43" r="0.57"/><circle class="cls-2" cx="28.6" cy="30.43" r="0.57"/><circle class="cls-2" cx="14.3" cy="34.01" r="0.57"/><circle class="cls-2" cx="17.88" cy="34.01" r="0.57"/><circle class="cls-2" cx="21.45" cy="34.01" r="0.57"/><circle class="cls-2" cx="25.02" cy="34.01" r="0.57"/><circle class="cls-2" cx="28.6" cy="34.01" r="0.57"/><circle class="cls-2" cx="14.3" cy="37.58" r="0.57"/><circle class="cls-2" cx="17.88" cy="37.58" r="0.57"/><circle class="cls-2" cx="21.45" cy="37.58" r="0.57"/><circle class="cls-2" cx="25.02" cy="37.58" r="0.57"/><circle class="cls-2" cx="28.6" cy="37.58" r="0.57"/><circle class="cls-2" cx="14.3" cy="41.15" r="0.57"/><circle class="cls-2" cx="17.88" cy="41.15" r="0.57"/><circle class="cls-2" cx="21.45" cy="41.15" r="0.57"/><circle class="cls-2" cx="25.02" cy="41.15" r="0.57"/><circle class="cls-2" cx="28.6" cy="41.15" r="0.57"/><circle class="cls-2" cx="32.17" cy="23.29" r="0.57"/><circle class="cls-2" cx="35.74" cy="23.29" r="0.57"/><circle class="cls-2" cx="39.31" cy="23.29" r="0.57"/><circle class="cls-2" cx="42.89" cy="23.29" r="0.57"/><circle class="cls-2" cx="32.17" cy="26.86" r="0.57"/><circle class="cls-2" cx="35.74" cy="26.86" r="0.57"/><circle class="cls-2" cx="39.31" cy="26.86" r="0.57"/><circle class="cls-2" cx="42.89" cy="26.86" r="0.57"/><circle class="cls-2" cx="32.17" cy="30.43" r="0.57"/><circle class="cls-2" cx="35.74" cy="30.43" r="0.57"/><circle class="cls-2" cx="39.31" cy="30.43" r="0.57"/><circle class="cls-2" cx="42.89" cy="30.43" r="0.57"/><circle class="cls-2" cx="32.17" cy="34.01" r="0.57"/><circle class="cls-2" cx="35.74" cy="34.01" r="0.57"/><circle class="cls-2" cx="39.31" cy="34.01" r="0.57"/><circle class="cls-2" cx="42.89" cy="34.01" r="0.57"/><circle class="cls-2" cx="32.17" cy="37.58" r="0.57"/><circle class="cls-2" cx="35.74" cy="37.58" r="0.57"/><circle class="cls-2" cx="39.31" cy="37.58" r="0.57"/><circle class="cls-2" cx="42.89" cy="37.58" r="0.57"/><circle class="cls-2" cx="32.17" cy="41.15" r="0.57"/><circle class="cls-2" cx="35.74" cy="41.15" r="0.57"/><circle class="cls-2" cx="39.31" cy="41.15" r="0.57"/><circle class="cls-2" cx="42.89" cy="41.15" r="0.57"/><circle class="cls-2" cx="-0.01" cy="1.85" r="0.57"/><circle class="cls-2" cx="-0.01" cy="5.42" r="0.57"/><circle class="cls-2" cx="-0.01" cy="8.99" r="0.57"/><circle class="cls-2" cx="-0.01" cy="12.57" r="0.57"/><circle class="cls-2" cx="-0.01" cy="16.14" r="0.57"/><circle class="cls-2" cx="-0.01" cy="19.71" r="0.57"/><circle class="cls-2" cx="-0.01" cy="23.29" r="0.57"/><circle class="cls-2" cx="-0.01" cy="26.86" r="0.57"/><circle class="cls-2" cx="-0.01" cy="30.43" r="0.57"/><circle class="cls-2" cx="-0.01" cy="34.01" r="0.57"/><circle class="cls-2" cx="-0.01" cy="37.58" r="0.57"/><circle class="cls-2" cx="-0.01" cy="41.15" r="0.57"/><g class="cls-4"><circle class="cls-2" cx="-0.09" cy="1.85" r="0.57"/><circle class="cls-2" cx="-0.09" cy="5.42" r="0.57"/><circle class="cls-2" cx="-0.09" cy="8.99" r="0.57"/><circle class="cls-2" cx="-0.09" cy="12.57" r="0.57"/><circle class="cls-2" cx="-0.09" cy="16.14" r="0.57"/><circle class="cls-2" cx="-0.09" cy="19.71" r="0.57"/><circle class="cls-2" cx="-0.09" cy="23.29" r="0.57"/><circle class="cls-2" cx="-0.09" cy="26.86" r="0.57"/><circle class="cls-2" cx="-0.09" cy="30.43" r="0.57"/><circle class="cls-2" cx="-0.09" cy="34.01" r="0.57"/><circle class="cls-2" cx="-0.09" cy="37.58" r="0.57"/><circle class="cls-2" cx="-0.09" cy="41.15" r="0.57"/><circle class="cls-2" cx="-0.11" cy="1.85" r="0.57"/><circle class="cls-2" cx="-0.11" cy="5.42" r="0.57"/><circle class="cls-2" cx="-0.11" cy="8.99" r="0.57"/><circle class="cls-2" cx="-0.11" cy="12.57" r="0.57"/><circle class="cls-2" cx="-0.11" cy="16.14" r="0.57"/><circle class="cls-2" cx="-0.11" cy="19.71" r="0.57"/><circle class="cls-2" cx="-0.11" cy="23.29" r="0.57"/><circle class="cls-2" cx="-0.11" cy="26.86" r="0.57"/><circle class="cls-2" cx="-0.11" cy="30.43" r="0.57"/><circle class="cls-2" cx="-0.11" cy="34.01" r="0.57"/><circle class="cls-2" cx="-0.11" cy="37.58" r="0.57"/><circle class="cls-2" cx="-0.11" cy="41.15" r="0.57"/></g><circle class="cls-2" cx="0.01" cy="1.85" r="0.57"/><circle class="cls-2" cx="0.01" cy="5.42" r="0.57"/><circle class="cls-2" cx="0.01" cy="8.99" r="0.57"/><circle class="cls-2" cx="0.01" cy="12.57" r="0.57"/><circle class="cls-2" cx="0.01" cy="16.14" r="0.57"/><circle class="cls-2" cx="0.01" cy="19.71" r="0.57"/><circle class="cls-2" cx="0.01" cy="23.29" r="0.57"/><circle class="cls-2" cx="0.01" cy="26.86" r="0.57"/><circle class="cls-2" cx="0.01" cy="30.43" r="0.57"/><circle class="cls-2" cx="0.01" cy="34.01" r="0.57"/><circle class="cls-2" cx="0.01" cy="37.58" r="0.57"/><circle class="cls-2" cx="0.01" cy="41.15" r="0.57"/><circle class="cls-2" cx="-0.01" cy="1.85" r="0.57"/><circle class="cls-2" cx="-0.01" cy="5.42" r="0.57"/><circle class="cls-2" cx="-0.01" cy="8.99" r="0.57"/><circle class="cls-2" cx="-0.01" cy="12.57" r="0.57"/><circle class="cls-2" cx="-0.01" cy="16.14" r="0.57"/><circle class="cls-2" cx="-0.01" cy="19.71" r="0.57"/><circle class="cls-2" cx="-0.01" cy="23.29" r="0.57"/><circle class="cls-2" cx="-0.01" cy="26.86" r="0.57"/><circle class="cls-2" cx="-0.01" cy="30.43" r="0.57"/><circle class="cls-2" cx="-0.01" cy="34.01" r="0.57"/><circle class="cls-2" cx="-0.01" cy="37.58" r="0.57"/><circle class="cls-2" cx="-0.01" cy="41.15" r="0.57"/></pattern></defs><title>10-free-finance-icon</title><circle class="cls-5" cx="166.5" cy="179.54" r="62.33"/><path class="cls-5" d="M163.55,85.32a65.59,65.59,0,0,1-11,36.33,65.73,65.73,0,0,1-48.79,29.27q-3,.29-6.14.28a65.88,65.88,0,1,1,65.88-65.88Z"/><path class="cls-2" d="M164.19,85.32A66.53,66.53,0,1,1,36.13,59.84,66.5,66.5,0,0,1,164.19,85.32Zm-1.28,0a65.22,65.22,0,1,0-4.86,25A65.25,65.25,0,0,0,162.91,85.32Z"/><path class="cls-6" d="M94.16,127V116.81c-5.89-.11-11.88-1.93-15.43-4.47l2.43-6.81a27.3,27.3,0,0,0,14.53,4.37c7.21,0,12.09-4.16,12.09-10,0-5.59-4-9-11.48-12.09C85.94,83.79,79.54,79,79.54,70.18c0-8.43,6-14.82,15.23-16.35V43.67h6.4v9.86a27.85,27.85,0,0,1,13.21,3.55l-2.54,6.71A24.35,24.35,0,0,0,99,60.23c-7.82,0-10.77,4.67-10.77,8.84,0,5.18,3.76,7.82,12.6,11.58,10.46,4.26,15.74,9.44,15.74,18.48,0,8.13-5.58,15.64-16,17.27V127Z"/><path class="cls-2" d="M93.71,127.42c-.09-3.52-.12-7.1-.08-10.61l.52.53A33.36,33.36,0,0,1,86,116.08a24.8,24.8,0,0,1-7.52-3.41.41.41,0,0,1-.15-.47l2.48-6.79a.37.37,0,0,1,.47-.22l.07,0A26.89,26.89,0,0,0,93,109.43a19.46,19.46,0,0,0,6.19-.21,11.45,11.45,0,0,0,5.44-2.74,9.21,9.21,0,0,0,1.61-11.25,13,13,0,0,0-4.4-4.27,34.86,34.86,0,0,0-5.61-2.78,42.51,42.51,0,0,1-11.2-6,16.21,16.21,0,0,1-4.17-4.89,14.54,14.54,0,0,1-1.68-6.21,16.89,16.89,0,0,1,.87-6.38,15.86,15.86,0,0,1,3.3-5.54,19.88,19.88,0,0,1,11.32-5.8l-.4.48-.06-10.16a.54.54,0,0,1,.54-.54h0l6.4,0a.58.58,0,0,1,.58.58h0l.08,9.86-.63-.66a31.16,31.16,0,0,1,7,.92,26.89,26.89,0,0,1,6.58,2.61.77.77,0,0,1,.36,1h0l-2.47,6.72h0v0a.83.83,0,0,1-1.07.49l-.14-.07A25.77,25.77,0,0,0,106,62a23.61,23.61,0,0,0-5.91-1.08,15.13,15.13,0,0,0-5.89.69,7.94,7.94,0,0,0-5.26,9.29,7.89,7.89,0,0,0,3.36,4.61,34.4,34.4,0,0,0,5.28,3c1.85.88,3.73,1.66,5.66,2.49,3.78,1.74,7.56,3.87,10.34,7.2a15.83,15.83,0,0,1,3,5.67,19.82,19.82,0,0,1,.68,6.36,17.38,17.38,0,0,1-5.13,11.55,21.09,21.09,0,0,1-11.42,5.52h0l.71-.83L101.28,127v0a.71.71,0,0,1-.72.7C98.26,127.66,95.93,127.55,93.71,127.42Zm.91-.91c2-.13,4-.25,5.94-.26l-.71.71-.12-10.56a.81.81,0,0,1,.66-.82h.06a19.38,19.38,0,0,0,10.61-4.95,16,16,0,0,0,4.83-10.54,17.75,17.75,0,0,0-.62-5.9A14.3,14.3,0,0,0,112.51,89c-2.55-3.07-6.15-5.15-9.84-6.84S95,79,91.57,76.39a11.63,11.63,0,0,1-2.25-2.34,8.3,8.3,0,0,1-1.31-3,9.46,9.46,0,0,1,.89-6.35,9.13,9.13,0,0,1,4.9-4.15,16.87,16.87,0,0,1,6.32-.91,25.79,25.79,0,0,1,6.28.94,27,27,0,0,1,5.86,2.47l-1.22.43h0l2.6-6.68.35,1a25.58,25.58,0,0,0-6.18-2.58,29.78,29.78,0,0,0-6.66-1h0a.65.65,0,0,1-.63-.65l.08-9.86.58.58-6.4,0,.55-.55-.06,10.16h0a.47.47,0,0,1-.41.47A18.94,18.94,0,0,0,84,59.72,15.29,15.29,0,0,0,80,71a13.82,13.82,0,0,0,1.56,5.91,15.67,15.67,0,0,0,4,4.7,42.25,42.25,0,0,0,11,6,36.65,36.65,0,0,1,5.7,2.87,14,14,0,0,1,4.58,4.47,9.76,9.76,0,0,1,1.13,3,11,11,0,0,1,.09,3.24,9.28,9.28,0,0,1-2.92,5.69,12.1,12.1,0,0,1-5.72,2.9,20.19,20.19,0,0,1-6.39.24,28.28,28.28,0,0,1-12-4.22l.55-.19-2.4,6.82L79,112a23.61,23.61,0,0,0,7.28,3.19,32.78,32.78,0,0,0,7.93,1.07.53.53,0,0,1,.53.53h0C94.74,120.07,94.71,123.25,94.62,126.51Z"/><path class="cls-7" d="M94.16,127V116.81c-5.89-.11-11.88-1.93-15.43-4.47l2.43-6.81a27.3,27.3,0,0,0,14.53,4.37c7.21,0,12.09-4.16,12.09-10,0-5.59-4-9-11.48-12.09C85.94,83.79,79.54,79,79.54,70.18c0-8.43,6-14.82,15.23-16.35V43.67h6.4v9.86a27.85,27.85,0,0,1,13.21,3.55l-2.54,6.71A24.35,24.35,0,0,0,99,60.23c-7.82,0-10.77,4.67-10.77,8.84,0,5.18,3.76,7.82,12.6,11.58,10.46,4.26,15.74,9.44,15.74,18.48,0,8.13-5.58,15.64-16,17.27V127Z"/><path class="cls-2" d="M93.71,127.42c-.09-3.52-.12-7.1-.08-10.61l.52.53A33.36,33.36,0,0,1,86,116.08a24.8,24.8,0,0,1-7.52-3.41.41.41,0,0,1-.15-.47l2.48-6.79a.37.37,0,0,1,.47-.22l.07,0A26.89,26.89,0,0,0,93,109.43a19.46,19.46,0,0,0,6.19-.21,11.45,11.45,0,0,0,5.44-2.74,9.21,9.21,0,0,0,1.61-11.25,13,13,0,0,0-4.4-4.27,34.86,34.86,0,0,0-5.61-2.78,42.51,42.51,0,0,1-11.2-6,16.21,16.21,0,0,1-4.17-4.89,14.54,14.54,0,0,1-1.68-6.21,16.89,16.89,0,0,1,.87-6.38,15.86,15.86,0,0,1,3.3-5.54,19.88,19.88,0,0,1,11.32-5.8l-.4.48-.06-10.16a.54.54,0,0,1,.54-.54h0l6.4,0a.58.58,0,0,1,.58.58h0l.08,9.86-.63-.66a31.16,31.16,0,0,1,7,.92,26.89,26.89,0,0,1,6.58,2.61.77.77,0,0,1,.36,1h0l-2.47,6.72h0v0a.83.83,0,0,1-1.07.49l-.14-.07A25.77,25.77,0,0,0,106,62a23.61,23.61,0,0,0-5.91-1.08,15.13,15.13,0,0,0-5.89.69,7.94,7.94,0,0,0-5.26,9.29,7.89,7.89,0,0,0,3.36,4.61,34.4,34.4,0,0,0,5.28,3c1.85.88,3.73,1.66,5.66,2.49,3.78,1.74,7.56,3.87,10.34,7.2a15.83,15.83,0,0,1,3,5.67,19.82,19.82,0,0,1,.68,6.36,17.38,17.38,0,0,1-5.13,11.55,21.09,21.09,0,0,1-11.42,5.52h0l.71-.83L101.28,127v0a.71.71,0,0,1-.72.7C98.26,127.66,95.93,127.55,93.71,127.42Zm.91-.91c2-.13,4-.25,5.94-.26l-.71.71-.12-10.56a.81.81,0,0,1,.66-.82h.06a19.38,19.38,0,0,0,10.61-4.95,16,16,0,0,0,4.83-10.54,17.75,17.75,0,0,0-.62-5.9A14.3,14.3,0,0,0,112.51,89c-2.55-3.07-6.15-5.15-9.84-6.84S95,79,91.57,76.39a11.63,11.63,0,0,1-2.25-2.34,8.3,8.3,0,0,1-1.31-3,9.46,9.46,0,0,1,.89-6.35,9.13,9.13,0,0,1,4.9-4.15,16.87,16.87,0,0,1,6.32-.91,25.79,25.79,0,0,1,6.28.94,27,27,0,0,1,5.86,2.47l-1.22.43h0l2.6-6.68.35,1a25.58,25.58,0,0,0-6.18-2.58,29.78,29.78,0,0,0-6.66-1h0a.65.65,0,0,1-.63-.65l.08-9.86.58.58-6.4,0,.55-.55-.06,10.16h0a.47.47,0,0,1-.41.47A18.94,18.94,0,0,0,84,59.72,15.29,15.29,0,0,0,80,71a13.82,13.82,0,0,0,1.56,5.91,15.67,15.67,0,0,0,4,4.7,42.25,42.25,0,0,0,11,6,36.65,36.65,0,0,1,5.7,2.87,14,14,0,0,1,4.58,4.47,9.76,9.76,0,0,1,1.13,3,11,11,0,0,1,.09,3.24,9.28,9.28,0,0,1-2.92,5.69,12.1,12.1,0,0,1-5.72,2.9,20.19,20.19,0,0,1-6.39.24,28.28,28.28,0,0,1-12-4.22l.55-.19-2.4,6.82L79,112a23.61,23.61,0,0,0,7.28,3.19,32.78,32.78,0,0,0,7.93,1.07.53.53,0,0,1,.53.53h0C94.74,120.07,94.71,123.25,94.62,126.51Z"/><path class="cls-8" d="M174,76.44A76.79,76.79,0,0,0,20.88,85.33a75.12,75.12,0,0,0,.56,9.29,76.79,76.79,0,0,0,76.22,67.49l2.28,0a77.9,77.9,0,0,0,10.43-1A76.86,76.86,0,0,0,166.21,120a75.49,75.49,0,0,0,4.09-9.65,76.64,76.64,0,0,0,3.61-15.72,75.12,75.12,0,0,0,.56-9.29A79.18,79.18,0,0,0,174,76.44Zm-15.5,34.26a65.32,65.32,0,0,1-5.86,11,65.73,65.73,0,0,1-48.79,29.27q-3,.29-6.14.28a65.89,65.89,0,1,1,60.79-40.5Z"/><path class="cls-2" d="M173.32,76.51a76.2,76.2,0,0,0-54.75-64.75A77.34,77.34,0,0,0,88.83,9.33a76.37,76.37,0,0,0-28.38,9.22A77.47,77.47,0,0,0,37.82,37.94a76.13,76.13,0,0,0,39.1,120.38,76.78,76.78,0,0,0,44-.86,72.26,72.26,0,0,0,13.64-5.9,76.07,76.07,0,0,0,38.72-75Zm1.28-.15a77.47,77.47,0,0,1-39.08,76.85,74.12,74.12,0,0,1-14,6.1,78.12,78.12,0,0,1-14.89,3.29,79.09,79.09,0,0,1-30.23-2.52A77.4,77.4,0,1,1,174.6,76.36Z"/><path class="cls-2" d="M159.05,111a66.59,66.59,0,0,1-122.74-.42,66.44,66.44,0,0,1,0-50.84A66.52,66.52,0,1,1,159.05,111Zm-1.18-.5a65.24,65.24,0,1,0-120.7-.28,65.19,65.19,0,0,0,120.7.28Z"/><path class="cls-7" d="M174,76.44A76.79,76.79,0,0,0,20.88,85.33a75.12,75.12,0,0,0,.56,9.29,76.79,76.79,0,0,0,76.22,67.49l2.28,0a77.9,77.9,0,0,0,10.43-1A76.86,76.86,0,0,0,166.21,120a75.49,75.49,0,0,0,4.09-9.65,76.64,76.64,0,0,0,3.61-15.72,75.12,75.12,0,0,0,.56-9.29A79.18,79.18,0,0,0,174,76.44Zm-15.5,34.26a65.32,65.32,0,0,1-5.86,11,65.73,65.73,0,0,1-48.79,29.27q-3,.29-6.14.28a65.89,65.89,0,1,1,60.79-40.5Z"/><path class="cls-2" d="M173.32,76.51a76.2,76.2,0,0,0-54.75-64.75A77.34,77.34,0,0,0,88.83,9.33a76.37,76.37,0,0,0-28.38,9.22A77.47,77.47,0,0,0,37.82,37.94a76.13,76.13,0,0,0,39.1,120.38,76.78,76.78,0,0,0,44-.86,72.26,72.26,0,0,0,13.64-5.9,76.07,76.07,0,0,0,38.72-75Zm1.28-.15a77.47,77.47,0,0,1-39.08,76.85,74.12,74.12,0,0,1-14,6.1,78.12,78.12,0,0,1-14.89,3.29,79.09,79.09,0,0,1-30.23-2.52A77.4,77.4,0,1,1,174.6,76.36Z"/><path class="cls-2" d="M159.05,111a66.59,66.59,0,0,1-122.74-.42,66.44,66.44,0,0,1,0-50.84A66.52,66.52,0,1,1,159.05,111Zm-1.18-.5a65.24,65.24,0,1,0-120.7-.28,65.19,65.19,0,0,0,120.7.28Z"/><path class="cls-9" d="M172.21,214.08c-8.5,0-16.15-3.25-21.29-9.32-4-4.41-6.6-10.49-7.55-18h-6.49v-5.25h6v-1.56c0-1.57.1-3.14.2-4.61h-6.17v-5.25h6.91c1.26-7.34,4.3-13.42,8.6-17.72a27.44,27.44,0,0,1,20.65-8.7A30,30,0,0,1,187.1,147L185,153.91A24.35,24.35,0,0,0,173.25,151a18.86,18.86,0,0,0-13.95,5.66c-3,3.15-5.13,7.87-6.17,13.42h29.25v5.25h-30.2a29.44,29.44,0,0,0-.21,4.4v1.77h30.41v5.25H152.71c.83,6.08,2.82,10.59,5.76,13.74a19.55,19.55,0,0,0,14.78,6.07A26,26,0,0,0,186,203.08l1.78,6.7A28.51,28.51,0,0,1,172.21,214.08Z"/><path class="cls-2" d="M172.21,214.72a31.26,31.26,0,0,1-11-2,26.43,26.43,0,0,1-9.31-6.07,32.55,32.55,0,0,1-3.56-4.29,30,30,0,0,1-2.66-4.89A38.93,38.93,0,0,1,143,186.78l.42.37-6.49,0a.38.38,0,0,1-.39-.39v-5.25a.39.39,0,0,1,.38-.38h0l6,0-.36.36v-1.54l.07-1.55.14-3.11.35.38h-6.17a.34.34,0,0,1-.34-.34h0v-5.25a.33.33,0,0,1,.33-.33l6.91,0-.31.26a35.79,35.79,0,0,1,5.16-13.49,31.08,31.08,0,0,1,4.68-5.55,27.26,27.26,0,0,1,5.86-4.31,29,29,0,0,1,14-3.41,30.43,30.43,0,0,1,14.08,3.36.45.45,0,0,1,.22.52L185.44,154a.47.47,0,0,1-.58.32l-.09,0h0a23.75,23.75,0,0,0-10-2.78,20,20,0,0,0-10.11,1.87,17.64,17.64,0,0,0-7.46,7,30.3,30.3,0,0,0-3.47,9.81l-.61-.74,29.25-.11a.72.72,0,0,1,.72.73h0l0,5.25a.74.74,0,0,1-.74.74h0l-30.2.11.84-.72a47.83,47.83,0,0,0-.18,6l-.87-.87,30.41-.11a1,1,0,0,1,1,1h0v5.25a1,1,0,0,1-1,1h0l-29.67-.06.92-1.06a27.29,27.29,0,0,0,3.3,10.28,17.65,17.65,0,0,0,7.83,7.05,21.37,21.37,0,0,0,10.56,1.69,25.2,25.2,0,0,0,10.32-3.19h0a.76.76,0,0,1,1,.27.73.73,0,0,1,.07.19l1.75,6.72h0a.7.7,0,0,1-.3.77,25.83,25.83,0,0,1-7.73,3.33A33.13,33.13,0,0,1,172.21,214.72Zm0-1.28a32.3,32.3,0,0,0,7.95-1.05,24.53,24.53,0,0,0,7.26-3.21l-.3.79-1.82-6.7,1.13.46a26.81,26.81,0,0,1-11,3.52A23.14,23.14,0,0,1,164,205.53a19.3,19.3,0,0,1-8.67-7.71,29.12,29.12,0,0,1-3.59-11,.93.93,0,0,1,.79-1h.14l29.67-.06-1,1v-5.25l1,1L152,182.35h0a.86.86,0,0,1-.86-.86v0a46.55,46.55,0,0,1,.24-6.3.85.85,0,0,1,.85-.73l30.2.11-.75.75,0-5.25.73.73-29.25-.11h0a.62.62,0,0,1-.62-.62s0-.08,0-.12a31.57,31.57,0,0,1,3.7-10.17,18.73,18.73,0,0,1,8-7.34,21.07,21.07,0,0,1,10.65-1.91,24.67,24.67,0,0,1,10.39,3l-.69.27,2.13-6.91.22.52A29.52,29.52,0,0,0,173.21,144a28.08,28.08,0,0,0-13.7,3.22,27.12,27.12,0,0,0-5.76,4.17,30.66,30.66,0,0,0-4.63,5.41,34.88,34.88,0,0,0-5,13.27.3.3,0,0,1-.31.26l-6.91,0,.33-.33v5.25l-.34-.34,6.17,0a.36.36,0,0,1,.36.36h0l-.13,3.07-.06,1.54v1.54a.36.36,0,0,1-.37.37l-6,0,.38-.39v5.25l-.39-.39,6.49,0a.42.42,0,0,1,.42.37,37.76,37.76,0,0,0,2.82,10.42,28.37,28.37,0,0,0,2.62,4.7,30.89,30.89,0,0,0,3.48,4.11,25.1,25.1,0,0,0,9,5.72A30.23,30.23,0,0,0,172.21,213.44Z"/><path class="cls-10" d="M172.21,214.08c-8.5,0-16.15-3.25-21.29-9.32-4-4.41-6.6-10.49-7.55-18h-6.49v-5.25h6v-1.56c0-1.57.1-3.14.2-4.61h-6.17v-5.25h6.91c1.26-7.34,4.3-13.42,8.6-17.72a27.44,27.44,0,0,1,20.65-8.7A30,30,0,0,1,187.1,147L185,153.91A24.35,24.35,0,0,0,173.25,151a18.86,18.86,0,0,0-13.95,5.66c-3,3.15-5.13,7.87-6.17,13.42h29.25v5.25h-30.2a29.44,29.44,0,0,0-.21,4.4v1.77h30.41v5.25H152.71c.83,6.08,2.82,10.59,5.76,13.74a19.55,19.55,0,0,0,14.78,6.07A26,26,0,0,0,186,203.08l1.78,6.7A28.51,28.51,0,0,1,172.21,214.08Z"/><path class="cls-2" d="M172.21,214.72a31.26,31.26,0,0,1-11-2,26.43,26.43,0,0,1-9.31-6.07,32.55,32.55,0,0,1-3.56-4.29,30,30,0,0,1-2.66-4.89A38.93,38.93,0,0,1,143,186.78l.42.37-6.49,0a.38.38,0,0,1-.39-.39v-5.25a.39.39,0,0,1,.38-.38l6,0-.36.36v-1.54l.07-1.55.14-3.11.35.38h-6.17a.34.34,0,0,1-.34-.34h0v-5.25a.33.33,0,0,1,.33-.33h0l6.91,0-.31.26a35.79,35.79,0,0,1,5.16-13.49,31.08,31.08,0,0,1,4.68-5.55,27.26,27.26,0,0,1,5.86-4.31,29,29,0,0,1,14-3.41,30.43,30.43,0,0,1,14.08,3.36.45.45,0,0,1,.22.52L185.44,154a.47.47,0,0,1-.58.32l-.09,0h0a23.75,23.75,0,0,0-10-2.78,20,20,0,0,0-10.11,1.87,17.64,17.64,0,0,0-7.46,7,30.3,30.3,0,0,0-3.47,9.81l-.61-.74,29.25-.11a.72.72,0,0,1,.72.73h0l0,5.25a.74.74,0,0,1-.74.74h0l-30.2.11.84-.72a47.83,47.83,0,0,0-.18,6l-.87-.87,30.41-.11a1,1,0,0,1,1,1h0v5.25a1,1,0,0,1-1,1h0l-29.67-.06.92-1.06a27.29,27.29,0,0,0,3.3,10.28,17.65,17.65,0,0,0,7.83,7.05,21.37,21.37,0,0,0,10.56,1.69,25.2,25.2,0,0,0,10.32-3.19h0a.76.76,0,0,1,1,.27.73.73,0,0,1,.07.19l1.75,6.72h0a.7.7,0,0,1-.3.77,25.83,25.83,0,0,1-7.73,3.33A33.13,33.13,0,0,1,172.21,214.72Zm0-1.28a32.3,32.3,0,0,0,7.95-1.05,24.53,24.53,0,0,0,7.26-3.21l-.3.79-1.82-6.7,1.13.46a26.81,26.81,0,0,1-11,3.52A23.14,23.14,0,0,1,164,205.53a19.3,19.3,0,0,1-8.67-7.71,29.12,29.12,0,0,1-3.59-11,.93.93,0,0,1,.79-1h.14l29.67-.06-1,1v-5.25l1,1L152,182.35h0a.86.86,0,0,1-.86-.86v0a46.55,46.55,0,0,1,.24-6.3.85.85,0,0,1,.85-.73l30.2.11-.75.75,0-5.25.73.73-29.25-.11h0a.62.62,0,0,1-.62-.62s0-.08,0-.12a31.57,31.57,0,0,1,3.7-10.17,18.73,18.73,0,0,1,8-7.34,21.07,21.07,0,0,1,10.65-1.91,24.67,24.67,0,0,1,10.39,3l-.69.27,2.13-6.91.22.52A29.52,29.52,0,0,0,173.21,144a28.08,28.08,0,0,0-13.7,3.22,27.12,27.12,0,0,0-5.76,4.17,30.66,30.66,0,0,0-4.63,5.41,34.88,34.88,0,0,0-5,13.27.3.3,0,0,1-.31.26l-6.91,0,.33-.33v5.25l-.34-.34,6.17,0a.36.36,0,0,1,.36.36h0l-.13,3.07-.06,1.54v1.54a.36.36,0,0,1-.37.37l-6,0,.38-.39v5.25l-.39-.39,6.49,0a.42.42,0,0,1,.42.37,37.76,37.76,0,0,0,2.82,10.42,28.37,28.37,0,0,0,2.62,4.7,30.89,30.89,0,0,0,3.48,4.11,25.1,25.1,0,0,0,9,5.72A30.23,30.23,0,0,0,172.21,213.44Z"/><g class="cls-11"><path class="cls-2" d="M182.38,178.51V175.3h-30.2a29.44,29.44,0,0,0-.21,4.4v1.77h0a21.59,21.59,0,0,1,.21-3Z"/><path class="cls-2" d="M182.38,186.72H152.71c.15,1.13.36,2.19.59,3.21h29.08Z"/><path class="cls-2" d="M173.25,151a18.86,18.86,0,0,0-13.95,5.66c-3,3.15-5.13,7.87-6.17,13.42h.76a24,24,0,0,1,5.41-10.21,18.86,18.86,0,0,1,13.95-5.66A24.35,24.35,0,0,1,185,157.12l2.11-6.92-.85-.42L185,153.91A24.35,24.35,0,0,0,173.25,151Z"/><path class="cls-2" d="M172.21,214.08c-8.5,0-16.15-3.25-21.29-9.32-4-4.41-6.6-10.49-7.55-18h-6.49v3.21h6.49c.95,7.55,3.57,13.64,7.55,18,5.14,6.07,12.79,9.32,21.29,9.32a28.51,28.51,0,0,0,15.61-4.3l-.73-2.75A29.06,29.06,0,0,1,172.21,214.08Z"/><path class="cls-2" d="M143.05,175.3h-6.17v3.21h6C142.92,177.41,143,176.33,143.05,175.3Z"/></g><path class="cls-12" d="M235.12,178.87a67.3,67.3,0,0,1-.5,8.31,68.63,68.63,0,0,1-136.24,0,65.4,65.4,0,0,1-.51-8.31,69.83,69.83,0,0,1,.45-8,67.85,67.85,0,0,1,1.62-8.84,77.9,77.9,0,0,0,10.43-1A58.88,58.88,0,1,0,166.49,120h-.28a75.44,75.44,0,0,0,4.08-9.65,68.61,68.61,0,0,1,64.37,60.58A69.83,69.83,0,0,1,235.12,178.87Z"/><path class="cls-2" d="M235.77,178.87a68.23,68.23,0,0,1-6.25,28.41,68.8,68.8,0,0,1-42.64,37.47,67.86,67.86,0,0,1-28.88,2.5,70,70,0,0,1-27.37-9.52,71.34,71.34,0,0,1-21-20,67,67,0,0,1-11-26.8,62.67,62.67,0,0,1-1.13-14.53,67.9,67.9,0,0,1,2-14.46.45.45,0,0,1,.41-.33,76.82,76.82,0,0,0,10.37-1,.45.45,0,0,1,.53.37.53.53,0,0,1,0,.22,58.26,58.26,0,1,0,89.45-29.33,57.75,57.75,0,0,0-34-10.95,1,1,0,0,1-.94-.93,1,1,0,0,1,.1-.43h0a75.22,75.22,0,0,0,4-9.53.92.92,0,0,1,.92-.62,69.22,69.22,0,0,1,25.39,6.41,70.31,70.31,0,0,1,21.17,15.35,69.47,69.47,0,0,1,14,22l1.08,3.11.54,1.55a10.52,10.52,0,0,1,.47,1.57l.8,3.18a26.84,26.84,0,0,1,.7,3.2l.52,3.25c.17,1.08.34,2.16.42,3.25C235.67,174.49,235.77,176.68,235.77,178.87Zm-1.29,0q0-3.23-.33-6.43a31.35,31.35,0,0,0-.44-3.19l-.52-3.17a25.88,25.88,0,0,0-.7-3.14l-.8-3.11a11.93,11.93,0,0,0-.48-1.54l-.54-1.51-1.08-3a67.36,67.36,0,0,0-13.86-21.46,68.06,68.06,0,0,0-45.49-21l.92-.62a76.76,76.76,0,0,1-4.11,9.77l-.84-1.36a59.91,59.91,0,1,1-56.28,41.88l.52.59a78.56,78.56,0,0,1-10.49,1l.41-.33a67.3,67.3,0,0,0-2.05,14.26,61.88,61.88,0,0,0,1.05,14.38,66.32,66.32,0,0,0,10.79,26.58,67.54,67.54,0,0,0,47.93,29.15A67.18,67.18,0,0,0,186.65,244a67.84,67.84,0,0,0,41.86-37.2A66.85,66.85,0,0,0,234.48,178.87Z"/><path class="cls-10" d="M235.12,178.87a67.3,67.3,0,0,1-.5,8.31,68.63,68.63,0,0,1-136.24,0,65.4,65.4,0,0,1-.51-8.31,69.83,69.83,0,0,1,.45-8c.09-.8.2-1.6.32-2.39a65.73,65.73,0,0,1,1.3-6.45c.88,0,1.77-.07,2.64-.12s1.75-.13,2.62-.21c1.74-.17,3.46-.4,5.17-.68a58.88,58.88,0,1,0,58.71-41c-.86,0-1.72-.06-2.59-.06h-.28q.89-1.74,1.68-3.54,1.34-3,2.4-6.11h0c.62,0,1.25.08,1.87.13a68.61,68.61,0,0,1,62.49,60.45A69.83,69.83,0,0,1,235.12,178.87Z"/><path class="cls-2" d="M235.76,178.87a68.09,68.09,0,0,1-6.24,28.41,68.88,68.88,0,0,1-42.64,37.47A67.87,67.87,0,0,1,158,247.24a69.8,69.8,0,0,1-27.37-9.52,71.5,71.5,0,0,1-21-20,66.85,66.85,0,0,1-11-26.79,62.17,62.17,0,0,1-1.13-14.54,68.45,68.45,0,0,1,2-14.45.43.43,0,0,1,.4-.33h0l2.6-.12,2.6-.22,5.17-.69h0a.46.46,0,0,1,.5.6,58.21,58.21,0,0,0,111,35.27,62.56,62.56,0,0,0,2.06-8.86,61,61,0,0,0,.63-9.06,60.21,60.21,0,0,0-3-17.87,55,55,0,0,0-8.36-16,60.21,60.21,0,0,0-12.83-12.77,58.69,58.69,0,0,0-34-11,.94.94,0,0,1-.94-.93.9.9,0,0,1,.09-.4l0,0,1.11-2.33.55-1.17.48-1.21,1.9-4.81,0-.09a.86.86,0,0,1,.84-.54c1.16.07,2.24.15,3.33.31l3.26.42c.55.08,1.1.13,1.64.22l1.6.36,3.22.7a30,30,0,0,1,3.17.9l3.14,1c2,.77,4.07,1.63,6.09,2.49a70.31,70.31,0,0,1,35.2,37.42c.71,2.07,1.47,4.13,2.1,6.22l.79,3.19a29,29,0,0,1,.71,3.2l.5,3.24c.18,1.08.35,2.16.43,3.25Q235.77,175.58,235.76,178.87Zm-1.28,0c0-2.15-.12-4.3-.33-6.43-.08-1.07-.26-2.13-.44-3.19l-.52-3.17a27.92,27.92,0,0,0-.7-3.14l-.8-3.12c-.63-2-1.39-4-2.09-6.08A68.85,68.85,0,0,0,195,117.39c-2-.82-3.95-1.65-5.95-2.4L186,114a30.1,30.1,0,0,0-3.09-.86l-3.13-.68-1.57-.34c-.52-.09-1.06-.14-1.59-.21-2.1-.24-4.27-.61-6.32-.69l.87-.63-1.93,5-.48,1.23-.57,1.2-1.14,2.4-.83-1.36a43,43,0,0,1,4.68.22c1.56.17,3.13.23,4.67.48l4.61.89c1.53.34,3,.85,4.52,1.27a62.13,62.13,0,0,1,16.72,8.38,60.16,60.16,0,0,1,13.27,13.19,57.28,57.28,0,0,1,8.57,16.62,62.13,62.13,0,0,1,3,18.45,63.51,63.51,0,0,1-.69,9.34,64.65,64.65,0,0,1-2.16,9.12,59.77,59.77,0,0,1-56.56,41.41,59.45,59.45,0,0,1-56.92-77.49l.51.59-5.23.68-2.62.2-2.64.11.41-.33a68.69,68.69,0,0,0-2,14.27,61.92,61.92,0,0,0,1.05,14.38,66.46,66.46,0,0,0,10.78,26.57,67.45,67.45,0,0,0,47.93,29.15A67.06,67.06,0,0,0,186.65,244a67.79,67.79,0,0,0,41.86-37.19A67,67,0,0,0,234.48,178.87Z"/><g class="cls-11"><path class="cls-2" d="M88.27,69.07a9.52,9.52,0,0,0,.15,1.64c.69-3.67,3.8-7.22,10.62-7.22A24.37,24.37,0,0,1,111.84,67l2.54-6.7c-.33-.19-.68-.37-1-.55l-1.51,4A24.35,24.35,0,0,0,99,60.23C91.22,60.23,88.27,64.9,88.27,69.07Z"/><path class="cls-2" d="M96.3,91.12c6.73,2.72,10.6,5.78,11.34,10.4a10.07,10.07,0,0,0,.14-1.57c0-5.59-4-9-11.48-12.09-9.7-3.81-15.93-8.23-16.68-16-.05.53-.08,1.07-.08,1.62C79.54,82.28,85.94,87.05,96.3,91.12Z"/><path class="cls-2" d="M100.56,116.4v3.26c10.47-1.63,16-9.14,16-17.27,0-.59,0-1.16-.07-1.71C115.88,108.19,110.36,114.88,100.56,116.4Z"/><rect class="cls-2" x="94.16" y="126.96" width="6.4" height="3.26"/><path class="cls-2" d="M94.16,116.81A30.38,30.38,0,0,1,79.67,113l-.94,2.64c3.55,2.53,9.54,4.36,15.43,4.46Z"/></g><g class="cls-11"><path class="cls-2" d="M97.67,19.44A66,66,0,0,0,31.78,85.32c0,1.07,0,2.14.09,3.21a65.88,65.88,0,0,1,131.6,0c.05-1.07.08-2.15.08-3.23A66,66,0,0,0,97.67,19.44Z"/><path class="cls-2" d="M174.47,91.75a75,75,0,0,1-.56,9.29,76.87,76.87,0,0,1-1.74,9.43q-.81,3.21-1.87,6.3c-.38,1.11-.79,2.2-1.22,3.28-.86,2.17-1.82,4.3-2.87,6.37a76.86,76.86,0,0,1-55.84,41.07l-1.7.26a73.93,73.93,0,0,1-8.73.75c-.43,0-.87,0-1.3,0a65.73,65.73,0,0,1,1.3-6.45c.88,0,1.77-.07,2.64-.12s1.75-.12,2.62-.21c1.74-.17,3.46-.4,5.17-.68A76.87,76.87,0,0,0,166.21,120q.89-1.74,1.68-3.54c.89-2,1.7-4,2.41-6.11a76.49,76.49,0,0,0,3.61-15.72c.25-2,.4-4,.48-6C174.44,89.63,174.47,90.69,174.47,91.75Z"/></g><path class="cls-2" d="M164.19,85.32A66.53,66.53,0,1,1,36.13,59.84,66.5,66.5,0,0,1,164.19,85.32Zm-1.28,0a65.22,65.22,0,1,0-4.86,25A65.25,65.25,0,0,0,162.91,85.32Z"/><path class="cls-2" d="M150.94,85.32a53.66,53.66,0,0,1-32.67,49.73,54.13,54.13,0,0,1-20.6,4.31,1,1,0,1,1,0-2h0a52.52,52.52,0,0,0,52.81-52,.23.23,0,0,1,.23-.23A.23.23,0,0,1,150.94,85.32Z"/><path class="cls-2" d="M44.4,85.32a53.74,53.74,0,0,1,53.27-54,1,1,0,1,1,0,2h0a52.1,52.1,0,0,0-20,3.79A52.64,52.64,0,0,0,44.85,85.32a.22.22,0,0,1-.22.22A.22.22,0,0,1,44.4,85.32Z"/><path class="cls-2" d="M214.12,178.86a48,48,0,0,1-29.18,44.52,48.44,48.44,0,0,1-18.45,3.88,1,1,0,1,1,0-2h0a46.79,46.79,0,0,0,43.39-28.43,47.17,47.17,0,0,0,3.79-18,.23.23,0,0,1,.23-.23A.23.23,0,0,1,214.12,178.86Z"/></svg>